<svg xmlns="http://www.w3.org/2000/svg" width="33.38" height="47.979" viewBox="0 0 33.38 47.979">
  <g id="certificates" transform="translate(0)">
    <g id="Group_2017" data-name="Group 2017" transform="translate(0)">
      <path id="Path_4955" data-name="Path 4955" d="M-3258.85,3335.461a12.638,12.638,0,0,0-12.623,12.623,12.639,12.639,0,0,0,12.623,12.626,12.638,12.638,0,0,0,12.623-12.626A12.638,12.638,0,0,0-3258.85,3335.461Zm0,23.7a11.087,11.087,0,0,1-11.072-11.075,11.084,11.084,0,0,1,11.072-11.072,11.087,11.087,0,0,1,11.075,11.072A11.089,11.089,0,0,1-3258.85,3359.159Zm0-23.7a12.638,12.638,0,0,0-12.623,12.623,12.639,12.639,0,0,0,12.623,12.626,12.638,12.638,0,0,0,12.623-12.626A12.638,12.638,0,0,0-3258.85,3335.461Zm0,23.7a11.087,11.087,0,0,1-11.072-11.075,11.084,11.084,0,0,1,11.072-11.072,11.087,11.087,0,0,1,11.075,11.072A11.089,11.089,0,0,1-3258.85,3359.159Zm0-23.7a12.638,12.638,0,0,0-12.623,12.623,12.639,12.639,0,0,0,12.623,12.626,12.638,12.638,0,0,0,12.623-12.626A12.638,12.638,0,0,0-3258.85,3335.461Zm0,23.7a11.087,11.087,0,0,1-11.072-11.075,11.084,11.084,0,0,1,11.072-11.072,11.087,11.087,0,0,1,11.075,11.072A11.089,11.089,0,0,1-3258.85,3359.159Zm0-23.7a12.638,12.638,0,0,0-12.623,12.623,12.639,12.639,0,0,0,12.623,12.626,12.638,12.638,0,0,0,12.623-12.626A12.638,12.638,0,0,0-3258.85,3335.461Zm0,23.7a11.087,11.087,0,0,1-11.072-11.075,11.084,11.084,0,0,1,11.072-11.072,11.087,11.087,0,0,1,11.075,11.072A11.089,11.089,0,0,1-3258.85,3359.159Zm0-23.7a12.638,12.638,0,0,0-12.623,12.623,12.639,12.639,0,0,0,12.623,12.626,12.638,12.638,0,0,0,12.623-12.626A12.638,12.638,0,0,0-3258.85,3335.461Zm0,23.7a11.087,11.087,0,0,1-11.072-11.075,11.084,11.084,0,0,1,11.072-11.072,11.087,11.087,0,0,1,11.075,11.072A11.089,11.089,0,0,1-3258.85,3359.159Z" transform="translate(3275.54 -3331.394)" fill="#fff"/>
      <path id="Path_4956" data-name="Path 4956" d="M-3268.393,3321.851a16.708,16.708,0,0,0-16.69,16.69,16.661,16.661,0,0,0,5.7,12.552,16.615,16.615,0,0,0,10.968,4.142h.024c.083,0,.164,0,.248,0a16.611,16.611,0,0,0,10.74-4.136,16.656,16.656,0,0,0,5.7-12.555A16.707,16.707,0,0,0-3268.393,3321.851Zm0,31.833a15.1,15.1,0,0,1-5.221-.927l-.326-.125a15.165,15.165,0,0,1-9.6-14.091,15.159,15.159,0,0,1,15.143-15.139,15.158,15.158,0,0,1,15.142,15.139A15.159,15.159,0,0,1-3268.393,3353.684Z" transform="translate(3285.083 -3321.851)" fill="#fff"/>
    </g>
    <g id="Group_2018" data-name="Group 2018" transform="translate(4.067 4.067)">
      <path id="Path_4957" data-name="Path 4957" d="M-3258.85,3335.461a12.638,12.638,0,0,0-12.623,12.623,12.639,12.639,0,0,0,12.623,12.626,12.638,12.638,0,0,0,12.623-12.626A12.638,12.638,0,0,0-3258.85,3335.461Zm0,23.7a11.087,11.087,0,0,1-11.072-11.075,11.084,11.084,0,0,1,11.072-11.072,11.087,11.087,0,0,1,11.075,11.072A11.089,11.089,0,0,1-3258.85,3359.159Z" transform="translate(3271.473 -3335.461)" fill="#fff"/>
    </g>
    <g id="Group_2019" data-name="Group 2019" transform="translate(0.923 29.242)">
      <path id="Path_4958" data-name="Path 4958" d="M-3266.25,3423.843l-4.958,14.6-3.846-7.537-6.939,3.541,4.775-14.742A16.614,16.614,0,0,0-3266.25,3423.843Z" transform="translate(3281.993 -3419.701)" fill="#fff"/>
    </g>
    <g id="Group_2020" data-name="Group 2020" transform="translate(16.938 29.245)">
      <path id="Path_4959" data-name="Path 4959" d="M-3212.887,3434.45l-6.936-3.541-3.849,7.537-4.731-14.6a16.613,16.613,0,0,0,10.74-4.136Z" transform="translate(3228.403 -3419.711)" fill="#fff"/>
    </g>
    <g id="Group_2021" data-name="Group 2021" transform="translate(9.192 9.162)">
      <path id="Path_4960" data-name="Path 4960" d="M-3246.826,3352.509l2.808,4.018,4.689,1.429-2.954,3.912.09,4.9-4.633-1.6-4.634,1.6.09-4.9-2.954-3.912,4.689-1.429Z" transform="translate(3254.324 -3352.509)" fill="#fff"/>
    </g>
  </g>
</svg>
