<svg id="condition" xmlns="http://www.w3.org/2000/svg" width="35.55" height="46.12" viewBox="0 0 35.55 46.12">
  <g id="Group_2006" data-name="Group 2006" transform="translate(0 0)">
    <path id="Path_4947" data-name="Path 4947" d="M-3854.11,3357.731v-29.66h-30.853V3371.2h20.258a8.686,8.686,0,0,0,6.572,2.994,8.721,8.721,0,0,0,8.72-8.723A8.709,8.709,0,0,0-3854.11,3357.731Zm-12.743,7.737a8.677,8.677,0,0,0,1.063,4.178h-17.623v-40.024h27.75V3357.1a8.763,8.763,0,0,0-2.471-.355A8.722,8.722,0,0,0-3866.853,3365.468Zm6.75,4.091-2.6-2.6,1.1-1.1,1.5,1.5,5.439-5.439,1.1,1.1Z" transform="translate(3884.963 -3328.071)" fill="#3c2a4a"/>
  </g>
  <g id="Group_2007" data-name="Group 2007" transform="translate(6.959 8.419)">
    <rect id="Rectangle_2657" data-name="Rectangle 2657" width="16.935" height="1.551" transform="translate(0 0)" fill="#3c2a4a"/>
  </g>
  <g id="Group_2008" data-name="Group 2008" transform="translate(6.959 15.367)">
    <rect id="Rectangle_2658" data-name="Rectangle 2658" width="16.935" height="1.551" transform="translate(0)" fill="#3c2a4a"/>
  </g>
  <g id="Group_2009" data-name="Group 2009" transform="translate(6.959 22.314)">
    <rect id="Rectangle_2659" data-name="Rectangle 2659" width="16.935" height="1.551" transform="translate(0 0)" fill="#3c2a4a"/>
  </g>
  <g id="Group_2010" data-name="Group 2010" transform="translate(6.959 29.262)">
    <rect id="Rectangle_2660" data-name="Rectangle 2660" width="5.762" height="1.551" transform="translate(0 0)" fill="#3c2a4a"/>
  </g>
</svg>
