<svg xmlns="http://www.w3.org/2000/svg" width="44.38" height="44.498" viewBox="0 0 44.38 44.498">
  <g id="Goals" transform="translate(0)">
    <g id="Group_2011" data-name="Group 2011" transform="translate(0 0.221)">
      <path id="Path_4948" data-name="Path 4948" d="M-3678.141,3334.882l-3.263,3.263-.383.38a17.32,17.32,0,0,1,.92,5.594,17.4,17.4,0,0,1-17.4,17.4,17.4,17.4,0,0,1-17.4-17.4,17.4,17.4,0,0,1,17.4-17.4,17.342,17.342,0,0,1,5.415.861l3.661-3.661a22.068,22.068,0,0,0-9.076-1.939,22.138,22.138,0,0,0-22.138,22.138,22.136,22.136,0,0,0,22.138,22.138,22.138,22.138,0,0,0,22.138-22.138A22.04,22.04,0,0,0-3678.141,3334.882Z" transform="translate(3720.403 -3321.981)" fill="#3c2a4a"/>
    </g>
    <g id="Group_2012" data-name="Group 2012" transform="translate(9.715 9.939)">
      <path id="Path_4949" data-name="Path 4949" d="M-3664.2,3361.7l-3.108,3.111a8.468,8.468,0,0,1,.266,2.11,8.427,8.427,0,0,1-8.427,8.424,8.424,8.424,0,0,1-8.424-8.424,8.426,8.426,0,0,1,8.424-8.427,8.256,8.256,0,0,1,1.916.221l3.144-3.141a12.368,12.368,0,0,0-5.059-1.073,12.422,12.422,0,0,0-12.423,12.42,12.422,12.422,0,0,0,12.423,12.423,12.421,12.421,0,0,0,12.419-12.423A12.345,12.345,0,0,0-3664.2,3361.7Z" transform="translate(3687.893 -3354.501)" fill="#3c2a4a"/>
    </g>
    <g id="Group_2013" data-name="Group 2013" transform="translate(18.585 0)">
      <path id="Path_4950" data-name="Path 4950" d="M-3632.417,3327.173l-7.916,7.917-4.31-.529-7.064,7.065a3.518,3.518,0,0,1,.6,1.975,3.552,3.552,0,0,1-3.55,3.556,3.557,3.557,0,0,1-3.556-3.556,3.552,3.552,0,0,1,3.556-3.55,3.54,3.54,0,0,1,1.826.505l7.094-7.094-.529-4.3,7.916-7.916.648,5.283Z" transform="translate(3658.213 -3321.241)" fill="#3c2a4a"/>
    </g>
  </g>
</svg>
