<svg xmlns="http://www.w3.org/2000/svg" xmlns:xlink="http://www.w3.org/1999/xlink" width="129" height="129" viewBox="0 0 129 129">
  <defs>
    <linearGradient id="linear-gradient" x1="0.5" x2="0.5" y2="1" gradientUnits="objectBoundingBox">
      <stop offset="0" stop-color="#b8965c"/>
      <stop offset="1" stop-color="#dbb476"/>
    </linearGradient>
  </defs>
  <g id="S2-2-icon" transform="translate(-1278 -1351)">
    <circle id="Ellipse_2789" data-name="Ellipse 2789" cx="64.5" cy="64.5" r="64.5" transform="translate(1278 1351)" fill="url(#linear-gradient)"/>
    <g id="Group_2034" data-name="Group 2034" transform="translate(339.053 5.118)">
      <path id="Path_4977" data-name="Path 4977" d="M-4789.482,3271.483c-11.646,0-16.24,9.817-16.431,10.235l-.257.567.257.567c.19.418,4.785,10.236,16.431,10.236s16.24-9.818,16.43-10.236l.257-.567-.257-.567C-4773.242,3281.3-4777.837,3271.483-4789.482,3271.483Zm0,18.865a15.576,15.576,0,0,1-13.643-8.063,15.577,15.577,0,0,1,13.643-8.062,15.577,15.577,0,0,1,13.642,8.063A15.575,15.575,0,0,1-4789.482,3290.348Z" transform="translate(5792.93 -1876.074)" fill="#fff"/>
      <path id="Path_4978" data-name="Path 4978" d="M-4774.553,3285.959l-3.811,2.128.946-4.263a4.316,4.316,0,0,0-.946-.105,4.369,4.369,0,0,0-4.369,4.368,4.368,4.368,0,0,0,4.369,4.369,4.368,4.368,0,0,0,4.368-4.369,4.343,4.343,0,0,0-.567-2.155A.174.174,0,0,0-4774.553,3285.959Z" transform="translate(5781.814 -1881.879)" fill="#fff"/>
      <path id="Path_4980" data-name="Path 4980" d="M-4807.226,3227.254a36.45,36.45,0,0,0-36.35,36.352v27.49a8.872,8.872,0,0,0,8.861,8.862h5.94a3.868,3.868,0,0,0,3.863-3.864v-18.229a3.868,3.868,0,0,0-3.863-3.863h-12.073v-10.394a33.718,33.718,0,0,1,33.622-33.625,33.717,33.717,0,0,1,33.625,33.624v11.748h-12.073a3.867,3.867,0,0,0-3.863,3.863v16.877a3.867,3.867,0,0,0,3.863,3.863h5.94a8.871,8.871,0,0,0,8.861-8.861V3263.6A36.451,36.451,0,0,0-4807.226,3227.254Zm-21.549,49.475a1.136,1.136,0,0,1,1.135,1.135v18.229a1.136,1.136,0,0,1-1.135,1.135h-5.94a6.141,6.141,0,0,1-6.133-6.134v-14.366Zm55.174,14.367a6.139,6.139,0,0,1-6.133,6.133h-5.94a1.136,1.136,0,0,1-1.135-1.135v-16.877a1.136,1.136,0,0,1,1.135-1.136h12.073Z" transform="translate(5810.672 -1855.097)" fill="#fff"/>
      <path id="Path_4990" data-name="Path 4990" d="M-4771.738,3271.6a27.565,27.565,0,0,0-27.49-27.487,27.563,27.563,0,0,0-27.486,27.487l2.729,0a24.829,24.829,0,0,1,24.758-24.762,24.83,24.83,0,0,1,24.762,24.762Z" transform="translate(5802.676 -1863.094)" fill="#fff"/>
    </g>
  </g>
</svg>
