<svg xmlns="http://www.w3.org/2000/svg" xmlns:xlink="http://www.w3.org/1999/xlink" width="129" height="129" viewBox="0 0 129 129">
  <defs>
    <linearGradient id="linear-gradient" x1="0.5" x2="0.5" y2="1" gradientUnits="objectBoundingBox">
      <stop offset="0" stop-color="#b8965c"/>
      <stop offset="1" stop-color="#dbb476"/>
    </linearGradient>
  </defs>
  <g id="S2-5-icon" transform="translate(-511 -1351)">
    <circle id="Ellipse_2785" data-name="Ellipse 2785" cx="64.5" cy="64.5" r="64.5" transform="translate(511 1351)" fill="url(#linear-gradient)"/>
    <g id="Group_2037" data-name="Group 2037" transform="translate(-681.278 4.2)">
      <ellipse id="Ellipse_2795" data-name="Ellipse 2795" cx="4.18" cy="4.677" rx="4.18" ry="4.677" transform="translate(1228.191 1397.017)" fill="#fff"/>
      <path id="Path_4987" data-name="Path 4987" d="M-4297.377,3274.543c-1.377,0-4.18,4.583-4.18,4.677a4.45,4.45,0,0,0,4.18,4.677,4.45,4.45,0,0,0,4.181-4.677C-4293.2,3279.125-4296,3274.543-4297.377,3274.543Z" transform="translate(5553.586 -1877.526)" fill="#fff"/>
      <path id="Path_4988" data-name="Path 4988" d="M-4252.857,3274.543c-1.377,0-4.181,4.583-4.181,4.677a4.45,4.45,0,0,0,4.181,4.677,4.45,4.45,0,0,0,4.181-4.677C-4248.677,3279.125-4251.481,3274.543-4252.857,3274.543Z" transform="translate(5532.471 -1877.526)" fill="#fff"/>
      <path id="Path_4989" data-name="Path 4989" d="M-4293.811,3285.18a7.469,7.469,0,0,0-.379-.789l-.208-.354-.054-.084-.033-.052a13.471,13.471,0,0,0-1.707-2.074c-1.123-1.149-1.052-1.594-.793-3.247a21.118,21.118,0,0,0,.319-3.533c0-6.558-6.065-11.539-9.349-11.744l-.09,0-.127,0c-3.286.2-9.354,5.185-9.354,11.744a21.178,21.178,0,0,0,.318,3.533c.26,1.653.33,2.1-.792,3.246a13.123,13.123,0,0,0-1.767,2.174l-.051-.082-.01-.016a13.165,13.165,0,0,0-1.709-2.077c-1.122-1.149-1.052-1.594-.793-3.247a21.118,21.118,0,0,0,.319-3.533c0-6.558-6.065-11.539-9.348-11.744l-.09,0-.127,0c-3.286.2-9.354,5.185-9.354,11.744a21.118,21.118,0,0,0,.319,3.533c.26,1.653.329,2.1-.792,3.246a12.24,12.24,0,0,0-1.982,2.538l-.193-.327-.06-.1-.016-.025a13.067,13.067,0,0,0-1.722-2.09c-1.121-1.148-1.051-1.591-.79-3.241a21.04,21.04,0,0,0,.321-3.539c0-6.558-6.065-11.539-9.349-11.744l-.042,0-.18,0c-3.286.2-9.354,5.185-9.354,11.744a20.989,20.989,0,0,0,.321,3.539c.261,1.65.331,2.093-.789,3.24a11.481,11.481,0,0,0-2.142,2.834c-.088.171-.157.346-.23.52h-3.348v23.162h80.424V3285.18Zm-20.3-1.447c2.078-2.128,1.827-3.726,1.536-5.576a18.593,18.593,0,0,1-.286-3.11c0-4.945,4.726-8.859,6.731-9.017,2.056.2,6.732,4.1,6.732,9.017a18.541,18.541,0,0,1-.286,3.11c-.291,1.85-.542,3.448,1.54,5.58a11.3,11.3,0,0,1,1.226,1.441h-18.422A11.508,11.508,0,0,1-4314.107,3283.733Zm-23.4,0c2.078-2.128,1.827-3.726,1.535-5.576a18.6,18.6,0,0,1-.285-3.11c0-4.945,4.726-8.859,6.73-9.017,2.057.2,6.732,4.1,6.732,9.017a18.548,18.548,0,0,1-.285,3.11c-.291,1.85-.542,3.448,1.54,5.58a11.306,11.306,0,0,1,1.225,1.438l-18.421,0A11.466,11.466,0,0,1-4337.511,3283.733Zm-23.835,0c2.077-2.127,1.825-3.724,1.532-5.573a18.436,18.436,0,0,1-.287-3.112c0-4.921,4.678-8.821,6.736-9.017,2.057.2,6.732,4.1,6.732,9.017a18.43,18.43,0,0,1-.288,3.112c-.292,1.849-.545,3.446,1.54,5.582a11.149,11.149,0,0,1,1.228,1.438h-18.424A11.537,11.537,0,0,1-4361.346,3283.733Zm70.026,21.881h-74.969v-17.706h74.969Z" transform="translate(5585.582 -1872.194)" fill="#fff"/>
    </g>
  </g>
</svg>
