<svg xmlns="http://www.w3.org/2000/svg" xmlns:xlink="http://www.w3.org/1999/xlink" width="138" height="138" viewBox="0 0 138 138">
  <defs>
    <linearGradient id="linear-gradient" x1="2.971" y1="-1.139" x2="-0.626" y2="2.43" gradientUnits="objectBoundingBox">
      <stop offset="0" stop-color="#fae8a8"/>
      <stop offset="0.352" stop-color="#fff"/>
      <stop offset="0.566" stop-color="#f2d88b"/>
      <stop offset="0.786" stop-color="#fff"/>
      <stop offset="1" stop-color="#fff7e2"/>
    </linearGradient>
    <linearGradient id="linear-gradient-2" x1="0.055" y1="0.106" x2="1.016" y2="0.821" gradientUnits="objectBoundingBox">
      <stop offset="0" stop-color="#ccb06f"/>
      <stop offset="1" stop-color="#a88b4a"/>
    </linearGradient>
    <clipPath id="clip-path">
      <rect id="Rectangle_1" data-name="Rectangle 1" width="79.454" height="109.901" fill="url(#linear-gradient)"/>
    </clipPath>
  </defs>
  <g id="success-pop-logo" transform="translate(-891 -417)">
    <circle id="Ellipse_2800" data-name="Ellipse 2800" cx="69" cy="69" r="69" transform="translate(891 417)" fill="url(#linear-gradient-2)"/>
    <g id="Logo" transform="translate(917.516 435.346)">
      <g id="Group_1" data-name="Group 1" transform="translate(0)" clip-path="url(#clip-path)">
        <path id="Path_1" data-name="Path 1" d="M65.522,133.87c2.339-6.316,10.834-13.731,11.71-14.554.686-.645,1.394-1.266,2.1-1.892,1.04-.929,6.484-5.036,6.921-4.437a.32.32,0,0,1,.057.318c-.3.5-5.8,4.775-6.869,5.734a55.035,55.035,0,0,0-12.976,16.25,4.469,4.469,0,0,0,.443.718,19.987,19.987,0,0,1,3.672,11.8c.044,1.977-.03,5.964-1.527,6.415-.409.063-2.677.55-4.416-3.878a24.824,24.824,0,0,1-1.3-8.96,16.808,16.808,0,0,1,1.291-5.43,35.772,35.772,0,0,0-5.825-5.851c-8.056-6.082-21.138-14.463-21.554-14.811A19.922,19.922,0,0,1,29.3,97.175c1.186-10.876,17.464-13.051,17.706-16.3.022-.838.386-4.76.417-5.222a1.034,1.034,0,0,1,.653-1.007,7.6,7.6,0,0,0,1.78-1.384c.4-.324.809-.607,1.224-.894,2.359-.5,1.734,3.057,1.665,3.719a23.975,23.975,0,0,1-.461,3.178,16.277,16.277,0,0,1-1.018,2.814,14,14,0,0,1-2.7,3.812c-.6.641-1.283,1.21-1.92,1.821a13.1,13.1,0,0,1-3.559,2.229c-.894.429-.862.451-1.266,1.358a20.538,20.538,0,0,0-.935,2.841,3.787,3.787,0,0,0,.16,2.507c1.5,3.239,5.493,7.627,14.237,6.525C66.3,102.042,75.348,94.427,75.874,94a2.94,2.94,0,0,0,.358-.425,4.548,4.548,0,0,1-.819-2.122,7.1,7.1,0,0,1,.03-2.033c.307-1.665.66-3.324,1.086-4.961,1-3.8,2.6-4.8,3.385-5.141a1.53,1.53,0,0,1,1.105,0,5.6,5.6,0,0,1,2.632,4.366c.03.413.069.827.109,1.3A2.759,2.759,0,0,0,84,84.765a32.208,32.208,0,0,0,2.614-3.19A23.269,23.269,0,0,0,88.6,78.155a2.2,2.2,0,0,0,.044-1.568c-.3-1.088-.635-2.175-.955-3.249a46.717,46.717,0,0,0-3.14-6.81c-.113.5-.216.9-.291,1.3-.16.868-1.629,9.047-1.643,9.175a.4.4,0,0,1-.3.382c-.164.032-.316-.132-.328-.38a13.513,13.513,0,0,1,.125-2.944c.221-1.329.4-2.662.655-3.984.382-2.035.791-4.064,1.212-6.09.281-1.36.593-2.713.9-4.069a.686.686,0,0,1,.306-.473c.168-.03.283.144.4.449a5.371,5.371,0,0,0,.4.866,53.932,53.932,0,0,1,4.336,10.561,9.247,9.247,0,0,1,.144,2.984,25.308,25.308,0,0,1-.817,4.655c-.2.708-.374,1.428-.571,2.14a14.587,14.587,0,0,1-1.548,3.435c-.656,1.125-1.3,2.264-2.033,3.338a61.188,61.188,0,0,1-4.139,4.841,1.845,1.845,0,0,0-.457.989,9.932,9.932,0,0,0,1.677,6.972c3.664,4.56,7.1,3.816,7.983,3.664.84-.144,6.345-1.841,9-10.777a12.218,12.218,0,0,0,.136-4.787c-.144-1.135-1.6-9.049-4.35-12.189a3.543,3.543,0,0,0-.277-.318c-.03.214-.057.346-.063.48-.083,1.722-.129,3.447-.251,5.165-.172,2.4-.488,10.352-.508,10.583-.012.138-.069.289-.221.267-.1-.016-.219.014-.271-.231a51.359,51.359,0,0,1-.2-5.553c.091-1.924.164-3.85.233-5.776.053-1.534.079-3.071.136-4.605a23.427,23.427,0,0,1,.162-2.339c.158-1.145.4-2.282.593-3.421.083-.471.2-1.922.518-1.946a47.622,47.622,0,0,1,2.634,4.17,26.813,26.813,0,0,1,2.438,6.071,29.683,29.683,0,0,1,.657,3.32,26.18,26.18,0,0,1,.3,2.893,22.773,22.773,0,0,1-.049,2.907c-.115,1.341-.251,2.685-.494,4.008q-.593,3.18-1.329,6.328a22.327,22.327,0,0,1-2.333,5.691c-.931,1.673-5.141,7.585-10.731,5.952a4.174,4.174,0,0,1-.989-.433c-1.186-.71-7.081-4.123-5.469-15.449,0-.026.024-.069-.024-.1A28.414,28.414,0,0,0,77.12,97.1a40.631,40.631,0,0,1-6.644,5.446,37.768,37.768,0,0,1-13.687,5.96,21.936,21.936,0,0,1-9.662-.036,11.346,11.346,0,0,1-7.565-6.434,7.541,7.541,0,0,1-.324-3.466,56.247,56.247,0,0,1,1.977-7.645c-.233.089-8.675,3.043-10.6,9.735a3.31,3.31,0,0,0,.067,2.088,14.161,14.161,0,0,0,2.24,4,27.855,27.855,0,0,0,7.368,6.3c22.963,13.634,24.015,19.224,25.22,20.82m.125,3.362a18.489,18.489,0,0,0-1.3,7,6.365,6.365,0,0,0,1,3.411,3.089,3.089,0,0,0,1.149,1.026,1.1,1.1,0,0,0,1.548-.492,8.006,8.006,0,0,0,.593-4.52,10.641,10.641,0,0,0-.56-2.124,26.088,26.088,0,0,0-2.434-4.3M81.13,87.462a.271.271,0,0,0,.079-.382c-.152-.326-.749-1.718-1.633-1.892a1.5,1.5,0,0,0-1.141.045,2.656,2.656,0,0,0-1.412,2.013.68.68,0,0,0,.02.342c.712,2.029,3.3.441,4.087-.129" transform="translate(-21.794 -44.357)" fill="url(#linear-gradient)"/>
        <path id="Path_2" data-name="Path 2" d="M18.97,25.421a2.031,2.031,0,0,0,1.052-.358c.593-.411,1.167-.854,1.742-1.291.219-.166.415-.36.631-.53a.989.989,0,0,1,1.345.042,1.5,1.5,0,0,1,.494.892,7.026,7.026,0,0,1-.089,2.163q-.289,1.623-.676,3.227a5.339,5.339,0,0,1-1.186,2.347,3.528,3.528,0,0,1-.512.465A32.178,32.178,0,0,1,16.965,35.4c-.647.324-1.283.664-1.924,1-.7.37-6.31,3.882-7.1,4.643C-.395,47.566,2.026,57.961,2.162,58.98c.057.431.123.86.178,1.291.018.142.047.31-.125.378a.415.415,0,0,1-.479-.111,1.06,1.06,0,0,1-.174-.342A21.834,21.834,0,0,1,5.749,37.317,31.229,31.229,0,0,1,17.1,29.878a.836.836,0,0,0,.552-.71c.125-.918.312-3.532.378-3.913.089-.514.7-6.535,3.644-9.739a10.822,10.822,0,0,1,2.1-1.873,1.958,1.958,0,0,1,2.867.577c.475.71.959,1.412,1.422,2.128a1.78,1.78,0,0,0,1.726.791c.459-.026,3.595.172,5.972-6.545q.763-2.1,1.6-4.174a9.631,9.631,0,0,1,.724-1.23,2.357,2.357,0,0,0,.407-1.123c.034-.736.148-1.467.223-2.2.038-.36.063-.722.1-1.082.014-.158.034-.316.053-.475s.075-.31.245-.31c.5,0-.044,2.195,4.688,2.881a8.2,8.2,0,0,1,2.472.8.862.862,0,0,1,.571.919c-.022.479-.536,4.8-.556,4.87-.127.427-.218.473-.605.275a4.886,4.886,0,0,0-1.75-.481,19.378,19.378,0,0,0-3.425-.1,3.164,3.164,0,0,0-1.78.732A6.608,6.608,0,0,0,36.6,13.215c-.415,1.325-.791,2.662-1.2,3.992a11.39,11.39,0,0,1-2.064,3.939c-.4.492-3.634,3.779-5.98.943-.362-.4-1.817-3.462-3.82-2.63a10.969,10.969,0,0,0-3.992,4.35,10.17,10.17,0,0,0-.581,1.619" transform="translate(-0.001)" fill="url(#linear-gradient)"/>
        <path id="Path_3" data-name="Path 3" d="M100.59,84.228c3.377,2.5,7.923-1.892,8.742-2.768a12.92,12.92,0,0,0,1.817-2.644,35.128,35.128,0,0,0,1.95-4.639,7.8,7.8,0,0,0,.374-3.51c-.095-1.038-.176-2.08-.348-3.106a22.47,22.47,0,0,0-.862-3.451,42.154,42.154,0,0,0-2.064-4.967c-.093-.2-.2-.38-.348-.656a15.969,15.969,0,0,0-.342,2.086c-.063.779-.641,14.115-.7,15.226-.061,1.084-.176,2.163-.306,3.241-.079.658-.229,1.311-.354,1.964-.032.164-.1.494-.31.433-.273,0-.356-2-.352-2.8,0-1.681.245-9.149.273-10.085.036-1.2.053-2.4.1-3.6q.093-2.215.231-4.427c.085-1.372.174-2.747.306-4.115.079-.819.241-1.631.374-2.446.156-.971.32-1.942.483-2.913a2.967,2.967,0,0,1,.073-.34c.093-.314.269-.364.482-.1.255.322,2.517,4.6,3.037,5.685a28.277,28.277,0,0,1,1.489,3.8,15.662,15.662,0,0,1,.649,3.1,47.012,47.012,0,0,1,.022,5.863,31.706,31.706,0,0,1-.833,5.883c-.225,1.046-.411,2.1-.682,3.138-3.217,11.469-8.161,12.278-9.863,12.8-.633.138-3.031.963-5.99-2.571-.324-.457-.336-.4-.749-.174A43.91,43.91,0,0,1,84.2,91.643a.49.49,0,0,1-.217-.7c.132-.269.51-.378.791-.451a45.565,45.565,0,0,0,9.175-4.319c.625-.4,1.186-.868,1.78-1.3a.506.506,0,0,0,.178-.571,27.119,27.119,0,0,1,.469-9.612c.152-1.151,1.113-4.851,1.351-5.564q.661-1.975,1.384-3.931c.757-2.08,1.54-4.153,2.3-6.235a10.239,10.239,0,0,0,.269-1.1,1.757,1.757,0,0,1,.081-.291c.095-.218.267-.269.447-.117a.872.872,0,0,1,.229.308c.453,1.018.874,2.051,1.351,3.057a14.868,14.868,0,0,1,1.018,3.312,17.06,17.06,0,0,1,.255,3.373,26.3,26.3,0,0,1-.66,5.772,45.251,45.251,0,0,1-1.754,6.357,28.671,28.671,0,0,1-1.79,4.048c-.089.162-.16.334-.259.542m.593-20.15c-.071.172-1.608,4.682-2.438,6.782a29.558,29.558,0,0,0-1.756,5.564,7.615,7.615,0,0,0,1.157,5.79,24.322,24.322,0,0,0,5.359-10.48,14.185,14.185,0,0,0-.243-2.379,17.677,17.677,0,0,0-2.1-5.276" transform="translate(-62.616 -37.636)" fill="url(#linear-gradient)"/>
        <path id="Path_4" data-name="Path 4" d="M150.628,265.326a10.743,10.743,0,0,0,.69-.864c.73-1.131,1.44-2.274,2.157-3.413.223-.356.374-.417.749-.2.684.4,4.766,3.522,4.944,3.6-.2.4-1.5,2.585-2.007,3.362q-.364.558-.708,1.129a.571.571,0,0,1-.927.227c-.89-.571-3.583-2.26-4.042-2.531-.245-.144-.32-.136-.526.083-.136.148-2.666,3.569-3.3,4.467-.316.445-4.805-3.217-4.916-3.476a.73.73,0,0,1,.04-.651,22,22,0,0,1,1.756-2.727c.318-.484.655-.955.989-1.432a1.431,1.431,0,0,1,.736-.569.54.54,0,0,1,.593.079c.67.552,1.351,1.088,2.005,1.655a11.8,11.8,0,0,0,1.768,1.246" transform="translate(-106.471 -194.549)" fill="url(#linear-gradient)"/>
        <path id="Path_5" data-name="Path 5" d="M217.448,79.381a5.39,5.39,0,0,1-.178.66c-.5,1.279-1.01,2.557-1.521,3.832a1.851,1.851,0,0,1-.158.309c-.219.344-.32.358-.708.2-.593-.233-1.186-.433-1.78-.668-.657-.261-1.311-.534-1.958-.823a.977.977,0,0,1-.479-1.24c.526-1.384,1.042-2.768,1.56-4.143l.032-.081c.265-.73.346-.745.967-.306a6.511,6.511,0,0,0,1.72.811c.7.233,1.384.484,2.088.73.32.113.435.283.419.716" transform="translate(-157.144 -57.331)" fill="url(#linear-gradient)"/>
        <path id="Path_6" data-name="Path 6" d="M208.042,21.745c.49.081.4.059.556.079a2.254,2.254,0,0,1,1.034.289,1.768,1.768,0,0,1,.741,1.412A13.071,13.071,0,0,1,210.357,25a6.589,6.589,0,0,1-.605,2.393,8.006,8.006,0,0,1-2.106,2.723c-.876.712-1.748,1.43-2.622,2.143-.079.063-.483.429-.654.2s.119-.593.2-.676c.275-.316.548-.637.838-.939a32.028,32.028,0,0,0,3.2-3.882,8.632,8.632,0,0,0,.649-1.177c.2-.413.079-.615-.374-.692-.2-.034-.4-.043-.6-.067a1.307,1.307,0,0,1-1.224-.834,2.947,2.947,0,0,1-.146-.676A15.564,15.564,0,0,1,207,20.646a6.028,6.028,0,0,1,.575-2.128c.148-.279.449-1,.89-.882.609.166.131,3.124-.16,3.607-.069.138-.2.142-.249.5" transform="translate(-152.467 -13.152)" fill="url(#linear-gradient)"/>
      </g>
    </g>
  </g>
</svg>
