<svg xmlns="http://www.w3.org/2000/svg" xmlns:xlink="http://www.w3.org/1999/xlink" width="203.68" height="394.472" viewBox="0 0 203.68 394.472">
  <defs>
    <clipPath id="clip-path">
      <rect id="Rectangle_1" data-name="Rectangle 1" width="99.881" height="138.157" fill="#787878"/>
    </clipPath>
  </defs>
  <g id="Course-coming-soon" transform="translate(5133.59 8144.292)">
    <g id="Group_1" data-name="Group 1" transform="translate(-5082 -8144.292)" clip-path="url(#clip-path)">
      <path id="Path_1" data-name="Path 1" d="M74.863,153c2.941-7.94,13.62-17.261,14.721-18.3.863-.81,1.752-1.591,2.635-2.379,1.308-1.168,8.151-6.331,8.7-5.578a.4.4,0,0,1,.072.4c-.383.624-7.288,6-8.636,7.209a69.184,69.184,0,0,0-16.312,20.428,5.621,5.621,0,0,0,.557.9,25.126,25.126,0,0,1,4.616,14.83c.055,2.486-.037,7.5-1.919,8.064-.515.08-3.366.691-5.551-4.875a31.206,31.206,0,0,1-1.628-11.263,21.129,21.129,0,0,1,1.623-6.826,44.971,44.971,0,0,0-7.323-7.355c-10.127-7.646-26.573-18.181-27.095-18.618a25.044,25.044,0,0,1-9.993-22.772C30.823,93.2,51.286,90.47,51.589,86.388c.027-1.054.485-5.983.524-6.565a1.3,1.3,0,0,1,.82-1.265,9.556,9.556,0,0,0,2.237-1.74c.5-.408,1.017-.763,1.539-1.124,2.966-.629,2.18,3.843,2.093,4.676a30.139,30.139,0,0,1-.579,3.995,20.461,20.461,0,0,1-1.28,3.537,17.6,17.6,0,0,1-3.393,4.793c-.758.805-1.613,1.521-2.414,2.289a16.473,16.473,0,0,1-4.474,2.8c-1.124.539-1.084.567-1.591,1.708a25.818,25.818,0,0,0-1.176,3.572,4.76,4.76,0,0,0,.2,3.152c1.884,4.072,6.905,9.588,17.9,8.2,13.848-1.427,25.221-11,25.882-11.541a3.693,3.693,0,0,0,.45-.534A5.717,5.717,0,0,1,87.3,99.677a8.93,8.93,0,0,1,.037-2.555c.385-2.093.83-4.179,1.365-6.237,1.26-4.78,3.271-6.028,4.256-6.463a1.924,1.924,0,0,1,1.39,0,7.035,7.035,0,0,1,3.309,5.489c.037.52.087,1.039.137,1.631a3.467,3.467,0,0,0,.308-.266,40.492,40.492,0,0,0,3.286-4.01,29.252,29.252,0,0,0,2.486-4.3,2.769,2.769,0,0,0,.055-1.971c-.38-1.367-.8-2.734-1.2-4.084a58.728,58.728,0,0,0-3.947-8.561c-.142.634-.271,1.134-.365,1.638-.2,1.091-2.048,11.372-2.066,11.534a.5.5,0,0,1-.373.48c-.206.04-.4-.167-.413-.477a16.989,16.989,0,0,1,.157-3.7c.278-1.67.5-3.346.823-5.009.48-2.558.994-5.108,1.524-7.656.353-1.71.746-3.41,1.131-5.116a.862.862,0,0,1,.385-.594c.211-.037.355.181.5.564a6.752,6.752,0,0,0,.5,1.089,67.8,67.8,0,0,1,5.451,13.277,11.623,11.623,0,0,1,.181,3.751,31.815,31.815,0,0,1-1.027,5.851c-.249.89-.47,1.795-.718,2.69a18.339,18.339,0,0,1-1.946,4.318c-.825,1.414-1.633,2.846-2.555,4.2a76.914,76.914,0,0,1-5.2,6.085,2.319,2.319,0,0,0-.574,1.243,12.486,12.486,0,0,0,2.108,8.765c4.606,5.732,8.926,4.8,10.035,4.606,1.056-.181,7.977-2.314,11.315-13.547a15.359,15.359,0,0,0,.172-6.018c-.181-1.427-2.016-11.375-5.469-15.322a4.446,4.446,0,0,0-.348-.4c-.037.268-.072.435-.08.6-.1,2.165-.162,4.333-.316,6.493-.216,3.015-.614,13.013-.639,13.3-.015.174-.087.363-.278.336-.129-.02-.276.017-.341-.291a64.566,64.566,0,0,1-.249-6.98c.114-2.419.206-4.84.293-7.261.067-1.929.1-3.86.172-5.789a29.461,29.461,0,0,1,.2-2.941c.2-1.439.5-2.869.746-4.3.1-.592.249-2.416.651-2.446a59.87,59.87,0,0,1,3.311,5.243,33.707,33.707,0,0,1,3.065,7.631,37.317,37.317,0,0,1,.825,4.174,32.911,32.911,0,0,1,.378,3.637,28.627,28.627,0,0,1-.062,3.654c-.144,1.685-.316,3.376-.621,5.039q-.746,4-1.67,7.954a28.066,28.066,0,0,1-2.933,7.154c-1.171,2.1-6.463,9.535-13.49,7.482a5.247,5.247,0,0,1-1.243-.544c-1.491-.892-8.9-5.183-6.876-19.421,0-.032.03-.087-.03-.127a35.718,35.718,0,0,0-3.371,3.587,51.079,51.079,0,0,1-8.352,6.846,47.478,47.478,0,0,1-17.207,7.492,27.575,27.575,0,0,1-12.146-.045,14.263,14.263,0,0,1-9.511-8.089,9.48,9.48,0,0,1-.408-4.358,70.708,70.708,0,0,1,2.486-9.61c-.293.112-10.905,3.826-13.321,12.237a4.161,4.161,0,0,0,.085,2.625,17.8,17.8,0,0,0,2.816,5.026,35.017,35.017,0,0,0,9.262,7.92C72.014,143.969,73.337,151,74.851,153m.157,4.226a23.242,23.242,0,0,0-1.633,8.8,8,8,0,0,0,1.26,4.288,3.882,3.882,0,0,0,1.444,1.29,1.387,1.387,0,0,0,1.946-.619,10.065,10.065,0,0,0,.746-5.682,13.378,13.378,0,0,0-.7-2.67,32.793,32.793,0,0,0-3.06-5.407M94.483,94.666a.341.341,0,0,0,.1-.48c-.191-.41-.942-2.16-2.053-2.379a1.887,1.887,0,0,0-1.434.057,3.338,3.338,0,0,0-1.775,2.531.855.855,0,0,0,.025.43c.895,2.55,4.154.554,5.138-.162" transform="translate(-19.893 -40.479)" fill="#787878"/>
      <path id="Path_2" data-name="Path 2" d="M23.847,31.957a2.553,2.553,0,0,0,1.322-.45c.746-.517,1.467-1.074,2.19-1.623.276-.209.522-.452.793-.666a1.243,1.243,0,0,1,1.69.052,1.892,1.892,0,0,1,.621,1.121,8.832,8.832,0,0,1-.112,2.719q-.363,2.041-.85,4.057a6.712,6.712,0,0,1-1.491,2.951,4.435,4.435,0,0,1-.644.584,40.452,40.452,0,0,1-6.04,3.793c-.813.408-1.613.835-2.419,1.26-.88.465-7.932,4.88-8.929,5.837C-.5,59.8,2.547,72.863,2.718,74.143c.072.542.154,1.081.224,1.623.022.179.06.39-.157.475a.522.522,0,0,1-.6-.139,1.332,1.332,0,0,1-.219-.43,27.448,27.448,0,0,1,5.262-28.76A39.258,39.258,0,0,1,21.491,37.56a1.051,1.051,0,0,0,.694-.892c.157-1.153.393-4.44.475-4.919.112-.646.882-8.215,4.581-12.242a13.6,13.6,0,0,1,2.635-2.354,2.461,2.461,0,0,1,3.6.726c.6.892,1.206,1.775,1.787,2.675a2.237,2.237,0,0,0,2.17.994c.577-.032,4.519.216,7.507-8.228q.96-2.642,2.016-5.247a12.108,12.108,0,0,1,.91-1.546,2.963,2.963,0,0,0,.512-1.412c.042-.925.186-1.844.281-2.767.047-.452.08-.907.122-1.36.017-.2.042-.4.067-.6S48.946,0,49.16,0c.634,0-.055,2.759,5.894,3.622a10.308,10.308,0,0,1,3.107,1.009,1.084,1.084,0,0,1,.718,1.156c-.027.6-.674,6.035-.7,6.122-.159.537-.273.594-.761.346a6.142,6.142,0,0,0-2.2-.6,24.36,24.36,0,0,0-4.305-.129,3.977,3.977,0,0,0-2.237.92,8.307,8.307,0,0,0-2.667,4.171c-.522,1.665-.994,3.346-1.506,5.019a14.318,14.318,0,0,1-2.6,4.952c-.5.619-4.569,4.75-7.517,1.186-.455-.5-2.284-4.353-4.8-3.306a13.789,13.789,0,0,0-5.019,5.469,12.785,12.785,0,0,0-.731,2.036" transform="translate(-0.001)" fill="#787878"/>
      <path id="Path_3" data-name="Path 3" d="M104.877,92.917c4.246,3.14,9.961-2.379,10.99-3.48a16.241,16.241,0,0,0,2.284-3.323,44.159,44.159,0,0,0,2.451-5.832,9.8,9.8,0,0,0,.47-4.412c-.119-1.305-.221-2.615-.437-3.905a28.248,28.248,0,0,0-1.084-4.338,52.989,52.989,0,0,0-2.6-6.244c-.117-.249-.249-.477-.438-.825a20.075,20.075,0,0,0-.43,2.622c-.08.979-.805,17.743-.882,19.14-.077,1.362-.221,2.719-.385,4.074-.1.828-.288,1.648-.445,2.468-.04.206-.124.621-.39.544-.343,0-.447-2.516-.442-3.525,0-2.113.308-11.5.343-12.677.045-1.511.067-3.023.132-4.532q.117-2.784.291-5.566c.107-1.725.219-3.453.385-5.173.1-1.029.3-2.051.47-3.075.2-1.221.4-2.441.607-3.662a3.73,3.73,0,0,1,.092-.428c.117-.4.338-.457.607-.129.321.405,3.164,5.784,3.818,7.147a35.549,35.549,0,0,1,1.872,4.773,19.689,19.689,0,0,1,.815,3.9,59.1,59.1,0,0,1,.027,7.37,39.856,39.856,0,0,1-1.047,7.4c-.283,1.315-.517,2.645-.858,3.945-4.044,14.417-10.259,15.434-12.4,16.085-.8.174-3.811,1.211-7.529-3.231-.408-.574-.423-.5-.942-.219a55.2,55.2,0,0,1-15.951,4.437.616.616,0,0,1-.273-.88c.167-.338.641-.475.994-.567A57.279,57.279,0,0,0,96.53,95.363c.786-.5,1.491-1.091,2.237-1.636a.636.636,0,0,0,.224-.718,34.091,34.091,0,0,1,.589-12.083c.191-1.447,1.4-6.1,1.7-6.995q.832-2.483,1.74-4.942c.952-2.615,1.936-5.22,2.886-7.838a12.876,12.876,0,0,0,.338-1.377,2.208,2.208,0,0,1,.1-.365c.119-.273.336-.338.562-.147a1.1,1.1,0,0,1,.288.388c.569,1.28,1.1,2.578,1.7,3.843a18.692,18.692,0,0,1,1.28,4.164,21.448,21.448,0,0,1,.321,4.241,33.064,33.064,0,0,1-.83,7.256,56.886,56.886,0,0,1-2.2,7.992,36.04,36.04,0,0,1-2.25,5.088c-.112.2-.2.42-.326.681m.746-25.33c-.09.216-2.021,5.886-3.065,8.526a37.158,37.158,0,0,0-2.207,6.995,9.573,9.573,0,0,0,1.454,7.278,30.575,30.575,0,0,0,6.736-13.175,17.831,17.831,0,0,0-.306-2.99,22.222,22.222,0,0,0-2.64-6.632" transform="translate(-57.141 -34.347)" fill="#787878"/>
      <path id="Path_4" data-name="Path 4" d="M152.671,266.509a13.532,13.532,0,0,0,.868-1.086c.917-1.422,1.81-2.859,2.712-4.29.281-.447.47-.525.942-.249.86.5,5.991,4.427,6.215,4.529-.249.5-1.882,3.249-2.523,4.226q-.457.7-.89,1.419a.718.718,0,0,1-1.166.286c-1.119-.718-4.5-2.841-5.081-3.182-.308-.181-.4-.171-.661.1-.171.186-3.351,4.487-4.151,5.615-.4.559-6.04-4.044-6.18-4.37a.917.917,0,0,1,.05-.818,27.667,27.667,0,0,1,2.207-3.428c.4-.609.823-1.2,1.243-1.8a1.8,1.8,0,0,1,.925-.716.679.679,0,0,1,.746.1c.843.693,1.7,1.367,2.521,2.081a14.839,14.839,0,0,0,2.222,1.566" transform="translate(-97.161 -177.536)" fill="#787878"/>
      <path id="Path_5" data-name="Path 5" d="M219.209,80.038a6.792,6.792,0,0,1-.224.83c-.629,1.608-1.27,3.214-1.912,4.817a2.327,2.327,0,0,1-.2.388c-.276.433-.4.45-.89.249-.746-.293-1.492-.544-2.237-.84-.825-.328-1.648-.671-2.461-1.034a1.228,1.228,0,0,1-.6-1.559c.661-1.74,1.31-3.48,1.961-5.208l.04-.1c.333-.917.435-.937,1.216-.385a8.184,8.184,0,0,0,2.163,1.019c.877.293,1.74.609,2.625.917.4.142.547.355.527.9" transform="translate(-143.401 -52.319)" fill="#787878"/>
      <path id="Path_6" data-name="Path 6" d="M209,22.805c.616.1.5.075.7.1a2.834,2.834,0,0,1,1.3.363,2.222,2.222,0,0,1,.932,1.775,16.43,16.43,0,0,1-.02,1.854,8.283,8.283,0,0,1-.761,3.008,10.064,10.064,0,0,1-2.647,3.423c-1.1.895-2.2,1.8-3.3,2.695-.1.08-.607.539-.823.249s.149-.746.249-.85c.345-.4.689-.8,1.054-1.181a40.261,40.261,0,0,0,4.024-4.88,10.847,10.847,0,0,0,.815-1.479c.249-.52.1-.773-.47-.87-.249-.042-.5-.055-.758-.085a1.643,1.643,0,0,1-1.539-1.049,3.707,3.707,0,0,1-.184-.85,19.567,19.567,0,0,1,.112-3.6,7.578,7.578,0,0,1,.723-2.675c.186-.35.564-1.258,1.119-1.109.766.209.164,3.928-.2,4.534-.087.174-.249.179-.313.626" transform="translate(-139.137 -12.002)" fill="#787878"/>
    </g>
    <path id="Path_5003" data-name="Path 5003" d="M-44.41,0a8.265,8.265,0,0,1-3.45-.72A6.154,6.154,0,0,1-50.4-2.78a5.256,5.256,0,0,1-.95-3.12,7.829,7.829,0,0,1,.54-2.7h2.82a7.726,7.726,0,0,0-.38,2.18,3.256,3.256,0,0,0,1.01,2.55,4.27,4.27,0,0,0,2.95.91h7.82V-9.6h3.02V0Zm-.06-11a1.637,1.637,0,0,1-1.2-.5,1.637,1.637,0,0,1-.5-1.2,1.637,1.637,0,0,1,.5-1.2,1.637,1.637,0,0,1,1.2-.5,1.637,1.637,0,0,1,1.2.5,1.637,1.637,0,0,1,.5,1.2,1.637,1.637,0,0,1-.5,1.2A1.637,1.637,0,0,1-44.47-11Zm3.98,0a1.637,1.637,0,0,1-1.2-.5,1.637,1.637,0,0,1-.5-1.2,1.637,1.637,0,0,1,.5-1.2,1.637,1.637,0,0,1,1.2-.5,1.637,1.637,0,0,1,1.2.5,1.637,1.637,0,0,1,.5,1.2,1.637,1.637,0,0,1-.5,1.2A1.637,1.637,0,0,1-40.49-11Zm8.84-3.68h3.02V0h-3.02ZM-27.19,1.3a6.629,6.629,0,0,0,1.44.22,1.1,1.1,0,0,0,.9-.34A1.89,1.89,0,0,0-24.57,0V-9.6h3.02V0a4.8,4.8,0,0,1-.96,3.24,3.442,3.442,0,0,1-2.74,1.1,8.1,8.1,0,0,1-2.52-.44ZM-8.73-10.92v9.38a6.834,6.834,0,0,1-1.54,4.83,5.858,5.858,0,0,1-4.5,1.65,15.338,15.338,0,0,1-2.72-.26l.02-2.92a16.776,16.776,0,0,0,2.26.18,3.666,3.666,0,0,0,2.66-.83,3.632,3.632,0,0,0,.84-2.67v-.06a4.011,4.011,0,0,1-1.4,1.2A3.977,3.977,0,0,1-14.95,0a4.376,4.376,0,0,1-2.52-.72,4.6,4.6,0,0,1-1.61-1.9,5.892,5.892,0,0,1-.55-2.52,5.782,5.782,0,0,1,.72-2.83,5.342,5.342,0,0,1,2.27-2.13,8.358,8.358,0,0,1,3.93-.82Zm-5.38,7.96a2.039,2.039,0,0,0,1.16-.38,2.766,2.766,0,0,0,.9-1.03,2.956,2.956,0,0,0,.34-1.39V-7.9h-1.04a4.833,4.833,0,0,0-2.95.71,2.163,2.163,0,0,0-.91,1.77,2.522,2.522,0,0,0,.3,1.19,2.351,2.351,0,0,0,.87.92A2.49,2.49,0,0,0-14.11-2.96Zm7.3,0H.29V-4.1A4.757,4.757,0,0,0-.17-6.39a2.644,2.644,0,0,0-1.44-1.2,7.593,7.593,0,0,0-2.62-.37H-5.69v-3.02h1.5a8.039,8.039,0,0,1,5.5,1.76,6.457,6.457,0,0,1,2,5.12V0H-6.81Zm21.34,0V0H9.03V-14.68h3.02V-2.96Zm3.88,8.12a1.637,1.637,0,0,1-1.2-.5,1.637,1.637,0,0,1-.5-1.2,1.637,1.637,0,0,1,.5-1.2,1.69,1.69,0,0,1,2.4,0,1.637,1.637,0,0,1,.5,1.2,1.637,1.637,0,0,1-.5,1.2A1.637,1.637,0,0,1,18.41,5.16ZM20.49-3.7a3.359,3.359,0,0,0,2.44.74V0q-3.18,0-4.3-1.76a4.8,4.8,0,0,1-1.81,1.3A6.354,6.354,0,0,1,14.33,0a1.585,1.585,0,0,1-1.14-.44,1.436,1.436,0,0,1-.46-1.08,1.34,1.34,0,0,1,.44-1.04,1.658,1.658,0,0,1,1.16-.4,2.564,2.564,0,0,0,1.8-.64,2.474,2.474,0,0,0,.7-1.92V-9.6h3.02v4.08A2.548,2.548,0,0,0,20.49-3.7Zm4.74-5.9h3.02V0H22.73a1.585,1.585,0,0,1-1.14-.44,1.436,1.436,0,0,1-.46-1.08,1.34,1.34,0,0,1,.44-1.04,1.658,1.658,0,0,1,1.16-.4h2.5ZM24.71,5.16a1.637,1.637,0,0,1-1.2-.5,1.637,1.637,0,0,1-.5-1.2,1.637,1.637,0,0,1,.5-1.2,1.69,1.69,0,0,1,2.4,0,1.637,1.637,0,0,1,.5,1.2,1.637,1.637,0,0,1-.5,1.2A1.637,1.637,0,0,1,24.71,5.16Zm3.98,0a1.637,1.637,0,0,1-1.2-.5,1.637,1.637,0,0,1-.5-1.2,1.637,1.637,0,0,1,.5-1.2,1.69,1.69,0,0,1,2.4,0,1.637,1.637,0,0,1,.5,1.2,1.637,1.637,0,0,1-.5,1.2A1.637,1.637,0,0,1,28.69,5.16Zm10.2-8.12V0H36.81a4.8,4.8,0,0,1-.96,3.24,3.442,3.442,0,0,1-2.74,1.1,8.1,8.1,0,0,1-2.52-.44l.58-2.6a6.629,6.629,0,0,0,1.44.22,1.1,1.1,0,0,0,.9-.34A1.89,1.89,0,0,0,33.79,0V-9.6h3.02v6.64ZM51.21,0H39.29a1.642,1.642,0,0,1-1.15-.41,1.357,1.357,0,0,1-.45-1.05,1.419,1.419,0,0,1,.44-1.09,1.633,1.633,0,0,1,1.16-.41h1.5a5.192,5.192,0,0,1-.58-2.46,5.488,5.488,0,0,1,.71-2.74,5.154,5.154,0,0,1,2.25-2.04,8.707,8.707,0,0,1,3.94-.78h4.1ZM48.17-7.96h-1.1a4.816,4.816,0,0,0-2.98.72,2.216,2.216,0,0,0-.9,1.8,2.162,2.162,0,0,0,.9,1.78,5.007,5.007,0,0,0,3.02.7h1.06Zm-4.22-4.4a1.637,1.637,0,0,1-1.2-.5,1.637,1.637,0,0,1-.5-1.2,1.637,1.637,0,0,1,.5-1.2,1.637,1.637,0,0,1,1.2-.5,1.637,1.637,0,0,1,1.2.5,1.637,1.637,0,0,1,.5,1.2,1.637,1.637,0,0,1-.5,1.2A1.637,1.637,0,0,1,43.95-12.36Zm3.98,0a1.637,1.637,0,0,1-1.2-.5,1.637,1.637,0,0,1-.5-1.2,1.637,1.637,0,0,1,.5-1.2,1.637,1.637,0,0,1,1.2-.5,1.637,1.637,0,0,1,1.2.5,1.637,1.637,0,0,1,.5,1.2,1.637,1.637,0,0,1-.5,1.2A1.637,1.637,0,0,1,47.93-12.36Zm-145.88,38a1.637,1.637,0,0,1-1.2-.5,1.637,1.637,0,0,1-.5-1.2,1.637,1.637,0,0,1,.5-1.2,1.637,1.637,0,0,1,1.2-.5,1.637,1.637,0,0,1,1.2.5,1.637,1.637,0,0,1,.5,1.2,1.637,1.637,0,0,1-.5,1.2A1.637,1.637,0,0,1-97.95,25.64Zm3.98,0a1.637,1.637,0,0,1-1.2-.5,1.637,1.637,0,0,1-.5-1.2,1.637,1.637,0,0,1,.5-1.2,1.637,1.637,0,0,1,1.2-.5,1.637,1.637,0,0,1,1.2.5,1.637,1.637,0,0,1,.5,1.2,1.637,1.637,0,0,1-.5,1.2A1.637,1.637,0,0,1-93.97,25.64ZM-96.09,38a5.634,5.634,0,0,1-3-.76,4.943,4.943,0,0,1-1.87-2,5.79,5.79,0,0,1-.63-2.66,6.017,6.017,0,0,1,.63-2.71,5.073,5.073,0,0,1,1.88-2.06,5.481,5.481,0,0,1,2.99-.79,5.483,5.483,0,0,1,2.98.78,4.989,4.989,0,0,1,1.86,2.03,5.971,5.971,0,0,1,.62,2.69,5.991,5.991,0,0,1-.62,2.68,4.907,4.907,0,0,1-1.86,2.03A5.538,5.538,0,0,1-96.09,38Zm0-2.96a2.324,2.324,0,0,0,1.82-.71,2.465,2.465,0,0,0,.64-1.71,2.67,2.67,0,0,0-.67-1.81,2.3,2.3,0,0,0-1.83-.77,2.3,2.3,0,0,0-1.82.75,2.592,2.592,0,0,0-.66,1.77,2.509,2.509,0,0,0,.67,1.74A2.369,2.369,0,0,0-96.09,35.04Zm7.38,0h7.1V33.9a4.757,4.757,0,0,0-.46-2.29,2.644,2.644,0,0,0-1.44-1.2,7.593,7.593,0,0,0-2.62-.37h-1.46V27.02h1.5a8.039,8.039,0,0,1,5.5,1.76,6.457,6.457,0,0,1,2,5.12V38H-88.71Zm24.18,0V38H-76.67V35.04h7.1V33.9a4.757,4.757,0,0,0-.46-2.29,2.644,2.644,0,0,0-1.44-1.2,7.593,7.593,0,0,0-2.62-.37h-1.46V27.02h1.5a8.039,8.039,0,0,1,5.5,1.76,6.457,6.457,0,0,1,2,5.12v1.14Zm14.2,0V38h-5.16a2.372,2.372,0,0,1-2.04-1.44A2.342,2.342,0,0,1-59.57,38h-5.16a1.585,1.585,0,0,1-1.14-.44,1.436,1.436,0,0,1-.46-1.08,1.34,1.34,0,0,1,.44-1.04,1.658,1.658,0,0,1,1.16-.4h3.34l-2.12-2.14a5.811,5.811,0,0,1,.79-2.99,5.686,5.686,0,0,1,2.16-2.12,6.077,6.077,0,0,1,3.03-.77,6.117,6.117,0,0,1,3.05.77,5.686,5.686,0,0,1,2.16,2.12,5.811,5.811,0,0,1,.79,2.99l-2.14,2.14Zm-4.22-3.02a1.764,1.764,0,0,0-.46-.9,3.137,3.137,0,0,0-1.07-.77,3.411,3.411,0,0,0-1.45-.31,3.411,3.411,0,0,0-1.45.31,3.137,3.137,0,0,0-1.07.77,1.764,1.764,0,0,0-.46.9l2.98,3.06Zm10.18,2.28a3.359,3.359,0,0,0,2.44.74V38q-3.18,0-4.3-1.76a4.8,4.8,0,0,1-1.81,1.3,6.354,6.354,0,0,1-2.49.46,1.585,1.585,0,0,1-1.14-.44,1.436,1.436,0,0,1-.46-1.08,1.34,1.34,0,0,1,.44-1.04,1.658,1.658,0,0,1,1.16-.4,2.564,2.564,0,0,0,1.8-.64,2.474,2.474,0,0,0,.7-1.92V28.4h3.02v4.08A2.548,2.548,0,0,0-44.37,34.3Zm-4.14-7.7a1.637,1.637,0,0,1-1.2-.5,1.637,1.637,0,0,1-.5-1.2,1.637,1.637,0,0,1,.5-1.2,1.637,1.637,0,0,1,1.2-.5,1.637,1.637,0,0,1,1.2.5,1.637,1.637,0,0,1,.5,1.2,1.637,1.637,0,0,1-.5,1.2A1.637,1.637,0,0,1-48.51,26.6Zm3.98,0a1.637,1.637,0,0,1-1.2-.5,1.637,1.637,0,0,1-.5-1.2,1.637,1.637,0,0,1,.5-1.2,1.637,1.637,0,0,1,1.2-.5,1.637,1.637,0,0,1,1.2.5,1.637,1.637,0,0,1,.5,1.2,1.637,1.637,0,0,1-.5,1.2A1.637,1.637,0,0,1-44.53,26.6Zm9.68.42a5.163,5.163,0,0,1,2.77.76,5.421,5.421,0,0,1,1.94,2.07,5.966,5.966,0,0,1,.71,2.89,5.483,5.483,0,0,1-.7,2.83,4.708,4.708,0,0,1-1.86,1.81,5.3,5.3,0,0,1-2.54.62,6.217,6.217,0,0,1-2.13-.38,6.367,6.367,0,0,1-1.95-1.14,3.875,3.875,0,0,1-1.51,1.13,5.051,5.051,0,0,1-2.01.39,1.585,1.585,0,0,1-1.14-.44,1.436,1.436,0,0,1-.46-1.08,1.34,1.34,0,0,1,.44-1.04,1.658,1.658,0,0,1,1.16-.4,1.745,1.745,0,0,0,.98-.23,1.284,1.284,0,0,0,.49-.63,11.3,11.3,0,0,0,.35-1.24q.2-.86.28-1.12a7.438,7.438,0,0,1,1.95-3.54A4.524,4.524,0,0,1-34.85,27.02Zm-.14,8.22a2.613,2.613,0,0,0,1.82-.65,2.364,2.364,0,0,0,.72-1.85,2.861,2.861,0,0,0-.66-1.93,2.18,2.18,0,0,0-1.74-.77,1.73,1.73,0,0,0-1.33.55,4.859,4.859,0,0,0-.91,1.75,7.1,7.1,0,0,0-.3,1.22,2.811,2.811,0,0,0-.07.33,2.724,2.724,0,0,1-.11.43,4.162,4.162,0,0,0,1.26.69A4.109,4.109,0,0,0-34.99,35.24Zm6.18-.94a3.359,3.359,0,0,0,2.44.74V38a5.212,5.212,0,0,1-3.85-1.2,5.029,5.029,0,0,1-1.17-3.64q0-.44.02-.68h1.92A2.547,2.547,0,0,0-28.81,34.3Zm4.74-10.98h3.02V38h-5.52a1.619,1.619,0,0,1-1.15-.42,1.388,1.388,0,0,1-.45-1.06,1.388,1.388,0,0,1,.45-1.06,1.619,1.619,0,0,1,1.15-.42h2.5Zm4.94,0h3.02V38h-3.02Zm17.66,3.66a5.2,5.2,0,0,1,2.79.76,5.328,5.328,0,0,1,1.93,2.08,6.177,6.177,0,0,1,.7,2.94,5.546,5.546,0,0,1-.69,2.83,4.59,4.59,0,0,1-1.84,1.8A5.273,5.273,0,0,1-1.09,38a6.048,6.048,0,0,1-2.84-.7A6.965,6.965,0,0,1-5.1,41.52a4.015,4.015,0,0,1-3.35,1.4,10.04,10.04,0,0,1-1.94-.22V39.76a6.442,6.442,0,0,0,1.64.26,1.5,1.5,0,0,0,1.43-.69,4.817,4.817,0,0,0,.39-2.25V33.36a7.807,7.807,0,0,1,.67-3.31,5.264,5.264,0,0,1,1.91-2.26A5.147,5.147,0,0,1-1.47,26.98Zm-.14,8.26A2.638,2.638,0,0,0,.21,34.6a2.333,2.333,0,0,0,.72-1.84A3.041,3.041,0,0,0,.3,30.77,2.114,2.114,0,0,0-1.43,30a2.148,2.148,0,0,0-1.86.89,4.076,4.076,0,0,0-.62,2.47v1.16A4.2,4.2,0,0,0-1.61,35.24Zm6.18-.94a3.359,3.359,0,0,0,2.44.74V38a5.212,5.212,0,0,1-3.85-1.2,5.029,5.029,0,0,1-1.17-3.64q0-.44.02-.68H3.93A2.548,2.548,0,0,0,4.57,34.3Zm8.4,0a3.359,3.359,0,0,0,2.44.74V38q-3.18,0-4.3-1.76a4.8,4.8,0,0,1-1.81,1.3A6.354,6.354,0,0,1,6.81,38a1.585,1.585,0,0,1-1.14-.44,1.436,1.436,0,0,1-.46-1.08,1.34,1.34,0,0,1,.44-1.04,1.658,1.658,0,0,1,1.16-.4,2.564,2.564,0,0,0,1.8-.64,2.474,2.474,0,0,0,.7-1.92V28.4h3.02v4.08A2.548,2.548,0,0,0,12.97,34.3ZM8.81,43.18a1.707,1.707,0,1,1,1.2-.5A1.637,1.637,0,0,1,8.81,43.18Zm3.98,0a1.707,1.707,0,1,1,1.2-.5A1.637,1.637,0,0,1,12.79,43.18Zm9.7-16.16a5.162,5.162,0,0,1,2.77.76,5.421,5.421,0,0,1,1.94,2.07,5.966,5.966,0,0,1,.71,2.89,5.483,5.483,0,0,1-.7,2.83,4.708,4.708,0,0,1-1.86,1.81,5.3,5.3,0,0,1-2.54.62,6.217,6.217,0,0,1-2.13-.38,6.367,6.367,0,0,1-1.95-1.14,3.875,3.875,0,0,1-1.51,1.13,5.051,5.051,0,0,1-2.01.39,1.585,1.585,0,0,1-1.14-.44,1.436,1.436,0,0,1-.46-1.08,1.34,1.34,0,0,1,.44-1.04,1.658,1.658,0,0,1,1.16-.4,1.745,1.745,0,0,0,.98-.23,1.284,1.284,0,0,0,.49-.63,11.3,11.3,0,0,0,.35-1.24q.2-.86.28-1.12a7.438,7.438,0,0,1,1.95-3.54A4.524,4.524,0,0,1,22.49,27.02Zm-.14,8.22a2.613,2.613,0,0,0,1.82-.65,2.364,2.364,0,0,0,.72-1.85,2.861,2.861,0,0,0-.66-1.93,2.18,2.18,0,0,0-1.74-.77,1.73,1.73,0,0,0-1.33.55,4.859,4.859,0,0,0-.91,1.75,7.1,7.1,0,0,0-.3,1.22,2.812,2.812,0,0,0-.07.33,2.724,2.724,0,0,1-.11.43,4.162,4.162,0,0,0,1.26.69A4.109,4.109,0,0,0,22.35,35.24Zm20.2-8.26a5.2,5.2,0,0,1,2.79.76,5.328,5.328,0,0,1,1.93,2.08,6.176,6.176,0,0,1,.7,2.94,5.546,5.546,0,0,1-.69,2.83,4.59,4.59,0,0,1-1.84,1.8,5.273,5.273,0,0,1-2.51.61,6.048,6.048,0,0,1-2.84-.7,6.965,6.965,0,0,1-1.17,4.22,4.015,4.015,0,0,1-3.35,1.4,10.04,10.04,0,0,1-1.94-.22V39.76a6.442,6.442,0,0,0,1.64.26,1.5,1.5,0,0,0,1.43-.69,4.817,4.817,0,0,0,.39-2.25V33.36a7.807,7.807,0,0,1,.67-3.31,5.264,5.264,0,0,1,1.91-2.26A5.147,5.147,0,0,1,42.55,26.98Zm-.14,8.26a2.638,2.638,0,0,0,1.82-.64,2.333,2.333,0,0,0,.72-1.84,3.041,3.041,0,0,0-.63-1.99A2.114,2.114,0,0,0,42.59,30a2.148,2.148,0,0,0-1.86.89,4.076,4.076,0,0,0-.62,2.47v1.16A4.2,4.2,0,0,0,42.41,35.24ZM63.05,23.32V38H49.89V35.04h4.36l-2.98-9.78h3.12l2.98,9.78h2.66V23.32Zm28.2,11.72V38H75.75a9.154,9.154,0,0,1-3.45-.64,5.932,5.932,0,0,1-2.56-1.91,4.941,4.941,0,0,1-.97-3.09,8.718,8.718,0,0,1,.6-2.96h2.82a7.726,7.726,0,0,0-.38,2.18,3.256,3.256,0,0,0,1.01,2.55,4.238,4.238,0,0,0,2.93.91h3.48a5.192,5.192,0,0,1-.58-2.46,5.488,5.488,0,0,1,.71-2.74,5.154,5.154,0,0,1,2.25-2.04,8.707,8.707,0,0,1,3.94-.78l4.1-.02v8.04Zm-4.64-5h-1.1a4.816,4.816,0,0,0-2.98.72,2.216,2.216,0,0,0-.9,1.8,2.162,2.162,0,0,0,.9,1.78,5.007,5.007,0,0,0,3.02.7h1.06Zm-2.5-4.4a1.707,1.707,0,1,1,1.2-.5A1.637,1.637,0,0,1,84.11,25.64Zm9.44-2.32h3.02V38H91.05a1.619,1.619,0,0,1-1.15-.42,1.473,1.473,0,0,1,0-2.12,1.619,1.619,0,0,1,1.15-.42h2.5Zm8.54-.4H97.93V21.66h.46a1.517,1.517,0,0,1-.46-1.18,1.83,1.83,0,0,1,.68-1.47,2.5,2.5,0,0,1,1.66-.57,3.4,3.4,0,0,1,1.5.36l-.62,1.2a2.16,2.16,0,0,0-.76-.16,1.168,1.168,0,0,0-.72.21.737.737,0,0,0-.28.63.9.9,0,0,0,.31.71,1.159,1.159,0,0,0,.79.27h1.6Zm-3.56,1.6h3.02V38H98.53Z" transform="translate(-5032 -7793)" fill="#787878"/>
    <g id="Group_2078" data-name="Group 2078" transform="translate(-5655.394 -8687.507)">
      <path id="Path_4999" data-name="Path 4999" d="M696.688,714.72H550.067a6.682,6.682,0,0,0-6.673,6.673v89.053a6.681,6.681,0,0,0,6.673,6.673h50.938v24.216H582.814v4.958h81.128v-4.958H645.75V817.119h50.938a6.68,6.68,0,0,0,6.673-6.673V721.393A6.681,6.681,0,0,0,696.688,714.72ZM640.794,841.336H605.961V817.119h34.833Zm57.611-30.89a1.718,1.718,0,0,1-1.717,1.715H550.067a1.719,1.719,0,0,1-1.717-1.715V721.393a1.719,1.719,0,0,1,1.717-1.715H696.688a1.718,1.718,0,0,1,1.717,1.715Z" transform="translate(0 0)" fill="#c8c8c8"/>
      <path id="Path_5000" data-name="Path 5000" d="M640.808,747.424l-32.82-19.3a4.219,4.219,0,0,0-4.287,0l-32.823,19.308a4.225,4.225,0,0,0,0,7.283l13.188,7.758v16.212c0,6.827,10.955,10.4,21.775,10.4s21.775-3.571,21.775-10.4V762.466l13.191-7.759a4.226,4.226,0,0,0,0-7.283Zm-18.146,31.255c0,1.919-6.386,5.44-16.819,5.44s-16.819-3.522-16.819-5.44V765.395l14.667,8.67a4.212,4.212,0,0,0,4.3,0l14.669-8.672Zm4.956-21.964v-.01l-3.461,2.046-18.315,10.774-18.222-10.719-3.553-2.1v.01l-9.6-5.649,31.379-18.458,31.38,18.458Z" transform="translate(16.578 8.363)" fill="#c8c8c8"/>
      <path id="Path_5001" data-name="Path 5001" d="M567.641,761.54a3.147,3.147,0,0,0,6.293,0v-11.15l-6.293-3.528Z" transform="translate(15.825 20.977)" fill="#c8c8c8"/>
    </g>
  </g>
</svg>
