<svg xmlns="http://www.w3.org/2000/svg" width="200" height="150" viewBox="0 0 200 150">
  <g id="H_2ndS_3icon" transform="translate(-379 -1420)">
    <rect id="Rectangle_2535" data-name="Rectangle 2535" width="200" height="150" transform="translate(379 1420)" fill="none"/>
    <g id="Group_1508" data-name="Group 1508" transform="translate(-1113.844 -365.92)">
      <path id="Path_4252" data-name="Path 4252" d="M1662.384,1817.714h-24.79v-19.35a3.293,3.293,0,0,0-3.29-3.29h-52.57a3.3,3.3,0,0,0-3.29,3.29v26.66a50.121,50.121,0,0,0-13.88,7.13c-2.98-2.18-12.47-8.5-22.2-8.5-11.52,0-15.78,3.54-15.96,3.69l-.52.44v3.29a19.261,19.261,0,0,0-4.31,1.68l-.73.43v51.6a2.676,2.676,0,0,0,2.67,2.67h35.97a7.772,7.772,0,0,0,10.16,0h8.8v14.24a3.3,3.3,0,0,0,3.29,3.29h24.79v19.35a3.282,3.282,0,0,0,3.28,3.28h52.58a3.282,3.282,0,0,0,3.28-3.28v-103.34A3.282,3.282,0,0,0,1662.384,1817.714Zm-83.94,10.47c.49-.17.99-.33,1.5-.47s1-.28,1.5-.4a23.414,23.414,0,0,1,5.32-.66c8.11,0,12.14,1.84,13.48,2.62v46.9q-.42-.2-.93-.39a29.228,29.228,0,0,0-10.11-1.4c-.72,0-1.45.02-2.19.07a47.741,47.741,0,0,0-5.57.64c-.51.08-1.01.16-1.5.26-.51.09-1.01.2-1.5.3a95.006,95.006,0,0,0-12.38,3.6v-44.47c.46-.34,1.17-.86,2.11-1.47a.01.01,0,0,1,.01-.01h.01c.95-.62,2.12-1.34,3.45-2.07A44.341,44.341,0,0,1,1578.444,1828.184Zm-49.56,2.19v-1.09c1.36-.79,5.39-2.63,13.48-2.63,5.49,0,11.07,2.35,15.13,4.59,1.34.73,2.52,1.46,3.47,2.07a.01.01,0,0,1,.01.01c.93.61,1.64,1.12,2.09,1.46v44.47c-4.63-1.69-14.49-4.87-23.14-4.87-5.64,0-9.02.84-11.04,1.79v-45.8Zm52.85,71.61a.29.29,0,0,1-.29-.29v-14.24h24.17a2.661,2.661,0,0,0,2.41-1.53,2.547,2.547,0,0,0,.26-1.14v-1.79h15.27v-3h-15.27v-4.21h12.27v-3h-12.27v-4.21h12.27v-3h-12.27v-4.21h15.27v-3h-15.27v-4.21h14.27v-3h-14.27v-4.21h17.27v-3h-17.27v-4.21h14.27v-3h-14.27v-3.55l-.26-.15v-.52h15.53v-3h-20.31v-1.72l-.52-.45a13.26,13.26,0,0,0-4.13-2.04h27.96v-3h-39.54v1.35h-.25a25.647,25.647,0,0,0-5.32.58v-25.87a.29.29,0,0,1,.29-.29h52.57a.29.29,0,0,1,.29.29v103.33a.29.29,0,0,1-.29.29Z" fill="#5b5b5b" stroke="rgba(0,0,0,0)" stroke-width="1"/>
      <rect id="Rectangle_2396" data-name="Rectangle 2396" width="33.84" height="3" transform="translate(1617.084 1911.624)" fill="#5b5b5b" stroke="rgba(0,0,0,0)" stroke-width="1"/>
      <rect id="Rectangle_2397" data-name="Rectangle 2397" width="36.54" height="3" transform="translate(1587.014 1807.884)" fill="#5b5b5b" stroke="rgba(0,0,0,0)" stroke-width="1"/>
      <rect id="Rectangle_2398" data-name="Rectangle 2398" width="26.54" height="3" transform="translate(1587.014 1815.094)" fill="#5b5b5b" stroke="rgba(0,0,0,0)" stroke-width="1"/>
    </g>
  </g>
</svg>
