<svg xmlns="http://www.w3.org/2000/svg" width="110" height="110" viewBox="0 0 110 110">
  <g id="H_4S_4icon_Courses" transform="translate(-1321 -3791)">
    <g id="Group_1586" data-name="Group 1586" transform="translate(1328 3806)">
      <path id="Path_4346" data-name="Path 4346" d="M1094.2,3584.271h-88.719a4.042,4.042,0,0,0-4.038,4.038v53.884a4.042,4.042,0,0,0,4.038,4.038H1036.3v14.653H1025.3v3h49.09v-3h-11.007v-14.653H1094.2a4.043,4.043,0,0,0,4.038-4.038v-53.884A4.043,4.043,0,0,0,1094.2,3584.271Zm-33.821,76.613H1039.3v-14.653h21.077Zm34.86-18.691a1.039,1.039,0,0,1-1.039,1.038h-88.719a1.039,1.039,0,0,1-1.039-1.038v-53.884a1.039,1.039,0,0,1,1.039-1.038H1094.2a1.039,1.039,0,0,1,1.039,1.038Z" transform="translate(-1001.444 -3584.271)" fill="#fff" stroke="rgba(0,0,0,0)" stroke-width="1"/>
      <path id="Path_4347" data-name="Path 4347" d="M1070.419,3609.119l-19.858-11.681a2.551,2.551,0,0,0-2.594,0l-19.861,11.682a2.557,2.557,0,0,0,0,4.407l7.981,4.695v9.809c0,4.131,6.628,6.292,13.175,6.292s13.177-2.161,13.177-6.292v-9.81l7.981-4.7a2.557,2.557,0,0,0,0-4.407Zm-10.979,18.912c0,1.161-3.864,3.292-10.178,3.292s-10.176-2.131-10.176-3.292v-8.038l8.875,5.246a2.548,2.548,0,0,0,2.6,0l8.876-5.247Zm3-13.289v-.007l-2.094,1.238-11.083,6.519-11.026-6.486-2.149-1.271v.007l-5.812-3.419,18.987-11.169,18.988,11.169Z" transform="translate(-1001.444 -3584.271)" fill="#fff" stroke="rgba(0,0,0,0)" stroke-width="1"/>
      <path id="Path_4348" data-name="Path 4348" d="M1025.691,3625.293a1.9,1.9,0,1,0,3.807,0v-6.747l-3.807-2.135Z" transform="translate(-1001.444 -3584.271)" fill="#fff" stroke="rgba(0,0,0,0)" stroke-width="1"/>
    </g>
    <rect id="Rectangle_2540" data-name="Rectangle 2540" width="110" height="110" transform="translate(1321 3791)" fill="none"/>
  </g>
</svg>
