<svg xmlns="http://www.w3.org/2000/svg" xmlns:xlink="http://www.w3.org/1999/xlink" width="141" height="141" viewBox="0 0 141 141">
  <defs>
    <linearGradient id="linear-gradient" x1="0.5" x2="0.5" y2="1" gradientUnits="objectBoundingBox">
      <stop offset="0" stop-color="#b8965c"/>
      <stop offset="1" stop-color="#dbb476"/>
    </linearGradient>
  </defs>
  <g id="H_5S_3Subject_Hadeeth" transform="translate(-1033 -4672)">
    <circle id="Ellipse_276" data-name="Ellipse 276" cx="70.5" cy="70.5" r="70.5" transform="translate(1033 4672)" fill="url(#linear-gradient)"/>
    <g id="Group_1468" data-name="Group 1468" transform="translate(1053 4692)">
      <path id="Path_4140" data-name="Path 4140" d="M1298.1,4108.385c-4.25,1.766-9.885,6.173-14.909,11.625-.343-1.284-.681-2.531-1.005-3.709-1.932-7.044-3.344-12.21-2.8-17l9.114-.112.211-.291a6.375,6.375,0,0,0,.247-6.64,5.186,5.186,0,0,0-4.357-3.119h-.031l-32.9.089v0c-1.339-.04-3.269.611-4.892,3.948-4.187,8.585-2.11,17.154,1.33,31.351l.4,1.659q.692,2.872,1.017,5.245h-5.506c-.884.05-1.636.731-2.3,2.084a7.092,7.092,0,0,0,.232,6.817,4.555,4.555,0,0,0,3.5,2.287.669.669,0,0,0,.1.02h.183c.054,0,.112,0,.168,0h29.317c-.82,2.522-1.2,4.17-1.218,4.249a.717.717,0,0,0,.539.857.7.7,0,0,0,.161.018.716.716,0,0,0,.7-.557c0-.02.428-1.856,1.329-4.567h1.574l.04,0c.057-.007,5.549-.723,6.832-7.53,3.97-2.317,6.556-6.276,9.054-10.112a42.038,42.038,0,0,1,5.762-7.554h0c5.077-4.854,4.278-7.438,3.7-8.325C1302.75,4107.673,1300.5,4107.385,1298.1,4108.385Zm-13.518-17.818h.019a3.793,3.793,0,0,1,3.086,2.341,5.145,5.145,0,0,1,.06,4.852l-8.16.1v0l-23.087.286h-.075a6.623,6.623,0,0,0,.113-4.306h0a7.791,7.791,0,0,0-.479-1.25c-.014-.028-.03-.052-.044-.08q-.145-.287-.307-.554c-.044-.073-.09-.142-.137-.213-.09-.137-.183-.269-.28-.4-.048-.062-.095-.125-.143-.186-.132-.162-.268-.316-.41-.46-.015-.014-.029-.032-.044-.047l0,0Zm-34.89,42.3c.011.113.021.226.03.338l-3.3-.009c-.051-.09-.113-.19-.181-.294l-.021-.035Zm-6.523,6.711a5.638,5.638,0,0,1-.161-5.428c.455-.928.862-1.271,1.053-1.283h.1a.6.6,0,0,1,.09.027.578.578,0,0,1,.067.025.742.742,0,0,1,.092.059c.023.016.046.028.069.047s.064.056.1.086.046.04.069.063.065.072.1.109.043.047.064.073c.034.042.066.086.1.13.018.025.037.048.055.075.035.049.068.1.1.151l.042.064c.035.057.067.114.1.17.009.016.019.032.026.047.038.072.072.141.1.208l.187.425,4.3.011c0,.1.009.2.01.292s0,.214,0,.32q0,.338-.012.657c0,.116-.01.231-.016.344-.011.19-.027.375-.046.555-.012.116-.024.23-.039.341-.021.166-.048.323-.076.479-.02.108-.039.219-.062.323-.031.146-.069.283-.107.418-.027.1-.053.2-.083.29-.044.133-.095.255-.145.378-.032.08-.062.165-.1.24-.062.13-.13.248-.2.365-.031.054-.06.114-.095.166a3.364,3.364,0,0,1-.348.444,3.559,3.559,0,0,1-2.765.958v0A3.107,3.107,0,0,1,1243.17,4139.574Zm6.508,1.484a4.843,4.843,0,0,0,.339-.427c.054-.08.1-.172.149-.256.081-.135.166-.267.238-.414.058-.118.1-.251.156-.376s.112-.252.159-.39c.054-.157.1-.331.142-.5.034-.122.073-.235.1-.363.042-.184.071-.384.1-.579.022-.129.05-.25.068-.385.021-.161.032-.339.049-.508.018-.186.041-.363.052-.558v-.02c.029-.513.028-1.068.012-1.646h.021l-.043-.715v-.01l0-.037v0l-.039-.67h-.011c-.032-.388-.067-.77-.113-1.145l-.077-.63h-.009a55.2,55.2,0,0,0-1.07-5.582l-.4-1.659c-3.479-14.355-5.394-22.265-1.434-30.386,1.012-2.08,2.28-3.183,3.578-3.145a2.922,2.922,0,0,1,1.672.694c.016.014.033.023.049.036.062.051.12.113.181.168s.148.129.218.2c.023.024.044.052.067.077.1.114.207.229.3.357.007.009.012.019.019.027.111.147.219.3.319.464.014.024.027.051.041.074.09.15.177.305.256.468.032.066.059.139.089.207.054.121.109.24.156.368.034.092.061.192.091.288.036.113.076.221.106.338s.046.223.069.334.05.216.067.327.02.228.03.342.026.228.029.344c0,.092-.009.184-.011.276,0,.14,0,.279-.018.418-.005.043-.019.086-.024.13a4.09,4.09,0,0,1-.732,1.859l-.841,1.156h.005l.636-.008,23.516-.291c-.525,5.008.913,10.253,2.865,17.366.4,1.453.817,2.979,1.243,4.592-.154.173-.306.347-.453.521a17.936,17.936,0,0,0-3.979,14.54c-.674,1.541-1.3,3.143-1.91,4.868h-26.143C1249.6,4141.157,1249.639,4141.1,1249.678,4141.058Zm28.536.145h-.985c.52-1.443,1.056-2.8,1.624-4.113q.388-.036.766-.088c.091-.012.183-.025.273-.039.388-.06.771-.13,1.146-.217.039-.008.077-.02.117-.029.342-.082.678-.177,1.009-.281l.253-.081c.354-.119.7-.247,1.046-.392l.053-.02C1282.18,4140.491,1278.627,4141.141,1278.214,4141.2ZM1299,4116.4a43.192,43.192,0,0,0-5.972,7.808c-2.576,3.958-5.011,7.695-8.835,9.812a13.481,13.481,0,0,1-4.625,1.531c4.48-9.232,13.189-17.2,16.838-20.275.176-.148.28-.239.307-.266a.708.708,0,0,0,.006-1,.722.722,0,0,0-1.008-.028c-.032.028-.11.093-.229.194-3.577,3.016-11.922,10.64-16.652,19.648a16.372,16.372,0,0,1,3.858-11.1c.222-.265.452-.522.689-.781v0l.255-.278v0c5.047-5.623,10.777-10.188,15.02-11.951a5.786,5.786,0,0,1,2.174-.482,1.907,1.907,0,0,1,1.662.666C1303.077,4110.792,1302.516,4113.036,1299,4116.4Z" transform="translate(-1221.461 -4065.006)" fill="#fff" stroke="#fff" stroke-width="1"/>
      <path id="Path_4141" data-name="Path 4141" d="M1265.617,4112.285h9.94a.717.717,0,1,0,0-1.433h-9.94a.717.717,0,1,0,0,1.433Z" transform="translate(-1228.244 -4071.161)" fill="#fff" stroke="#fff" stroke-width="1"/>
      <path id="Path_4142" data-name="Path 4142" d="M1269.46,4121.307a.717.717,0,1,0,0,1.433h5.53a.717.717,0,1,0,0-1.433Z" transform="translate(-1229.333 -4074.124)" fill="#fff" stroke="#fff" stroke-width="1"/>
      <path id="Path_4143" data-name="Path 4143" d="M1279.1,4128.919a.717.717,0,1,0,0-1.433h-15.32a.717.717,0,1,0,0,1.433Z" transform="translate(-1227.724 -4075.875)" fill="#fff" stroke="#fff" stroke-width="1"/>
      <path id="Path_4144" data-name="Path 4144" d="M1279.866,4133.665h-15.321a.717.717,0,0,0,0,1.434h15.321a.717.717,0,0,0,0-1.434Z" transform="translate(-1227.941 -4077.625)" fill="#fff" stroke="#fff" stroke-width="1"/>
      <path id="Path_4145" data-name="Path 4145" d="M1279.355,4139.845h-9.824a.717.717,0,1,0,0,1.433h9.824a.717.717,0,1,0,0-1.433Z" transform="translate(-1229.353 -4079.377)" fill="#fff" stroke="#fff" stroke-width="1"/>
      <path id="Path_4146" data-name="Path 4146" d="M1278.3,4146.023h-5.056a.717.717,0,1,0,0,1.433h5.056a.717.717,0,1,0,0-1.433Z" transform="translate(-1230.405 -4081.127)" fill="#fff" stroke="#fff" stroke-width="1"/>
      <path id="Path_4147" data-name="Path 4147" d="M1264.629,4055.465a50.88,50.88,0,1,0,50.88,50.88A50.937,50.937,0,0,0,1264.629,4055.465Zm0,100.327a49.447,49.447,0,1,1,49.447-49.447A49.5,49.5,0,0,1,1264.629,4155.792Z" transform="translate(-1213.749 -4055.465)" fill="#fff" stroke="#fff" stroke-width="1"/>
    </g>
  </g>
</svg>
