<svg xmlns="http://www.w3.org/2000/svg" width="125.13" height="102.991" viewBox="0 0 125.13 102.991">
  <g id="H_6S_3icon_Participation" transform="translate(-902.936 -5490.883)">
    <g id="Group_1660" data-name="Group 1660" transform="translate(930.31 5559.593)">
      <path id="Path_4374" data-name="Path 4374" d="M100.363,4162.066H42.345a6.188,6.188,0,0,1-6.181-6.181,35.691,35.691,0,0,1,3.787-13.515,28.786,28.786,0,0,1,6.006-8.283l5.892-5.518-3.654,7.2a11.794,11.794,0,0,0-1.263,4.805c.818,1.177,6.646,8.464,24.026,8.47h.106c17.39-.006,23.213-7.3,24.027-8.473a11.937,11.937,0,0,0-1.86-5.864l-4.286-6.921,6.377,5.061c8.564,6.8,11.223,19.266,11.223,23.039A6.188,6.188,0,0,1,100.363,4162.066ZM44.074,4140.83a30.232,30.232,0,0,0-1.578,2.806,33.015,33.015,0,0,0-3.49,12.249,3.343,3.343,0,0,0,3.339,3.339h58.018a3.343,3.343,0,0,0,3.339-3.339c0-2.554-1.524-10.111-5.836-16.191q.055.546.08,1.118c0,1.927-7.32,11.066-26.882,11.074h-.086c-19.584-.008-26.905-9.146-26.905-11.013Z" transform="translate(-36.164 -4127.786)" fill="#471280"/>
    </g>
    <g id="Group_1661" data-name="Group 1661" transform="translate(902.936 5490.883)">
      <path id="Path_4375" data-name="Path 4375" d="M42.169,4070.057c6.75,0,12.242-6.065,12.242-13.521,0-.512,0-1.873-5.353-7.708-5.332-5.812-6.423-5.812-6.889-5.812s-1.554,0-6.883,5.812c-5.352,5.836-5.352,7.2-5.352,7.708C29.934,4063.992,35.422,4070.057,42.169,4070.057Zm0-24.015c2.164,1.609,8.839,8.87,9.4,10.59-.045,5.844-4.244,10.583-9.4,10.583s-9.347-4.739-9.393-10.583C33.334,4054.915,40.006,4047.654,42.17,4046.042Z" transform="translate(-6.986 -4034.533)" fill="#471280"/>
      <g id="Group_1663" data-name="Group 1663">
        <path id="Path_4376" data-name="Path 4376" d="M111.719,4076.074l-.292-.458a29.711,29.711,0,0,0-3.335-3.978c-3.048-3.113-2.8-4.7-2.189-8.549a45.273,45.273,0,0,0,.69-7.587c0-13.642-12.47-24-19.221-24.423l-.045,0-.24,0c-6.75.425-19.215,10.782-19.215,24.423a45.359,45.359,0,0,0,.688,7.576c.054.345.1.668.151.985-3.01-2.4-6.173-3.906-8.712-4.067l-.045,0-.242,0c-2.539.162-5.7,1.667-8.713,4.068.048-.317.1-.64.151-.986a45.348,45.348,0,0,0,.688-7.575c0-13.641-12.465-24-19.215-24.423l-.044,0-.248,0c-6.75.425-19.214,10.782-19.214,24.423a45.446,45.446,0,0,0,.688,7.584c.606,3.846.858,5.438-2.188,8.553a24.938,24.938,0,0,0-4.367,5.685,29.265,29.265,0,0,0-5.836,8.125,35.82,35.82,0,0,0-3.778,13.52,6.181,6.181,0,0,0,6.173,6.174h31.46c-.277.444-.537.888-.763,1.333l-.153.311v.007a14.792,14.792,0,0,0-1.434,6.08c0,1.867,7.321,11.005,26.905,11.012h.086c19.562-.007,26.884-9.146,26.882-11.073a14.879,14.879,0,0,0-2.087-7.248l-.217-.366c-.012-.019-.026-.036-.038-.055H116.59a6.181,6.181,0,0,0,6.175-6.174C122.765,4095.225,120.139,4082.907,111.719,4076.074Zm-24.5-42.156h.012c5.536.392,16.516,9.95,16.516,21.584a42.3,42.3,0,0,1-.655,7.143c-.628,3.974-1.082,6.846,2.964,10.98a24.92,24.92,0,0,1,3.39,4.161l.043.068c.08.131.152.259.226.388.062.109.126.218.184.326.067.125.128.249.19.374.051.1.105.207.153.312.06.128.112.258.167.387.042.1.087.2.126.3.052.134.1.269.143.4.034.1.07.2.1.3.043.141.08.284.119.426.026.1.055.191.079.289.036.15.065.3.1.459.018.092.04.182.057.276.03.171.052.347.075.523.011.08.025.158.034.239.029.259.052.522.068.793-.806,1.164-6.614,8.473-24.028,8.479h-.107c-.825,0-1.637-.021-2.439-.055-.256-.011-.505-.032-.758-.046-.544-.031-1.085-.067-1.616-.114-.29-.026-.574-.058-.86-.089q-.731-.078-1.447-.176-.432-.06-.858-.127c-.2-.031-.387-.069-.582-.1l0-.01c.018-.117.036-.237.054-.356.022-.144.044-.288.065-.437.016-.109.031-.222.048-.333.022-.159.044-.321.066-.486.015-.116.03-.234.045-.352.021-.169.041-.341.06-.517.014-.123.028-.247.04-.373.018-.18.036-.364.053-.55.012-.131.023-.261.034-.4.016-.2.03-.4.043-.6.009-.132.018-.261.026-.395.012-.228.021-.465.031-.7,0-.12.01-.236.013-.359.011-.364.016-.737.016-1.123a22.674,22.674,0,0,0-.5-4.738,25.317,25.317,0,0,0-3.038-7.64c-.021-.036-.046-.071-.068-.107q-.4-.667-.838-1.317c-.107-.158-.223-.311-.333-.468-.217-.308-.436-.616-.666-.917-.134-.176-.276-.345-.414-.518-.22-.276-.441-.55-.672-.819-.152-.177-.31-.349-.467-.523s-.293-.337-.446-.5a21.764,21.764,0,0,0-.4-4.243,42.379,42.379,0,0,1-.653-7.133C70.714,4043.868,81.69,4034.311,87.224,4033.918Zm-70.612,28.726a42.394,42.394,0,0,1-.653-7.142c0-11.634,10.975-21.191,16.509-21.584h.019c5.534.393,16.509,9.95,16.509,21.584a42.368,42.368,0,0,1-.653,7.133,21.716,21.716,0,0,0-.4,4.244c-.148.158-.286.323-.431.482s-.315.347-.467.523c-.227.263-.443.532-.659.8-.135.168-.273.333-.4.5-.232.3-.45.609-.668.917-.1.144-.21.286-.308.431-.31.456-.607.917-.886,1.385a24.422,24.422,0,0,0-3.619,12.5c0,.387.006.761.016,1.125,0,.123.009.238.013.358.009.238.018.475.031.7.008.136.017.267.026.4.014.2.027.406.043.6.011.132.022.261.034.39.017.19.034.376.053.558.013.124.026.245.04.365.02.182.041.359.063.533.014.111.028.221.042.329.024.182.048.359.073.534.013.092.026.184.038.274q.046.314.092.613l.019.126c0,.027.009.056.012.082-.194.034-.384.072-.58.1q-.427.067-.86.127c-.476.066-.959.124-1.447.176-.286.031-.571.062-.86.089-.531.048-1.073.082-1.616.114-.254.014-.5.034-.758.046-.8.035-1.614.055-2.439.055H32.42c-17.393-.006-23.2-7.3-24.019-8.475.028-.458.075-.9.139-1.317a11.356,11.356,0,0,1,1.125-3.5,21.766,21.766,0,0,1,3.984-5.206C17.691,4069.492,17.238,4066.619,16.611,4062.644ZM.477,4098.97a33.155,33.155,0,0,1,3.481-12.254,30.8,30.8,0,0,1,1.586-2.813l0,.047c0,1.868,7.32,11.012,26.9,11.019h.093c.866,0,1.719-.022,2.563-.059.273-.011.54-.033.81-.048.568-.033,1.132-.07,1.688-.119.31-.028.616-.062.923-.094q.764-.081,1.511-.184c.308-.043.615-.087.919-.135.183-.029.372-.05.554-.081,0,.027.006.055.009.082.006.066.012.131.017.2.008.094.014.186.02.277,0,.061.007.122.009.181,0,.1.006.2.006.293,0,.049,0,.1,0,.147,0,.145-.006.287-.016.428v.013c-.01.137-.026.271-.045.4-.006.042-.014.083-.021.125-.016.1-.034.195-.056.292-.01.046-.022.094-.034.141-.023.094-.05.187-.079.281-.014.045-.028.09-.044.136-.035.1-.074.2-.117.307-.014.036-.027.071-.043.107a6.541,6.541,0,0,1-.452.853c-.024.038-.051.078-.077.116-.069.107-.141.215-.22.324-.036.05-.072.1-.11.149q-.114.154-.241.312c-.043.054-.085.107-.129.16-.091.11-.188.222-.288.335-.045.05-.086.1-.132.15-.143.156-.293.316-.453.48l-.016.017,0,0c-.271.279-.521.544-.761.8l-.179.194c-.234.257-.458.506-.664.745H3.808A3.336,3.336,0,0,1,.477,4098.97Zm59.431,22.074H59.8c-17.38-.007-23.207-7.294-24.026-8.47a11.792,11.792,0,0,1,1.263-4.805l.091-.181a17.212,17.212,0,0,1,2.017-2.967c.337-.413.725-.854,1.162-1.326.225-.243.46-.492.715-.755.133-.135.251-.267.374-.4.093-.1.194-.2.281-.3.075-.084.139-.167.211-.25.122-.143.249-.288.36-.428.04-.051.073-.1.112-.15.133-.17.264-.342.381-.509.013-.02.024-.04.038-.059a9.711,9.711,0,0,0,1.008-1.829c.045-.11.081-.222.121-.331.033-.093.071-.186.1-.277a10.049,10.049,0,0,0,.286-4.3l.026-.006-.188-1.214c-.006-.041-.011-.079-.018-.121v-.006l-.222-1.473-.01,0a39.814,39.814,0,0,1-.546-6.456,21.3,21.3,0,0,1,3.216-11.046,26.514,26.514,0,0,1,3.865-4.982l.007-.007c3.582-3.629,7.3-5.4,9.422-5.557h.009c2.122.156,5.846,1.93,9.429,5.564a26.906,26.906,0,0,1,3.941,5.1,21.275,21.275,0,0,1,3.14,10.928c0,.357-.006.7-.015,1.037,0,.113-.009.22-.012.329-.008.219-.016.437-.028.647-.007.124-.015.245-.023.367-.012.189-.025.376-.039.558-.01.121-.021.24-.031.358q-.023.262-.05.516c-.012.115-.024.23-.036.342-.019.168-.038.332-.059.494-.013.1-.026.21-.039.313-.021.165-.044.327-.067.488-.013.094-.026.19-.04.283-.025.173-.05.34-.076.508l-.033.216h-.009l-.224,1.482c-.007.045-.013.09-.019.135l-.185,1.2.026,0v.009q-.033.3-.056.592c0,.065-.008.129-.012.194-.009.133-.017.266-.022.4,0,.074,0,.15-.006.224,0,.121,0,.241,0,.361,0,.078,0,.156.006.233,0,.116.01.232.018.347.006.078.011.156.018.233.011.117.026.234.042.351.01.075.019.148.031.223.021.127.047.253.073.381.014.063.025.125.04.189.045.188.1.377.156.567v0c.06.19.131.382.209.573.025.062.055.125.082.187.057.131.116.263.181.4.037.075.078.15.117.226.065.122.131.244.2.367.047.08.1.16.146.242q.114.182.239.368c.055.082.112.164.171.246.09.127.188.256.287.385.062.081.122.161.188.243.114.142.238.286.363.431.061.07.118.14.182.212.194.217.4.437.618.661.543.559,1.022,1.081,1.457,1.587.144.167.281.333.414.5l.028.034a19.261,19.261,0,0,1,1.352,1.827l.141.227a11.934,11.934,0,0,1,1.86,5.863C83.121,4113.742,77.3,4121.037,59.908,4121.044ZM116.59,4102.3H82.32l-.008-.009c-.209-.244-.432-.494-.662-.747-.061-.068-.124-.135-.186-.2-.238-.257-.483-.518-.747-.789-.168-.171-.323-.337-.472-.5l-.131-.149c-.1-.113-.2-.223-.286-.332-.047-.056-.091-.112-.136-.167-.08-.1-.158-.2-.23-.3l-.121-.164c-.072-.1-.139-.2-.2-.3-.031-.047-.063-.094-.092-.14q-.127-.2-.234-.4l-.013-.023c-.074-.139-.138-.275-.2-.412-.021-.048-.038-.094-.057-.141-.036-.09-.072-.18-.1-.271-.018-.054-.036-.108-.052-.162-.026-.084-.05-.167-.071-.25-.014-.056-.028-.111-.04-.167-.019-.085-.035-.171-.05-.256-.009-.052-.018-.1-.026-.156-.016-.11-.027-.221-.036-.333,0-.042-.007-.085-.01-.127-.008-.122-.013-.244-.014-.368,0-.058,0-.117,0-.176,0-.087,0-.174.006-.262,0-.066.006-.133.011-.2,0-.085.011-.171.018-.259.006-.069.011-.138.018-.209l.009-.078c.182.031.372.052.556.081.3.048.61.092.917.135q.748.1,1.515.184c.306.032.612.066.923.094.557.049,1.123.086,1.693.119.271.016.538.037.812.048.846.037,1.7.059,2.574.059h.086c19.562-.007,26.885-9.152,26.883-11.076-.014-.363-.04-.715-.073-1.062,0-.016,0-.033,0-.05,4.31,6.081,5.833,13.635,5.833,16.188A3.336,3.336,0,0,1,116.59,4102.3Z" transform="translate(2.365 -4031.076)" fill="#471280"/>
      </g>
      <path id="Path_4377" data-name="Path 4377" d="M119.239,4070.057c6.75,0,12.242-6.065,12.242-13.521,0-.512,0-1.873-5.352-7.708-5.331-5.812-6.423-5.812-6.89-5.812s-1.553,0-6.882,5.812c-5.351,5.836-5.351,7.2-5.351,7.708C107,4063.992,112.493,4070.057,119.239,4070.057Zm0-24.015c2.164,1.609,8.839,8.87,9.4,10.59-.045,5.844-4.244,10.583-9.4,10.583s-9.346-4.739-9.392-10.583C110.4,4054.915,117.076,4047.654,119.24,4046.042Z" transform="translate(-29.3 -4034.533)" fill="#471280"/>
      <path id="Path_4378" data-name="Path 4378" d="M87.769,4089.721c-.235-.258-.472-.519-.7-.756-4.886-5.249-5.846-5.249-6.362-5.249-.5,0-1.532,0-6.751,5.662l-.525.58c-4.958,5.469-4.958,6.784-4.958,7.278a14.275,14.275,0,0,0,2.541,8.249,12.517,12.517,0,0,0,3.69,3.535,11.244,11.244,0,0,0,12,0,12.488,12.488,0,0,0,3.477-3.233,14.429,14.429,0,0,0,2.757-8.553c0-.495,0-1.81-4.961-7.282ZM87.9,4104.1l0,0a9.806,9.806,0,0,1-2.693,2.508,8.534,8.534,0,0,1-9,0,9.846,9.846,0,0,1-2.86-2.749,11.437,11.437,0,0,1-2.03-6.524c.19-.536,1.459-2.421,4.227-5.474l.519-.575a46.176,46.176,0,0,1,4.648-4.53A43.64,43.64,0,0,1,85,4090.915c.223.234.443.476.662.717l.214.236c2.762,3.047,4.032,4.932,4.222,5.468A11.56,11.56,0,0,1,87.9,4104.1Z" transform="translate(-18.144 -4046.316)" fill="#471280"/>
    </g>
  </g>
</svg>
