<svg id="Layer_1" data-name="Layer 1" xmlns="http://www.w3.org/2000/svg" xmlns:xlink="http://www.w3.org/1999/xlink" viewBox="0 0 712.87 406.01"><defs><style>.cls-1{isolation:isolate;}.cls-2{fill:#48315a;}.cls-3{opacity:0.4;}.cls-4{fill:#af9457;}.cls-5{fill:url(#linear-gradient);}.cls-6{fill:url(#linear-gradient-2);}.cls-7{fill:url(#linear-gradient-3);}.cls-8{fill:url(#linear-gradient-4);}.cls-9{fill:url(#linear-gradient-5);}.cls-10{fill:url(#linear-gradient-6);}</style><linearGradient id="linear-gradient" x1="360.69" y1="15.19" x2="364.9" y2="242.4" gradientUnits="userSpaceOnUse"><stop offset="0" stop-color="#b79e68"/><stop offset="1" stop-color="#87703c"/></linearGradient><linearGradient id="linear-gradient-2" x1="317.64" y1="15.99" x2="321.84" y2="243.2" xlink:href="#linear-gradient"/><linearGradient id="linear-gradient-3" x1="346.65" y1="15.45" x2="350.86" y2="242.66" xlink:href="#linear-gradient"/><linearGradient id="linear-gradient-4" x1="362" y1="15.17" x2="366.2" y2="242.38" xlink:href="#linear-gradient"/><linearGradient id="linear-gradient-5" x1="391.17" y1="14.63" x2="395.38" y2="241.84" xlink:href="#linear-gradient"/><linearGradient id="linear-gradient-6" x1="387.17" y1="14.7" x2="391.38" y2="241.91" xlink:href="#linear-gradient"/></defs><g class="cls-1"><path class="cls-2" d="M241.16,303.11a11.77,11.77,0,0,1-4.3-.71A10.15,10.15,0,0,1,233.4,300a12.33,12.33,0,0,1-4.13,2.35,14.63,14.63,0,0,1-4.79.79h-4.34a4.16,4.16,0,0,0-3,.84,3.8,3.8,0,0,0-.85,2.79v11.4h-7V304.42a7.12,7.12,0,0,1,1.61-4.89,6.38,6.38,0,0,1,4.54-2,16.58,16.58,0,0,1-1.26-6.52,18.2,18.2,0,0,1,2.41-8.47,20.49,20.49,0,0,1,4.68-2,17.27,17.27,0,0,1,4.61-.72,12.41,12.41,0,0,1,5.83,1.37,9.92,9.92,0,0,1,4.09,3.9,11.41,11.41,0,0,1,1.47,5.84,13,13,0,0,1-.9,4.77,4.84,4.84,0,0,0,2,1.36,8.57,8.57,0,0,0,2.8.38h.23c.15,0,.23.07.23.19v5.23a.21.21,0,0,1-.23.23ZM220.71,292a16.9,16.9,0,0,0,1.08,5.48h1.79a6.46,6.46,0,0,0,4.74-1.9,6.26,6.26,0,0,0,1.92-4.61,6,6,0,0,0-1.23-4,4,4,0,0,0-3.22-1.44,8.82,8.82,0,0,0-4.39,1.3A19.29,19.29,0,0,0,220.71,292Z"/><path class="cls-2" d="M249.42,297.46c.17,0,.26.07.26.19v5.23c0,.15-.09.23-.26.23h-8.49a.21.21,0,0,1-.23-.23v-5.23c0-.12.08-.19.23-.19Z"/><path class="cls-2" d="M257.46,297.46c.16,0,.25.07.25.19v5.23c0,.15-.09.23-.25.23H249a.21.21,0,0,1-.23-.23v-5.23c0-.12.08-.19.23-.19Z"/><path class="cls-2" d="M257,303.11a.2.2,0,0,1-.23-.23v-5.23c0-.12.07-.19.23-.19h7.27V279.84h7v17.62h7.07c.15,0,.23.07.23.19v5.23a.21.21,0,0,1-.23.23Zm6.28,11.75A3,3,0,0,1,261,314a3.42,3.42,0,0,1-.85-2.46A3.51,3.51,0,0,1,261,309a3,3,0,0,1,2.3-.91,2.94,2.94,0,0,1,2.28.9,3.54,3.54,0,0,1,.82,2.5,3.43,3.43,0,0,1-.85,2.49A3,3,0,0,1,263.28,314.86Zm8,0A3,3,0,0,1,269,314a3.42,3.42,0,0,1-.85-2.46A3.55,3.55,0,0,1,269,309a3,3,0,0,1,2.31-.91,2.94,2.94,0,0,1,2.3.91,3.54,3.54,0,0,1,.82,2.49,3.43,3.43,0,0,1-.86,2.46A3,3,0,0,1,271.27,314.86Z"/><path class="cls-2" d="M283.16,297.46a16.06,16.06,0,0,1-.58-10.87,17.86,17.86,0,0,1,1.7-4.07,20.4,20.4,0,0,1,4.83-2,17.62,17.62,0,0,1,4.49-.69,12.37,12.37,0,0,1,5.84,1.38,9.79,9.79,0,0,1,4.07,3.89A11.42,11.42,0,0,1,305,291a12,12,0,0,1-1.66,6.33,11.36,11.36,0,0,1-4.63,4.29,13.9,13.9,0,0,1-6.54,1.54H277.86a.2.2,0,0,1-.23-.23v-5.23c0-.12.07-.19.23-.19Zm5.23-5.48a16.9,16.9,0,0,0,1.08,5.48h1.77a6.49,6.49,0,0,0,4.76-1.9,6.26,6.26,0,0,0,1.92-4.61,6.07,6.07,0,0,0-1.22-4,4,4,0,0,0-3.24-1.48,8.79,8.79,0,0,0-4.38,1.3A19.29,19.29,0,0,0,288.39,292Z"/><path class="cls-2" d="M324.25,304.42a7.12,7.12,0,0,1,1.61-4.89,6.38,6.38,0,0,1,4.54-2,16.58,16.58,0,0,1-1.26-6.52,16,16,0,0,1,.71-4.47,16.51,16.51,0,0,1,1.7-4,20.49,20.49,0,0,1,4.68-2,17.33,17.33,0,0,1,4.61-.72,12.38,12.38,0,0,1,5.83,1.37,9.92,9.92,0,0,1,4.09,3.9,11.41,11.41,0,0,1,1.47,5.84,12,12,0,0,1-1.67,6.33,11.39,11.39,0,0,1-4.62,4.29,13.9,13.9,0,0,1-6.54,1.54h-4.34a4.16,4.16,0,0,0-3,.84,3.8,3.8,0,0,0-.85,2.79v11.4h-7ZM335.64,292a16.86,16.86,0,0,0,1.07,5.48h1.79a6.43,6.43,0,0,0,4.74-1.9,6.26,6.26,0,0,0,1.92-4.61,6,6,0,0,0-1.23-4,4,4,0,0,0-3.22-1.44,8.82,8.82,0,0,0-4.39,1.3A19.29,19.29,0,0,0,335.64,292Z"/><path class="cls-2" d="M356.49,297.46H365l-6.06-23.72h7.32l5.6,23.72h.32a4.24,4.24,0,0,0,3.43-1.29A6.39,6.39,0,0,0,376.7,292V267.4h7v25.18a10.83,10.83,0,0,1-2.65,7.66,9.45,9.45,0,0,1-7.31,2.87H356.49Z"/><path class="cls-2" d="M454,297.46c.15,0,.23.07.23.19v5.23a.21.21,0,0,1-.23.23H414a9.24,9.24,0,0,1-6.85-2.52,9.4,9.4,0,0,1-2.52-6.93,18.52,18.52,0,0,1,.42-3.78,14.09,14.09,0,0,1,1.1-3.41h6.2a26.77,26.77,0,0,0-.72,6.15,5,5,0,0,0,1.22,3.51,4.13,4.13,0,0,0,3.21,1.33h12.21a9.46,9.46,0,0,1-2.25-6.19,10.37,10.37,0,0,1,3.63-8.34q3.63-3.09,10.1-3.09h8.37v17.62Zm-12.9,0v-12h-1.22a7,7,0,0,0-4.94,1.58,5.85,5.85,0,0,0-1.73,4.57,5.45,5.45,0,0,0,1.7,4.31,7.09,7.09,0,0,0,4.88,1.51Zm-1.67-21.66a3,3,0,0,1-2.32-.91,3.42,3.42,0,0,1-.85-2.46,3.51,3.51,0,0,1,.84-2.49,3,3,0,0,1,2.33-.91,3,3,0,0,1,2.26.9,3.54,3.54,0,0,1,.83,2.5,3.39,3.39,0,0,1-.86,2.46A2.92,2.92,0,0,1,439.42,275.8Z"/><path class="cls-2" d="M462,297.46c.17,0,.25.07.25.19v5.23c0,.15-.08.23-.25.23h-8.49a.2.2,0,0,1-.23-.23v-5.23c0-.12.07-.19.23-.19Z"/><path class="cls-2" d="M470,297.46c.17,0,.25.07.25.19v5.23c0,.15-.08.23-.25.23h-8.49a.21.21,0,0,1-.23-.23v-5.23c0-.12.08-.19.23-.19Z"/><path class="cls-2" d="M469.57,303.11a.21.21,0,0,1-.23-.23v-5.23c0-.12.08-.19.23-.19h5.88V267.4h7v35.71Z"/><path class="cls-2" d="M489.55,264.81l2.68-.44a4.13,4.13,0,0,1-1.51-1.27,3.14,3.14,0,0,1-.6-1.92,3.82,3.82,0,0,1,1.4-3.14,5.86,5.86,0,0,1,3.77-1.13,8,8,0,0,1,3.85.85l-.94,2.39a5.57,5.57,0,0,0-2.55-.6,2.26,2.26,0,0,0-1.63.6,2.2,2.2,0,0,0-.61,1.65,2.07,2.07,0,0,0,.41,1.29,2.59,2.59,0,0,0,1,.82l.82-.13c1.6-.25,2.87-.41,3.81-.49V266q-1.66.12-5.54.58c-2.58.3-4,.5-4.37.59Zm1.88,5.39h7v32.91h-7Z"/></g><g class="cls-1"><path class="cls-2" d="M109.75,377.46h15.69a29,29,0,0,0-2.35-7,16.3,16.3,0,0,0-3.53-4.61,17.92,17.92,0,0,0-5.25-3.22L117,356a22.36,22.36,0,0,1,10,7.66q3.8,5.19,5.56,13.77h6.17c.15,0,.23.07.23.19v5.23a.21.21,0,0,1-.23.23H109.75Z"/><path class="cls-2" d="M167,377.46c.15,0,.23.07.23.19v5.23a.21.21,0,0,1-.23.23h-6a15.28,15.28,0,0,1-4.59-.75,15.61,15.61,0,0,1-4.11-1.89,16.57,16.57,0,0,1-8.74,2.64h-5.44a.21.21,0,0,1-.23-.23v-5.23c0-.12.08-.19.23-.19h4.7a11.88,11.88,0,0,0,2.33-.25,8.87,8.87,0,0,0,2.08-.64,14.55,14.55,0,0,1-3-3.4,29.09,29.09,0,0,1-2.71-5.07,24.06,24.06,0,0,1-1.56-5.3,21.37,21.37,0,0,1,6.32-3.61,19.79,19.79,0,0,1,6.88-1.32,23.86,23.86,0,0,1,11.79,2.82A21.17,21.17,0,0,1,163,370a15.56,15.56,0,0,1-5.6,6.49,8.8,8.8,0,0,0,4.24.94Zm-14.58-3.81a11.2,11.2,0,0,0,5.92-9.29,13.86,13.86,0,0,0-5.3-.85,11.4,11.4,0,0,0-3.26.53,9.18,9.18,0,0,0-2.75,1.26,17.74,17.74,0,0,0,2.12,4.87A11.46,11.46,0,0,0,152.45,373.65Z"/><path class="cls-2" d="M171.8,355.64a8.42,8.42,0,0,1-5-1.7l1.61-2.32a6.52,6.52,0,0,0,3.33,1.29,7.08,7.08,0,0,0,1.93-.23,6.93,6.93,0,0,1-1.31-3.81,3.77,3.77,0,0,1,1.23-2.94,4.51,4.51,0,0,1,3.13-1.1,4.23,4.23,0,0,1,3,1.08,3.62,3.62,0,0,1,1.13,2.75,5.48,5.48,0,0,1-1.27,3.38,9,9,0,0,1-3.33,2.62A10.11,10.11,0,0,1,171.8,355.64Zm4.31-3.9a3.8,3.8,0,0,0,1.45-1.38,3.09,3.09,0,0,0,.44-1.49,1.35,1.35,0,0,0-.4-1,1.4,1.4,0,0,0-1-.39,1.61,1.61,0,0,0-1.06.4,1.51,1.51,0,0,0-.46,1.21A5,5,0,0,0,176.11,351.74Z"/><path class="cls-2" d="M166.57,383.11a.2.2,0,0,1-.23-.23v-5.23c0-.12.07-.19.23-.19h5.87V359.84h7v23.27Zm9,11.75a3,3,0,0,1-2.32-.91,3.47,3.47,0,0,1-.85-2.46,3.51,3.51,0,0,1,.84-2.49,3,3,0,0,1,2.33-.91,2.94,2.94,0,0,1,2.26.9,3.5,3.5,0,0,1,.84,2.5,3.43,3.43,0,0,1-.86,2.46A2.94,2.94,0,0,1,175.54,394.86Z"/><path class="cls-2" d="M234.85,377.46c.16,0,.23.07.23.19v5.23a.2.2,0,0,1-.23.23h-6.12q-.85,11.29-13.82,11.29h-2.06a13.57,13.57,0,0,1-6.83-1.65,10.93,10.93,0,0,1-4.43-4.65,14.88,14.88,0,0,1-1.53-6.87,23.82,23.82,0,0,1,.65-5.43,21.38,21.38,0,0,1,1.76-5h6.2a43,43,0,0,0-1.17,5.29,33.37,33.37,0,0,0-.44,5.15,8.18,8.18,0,0,0,1.72,5.45,5.67,5.67,0,0,0,4.55,2h1.4c2.42,0,4.19-.66,5.33-2a8.11,8.11,0,0,0,1.71-5.52V359.84h7v17.62Zm-20.44-17.64a3,3,0,0,1-2.32-.91,3.45,3.45,0,0,1-.85-2.47,3.54,3.54,0,0,1,.84-2.49,3,3,0,0,1,2.33-.9,3,3,0,0,1,2.26.89,3.51,3.51,0,0,1,.83,2.5,3.41,3.41,0,0,1-.86,2.47A3,3,0,0,1,214.41,359.82Z"/><path class="cls-2" d="M234.37,383.11a.21.21,0,0,1-.23-.23v-5.23c0-.12.08-.19.23-.19h7.23a5.9,5.9,0,0,1-2.78-2.64,8.41,8.41,0,0,1-1-4.13,10.4,10.4,0,0,1,3.48-8.29q3.48-3,9.51-3a21.5,21.5,0,0,1,4.33.46,16.13,16.13,0,0,1,3.57,1.08l-2,5.51a17.79,17.79,0,0,0-3.23-1.09,13.41,13.41,0,0,0-2.9-.31,6.17,6.17,0,0,0-4.47,1.53,5.9,5.9,0,0,0-1.58,4.43,6.69,6.69,0,0,0,1.63,4.66,5.57,5.57,0,0,0,4.38,1.81h8.6v5.65Z"/><path class="cls-2" d="M322.05,383.11a11.66,11.66,0,0,1-4.3-.71,10.94,10.94,0,0,1-3.69-2.73c-.33-.35-1.13-1.41-2.38-3.17a24.35,24.35,0,0,0-3.49-4.14,3.83,3.83,0,0,0-2.39-1.05,3.66,3.66,0,0,0-1.9.78,8,8,0,0,0-1.93,1.82,3.16,3.16,0,0,0-.78,1.76,2.14,2.14,0,0,0,.82,1.68,7.84,7.84,0,0,0,2.58,1.31,20.78,20.78,0,0,1,4.44,1.93,5.85,5.85,0,0,1,2.88,5.3,7.08,7.08,0,0,1-3.36,6.33c-2.25,1.45-5.62,2.18-10.14,2.18H287.33a9,9,0,0,1-4.87-1.36,9.2,9.2,0,0,1-3.38-3.83,12.41,12.41,0,0,1-1.21-5.53,28.22,28.22,0,0,1,1.52-9.08h6.24a20.24,20.24,0,0,0-.79,3.69,40.23,40.23,0,0,0-.2,4.36,6.17,6.17,0,0,0,.8,3,5.85,5.85,0,0,0,2.1,2.25,5.07,5.07,0,0,0,2.7.82h8.13a15.71,15.71,0,0,0,5.2-.58,2,2,0,0,0,1.38-1.93,1.64,1.64,0,0,0-.76-1.36,7.65,7.65,0,0,0-2.47-1c-2.63-.68-4.46-1.57-5.49-2.69a6.43,6.43,0,0,1-1.53-4.52,9.44,9.44,0,0,1,1.77-5.15,15.72,15.72,0,0,1,4.61-4.54,9.85,9.85,0,0,1,5.41-1.85,6.69,6.69,0,0,1,2.8.58,8.67,8.67,0,0,1,2.49,1.77,42.88,42.88,0,0,1,3.94,5.08,16.74,16.74,0,0,0,3.47,4,5,5,0,0,0,2.86.9h.23c.17,0,.25.07.25.19v5.23c0,.15-.08.23-.25.23ZM291,406a3,3,0,0,1-2.3-.9,4.06,4.06,0,0,1,0-5,3,3,0,0,1,2.31-.91,2.93,2.93,0,0,1,2.27.9,3.56,3.56,0,0,1,.83,2.5,3.48,3.48,0,0,1-.85,2.49A3,3,0,0,1,291,406Zm8,0a3,3,0,0,1-2.29-.9,3.47,3.47,0,0,1-.85-2.47,3.51,3.51,0,0,1,.84-2.49,3.36,3.36,0,0,1,4.6,0,3.55,3.55,0,0,1,.83,2.49,3.47,3.47,0,0,1-.86,2.47A3,3,0,0,1,299,406Z"/><path class="cls-2" d="M321.82,383.11a.21.21,0,0,1-.23-.23v-5.23c0-.12.08-.19.23-.19h7.23a5.9,5.9,0,0,1-2.78-2.64,8.41,8.41,0,0,1-1-4.13,10.4,10.4,0,0,1,3.48-8.29q3.48-3,9.51-3a21.5,21.5,0,0,1,4.33.46,15.85,15.85,0,0,1,3.56,1.08l-2,5.51a17.79,17.79,0,0,0-3.23-1.09A13.41,13.41,0,0,0,338,365a6.17,6.17,0,0,0-4.47,1.53A5.9,5.9,0,0,0,332,371a6.73,6.73,0,0,0,1.62,4.66,5.61,5.61,0,0,0,4.39,1.81h8.6v5.65Z"/><path class="cls-2" d="M371,377.46c.15,0,.23.07.23.19v5.23a.21.21,0,0,1-.23.23h-6.11v.76a10.79,10.79,0,0,1-2.67,7.69A9.35,9.35,0,0,1,355,394.4a16.2,16.2,0,0,1-4.42-.57,15.37,15.37,0,0,1-4.23-2.07l2.82-4.57a10,10,0,0,0,2.19,1.08,7.71,7.71,0,0,0,2.29.3,3.72,3.72,0,0,0,3-1.43,5.64,5.64,0,0,0,1.14-3.62V359.84h7v17.62Z"/><path class="cls-2" d="M420,377.46c.17,0,.26.07.26.19v5.23c0,.15-.09.23-.26.23H404.15a10.12,10.12,0,0,1-7.36-3.53q-2.64,3.53-7.85,3.53H370.51a.21.21,0,0,1-.23-.23v-5.23c0-.12.08-.19.23-.19h5.88V363.51h7v13.95h4a4.25,4.25,0,0,0,3.43-1.29A6.45,6.45,0,0,0,391.9,372v-8.52h7v9.07a15.24,15.24,0,0,1-.14,2.11,7.32,7.32,0,0,0,2.3,2.15,6.11,6.11,0,0,0,3,.62h2.91V359.84h7v17.62ZM391.69,355.8a3,3,0,0,1-2.29-.91,3.42,3.42,0,0,1-.85-2.46,3.51,3.51,0,0,1,.84-2.49,3.36,3.36,0,0,1,4.6,0,3.54,3.54,0,0,1,.82,2.49,3.39,3.39,0,0,1-.86,2.46A2.94,2.94,0,0,1,391.69,355.8Zm4-7.57a2.71,2.71,0,0,1-1.9-.71,2.83,2.83,0,0,1-.77-2.16,2.75,2.75,0,0,1,.77-2.17,2.78,2.78,0,0,1,1.9-.68,2.61,2.61,0,0,1,1.95.76,2.88,2.88,0,0,1,.73,2.09,3,3,0,0,1-.72,2.08A2.55,2.55,0,0,1,395.69,348.23Zm4,7.57a3,3,0,0,1-2.32-.91,3.47,3.47,0,0,1-.85-2.46,3.51,3.51,0,0,1,.84-2.49,3,3,0,0,1,2.33-.91,2.94,2.94,0,0,1,2.26.9,3.5,3.5,0,0,1,.84,2.5,3.43,3.43,0,0,1-.86,2.46A2.92,2.92,0,0,1,399.7,355.8Z"/><path class="cls-2" d="M419.58,383.11a.2.2,0,0,1-.23-.23v-5.23c0-.12.07-.19.23-.19h5.87V347.4h7v35.71Z"/><path class="cls-2" d="M441.44,347.4h7v35.71h-7Z"/><path class="cls-2" d="M501.6,383.11a11.77,11.77,0,0,1-4.3-.71,10,10,0,0,1-3.46-2.43,12.42,12.42,0,0,1-4.13,2.35,14.64,14.64,0,0,1-4.8.79h-4.33a4.14,4.14,0,0,0-3,.84,3.8,3.8,0,0,0-.85,2.79v11.4h-7V384.42a7.11,7.11,0,0,1,1.6-4.89,6.42,6.42,0,0,1,4.55-2,16.58,16.58,0,0,1-1.26-6.52,15.63,15.63,0,0,1,.71-4.47,16.13,16.13,0,0,1,1.7-4,19.7,19.7,0,0,1,4.68-2,17.27,17.27,0,0,1,4.61-.72,12.4,12.4,0,0,1,5.83,1.36,10,10,0,0,1,4.08,3.91,11.41,11.41,0,0,1,1.47,5.84,13.15,13.15,0,0,1-.89,4.77,4.6,4.6,0,0,0,1.95,1.35,8.5,8.5,0,0,0,2.8.39h.23c.15,0,.23.07.23.19v5.23a.21.21,0,0,1-.23.23ZM481.15,372a16.9,16.9,0,0,0,1.08,5.48H484a6.46,6.46,0,0,0,4.74-1.9,6.26,6.26,0,0,0,1.92-4.61,6,6,0,0,0-1.23-4,4,4,0,0,0-3.23-1.44,8.76,8.76,0,0,0-4.38,1.3A19.29,19.29,0,0,0,481.15,372Z"/><path class="cls-2" d="M501.37,383.11a.21.21,0,0,1-.23-.23v-5.23c0-.12.08-.19.23-.19h5.87V347.4h7v30.06h6.11c.15,0,.23.07.23.19v5.23a.21.21,0,0,1-.23.23Z"/><path class="cls-2" d="M548.74,377.46c.15,0,.23.07.23.19v5.23a.21.21,0,0,1-.23.23h-6a15.28,15.28,0,0,1-4.59-.75,15.61,15.61,0,0,1-4.11-1.89,16.6,16.6,0,0,1-8.74,2.64h-5.44a.21.21,0,0,1-.23-.23v-5.23c0-.12.08-.19.23-.19h4.7a11.88,11.88,0,0,0,2.33-.25,8.87,8.87,0,0,0,2.08-.64,14.55,14.55,0,0,1-3-3.4,29.09,29.09,0,0,1-2.71-5.07,24.06,24.06,0,0,1-1.56-5.3,21.37,21.37,0,0,1,6.32-3.61,19.79,19.79,0,0,1,6.88-1.32,23.86,23.86,0,0,1,11.79,2.82A21.17,21.17,0,0,1,544.7,370a15.56,15.56,0,0,1-5.6,6.49,8.8,8.8,0,0,0,4.24.94Zm-14.58-3.81a11.2,11.2,0,0,0,5.92-9.29,13.86,13.86,0,0,0-5.3-.85,11.4,11.4,0,0,0-3.26.53,9.18,9.18,0,0,0-2.75,1.26,17.74,17.74,0,0,0,2.12,4.87A11.46,11.46,0,0,0,534.16,373.65Z"/><path class="cls-2" d="M548.28,383.11a.2.2,0,0,1-.23-.23v-5.23c0-.12.07-.19.23-.19h7.27V359.84h7v17.62h7.07c.15,0,.23.07.23.19v5.23a.21.21,0,0,1-.23.23Zm6.38-27.31a3,3,0,0,1-2.3-.91,3.47,3.47,0,0,1-.85-2.46,3.51,3.51,0,0,1,.84-2.49,3,3,0,0,1,2.31-.91,2.93,2.93,0,0,1,2.27.9,3.54,3.54,0,0,1,.83,2.5,3.48,3.48,0,0,1-.85,2.49A3,3,0,0,1,554.66,355.8Zm8,0a3,3,0,0,1-2.29-.91,3.42,3.42,0,0,1-.85-2.46,3.51,3.51,0,0,1,.84-2.49,3.36,3.36,0,0,1,4.6,0,3.54,3.54,0,0,1,.82,2.49,3.39,3.39,0,0,1-.86,2.46A2.94,2.94,0,0,1,562.64,355.8Z"/><path class="cls-2" d="M569.14,383.11a.2.2,0,0,1-.23-.23v-5.23c0-.12.07-.19.23-.19H575V347.4h7v30.06h6.11c.15,0,.23.07.23.19v5.23a.21.21,0,0,1-.23.23Z"/><path class="cls-2" d="M587.66,383.11a.21.21,0,0,1-.23-.23v-5.23c0-.12.08-.19.23-.19h5.87V347.4h7v35.71Z"/></g><g id="Group_1" data-name="Group 1" class="cls-3"><path id="Path_1" data-name="Path 1" class="cls-4" d="M363,198.92c5.13-13.85,23.76-30.11,25.7-31.91,1.5-1.42,3.05-2.78,4.6-4.16,2.28-2,14.21-11,15.17-9.73a.69.69,0,0,1,.13.7c-.67,1.09-12.72,10.45-15.06,12.58A120.62,120.62,0,0,0,365.06,202a10,10,0,0,0,1,1.57,43.9,43.9,0,0,1,8.06,25.88c.09,4.35-.07,13.06-3.35,14.06-.9.14-5.87,1.21-9.69-8.5a54.63,54.63,0,0,1-2.84-19.65,36.79,36.79,0,0,1,2.84-11.91,78.4,78.4,0,0,0-12.8-12.82c-17.67-13.34-46.35-31.72-47.27-32.48a43.7,43.7,0,0,1-17.42-39.73c2.61-23.85,38.3-28.62,38.83-35.72.05-1.83.85-10.45.92-11.45a2.26,2.26,0,0,1,1.42-2.22,16.54,16.54,0,0,0,3.92-3c.87-.71,1.77-1.33,2.68-2,5.18-1.1,3.81,6.7,3.65,8.16a51.34,51.34,0,0,1-1,7,34.85,34.85,0,0,1-2.27,6.17,30.52,30.52,0,0,1-5.92,8.36c-1.31,1.41-2.81,2.65-4.21,4a29,29,0,0,1-7.79,4.89c-2,.94-1.89,1-2.77,3a44.51,44.51,0,0,0-2.05,6.23,8.32,8.32,0,0,0,.35,5.5c3.29,7.11,12,16.73,31.22,14.31,24.16-2.49,44-19.19,45.15-20.13a6.94,6.94,0,0,0,.79-.93,10.11,10.11,0,0,1-1.8-4.66,15.43,15.43,0,0,1,.07-4.45c.67-3.65,1.45-7.29,2.38-10.89,2.18-8.34,5.71-10.52,7.41-11.28a3.37,3.37,0,0,1,2.42,0,12.28,12.28,0,0,1,5.77,9.59c.07.9.15,1.81.24,2.84a6,6,0,0,0,.54-.46,72.64,72.64,0,0,0,5.74-7,51.08,51.08,0,0,0,4.35-7.51,4.83,4.83,0,0,0,.1-3.43c-.66-2.39-1.4-4.79-2.1-7.13a102.36,102.36,0,0,0-6.88-14.93c-.25,1.1-.48,2-.64,2.86-.35,1.9-3.57,19.83-3.6,20.12a.86.86,0,0,1-.65.83c-.36.07-.69-.29-.72-.83a30.26,30.26,0,0,1,.27-6.45c.49-2.92.88-5.84,1.44-8.74.84-4.46,1.74-8.92,2.66-13.36.61-3,1.31-6,2-8.92a1.51,1.51,0,0,1,.67-1c.37-.07.62.32.87,1a11.71,11.71,0,0,0,.88,1.9,118.49,118.49,0,0,1,9.5,23.16,20.24,20.24,0,0,1,.32,6.54,54.21,54.21,0,0,1-1.79,10.2c-.43,1.55-.82,3.14-1.25,4.7a31.88,31.88,0,0,1-3.4,7.53c-1.44,2.46-2.84,5-4.45,7.32a134.77,134.77,0,0,1-9.08,10.61,4,4,0,0,0-1,2.18,21.77,21.77,0,0,0,3.68,15.29c8,10,15.57,8.37,17.5,8s13.92-4,19.74-23.64a26.85,26.85,0,0,0,.3-10.49c-.32-2.49-3.52-19.85-9.54-26.73a6.8,6.8,0,0,0-.61-.7c-.06.47-.12.76-.13,1-.19,3.78-.29,7.56-.55,11.33-.38,5.26-1.08,22.7-1.12,23.21,0,.3-.15.63-.48.58s-.48,0-.59-.5a110.46,110.46,0,0,1-.44-12.2c.2-4.22.36-8.44.51-12.67.12-3.36.17-6.73.3-10.1a48.94,48.94,0,0,1,.36-5.13c.35-2.51.87-5,1.3-7.5.19-1,.44-4.22,1.14-4.27a105.91,105.91,0,0,1,5.78,9.15,59,59,0,0,1,5.34,13.31,64.61,64.61,0,0,1,1.44,7.28,56.29,56.29,0,0,1,.66,6.34,50.14,50.14,0,0,1-.11,6.37c-.25,2.94-.55,5.89-1.08,8.79q-1.31,7-2.92,13.88A48.88,48.88,0,0,1,432.08,134c-2.05,3.67-11.28,16.64-23.53,13.07a9.36,9.36,0,0,1-2.18-1c-2.61-1.55-15.52-9-12-33.88,0-.06.05-.15-.05-.22a61.36,61.36,0,0,0-5.92,6.25,88.88,88.88,0,0,1-14.57,11.95,82.86,82.86,0,0,1-30,13.07,48.26,48.26,0,0,1-21.19-.08,24.89,24.89,0,0,1-16.59-14.11,16.49,16.49,0,0,1-.71-7.6,122.55,122.55,0,0,1,4.35-16.77c-.51.2-19,6.67-23.24,21.35a7.29,7.29,0,0,0,.15,4.57,31,31,0,0,0,4.91,8.77,61.28,61.28,0,0,0,16.14,13.83c50.36,29.9,52.67,42.16,55.33,45.66m.27,7.37a40.56,40.56,0,0,0-2.85,15.35,13.94,13.94,0,0,0,2.18,7.48,6.66,6.66,0,0,0,2.52,2.25,2.41,2.41,0,0,0,3.3-.89l.09-.19a17.55,17.55,0,0,0,1.31-9.91,23.54,23.54,0,0,0-1.23-4.66,57,57,0,0,0-5.34-9.44m34-109.15a.58.58,0,0,0,.19-.81l0,0c-.33-.72-1.64-3.77-3.58-4.15a3.28,3.28,0,0,0-2.5.1,5.78,5.78,0,0,0-3.09,4.41,1.47,1.47,0,0,0,0,.75c1.56,4.45,7.24,1,9-.28"/><path id="Path_2" data-name="Path 2" class="cls-4" d="M308.69,58.38A4.5,4.5,0,0,0,311,57.6c1.3-.91,2.55-1.88,3.82-2.84.48-.36.91-.78,1.38-1.16a2.18,2.18,0,0,1,2.95.09,3.29,3.29,0,0,1,1.08,2,15.39,15.39,0,0,1-.19,4.74c-.42,2.37-.92,4.73-1.48,7.08a11.7,11.7,0,0,1-2.62,5.15,7.75,7.75,0,0,1-1.12,1,69.62,69.62,0,0,1-10.53,6.6c-1.42.71-2.82,1.46-4.22,2.18S286.25,91,284.51,92.62c-18.29,14.31-13,37.11-12.67,39.34.13.95.27,1.89.4,2.83,0,.32.1.68-.28.83a.91.91,0,0,1-1-.24,2.27,2.27,0,0,1-.4-.77,47.9,47.9,0,0,1,9.18-50.15,68.39,68.39,0,0,1,24.88-16.31,1.84,1.84,0,0,0,1.22-1.56c.27-2,.68-7.74.82-8.58.2-1.13,1.54-14.33,8-21.35a23.56,23.56,0,0,1,4.59-4.1,4.3,4.3,0,0,1,6,.85l.27.41c1,1.56,2.1,3.1,3.12,4.67a3.89,3.89,0,0,0,3.78,1.74c1,0,7.89.38,13.1-14.37,1.11-3.08,2.28-6.12,3.51-9.15a20.33,20.33,0,0,1,1.59-2.7,5.16,5.16,0,0,0,.89-2.46c.07-1.61.33-3.22.49-4.82.08-.79.14-1.59.21-2.38,0-.35.08-.69.12-1s.16-.69.54-.69c1.11,0-.09,4.79,10.28,6.32a18.09,18.09,0,0,1,5.42,1.74,1.89,1.89,0,0,1,1.26,2c-.05,1.05-1.18,10.53-1.22,10.68-.28.94-.48,1-1.31.6a10.46,10.46,0,0,0-3.84-1.05,41.86,41.86,0,0,0-7.51-.23A6.93,6.93,0,0,0,352,24.3a14.58,14.58,0,0,0-4.65,7.28c-.91,2.9-1.74,5.83-2.61,8.75A25,25,0,0,1,340.21,49c-.87,1.08-8,8.28-13.11,2.07-.79-.87-4-7.59-8.38-5.77A24.07,24.07,0,0,0,310,54.81a22.44,22.44,0,0,0-1.28,3.55"/><path id="Path_3" data-name="Path 3" class="cls-4" d="M350.36,104.8c7.41,5.47,17.38-4.15,19.17-6.08a28.09,28.09,0,0,0,4-5.79,77.35,77.35,0,0,0,4.28-10.17,17.07,17.07,0,0,0,.82-7.7c-.21-2.28-.39-4.56-.76-6.81A49.29,49.29,0,0,0,376,60.68a93.27,93.27,0,0,0-4.53-10.89c-.2-.44-.44-.83-.76-1.44a35.11,35.11,0,0,0-.75,4.57c-.14,1.71-1.41,31-1.54,33.39s-.39,4.74-.67,7.11c-.17,1.45-.5,2.87-.77,4.31-.07.36-.22,1.08-.68,1s-.78-4.39-.78-6.15c0-3.69.54-20.07.6-22.12.08-2.63.12-5.27.23-7.91q.21-4.84.51-9.71c.18-3,.38-6,.67-9,.17-1.8.53-3.58.82-5.36.34-2.13.7-4.26,1.06-6.39a4.64,4.64,0,0,1,.16-.74c.2-.69.59-.8,1.06-.23s5.51,10.09,6.66,12.47a61.86,61.86,0,0,1,3.26,8.32,34.28,34.28,0,0,1,1.43,6.8A104.11,104.11,0,0,1,382,71.5a70.35,70.35,0,0,1-1.83,12.9c-.49,2.29-.9,4.61-1.49,6.88-7.06,25.15-17.9,26.93-21.64,28.06-1.39.31-6.64,2.11-13.13-5.63-.71-1-.74-.88-1.64-.39a96,96,0,0,1-27.83,7.74,1.06,1.06,0,0,1-.53-1.42l.06-.11c.29-.59,1.12-.83,1.74-1a99.63,99.63,0,0,0,20.12-9.47c1.37-.87,2.61-1.9,3.92-2.85a1.12,1.12,0,0,0,.39-1.26,59.56,59.56,0,0,1,1-21.08c.34-2.52,2.44-10.63,3-12.19q1.45-4.34,3.05-8.62c1.66-4.56,3.38-9.11,5-13.68a24.71,24.71,0,0,0,.59-2.4,4.5,4.5,0,0,1,.17-.63c.21-.48.59-.59,1-.26a1.91,1.91,0,0,1,.51.68c1,2.23,1.91,4.49,3,6.7a32.8,32.8,0,0,1,2.23,7.26,37.48,37.48,0,0,1,.56,7.41,57.88,57.88,0,0,1-1.45,12.65,98.5,98.5,0,0,1-3.85,13.94,61.11,61.11,0,0,1-3.92,8.88c-.19.36-.35.73-.56,1.19m1.3-44.19c-.15.38-3.52,10.27-5.34,14.88a65,65,0,0,0-3.85,12.2,16.66,16.66,0,0,0,2.53,12.69,53.24,53.24,0,0,0,11.76-23,30.71,30.71,0,0,0-.53-5.23,38.8,38.8,0,0,0-4.67-11.57"/><path id="Path_4" data-name="Path 4" class="cls-4" d="M363.92,157.84a22.87,22.87,0,0,0,1.51-1.9c1.6-2.48,3.16-5,4.73-7.48.5-.78.82-.92,1.65-.44,1.49.87,10.45,7.73,10.84,7.9-.44.88-3.29,5.67-4.4,7.37-.53.82-1.05,1.64-1.55,2.48a1.27,1.27,0,0,1-1.61.76,1.3,1.3,0,0,1-.43-.27c-2-1.25-7.84-4.95-8.86-5.54-.54-.32-.7-.31-1.16.18-.3.33-5.84,7.84-7.24,9.8-.69,1-10.53-7.06-10.78-7.63a1.64,1.64,0,0,1,.09-1.43,48.28,48.28,0,0,1,3.85-6c.7-1.06,1.44-2.09,2.18-3.14a3.17,3.17,0,0,1,1.61-1.25,1.19,1.19,0,0,1,1.31.18c1.47,1.21,3,2.38,4.39,3.62a26.14,26.14,0,0,0,3.88,2.74"/><path id="Path_5" data-name="Path 5" class="cls-4" d="M399.33,51a11.76,11.76,0,0,1-.39,1.44c-1.1,2.81-2.22,5.61-3.34,8.41a3.56,3.56,0,0,1-.35.67c-.48.76-.7.79-1.55.44-1.3-.51-2.61-.95-3.92-1.47s-2.87-1.17-4.29-1.8A2.14,2.14,0,0,1,384.44,56c1.15-3.05,2.28-6.07,3.42-9.08l.07-.18c.58-1.6.75-1.64,2.12-.67a14.13,14.13,0,0,0,3.77,1.77c1.53.51,3.05,1.07,4.58,1.6.7.25,1,.62.92,1.57"/><path id="Path_6" data-name="Path 6" class="cls-4" d="M389,21.48c1.08.17.87.13,1.22.17a4.87,4.87,0,0,1,2.27.63,3.88,3.88,0,0,1,1.63,3.1,26.76,26.76,0,0,1,0,3.23,14.33,14.33,0,0,1-1.3,5.23,17.63,17.63,0,0,1-4.62,6l-5.75,4.7c-.18.14-1.06,1-1.43.44s.26-1.31.43-1.48c.6-.69,1.2-1.4,1.84-2.06a70.51,70.51,0,0,0,7-8.51,19.67,19.67,0,0,0,1.43-2.58c.43-.91.17-1.35-.82-1.52-.44-.07-.87-.09-1.31-.15a2.85,2.85,0,0,1-2.68-1.83,6.11,6.11,0,0,1-.33-1.48,34.69,34.69,0,0,1,.2-6.28A13.34,13.34,0,0,1,388,14.39c.33-.61,1-2.18,1.95-1.93,1.34.36.29,6.85-.35,7.91-.15.3-.43.31-.54,1.09"/></g><g id="Group_1-2" data-name="Group 1"><path id="Path_1-2" data-name="Path 1" class="cls-5" d="M363,196.3c5.14-13.85,23.76-30.11,25.7-31.92,1.51-1.41,3-2.77,4.6-4.15,2.28-2,14.22-11,15.18-9.73a.71.71,0,0,1,.12.7c-.66,1.09-12.71,10.45-15.06,12.57a120.76,120.76,0,0,0-28.45,35.64,9.76,9.76,0,0,0,1,1.57,43.81,43.81,0,0,1,8.05,25.87c.1,4.36-.06,13.07-3.35,14.07-.9.14-5.87,1.21-9.68-8.5a54.47,54.47,0,0,1-2.84-19.65,36.77,36.77,0,0,1,2.83-11.91A78.34,78.34,0,0,0,348.3,188c-17.67-13.34-46.36-31.72-47.27-32.48a43.66,43.66,0,0,1-17.42-39.73C286.22,92,321.9,87.21,322.43,80.11c.05-1.84.85-10.45.92-11.45a2.26,2.26,0,0,1,1.42-2.22,16.4,16.4,0,0,0,3.92-3c.88-.71,1.78-1.33,2.69-2,5.17-1.1,3.8,6.7,3.65,8.16a53,53,0,0,1-1,7,35.69,35.69,0,0,1-2.28,6.17,30.67,30.67,0,0,1-5.92,8.36c-1.3,1.41-2.81,2.65-4.21,4a28.56,28.56,0,0,1-7.78,4.9c-2,.94-1.89,1-2.78,3a45.4,45.4,0,0,0-2.05,6.23,8.32,8.32,0,0,0,.35,5.5c3.29,7.1,12,16.73,31.23,14.31,24.16-2.49,44-19.19,45.15-20.13a6.38,6.38,0,0,0,.78-.94,9.91,9.91,0,0,1-1.79-4.65,15.79,15.79,0,0,1,.06-4.45c.67-3.66,1.45-7.29,2.39-10.89,2.17-8.34,5.7-10.52,7.4-11.28a3.37,3.37,0,0,1,2.42,0,12.25,12.25,0,0,1,5.77,9.58c.07.91.16,1.82.24,2.85a6.06,6.06,0,0,0,.54-.47,68.91,68.91,0,0,0,5.74-7,51.42,51.42,0,0,0,4.36-7.5,4.83,4.83,0,0,0,.09-3.43c-.66-2.39-1.39-4.8-2.09-7.13a101.93,101.93,0,0,0-6.89-14.93c-.25,1.1-.47,2-.64,2.85-.35,1.91-3.57,19.84-3.6,20.12a.87.87,0,0,1-.65.84c-.36.07-.69-.29-.72-.83a29.71,29.71,0,0,1,.28-6.46c.48-2.91.87-5.83,1.44-8.74.83-4.46,1.74-8.91,2.65-13.35.62-3,1.31-6,2-8.93a1.48,1.48,0,0,1,.67-1c.37-.07.62.32.87,1a11.23,11.23,0,0,0,.87,1.9,118.27,118.27,0,0,1,9.51,23.16,20.23,20.23,0,0,1,.32,6.54,56,56,0,0,1-1.79,10.2c-.44,1.55-.82,3.13-1.26,4.69a31.89,31.89,0,0,1-3.39,7.53c-1.44,2.47-2.85,5-4.46,7.32A133.13,133.13,0,0,1,397.75,106a4.13,4.13,0,0,0-1,2.18,21.78,21.78,0,0,0,3.68,15.29c8,10,15.57,8.36,17.51,8s13.91-4,19.73-23.63a26.52,26.52,0,0,0,.3-10.5c-.31-2.48-3.51-19.84-9.54-26.72a6.71,6.71,0,0,0-.6-.7,10.31,10.31,0,0,0-.14,1.05c-.18,3.78-.28,7.56-.55,11.33-.38,5.26-1.07,22.7-1.11,23.21,0,.3-.16.63-.49.58s-.48,0-.59-.5a113,113,0,0,1-.44-12.2q.3-6.33.51-12.67c.12-3.37.18-6.73.3-10.1q.06-2.58.36-5.13c.35-2.51.87-5,1.31-7.5.18-1,.43-4.22,1.13-4.27a103.54,103.54,0,0,1,5.78,9.15,59,59,0,0,1,5.35,13.31,66,66,0,0,1,1.44,7.28,61.07,61.07,0,0,1,.66,6.34,52.09,52.09,0,0,1-.11,6.37c-.26,2.94-.55,5.89-1.09,8.79q-1.31,7-2.91,13.88a48.91,48.91,0,0,1-5.12,12.48c-2,3.67-11.27,16.64-23.52,13.07a9,9,0,0,1-2.18-1c-2.61-1.56-15.53-9-12-33.88,0-.06.05-.15-.05-.22a61.26,61.26,0,0,0-5.91,6.25,89.3,89.3,0,0,1-14.57,12,82.72,82.72,0,0,1-30,13.06,48,48,0,0,1-21.19-.08,24.87,24.87,0,0,1-16.59-14.1,16.65,16.65,0,0,1-.71-7.61,122.83,122.83,0,0,1,4.36-16.76c-.51.19-19,6.67-23.24,21.34a7.18,7.18,0,0,0,.15,4.58,31.16,31.16,0,0,0,4.91,8.77,61,61,0,0,0,16.14,13.83c50.36,29.9,52.66,42.16,55.32,45.66m.27,7.37A40.51,40.51,0,0,0,360.45,219a14,14,0,0,0,2.17,7.48,6.81,6.81,0,0,0,2.52,2.25,2.41,2.41,0,0,0,3.3-.9,1.51,1.51,0,0,0,.09-.18,17.48,17.48,0,0,0,1.31-9.91,23.54,23.54,0,0,0-1.23-4.66,57.43,57.43,0,0,0-5.33-9.45m34-109.14a.59.59,0,0,0,.19-.81v0c-.34-.72-1.64-3.77-3.58-4.16a3.28,3.28,0,0,0-2.5.11,5.8,5.8,0,0,0-3.1,4.41,1.58,1.58,0,0,0,0,.75c1.56,4.44,7.25,1,9-.29"/><path id="Path_2-2" data-name="Path 2" class="cls-6" d="M308.73,55.76A4.45,4.45,0,0,0,311,55c1.31-.9,2.56-1.87,3.82-2.83.48-.36.91-.79,1.38-1.16a2.18,2.18,0,0,1,2.95.09,3.3,3.3,0,0,1,1.09,2,15.39,15.39,0,0,1-.2,4.74q-.63,3.56-1.48,7.08A11.68,11.68,0,0,1,316,70a8.46,8.46,0,0,1-1.13,1,71.24,71.24,0,0,1-10.53,6.6c-1.42.71-2.81,1.45-4.22,2.18S286.3,88.33,284.55,90c-18.29,14.31-13,37.1-12.66,39.34.12.94.27,1.89.39,2.83,0,.31.1.68-.27.83a.91.91,0,0,1-1.05-.25,2.16,2.16,0,0,1-.41-.76,47.88,47.88,0,0,1,9.19-50.15,68.46,68.46,0,0,1,24.88-16.32A1.83,1.83,0,0,0,305.83,64c.27-2,.68-7.75.83-8.58.19-1.13,1.53-14.33,8-21.35a24,24,0,0,1,4.6-4.11,4.29,4.29,0,0,1,6,.86,3.62,3.62,0,0,1,.27.41c1,1.56,2.11,3.1,3.12,4.67a3.92,3.92,0,0,0,3.79,1.74c1-.06,7.88.38,13.09-14.37q1.68-4.62,3.52-9.15a21.4,21.4,0,0,1,1.58-2.7,5.09,5.09,0,0,0,.89-2.46c.08-1.61.33-3.22.49-4.83.08-.79.14-1.58.22-2.37,0-.35.07-.69.11-1s.17-.69.55-.69c1.1,0-.1,4.79,10.28,6.32a17.9,17.9,0,0,1,5.42,1.74,1.88,1.88,0,0,1,1.25,2c0,1.05-1.17,10.52-1.22,10.68-.28.93-.48,1-1.31.6a10.68,10.68,0,0,0-3.83-1.06,42.84,42.84,0,0,0-7.51-.22,6.9,6.9,0,0,0-3.92,1.6A14.51,14.51,0,0,0,347.39,29c-.91,2.91-1.74,5.84-2.61,8.76a25.1,25.1,0,0,1-4.52,8.64c-.88,1.08-8,8.27-13.12,2.07-.79-.87-4-7.6-8.37-5.77A24,24,0,0,0,310,52.19a23.1,23.1,0,0,0-1.28,3.55"/><path id="Path_3-2" data-name="Path 3" class="cls-7" d="M350.4,102.17c7.41,5.48,17.38-4.15,19.17-6.07a28.2,28.2,0,0,0,4-5.8,77.51,77.51,0,0,0,4.27-10.17,17,17,0,0,0,.82-7.69c-.21-2.28-.38-4.56-.76-6.82A49.46,49.46,0,0,0,376,58.06a90.88,90.88,0,0,0-4.53-10.89c-.2-.44-.43-.83-.76-1.44A35.11,35.11,0,0,0,370,50.3c-.14,1.71-1.4,31-1.53,33.39s-.39,4.74-.68,7.11c-.17,1.44-.5,2.87-.77,4.31-.07.36-.22,1.08-.68.94s-.78-4.38-.77-6.15c0-3.68.53-20.06.6-22.11.07-2.64.11-5.28.23-7.91.13-3.24.3-6.47.5-9.71.19-3,.39-6,.67-9,.18-1.8.53-3.58.82-5.37q.52-3.2,1.06-6.38a6.69,6.69,0,0,1,.16-.75c.21-.68.59-.79,1.06-.22s5.52,10.09,6.66,12.46a62.57,62.57,0,0,1,3.27,8.33A34.31,34.31,0,0,1,382,56a102.2,102.2,0,0,1,0,12.86,68.66,68.66,0,0,1-1.83,12.91c-.49,2.29-.9,4.61-1.49,6.88-7.06,25.15-17.89,26.92-21.63,28.06-1.39.3-6.65,2.11-13.14-5.64-.71-1-.73-.87-1.64-.38a96.49,96.49,0,0,1-27.82,7.74,1.09,1.09,0,0,1-.54-1.43l.06-.1c.29-.59,1.12-.83,1.74-1a100.18,100.18,0,0,0,20.12-9.47c1.38-.87,2.62-1.91,3.92-2.85a1.12,1.12,0,0,0,.4-1.26,59.55,59.55,0,0,1,1-21.08c.34-2.52,2.44-10.64,3-12.2,1-2.88,2-5.76,3.05-8.62,1.66-4.56,3.37-9.1,5-13.67a22.11,22.11,0,0,0,.59-2.4,3.58,3.58,0,0,1,.18-.64.57.57,0,0,1,1-.25,2,2,0,0,1,.5.67c1,2.24,1.92,4.5,3,6.71a32.3,32.3,0,0,1,2.24,7.26,37.43,37.43,0,0,1,.55,7.4,57.37,57.37,0,0,1-1.45,12.66A98.84,98.84,0,0,1,355,92.12,63.35,63.35,0,0,1,351,101c-.2.36-.36.73-.57,1.19M351.78,58c-.16.38-3.53,10.27-5.35,14.88a65.15,65.15,0,0,0-3.85,12.19,16.69,16.69,0,0,0,2.54,12.7,53.35,53.35,0,0,0,11.76-23,31.65,31.65,0,0,0-.53-5.23A38.77,38.77,0,0,0,351.67,58"/><path id="Path_4-2" data-name="Path 4" class="cls-8" d="M364,155.21a23.15,23.15,0,0,0,1.51-1.89c1.6-2.48,3.15-5,4.73-7.48.49-.78.82-.92,1.64-.44,1.5.87,10.45,7.72,10.84,7.9-.43.87-3.28,5.66-4.4,7.37-.53.82-1.05,1.64-1.55,2.48a1.24,1.24,0,0,1-1.6.75,1.06,1.06,0,0,1-.43-.26c-1.95-1.25-7.84-4.95-8.87-5.55-.53-.31-.7-.3-1.15.19-.3.32-5.85,7.84-7.24,9.79-.69,1-10.54-7-10.78-7.62a1.6,1.6,0,0,1,.08-1.43,49.55,49.55,0,0,1,3.86-6c.69-1.06,1.43-2.1,2.17-3.14a3.22,3.22,0,0,1,1.61-1.25,1.2,1.2,0,0,1,1.31.17c1.47,1.21,3,2.39,4.4,3.63a25.48,25.48,0,0,0,3.87,2.73"/><path id="Path_5-2" data-name="Path 5" class="cls-9" d="M399.38,48.36a11.8,11.8,0,0,1-.4,1.44c-1.09,2.81-2.21,5.61-3.33,8.41a5.32,5.32,0,0,1-.35.67c-.48.75-.7.78-1.55.44-1.31-.51-2.62-1-3.92-1.47s-2.88-1.17-4.3-1.8a2.15,2.15,0,0,1-1-2.72c1.16-3,2.29-6.07,3.42-9.09l.07-.17c.58-1.6.76-1.64,2.12-.68a14.14,14.14,0,0,0,3.77,1.78c1.53.51,3.05,1.06,4.58,1.6.7.25,1,.62.92,1.57"/><path id="Path_6-2" data-name="Path 6" class="cls-10" d="M389,18.85c1.07.18.87.13,1.22.18a4.93,4.93,0,0,1,2.27.63,3.87,3.87,0,0,1,1.62,3.1,29,29,0,0,1,0,3.23,14.6,14.6,0,0,1-1.31,5.23,17.5,17.5,0,0,1-4.62,6l-5.75,4.7c-.17.14-1.06.94-1.43.44s.26-1.31.44-1.48c.6-.7,1.2-1.4,1.83-2.06a70.86,70.86,0,0,0,7-8.52,19.49,19.49,0,0,0,1.42-2.57c.44-.91.17-1.35-.82-1.52-.43-.07-.87-.1-1.31-.15a2.86,2.86,0,0,1-2.68-1.83,6.73,6.73,0,0,1-.32-1.48,34.66,34.66,0,0,1,.19-6.28A13.3,13.3,0,0,1,388,11.77c.32-.61,1-2.18,2-1.93,1.34.36.29,6.85-.35,7.91-.16.3-.44.31-.55,1.09"/></g></svg>