<svg xmlns="http://www.w3.org/2000/svg" width="114" height="114" viewBox="0 0 114 114">
  <g id="M_2ndS_3icon" transform="translate(19280 7825)">
    <rect id="Rectangle_2620" data-name="Rectangle 2620" width="114" height="114" transform="translate(-19280 -7825)" fill="none"/>
    <g id="Group_1683" data-name="Group 1683" transform="translate(-19276 -7821)">
      <g id="Group_1671" data-name="Group 1671" transform="translate(0 94)">
        <path id="Path_4382" data-name="Path 4382" d="M-43.724,678.828H-150.539V666.19H-43.724ZM-147.4,675.691H-46.861v-6.364H-147.4Z" transform="translate(150.539 -666.19)" fill="#fff"/>
      </g>
      <g id="Group_1672" data-name="Group 1672" transform="translate(13.446 80.619)">
        <path id="Path_4383" data-name="Path 4383" d="M-126.943,665.589h-.188a6.269,6.269,0,0,1-6.263-6.262v-3.935a6.271,6.271,0,0,1,6.263-6.264h.188a6.27,6.27,0,0,1,6.262,6.264v3.935A6.269,6.269,0,0,1-126.943,665.589Zm-.188-13.436a3.243,3.243,0,0,0-3.24,3.24v3.935a3.243,3.243,0,0,0,3.24,3.239h.188a3.243,3.243,0,0,0,3.24-3.239v-3.935a3.243,3.243,0,0,0-3.24-3.24Z" transform="translate(133.394 -649.128)" fill="#fff"/>
      </g>
      <g id="Group_1673" data-name="Group 1673" transform="translate(80.765 80.619)">
        <path id="Path_4384" data-name="Path 4384" d="M-41.1,665.589h-.188a6.269,6.269,0,0,1-6.263-6.262v-3.935a6.271,6.271,0,0,1,6.263-6.264h.188a6.27,6.27,0,0,1,6.262,6.264v3.935A6.269,6.269,0,0,1-41.1,665.589Zm-.188-13.436a3.243,3.243,0,0,0-3.24,3.24v3.935a3.243,3.243,0,0,0,3.24,3.239h.188a3.243,3.243,0,0,0,3.24-3.239v-3.935a3.243,3.243,0,0,0-3.24-3.24Z" transform="translate(47.555 -649.128)" fill="#fff"/>
      </g>
      <g id="Group_1674" data-name="Group 1674" transform="translate(18.235 64.854)">
        <path id="Path_4385" data-name="Path 4385" d="M-56.926,646.3h-3.137v-9.521c-1.046-1.136-4.94-4.62-13.331-4.62A33.821,33.821,0,0,0-91.2,637.491l-.928.659-.917-.678A31.4,31.4,0,0,0-110.17,632.4c-8.233,0-12.673,3.308-13.981,4.474V646.3h-3.137V635.609l.4-.448c.217-.241,5.454-5.9,16.713-5.9A34.743,34.743,0,0,1-92.1,634.334a36.847,36.847,0,0,1,18.71-5.309c11.534,0,15.989,6.017,16.173,6.273l.295.41Z" transform="translate(127.288 -629.025)" fill="#fff"/>
      </g>
      <g id="Group_1675" data-name="Group 1675" transform="translate(51.839 72.042)">
        <rect id="Rectangle_2479" data-name="Rectangle 2479" width="3.137" height="23.527" fill="#fff"/>
      </g>
      <g id="Group_1676" data-name="Group 1676" transform="translate(24.976 53.347)">
        <path id="Path_4386" data-name="Path 4386" d="M-115.555,623.922h-3.137a9.581,9.581,0,0,1,9.57-9.569v3.137A6.44,6.44,0,0,0-115.555,623.922Z" transform="translate(118.692 -614.353)" fill="#fff"/>
      </g>
      <g id="Group_1677" data-name="Group 1677" transform="translate(72.576 53.347)">
        <path id="Path_4387" data-name="Path 4387" d="M-48.427,623.922h-3.137A6.44,6.44,0,0,0-58,617.49v-3.137A9.581,9.581,0,0,1-48.427,623.922Z" transform="translate(57.997 -614.353)" fill="#fff"/>
      </g>
      <g id="Group_1678" data-name="Group 1678" transform="translate(36.932 0)">
        <path id="Path_4388" data-name="Path 4388" d="M-86.809,596.192h-.447A16.209,16.209,0,0,1-103.447,580V562.519a16.208,16.208,0,0,1,16.191-16.19h.447a16.208,16.208,0,0,1,16.19,16.19V580A16.208,16.208,0,0,1-86.809,596.192Zm-.447-46.719A13.06,13.06,0,0,0-100.3,562.519V580a13.06,13.06,0,0,0,13.046,13.046h.447A13.061,13.061,0,0,0-73.763,580V562.519a13.061,13.061,0,0,0-13.046-13.046Z" transform="translate(103.447 -546.329)" fill="#fff"/>
      </g>
      <g id="Group_1679" data-name="Group 1679" transform="translate(37.032 14.884)">
        <path id="Path_4389" data-name="Path 4389" d="M-100.378,575.915l-2.941-1.113c.146-.388,3.712-9.494,16.314-9.494s16.167,9.106,16.313,9.494l-2.943,1.106c-.115-.3-3.015-7.455-13.37-7.455S-100.26,575.611-100.378,575.915Z" transform="translate(103.319 -565.308)" fill="#fff"/>
      </g>
      <g id="Group_1680" data-name="Group 1680" transform="translate(32.433 15.12)">
        <path id="Path_4390" data-name="Path 4390" d="M-88.08,614.968c-13.806,0-20.414-7.9-20.688-8.231l-.415-.508,4.518-40.618,3.1.346-4.367,39.264c1.543,1.581,7.293,6.624,17.848,6.624,10.517,0,16.057-5.338,17.471-6.924l-4.372-38.963,3.1-.347,4.514,40.228-.362.492C-67.983,606.681-74.224,614.968-88.08,614.968Z" transform="translate(109.183 -565.609)" fill="#fff"/>
      </g>
      <g id="Group_1681" data-name="Group 1681" transform="translate(58.447 28.26)">
        <path id="Path_4391" data-name="Path 4391" d="M-74.444,589.763a1.568,1.568,0,0,1-1.568-1.568v-4.262a1.568,1.568,0,0,1,1.568-1.568,1.569,1.569,0,0,1,1.568,1.568v4.262A1.569,1.569,0,0,1-74.444,589.763Z" transform="translate(76.012 -582.364)" fill="#fff"/>
      </g>
      <g id="Group_1682" data-name="Group 1682" transform="translate(45.497 28.26)">
        <path id="Path_4392" data-name="Path 4392" d="M-90.957,589.763a1.568,1.568,0,0,1-1.568-1.568v-4.262a1.568,1.568,0,0,1,1.568-1.568,1.569,1.569,0,0,1,1.568,1.568v4.262A1.569,1.569,0,0,1-90.957,589.763Z" transform="translate(92.525 -582.364)" fill="#fff"/>
      </g>
    </g>
  </g>
</svg>
