<svg xmlns="http://www.w3.org/2000/svg" width="114" height="114" viewBox="0 0 114 114">
  <g id="M_2ndS_1icon" transform="translate(19017 7825)">
    <rect id="Rectangle_2619" data-name="Rectangle 2619" width="114" height="114" transform="translate(-19017 -7825)" fill="none"/>
    <g id="Group_1700" data-name="Group 1700" transform="translate(-19015 -7824)">
      <g id="Group_1684" data-name="Group 1684" transform="translate(39.288 37.868)">
        <path id="Path_4393" data-name="Path 4393" d="M353.146,629.43h-32.27V597.085c0-2.819,2.573-5.112,5.735-5.112v2.72c-1.663,0-3.016,1.073-3.016,2.392V626.71h26.83V597.085c0-1.319-1.353-2.392-3.016-2.392v-2.72c3.163,0,5.736,2.293,5.736,5.112Z" transform="translate(-320.876 -591.973)" fill="#fff" stroke="rgba(0,0,0,0)" stroke-width="1"/>
      </g>
      <g id="Group_1685" data-name="Group 1685" transform="translate(45.827 12.853)">
        <path id="Path_4394" data-name="Path 4394" d="M340.685,579.812h-1.428a8.773,8.773,0,0,1-8.763-8.763v-7.1a8.773,8.773,0,0,1,8.763-8.763h1.428a8.773,8.773,0,0,1,8.763,8.763v7.1A8.773,8.773,0,0,1,340.685,579.812ZM339.257,557.9a6.05,6.05,0,0,0-6.044,6.043v7.1a6.05,6.05,0,0,0,6.044,6.043h1.428a6.05,6.05,0,0,0,6.043-6.043v-7.1a6.05,6.05,0,0,0-6.043-6.043Z" transform="translate(-330.494 -555.184)" fill="#fff" stroke="rgba(0,0,0,0)" stroke-width="1"/>
      </g>
      <g id="Group_1686" data-name="Group 1686" transform="translate(45.942 19.833)">
        <path id="Path_4395" data-name="Path 4395" d="M333.147,571.345l-2.485-1.108c.086-.2,2.181-4.788,9.363-4.788s9.277,4.593,9.362,4.788l-2.491,1.091c-.054-.114-1.546-3.16-6.871-3.16S333.208,571.214,333.147,571.345Z" transform="translate(-330.662 -565.449)" fill="#fff" stroke="rgba(0,0,0,0)" stroke-width="1"/>
      </g>
      <g id="Group_1687" data-name="Group 1687" transform="translate(43.324 20.471)">
        <path id="Path_4396" data-name="Path 4396" d="M338.9,590.257c-7.726,0-11.481-3.849-11.637-4.012l-.448-.47,2.515-19.384,2.7.35-2.339,18.028a14.676,14.676,0,0,0,9.211,2.77c5.15,0,8.007-2.011,9.008-2.887l-2.343-17.908,2.7-.354,2.51,19.181-.394.46C350.227,586.2,346.666,590.257,338.9,590.257Z" transform="translate(-326.812 -566.388)" fill="#fff" stroke="rgba(0,0,0,0)" stroke-width="1"/>
      </g>
      <g id="Group_1688" data-name="Group 1688" transform="translate(0 62.475)">
        <path id="Path_4397" data-name="Path 4397" d="M318.519,677.852l-18-14.859h8.643v-6.9H276.092v9.222l-13-17.581,13-19.569v10.187H297.03v2.72H273.373v-3.894l-6.955,10.473,6.955,9.41V653.37h38.513v12.342h-3.8l10.431,8.612,10.431-8.612h-3.8V653.37h38.512v3.687l6.955-9.41-6.955-10.473v3.894H340.009v-2.72h20.937V628.162l13,19.569-13,17.581V656.09H327.874v6.9h8.643Z" transform="translate(-263.097 -628.162)" fill="#fff" stroke="rgba(0,0,0,0)" stroke-width="1"/>
      </g>
      <g id="Group_1689" data-name="Group 1689" transform="translate(83.13 0)">
        <path id="Path_4398" data-name="Path 4398" d="M392.939,556.162c-4.253,0-7.585-2.423-7.585-5.516a5.021,5.021,0,0,1,2.6-4.167,6.123,6.123,0,0,1-.292-1.876c0-4.666,5.185-8.321,11.8-8.321s11.793,3.655,11.793,8.321c0,4.571-4.97,8.171-11.389,8.316C398.681,554.869,396,556.162,392.939,556.162ZM399.467,539c-4.923,0-9.082,2.565-9.082,5.6a3.488,3.488,0,0,0,.51,1.805l.817,1.371-1.484.589c-1.329.528-2.155,1.4-2.155,2.278,0,1.323,2,2.8,4.865,2.8,2.61,0,4.415-1.193,4.788-2.315l.327-.986,1.037.056c.123.005.253,0,.377.005,4.918,0,9.073-2.565,9.073-5.6S404.386,539,399.467,539Z" transform="translate(-385.354 -536.282)" fill="#fff" stroke="rgba(0,0,0,0)" stroke-width="1"/>
      </g>
      <g id="Group_1690" data-name="Group 1690" transform="translate(10.218 11.277)">
        <path id="Path_4399" data-name="Path 4399" d="M296.447,572.748c-3.056,0-5.742-1.293-6.933-3.243-6.419-.145-11.389-3.745-11.389-8.316,0-4.666,5.18-8.321,11.793-8.321s11.8,3.656,11.8,8.321a6.115,6.115,0,0,1-.292,1.875,5.023,5.023,0,0,1,2.6,4.168C304.032,570.324,300.7,572.748,296.447,572.748Zm-5.117-6.026.329.991c.372,1.122,2.177,2.315,4.788,2.315,2.867,0,4.865-1.473,4.865-2.8,0-.877-.826-1.75-2.155-2.278l-1.484-.589.817-1.371a3.491,3.491,0,0,0,.509-1.806c0-3.037-4.159-5.6-9.082-5.6s-9.073,2.565-9.073,5.6,4.155,5.6,9.073,5.6c.122,0,.25,0,.371-.006Z" transform="translate(-278.125 -552.867)" fill="#fff" stroke="rgba(0,0,0,0)" stroke-width="1"/>
      </g>
      <g id="Group_1691" data-name="Group 1691" transform="translate(93.146 81.192)">
        <path id="Path_4400" data-name="Path 4400" d="M400.084,655.688" transform="translate(-400.084 -655.688)" fill="#fff" stroke="#000" stroke-miterlimit="10" stroke-width="4"/>
      </g>
      <g id="Group_1698" data-name="Group 1698" transform="translate(18.777 80.478)">
        <g id="Group_1692" data-name="Group 1692">
          <rect id="Rectangle_2480" data-name="Rectangle 2480" width="6.296" height="2.72" fill="#fff" stroke="rgba(0,0,0,0)" stroke-width="1"/>
        </g>
        <g id="Group_1693" data-name="Group 1693" transform="translate(13.399)">
          <rect id="Rectangle_2481" data-name="Rectangle 2481" width="6.296" height="2.72" fill="#fff" stroke="rgba(0,0,0,0)" stroke-width="1"/>
        </g>
        <g id="Group_1694" data-name="Group 1694" transform="translate(26.798)">
          <rect id="Rectangle_2482" data-name="Rectangle 2482" width="6.296" height="2.72" fill="#fff" stroke="rgba(0,0,0,0)" stroke-width="1"/>
        </g>
        <g id="Group_1695" data-name="Group 1695" transform="translate(40.197)">
          <rect id="Rectangle_2483" data-name="Rectangle 2483" width="6.296" height="2.72" fill="#fff" stroke="rgba(0,0,0,0)" stroke-width="1"/>
        </g>
        <g id="Group_1696" data-name="Group 1696" transform="translate(53.596)">
          <rect id="Rectangle_2484" data-name="Rectangle 2484" width="6.296" height="2.72" fill="#fff" stroke="rgba(0,0,0,0)" stroke-width="1"/>
        </g>
        <g id="Group_1697" data-name="Group 1697" transform="translate(66.995)">
          <rect id="Rectangle_2485" data-name="Rectangle 2485" width="6.296" height="2.72" fill="#fff" stroke="rgba(0,0,0,0)" stroke-width="1"/>
        </g>
      </g>
      <g id="Group_1699" data-name="Group 1699" transform="translate(54.062 87.794)">
        <rect id="Rectangle_2486" data-name="Rectangle 2486" width="2.72" height="5.715" fill="#fff" stroke="rgba(0,0,0,0)" stroke-width="1"/>
      </g>
    </g>
  </g>
</svg>
