<svg xmlns="http://www.w3.org/2000/svg" width="114" height="114" viewBox="0 0 114 114">
  <g id="M_2ndS_2icon" transform="translate(19438 7832)">
    <rect id="Rectangle_2621" data-name="Rectangle 2621" width="114" height="114" transform="translate(-19438 -7832)" fill="none"/>
    <g id="Group_1482" data-name="Group 1482" transform="translate(-19431 -7818)">
      <path id="Path_4159" data-name="Path 4159" d="M160.551,584.513H108.232a1.585,1.585,0,0,0,0,3.171h52.319a1.585,1.585,0,0,0,0-3.171Zm1.585,9.513a1.585,1.585,0,0,0-1.585-1.585H108.232a1.585,1.585,0,1,0,0,3.171h52.319A1.585,1.585,0,0,0,162.137,594.025Zm-30.123,7.927a1.585,1.585,0,0,0-1.585-1.585h-22.2a1.585,1.585,0,1,0,0,3.171h22.2A1.585,1.585,0,0,0,132.014,601.953Zm-25.367,15.061a6.342,6.342,0,1,0,6.342-6.342A6.341,6.341,0,0,0,106.647,617.014Zm9.512,0a3.171,3.171,0,1,1-3.171-3.171A3.171,3.171,0,0,1,116.16,617.014Z" transform="translate(-83.658 -563.11)" fill="#fff"/>
      <path id="Path_4160" data-name="Path 4160" d="M174.357,557.513H82.4a4.762,4.762,0,0,0-4.756,4.756v65a4.762,4.762,0,0,0,4.756,4.756h48.038l2.263-3.171H82.4a1.585,1.585,0,0,1-1.585-1.585v-65a1.585,1.585,0,0,1,1.585-1.585h91.954a1.585,1.585,0,0,1,1.585,1.585v65a1.585,1.585,0,0,1-1.585,1.585H163.693l2.264,3.171h8.4a4.762,4.762,0,0,0,4.756-4.756v-65A4.762,4.762,0,0,0,174.357,557.513Z" transform="translate(-77.647 -557.513)" fill="#fff"/>
      <path id="Path_4161" data-name="Path 4161" d="M157.465,647.309l-2.769,3.83-.317-1.551a2.113,2.113,0,0,0-.757-1.367,2.177,2.177,0,0,0-1.659-.476l-1.982.2,3.019-4.23a7.492,7.492,0,0,1-2.96-1.31l-3.987,5.586a2.084,2.084,0,0,0-.1,2.321,2.16,2.16,0,0,0,2.129,1.011l3.348-.338.59,2.91a2.1,2.1,0,0,0,1.5,1.768,2.176,2.176,0,0,0,2.386-.791l5.707-7.891a7.256,7.256,0,0,1-2.616.53,5.94,5.94,0,0,1-1.531-.205Zm17.082-4.9a7.513,7.513,0,0,1-2.961,1.31l3.019,4.23-1.982-.2a2.176,2.176,0,0,0-1.659.476,2.113,2.113,0,0,0-.757,1.367l-.317,1.55-2.774-3.837a6.6,6.6,0,0,1-4.145-.322l5.715,7.906a2.163,2.163,0,0,0,1.744.872,2.236,2.236,0,0,0,.634-.094,2.1,2.1,0,0,0,1.5-1.768l.59-2.91,3.348.338a2.157,2.157,0,0,0,2.129-1.011,2.079,2.079,0,0,0-.089-2.306Zm-8.086,1.8a4.341,4.341,0,0,0,2.289-2.346,4.524,4.524,0,0,1,.534-.852,4.469,4.469,0,0,1,1-.257,3.494,3.494,0,0,0,3.386-4.642,4.491,4.491,0,0,1-.063-1.041,4.446,4.446,0,0,1,.634-.754,3.561,3.561,0,0,0,0-5.854,4.54,4.54,0,0,1-.629-.747,4.375,4.375,0,0,1,.061-1.047,3.493,3.493,0,0,0-3.387-4.641,4.561,4.561,0,0,1-.993-.254,4.453,4.453,0,0,1-.54-.856,4.335,4.335,0,0,0-2.289-2.346,4.213,4.213,0,0,0-3.159.54,4.307,4.307,0,0,1-1,.388,4.31,4.31,0,0,1-1.006-.389,4.223,4.223,0,0,0-3.16-.54,4.336,4.336,0,0,0-2.289,2.346,4.522,4.522,0,0,1-.534.852,4.483,4.483,0,0,1-1,.257,3.492,3.492,0,0,0-3.387,4.641,1.366,1.366,0,0,1-.571,1.795,3.561,3.561,0,0,0,0,5.855,4.58,4.58,0,0,1,.629.748,4.415,4.415,0,0,1-.061,1.047,3.493,3.493,0,0,0,3.386,4.642,4.584,4.584,0,0,1,.993.254,4.49,4.49,0,0,1,.54.856,4.332,4.332,0,0,0,2.289,2.346,2.8,2.8,0,0,0,.872.137,5.45,5.45,0,0,0,2.286-.677,4.273,4.273,0,0,1,1.006-.388,4.323,4.323,0,0,1,1.006.389,4.221,4.221,0,0,0,3.16.54Zm-6.524-3.409a6.9,6.9,0,0,1-.824.349,6.514,6.514,0,0,1-.484-.8,4.237,4.237,0,0,0-3.732-2.71,6.8,6.8,0,0,1-.905-.212,6.643,6.643,0,0,1,.079-.913,5.479,5.479,0,0,0-.068-2.427,5.3,5.3,0,0,0-1.348-1.951,5.974,5.974,0,0,1-.634-.744,5.964,5.964,0,0,1,.634-.744A5.306,5.306,0,0,0,154,628.687a5.472,5.472,0,0,0,.068-2.428,6.772,6.772,0,0,1-.079-.913,6.792,6.792,0,0,1,.905-.212,4.232,4.232,0,0,0,3.732-2.71,6.515,6.515,0,0,1,.484-.8,6.909,6.909,0,0,1,.824.349,4.36,4.36,0,0,0,4.717,0,6.857,6.857,0,0,1,.824-.349,6.717,6.717,0,0,1,.484.8,4.236,4.236,0,0,0,3.732,2.71,6.7,6.7,0,0,1,.905.212,6.769,6.769,0,0,1-.079.913,5.468,5.468,0,0,0,.068,2.427,5.287,5.287,0,0,0,1.348,1.951,6.1,6.1,0,0,1,.634.744,6.109,6.109,0,0,1-.634.744,5.286,5.286,0,0,0-1.348,1.951,5.46,5.46,0,0,0-.068,2.428,6.9,6.9,0,0,1,.079.913,6.813,6.813,0,0,1-.905.212,4.231,4.231,0,0,0-3.732,2.71,6.716,6.716,0,0,1-.484.8,6.847,6.847,0,0,1-.824-.349,4.359,4.359,0,0,0-4.72,0Z" transform="translate(-91.743 -570.147)" fill="#fff"/>
      <path id="Path_4162" data-name="Path 4162" d="M170.745,633.313a5.549,5.549,0,1,0-5.549,5.549,5.549,5.549,0,0,0,5.549-5.549Zm-5.549,2.378a2.378,2.378,0,1,1,2.378-2.378A2.378,2.378,0,0,1,165.2,635.691Z" transform="translate(-94.645 -572.075)" fill="#fff"/>
      <path id="Path_4163" data-name="Path 4163" d="M171.259,627.344a3.171,3.171,0,0,0,3.171-3.171V568.684a3.171,3.171,0,0,0-3.171-3.171H88.818a3.171,3.171,0,0,0-3.171,3.171v55.489a3.171,3.171,0,0,0,3.171,3.171h46.458a9.069,9.069,0,0,1,.009-2.179,10.629,10.629,0,0,1-.807-.992H88.818V581.033l12.219-12.219c.037-.041.073-.085.106-.13h57.788a1.388,1.388,0,0,0,.106.13l12.222,12.22v43.14h-6.025a10.747,10.747,0,0,1-.806.992,9.15,9.15,0,0,1,.008,2.179Zm-82.442-50.8v-7.865h7.865Zm74.576-7.865h7.865v7.865Z" transform="translate(-79.305 -559.171)" fill="#fff"/>
    </g>
  </g>
</svg>
