<svg xmlns="http://www.w3.org/2000/svg" xmlns:xlink="http://www.w3.org/1999/xlink" width="438.755" height="514.684" viewBox="0 0 438.755 514.684">
  <defs>
    <linearGradient id="linear-gradient" y1="0.5" x2="1" y2="0.5" gradientUnits="objectBoundingBox">
      <stop offset="0" stop-color="#dfcaaa"/>
      <stop offset="1" stop-color="#d6ba99"/>
    </linearGradient>
    <linearGradient id="linear-gradient-2" x1="0.417" y1="0.435" x2="2.669" y2="2.195" gradientUnits="objectBoundingBox">
      <stop offset="0" stop-color="#fff"/>
      <stop offset="1" stop-color="#999"/>
    </linearGradient>
    <linearGradient id="linear-gradient-3" y1="0.5" x2="1" y2="0.5" gradientUnits="objectBoundingBox">
      <stop offset="0" stop-color="#856c42"/>
      <stop offset="1" stop-color="#dbb476"/>
    </linearGradient>
    <linearGradient id="linear-gradient-6" x1="0.49" y1="0.214" x2="0.529" y2="2.241" gradientUnits="objectBoundingBox">
      <stop offset="0" stop-color="#ffce68"/>
      <stop offset="0.6" stop-color="#d8a14c"/>
      <stop offset="0.739" stop-color="#cf9645"/>
      <stop offset="1" stop-color="#d1ba97"/>
    </linearGradient>
    <linearGradient id="linear-gradient-7" x1="0.494" y1="-0.163" x2="0.508" y2="1.415" xlink:href="#linear-gradient-6"/>
    <linearGradient id="linear-gradient-8" x1="-1.6" y1="4.276" x2="2.271" y2="-2.683" gradientUnits="objectBoundingBox">
      <stop offset="0" stop-color="#1e083b"/>
      <stop offset="1" stop-color="#a45cb8"/>
    </linearGradient>
    <linearGradient id="linear-gradient-9" x1="-0.704" y1="2.664" x2="3.167" y2="-4.295" xlink:href="#linear-gradient-8"/>
    <linearGradient id="linear-gradient-10" x1="0.916" y1="0.113" x2="0.064" y2="0.906" xlink:href="#linear-gradient-6"/>
    <linearGradient id="linear-gradient-11" x1="0.928" y1="-0.361" x2="-0.041" y2="1.287" xlink:href="#linear-gradient-3"/>
    <linearGradient id="linear-gradient-12" x1="1.027" y1="-0.489" x2="-0.462" y2="2.2" xlink:href="#linear-gradient-3"/>
    <linearGradient id="linear-gradient-13" x1="1.448" y1="-0.834" x2="-0.79" y2="3.013" xlink:href="#linear-gradient-3"/>
    <linearGradient id="linear-gradient-14" x1="2.822" y1="-8.013" x2="-1.41" y2="7.487" xlink:href="#linear-gradient-3"/>
    <linearGradient id="linear-gradient-15" x1="3.197" y1="-4.663" x2="-6.98" y2="14.79" xlink:href="#linear-gradient-3"/>
    <linearGradient id="linear-gradient-16" x1="2.938" y1="-1.676" x2="-8.551" y2="8.888" xlink:href="#linear-gradient-3"/>
  </defs>
  <g id="M_3ndS_4" transform="translate(-192.266 -3510.458)">
    <path id="Path_4779" data-name="Path 4779" d="M21.193-476.133v201.8h38.4v52.683h-38.4v65.63H-43.1v-65.63H-182.617v-55.138q18.528-20.76,38.4-45.428t38.4-50.785q18.528-26.118,34.489-52.571a526.994,526.994,0,0,0,27.123-50.562Zm-140.636,201.8H-43.1V-386.171q-7.813,14.51-16.966,29.355t-19.2,29.243q-10.045,14.4-20.314,27.9T-119.443-274.332Z" transform="translate(374.883 3986.591)" fill="url(#linear-gradient)"/>
    <g id="Group_1794" data-name="Group 1794" transform="translate(375.229 3637.818)">
      <g id="Group_1791" data-name="Group 1791" transform="translate(0 98.612)">
        <g id="Group_1790" data-name="Group 1790">
          <g id="Group_1789" data-name="Group 1789">
            <g id="Group_1781" data-name="Group 1781" transform="translate(0 9.737)">
              <rect id="Rectangle_2505" data-name="Rectangle 2505" width="198.433" height="264.729" transform="translate(0.872 0.872)" fill="#5d4164"/>
              <rect id="Rectangle_2506" data-name="Rectangle 2506" width="174.144" height="237.146" transform="translate(13.016 18.714)" fill="#1d262d" opacity="0.2" style="mix-blend-mode: multiply;isolation: isolate"/>
              <rect id="Rectangle_2507" data-name="Rectangle 2507" width="174.144" height="237.146" transform="translate(13.016 14.663)" fill="url(#linear-gradient-2)"/>
              <path id="Path_4732" data-name="Path 4732" d="M2516.827,1900.922v-17.348h17.349Z" transform="translate(-2516.827 -1883.573)" fill="url(#linear-gradient-3)"/>
              <path id="Path_4733" data-name="Path 4733" d="M2633.058,1900.922v-17.348h-17.349Z" transform="translate(-2432.881 -1883.573)" fill="url(#linear-gradient-3)"/>
              <path id="Path_4734" data-name="Path 4734" d="M2516.827,2018.678v17.349h17.349Z" transform="translate(-2516.827 -1768.877)" fill="url(#linear-gradient-3)"/>
              <path id="Path_4735" data-name="Path 4735" d="M2633.058,2018.678v17.349h-17.349Z" transform="translate(-2432.881 -1768.877)" fill="#dc894e"/>
            </g>
            <path id="Path_4736" data-name="Path 4736" d="M2576.651,1895.438h0c-6.846,0-12.4,3.166-12.4-3.681V1890.7a12.4,12.4,0,0,1,12.4-12.4h0a12.4,12.4,0,0,1,12.4,12.4v1.052C2589.049,1898.6,2583.5,1895.438,2576.651,1895.438Z" transform="translate(-2476.563 -1878.307)" fill="url(#linear-gradient-6)"/>
            <rect id="Rectangle_2508" data-name="Rectangle 2508" width="64.754" height="5.826" transform="translate(67.711 27.085)" fill="#1d262d" opacity="0.2" style="mix-blend-mode: multiply;isolation: isolate"/>
            <g id="Group_1782" data-name="Group 1782" transform="translate(65.949 7.558)">
              <rect id="Rectangle_2509" data-name="Rectangle 2509" width="68.278" height="22.953" fill="url(#linear-gradient-7)"/>
            </g>
            <g id="Group_1788" data-name="Group 1788" transform="translate(31.033 145.102)">
              <path id="Path_4737" data-name="Path 4737" d="M2543.668,1974.577l-9.56-9.457a1.685,1.685,0,0,1,2.371-2.394l7.054,6.98,11.2-12.366a1.685,1.685,0,1,1,2.5,2.261Z" transform="translate(-2533.611 -1956.785)" fill="#4b909b"/>
              <path id="Path_4738" data-name="Path 4738" d="M2543.668,1986.659l-9.56-9.456a1.685,1.685,0,0,1,2.371-2.394l7.054,6.98,11.2-12.366a1.685,1.685,0,0,1,2.5,2.261Z" transform="translate(-2533.611 -1946.527)" fill="#4b909b"/>
              <path id="Path_4739" data-name="Path 4739" d="M2543.668,1998.744l-9.56-9.458a1.685,1.685,0,0,1,2.371-2.394l7.054,6.981,11.2-12.368a1.685,1.685,0,0,1,2.5,2.261Z" transform="translate(-2533.611 -1936.269)" fill="#4b909b"/>
              <g id="Group_1783" data-name="Group 1783" transform="translate(34.374 7.458)">
                <rect id="Rectangle_2510" data-name="Rectangle 2510" width="105.432" height="2.875" fill="#895d94"/>
              </g>
              <g id="Group_1784" data-name="Group 1784" transform="translate(34.374 29.8)">
                <rect id="Rectangle_2511" data-name="Rectangle 2511" width="105.432" height="2.875" fill="#895d94"/>
              </g>
              <g id="Group_1785" data-name="Group 1785" transform="translate(34.374 52.142)">
                <rect id="Rectangle_2512" data-name="Rectangle 2512" width="105.432" height="2.875" fill="#895d94"/>
              </g>
              <g id="Group_1786" data-name="Group 1786" transform="translate(34.374 74.484)">
                <rect id="Rectangle_2513" data-name="Rectangle 2513" width="105.432" height="2.875" fill="#895d94"/>
              </g>
              <g id="Group_1787" data-name="Group 1787" transform="translate(34.374 97.279)">
                <rect id="Rectangle_2514" data-name="Rectangle 2514" width="105.432" height="2.875" fill="#895d94"/>
              </g>
            </g>
            <rect id="Rectangle_2515" data-name="Rectangle 2515" width="115.773" height="7.104" transform="translate(42.346 121.738)" fill="#895d94"/>
            <path id="Path_4740" data-name="Path 4740" d="M2575.122,1882.608a2.853,2.853,0,1,1-2.853-2.853A2.853,2.853,0,0,1,2575.122,1882.608Z" transform="translate(-2472.181 -1877.078)" fill="#fff"/>
          </g>
        </g>
      </g>
      <g id="Group_1792" data-name="Group 1792" transform="translate(127.211 213.245)">
        <rect id="Rectangle_2516" data-name="Rectangle 2516" width="66.763" height="49.454" rx="5.082" transform="translate(28.375)" fill="#333" opacity="0.1"/>
        <rect id="Rectangle_2517" data-name="Rectangle 2517" width="66.763" height="49.454" rx="5.082" transform="translate(28.375 124.625)" fill="#333" opacity="0.1"/>
        <rect id="Rectangle_2518" data-name="Rectangle 2518" width="66.763" height="49.454" rx="5.082" transform="translate(30.909)" fill="url(#linear-gradient-8)"/>
        <rect id="Rectangle_2519" data-name="Rectangle 2519" width="66.763" height="49.454" rx="5.082" transform="translate(30.909 124.625)" fill="url(#linear-gradient-9)"/>
        <circle id="Ellipse_290" data-name="Ellipse 290" cx="64.291" cy="64.291" r="64.291" transform="translate(0 24.727)" fill="url(#linear-gradient-10)"/>
        <path id="Path_4741" data-name="Path 4741" d="M2621.286,1967.054v39.563l20.261,21.76" transform="translate(-2555.357 -1917.599)" fill="none" stroke="#48315a" stroke-miterlimit="10" stroke-width="1.307"/>
        <line id="Line_108" data-name="Line 108" y2="9.477" transform="translate(65.929 30.477)" fill="none" stroke="#48315a" stroke-miterlimit="10" stroke-width="1.307"/>
        <line id="Line_109" data-name="Line 109" y2="9.477" transform="translate(64.29 138.111)" fill="none" stroke="#48315a" stroke-miterlimit="10" stroke-width="1.307"/>
        <line id="Line_110" data-name="Line 110" x1="9.477" transform="translate(113.384 89.423)" fill="none" stroke="#48315a" stroke-miterlimit="10" stroke-width="1.307"/>
        <line id="Line_111" data-name="Line 111" x1="9.477" transform="translate(7.089 89.423)" fill="none" stroke="#48315a" stroke-miterlimit="10" stroke-width="1.307"/>
      </g>
      <g id="Group_1793" data-name="Group 1793" transform="translate(77.539 143.324)">
        <path id="Path_4742" data-name="Path 4742" d="M2580.951,1947.914c1.287-3.376,5.961-7.033,6.444-7.444.377-.32.768-.627,1.154-.936.573-.46,3.568-2.448,3.811-2.091a.186.186,0,0,1,.031.179c-.166.259-3.191,2.339-3.779,2.818a26.434,26.434,0,0,0-7.143,8.309,2.908,2.908,0,0,0,.242.42,11.965,11.965,0,0,1,2.021,6.734c.024,1.1-.017,3.3-.839,3.474-.226.013-1.474.163-2.43-2.383a14.5,14.5,0,0,1-.713-5.035,8.8,8.8,0,0,1,.711-2.941,22.877,22.877,0,0,0-3.206-3.554c-4.433-3.8-11.63-9.139-11.856-9.354a13.087,13.087,0,0,1-3.868-5.739,11.911,11.911,0,0,1-.5-4.724c.655-5.965,9.609-6.305,9.742-8.091.011-.464.211-2.618.229-2.871a.508.508,0,0,1,.358-.523,3.628,3.628,0,0,0,.976-.669c.213-.159.446-.292.673-.431,1.3-.152.954,1.788.917,2.15a12.933,12.933,0,0,1-.255,1.736,8.091,8.091,0,0,1-.56,1.507,6.789,6.789,0,0,1-1.485,1.969c-.333.323-.708.6-1.058.908a6.359,6.359,0,0,1-1.952,1.046c-.494.19-.476.2-.7.684a10.47,10.47,0,0,0-.514,1.525,2.15,2.15,0,0,0,.087,1.4c.824,1.875,3.022,4.519,7.835,4.369,6.061-.042,11.038-3.783,11.327-3.994a1.384,1.384,0,0,0,.2-.216,2.786,2.786,0,0,1-.45-1.22,3.953,3.953,0,0,1,.015-1.124c.168-.906.363-1.806.6-2.692.551-2.054,1.431-2.518,1.862-2.668a.845.845,0,0,1,.608.057,3.481,3.481,0,0,1,1.444,2.563c.017.231.037.462.06.725a1.057,1.057,0,0,0,.135-.105,15.232,15.232,0,0,0,1.438-1.629,11.339,11.339,0,0,0,1.087-1.79,1.223,1.223,0,0,0,.022-.869c-.165-.618-.348-1.233-.525-1.851a28.916,28.916,0,0,0-1.727-3.942c-.062.274-.12.488-.161.708-.087.471-.9,4.927-.9,5-.013.1-.056.185-.163.194-.091.009-.174-.089-.181-.227a7.458,7.458,0,0,1,.068-1.625c.122-.723.224-1.453.36-2.173.209-1.108.437-2.209.668-3.312.153-.74.325-1.472.493-2.208a.339.339,0,0,1,.168-.244c.094-.007.155.094.214.27a3.394,3.394,0,0,0,.213.5,33.036,33.036,0,0,1,2.4,6.083,5.2,5.2,0,0,1,.079,1.662,13.371,13.371,0,0,1-.449,2.537c-.114.381-.205.771-.314,1.154a7.194,7.194,0,0,1-.852,1.821c-.361.59-.714,1.187-1.117,1.743a30.07,30.07,0,0,1-2.278,2.463.919.919,0,0,0-.253.52,5.944,5.944,0,0,0,.924,3.953c2.015,2.721,3.907,2.492,4.392,2.455.462-.035,3.491-.682,4.951-5.5a6.757,6.757,0,0,0,.076-2.644c-.079-.638-.884-5.1-2.393-6.987-.033-.054-.08-.1-.151-.191a2.6,2.6,0,0,0-.035.263c-.046.948-.072,1.9-.139,2.849-.1,1.32-.27,5.711-.281,5.839-.005.076-.039.155-.122.135-.056-.013-.121,0-.148-.142a28.753,28.753,0,0,1-.107-3.088c.05-1.061.091-2.124.128-3.187.032-.849.044-1.7.076-2.546.017-.431.03-.865.089-1.289.087-.625.213-1.242.323-1.864.045-.257.1-1.056.285-1.052.259.3,1.253,2.086,1.449,2.454a16.506,16.506,0,0,1,1.341,3.494,17.136,17.136,0,0,1,.362,1.877,15.009,15.009,0,0,1,.165,1.618,12.206,12.206,0,0,1-.028,1.61c-.061.736-.137,1.474-.27,2.195-.215,1.154-.459,2.3-.732,3.437a11.191,11.191,0,0,1-1.285,3.03c-.512.878-2.834,3.931-5.9,2.729a2.531,2.531,0,0,1-.544-.294c-.656-.457-3.9-2.662-3.01-8.853,0-.015.013-.037-.013-.059-.135-.037-1.035,1.041-1.476,1.44a19.414,19.414,0,0,1-3.655,2.664,19.109,19.109,0,0,1-3.276,1.568,20.013,20.013,0,0,1-4.254,1.008,12.11,12.11,0,0,1-5.315-.534,7.175,7.175,0,0,1-4.164-3.968,4.324,4.324,0,0,1-.177-1.939,28.925,28.925,0,0,1,1.09-4.132c-.129.037-4.774,1.226-5.831,4.833a1.868,1.868,0,0,0,.037,1.161,8.9,8.9,0,0,0,1.233,2.335,17.733,17.733,0,0,0,4.055,3.885C2579.71,1943.811,2580.287,1946.965,2580.951,1947.914Zm.069,1.867a9.767,9.767,0,0,0-.715,3.811,3.824,3.824,0,0,0,.553,1.945,1.941,1.941,0,0,0,.632.629.571.571,0,0,0,.851-.19,4.268,4.268,0,0,0,.327-2.474,6.357,6.357,0,0,0-.307-1.208A16.328,16.328,0,0,0,2581.02,1949.781Zm8.525-26.76c.083-.052.08-.124.044-.207-.083-.188-.414-.991-.9-1.135a.835.835,0,0,0-.628-.035,1.3,1.3,0,0,0-.777,1.041.372.372,0,0,0,.011.19C2587.687,1924.038,2589.114,1923.3,2589.545,1923.021Z" transform="translate(-2556.892 -1898.056)" fill="url(#linear-gradient-11)"/>
        <path id="Path_4743" data-name="Path 4743" d="M2569.2,1915.509a1.016,1.016,0,0,0,.579-.143c.327-.2.642-.41.959-.623.12-.08.228-.177.348-.261a.55.55,0,0,1,.738.094.937.937,0,0,1,.274.521,3.838,3.838,0,0,1-.05,1.194c-.1.59-.229,1.176-.371,1.753a2.67,2.67,0,0,1-.647,1.239,1.6,1.6,0,0,1-.283.229,15.485,15.485,0,0,1-2.647,1.414c-.357.146-.707.3-1.06.455a42.051,42.051,0,0,0-3.909,2.195c-4.583,3.169-3.252,9.063-3.176,9.637.032.242.067.482.1.725.009.08.026.176-.068.2a.242.242,0,0,1-.263-.087.642.642,0,0,1-.1-.2,11.8,11.8,0,0,1,2.3-12.458,15.158,15.158,0,0,1,6.244-3.519.405.405,0,0,0,.3-.364c.07-.5.172-1.941.209-2.148.048-.281.386-3.587,2-5.2a5.224,5.224,0,0,1,1.154-.928,1.131,1.131,0,0,1,1.579.474c.261.418.527.832.782,1.253a1.082,1.082,0,0,0,.95.527c.251.011,1.977.286,3.286-3.31q.418-1.123.881-2.228a4.9,4.9,0,0,1,.4-.644,1.187,1.187,0,0,0,.224-.6c.021-.4.081-.806.124-1.207.021-.2.035-.4.054-.6.007-.087.019-.174.029-.259s.042-.165.133-.155c.279.026-.022,1.215,2.581,1.845a4.946,4.946,0,0,1,1.361.577.538.538,0,0,1,.314.54c-.013.264-.3,2.633-.307,2.67-.068.229-.118.25-.333.12a2.877,2.877,0,0,0-.963-.359,10.714,10.714,0,0,0-1.884-.239,1.578,1.578,0,0,0-.976.311,3.212,3.212,0,0,0-1.167,1.725c-.229.714-.44,1.433-.66,2.15a5.639,5.639,0,0,1-1.135,2.074c-.22.25-2,1.9-3.291.2-.2-.233-1-2.015-2.1-1.66a5.265,5.265,0,0,0-2.2,2.195A5.209,5.209,0,0,0,2569.2,1915.509Z" transform="translate(-2558.763 -1902.49)" fill="url(#linear-gradient-12)"/>
        <path id="Path_4744" data-name="Path 4744" d="M2574.275,1924.805c1.86,1.563,4.36-.629,4.811-1.072a6.248,6.248,0,0,0,1-1.368,17.761,17.761,0,0,0,1.072-2.467,4.223,4.223,0,0,0,.205-1.927c-.052-.581-.1-1.163-.192-1.74a13.33,13.33,0,0,0-.473-1.96,26.088,26.088,0,0,0-1.135-2.862c-.052-.113-.111-.222-.192-.383a8.292,8.292,0,0,0-.187,1.139c-.035.427-.353,7.788-.388,8.4-.033.6-.1,1.191-.168,1.781-.044.361-.125.714-.194,1.069-.019.091-.056.27-.172.224-.15-.009-.2-1.128-.194-1.572.005-.932.135-5.059.151-5.571.019-.664.028-1.329.058-1.993q.05-1.221.127-2.441c.046-.756.094-1.512.168-2.265.042-.449.133-.891.206-1.335q.13-.8.265-1.588a1.84,1.84,0,0,1,.041-.185c.051-.17.147-.188.266-.031.141.192,1.385,2.685,1.671,3.313a17.3,17.3,0,0,1,.817,2.184,9.217,9.217,0,0,1,.358,1.751,26.449,26.449,0,0,1,.011,3.25,16.872,16.872,0,0,1-.458,3.215c-.122.569-.226,1.145-.375,1.7-1.77,6.187-4.489,6.37-5.427,6.568-.348.042-1.668.374-3.295-1.744-.18-.27-.185-.237-.413-.135-1.753.8-6.763,1.5-6.981,1.281a.3.3,0,0,1-.12-.4c.074-.143.281-.181.431-.207a22.441,22.441,0,0,0,5.049-1.906c.344-.181.655-.418.982-.627.115-.072.122-.174.1-.307a14.806,14.806,0,0,1,.257-5.3,30.1,30.1,0,0,1,.743-3.012c.242-.707.5-1.409.76-2.106.416-1.113.847-2.221,1.263-3.334a5.164,5.164,0,0,0,.148-.592.9.9,0,0,1,.044-.157c.052-.116.148-.135.246-.042a.574.574,0,0,1,.128.183c.248.588.48,1.183.743,1.767a8.957,8.957,0,0,1,.561,1.89,9.79,9.79,0,0,1,.139,1.882,14.21,14.21,0,0,1-.362,3.163,23.526,23.526,0,0,1-.965,3.43,14.272,14.272,0,0,1-.986,2.148C2574.37,1924.6,2574.331,1924.694,2574.275,1924.805Zm.324-11.138c-.041.092-.886,2.511-1.342,3.631a15.084,15.084,0,0,0-.967,2.99,4.512,4.512,0,0,0,.638,3.271,11.981,11.981,0,0,0,2.947-5.528,8.175,8.175,0,0,0-.122-1.328A10.8,10.8,0,0,0,2574.6,1913.667Z" transform="translate(-2553.383 -1899.041)" fill="url(#linear-gradient-13)"/>
        <path id="Path_4745" data-name="Path 4745" d="M2573.911,1924.945a5.217,5.217,0,0,0,.381-.444c.4-.588.792-1.183,1.187-1.777.122-.185.205-.211.412-.068.375.261,2.622,2.206,2.72,2.26-.113.209-.823,1.353-1.1,1.762-.133.192-.263.388-.391.588s-.288.24-.508.076c-.49-.362-1.973-1.442-2.224-1.618-.135-.092-.178-.092-.291.021-.076.074-1.466,1.836-1.815,2.3-.174.231-2.644-2.038-2.7-2.187a.4.4,0,0,1,.022-.358,10.476,10.476,0,0,1,.965-1.418c.176-.252.361-.5.542-.741a.7.7,0,0,1,.4-.276.308.308,0,0,1,.327.074c.368.342.744.675,1.1,1.024A7.6,7.6,0,0,0,2573.911,1924.945Z" transform="translate(-2549.615 -1885.447)" fill="url(#linear-gradient-14)"/>
        <path id="Path_4746" data-name="Path 4746" d="M2578.44,1910.475a2.8,2.8,0,0,1-.1.357c-.275.682-.557,1.363-.838,2.043a.824.824,0,0,1-.087.163c-.12.179-.175.181-.388.076-.325-.161-.658-.305-.983-.466q-.543-.269-1.076-.56a.59.59,0,0,1-.265-.714c.291-.736.573-1.474.86-2.211l.017-.044c.146-.39.19-.394.532-.118a4.022,4.022,0,0,0,.946.542c.385.166.766.342,1.148.516C2578.387,1910.137,2578.45,1910.236,2578.44,1910.475Z" transform="translate(-2545.26 -1897.127)" fill="url(#linear-gradient-15)"/>
        <path id="Path_4747" data-name="Path 4747" d="M2576.247,1906.58a3.015,3.015,0,0,0,.305.074,1.361,1.361,0,0,1,.569.214,1.1,1.1,0,0,1,.407.823c.022.272,0,.543-.007.817a3.426,3.426,0,0,1-.333,1.292,3.861,3.861,0,0,1-1.163,1.4c-.482.348-.961.7-1.442,1.048-.042.031-.265.213-.361.076s.065-.32.106-.364c.151-.161.3-.324.462-.475a15.442,15.442,0,0,0,1.76-1.982,4.306,4.306,0,0,0,.357-.617c.109-.218.044-.337-.205-.4-.111-.03-.222-.046-.333-.07a.813.813,0,0,1-.673-.527,1.756,1.756,0,0,1-.082-.383,8.58,8.58,0,0,1,.05-1.584,3.152,3.152,0,0,1,.316-1.148c.082-.148.248-.531.49-.442.334.124.072,1.738-.087,1.991C2576.344,1906.39,2576.269,1906.386,2576.247,1906.58Z" transform="translate(-2545.662 -1900.942)" fill="url(#linear-gradient-16)"/>
      </g>
    </g>
  </g>
</svg>
