<svg xmlns="http://www.w3.org/2000/svg" xmlns:xlink="http://www.w3.org/1999/xlink" width="603" height="2675" viewBox="0 0 603 2675">
  <defs>
    <clipPath id="clip-path">
      <rect width="223" height="260" fill="none"/>
    </clipPath>
    <clipPath id="clip-path-3">
      <rect width="603" height="260" fill="none"/>
    </clipPath>
  </defs>
  <g id="M_3ndS_BG_left_illustration" data-name="M_3ndS_BG left illustration" transform="translate(0 -2264)">
    <rect id="Rectangle_2527" data-name="Rectangle 2527" width="284" height="102" transform="translate(0 3843)" fill="#e9e2d8" opacity="0.11"/>
    <rect id="Rectangle_2528" data-name="Rectangle 2528" width="284" height="102" transform="translate(0 2817)" fill="#e9e2d8" opacity="0.11"/>
    <g id="Repeat_Grid_16" data-name="Repeat Grid 16" transform="translate(5 2264)" clip-path="url(#clip-path)">
      <g transform="translate(-207 -3010)">
        <circle id="Ellipse_283" data-name="Ellipse 283" cx="3" cy="3" r="3" transform="translate(207 3010)" fill="#fff"/>
      </g>
      <g transform="translate(-173 -3010)">
        <circle id="Ellipse_283-2" data-name="Ellipse 283" cx="3" cy="3" r="3" transform="translate(207 3010)" fill="#fff"/>
      </g>
      <g transform="translate(-139 -3010)">
        <circle id="Ellipse_283-3" data-name="Ellipse 283" cx="3" cy="3" r="3" transform="translate(207 3010)" fill="#fff"/>
      </g>
      <g transform="translate(-105 -3010)">
        <circle id="Ellipse_283-4" data-name="Ellipse 283" cx="3" cy="3" r="3" transform="translate(207 3010)" fill="#fff"/>
      </g>
      <g transform="translate(-71 -3010)">
        <circle id="Ellipse_283-5" data-name="Ellipse 283" cx="3" cy="3" r="3" transform="translate(207 3010)" fill="#fff"/>
      </g>
      <g transform="translate(-37 -3010)">
        <circle id="Ellipse_283-6" data-name="Ellipse 283" cx="3" cy="3" r="3" transform="translate(207 3010)" fill="#fff"/>
      </g>
      <g transform="translate(-3 -3010)">
        <circle id="Ellipse_283-7" data-name="Ellipse 283" cx="3" cy="3" r="3" transform="translate(207 3010)" fill="#fff"/>
      </g>
      <g transform="translate(-207 -2976)">
        <circle id="Ellipse_283-8" data-name="Ellipse 283" cx="3" cy="3" r="3" transform="translate(207 3010)" fill="#fff"/>
      </g>
      <g transform="translate(-173 -2976)">
        <circle id="Ellipse_283-9" data-name="Ellipse 283" cx="3" cy="3" r="3" transform="translate(207 3010)" fill="#fff"/>
      </g>
      <g transform="translate(-139 -2976)">
        <circle id="Ellipse_283-10" data-name="Ellipse 283" cx="3" cy="3" r="3" transform="translate(207 3010)" fill="#fff"/>
      </g>
      <g transform="translate(-105 -2976)">
        <circle id="Ellipse_283-11" data-name="Ellipse 283" cx="3" cy="3" r="3" transform="translate(207 3010)" fill="#fff"/>
      </g>
      <g transform="translate(-71 -2976)">
        <circle id="Ellipse_283-12" data-name="Ellipse 283" cx="3" cy="3" r="3" transform="translate(207 3010)" fill="#fff"/>
      </g>
      <g transform="translate(-37 -2976)">
        <circle id="Ellipse_283-13" data-name="Ellipse 283" cx="3" cy="3" r="3" transform="translate(207 3010)" fill="#fff"/>
      </g>
      <g transform="translate(-3 -2976)">
        <circle id="Ellipse_283-14" data-name="Ellipse 283" cx="3" cy="3" r="3" transform="translate(207 3010)" fill="#fff"/>
      </g>
      <g transform="translate(-207 -2942)">
        <circle id="Ellipse_283-15" data-name="Ellipse 283" cx="3" cy="3" r="3" transform="translate(207 3010)" fill="#fff"/>
      </g>
      <g transform="translate(-173 -2942)">
        <circle id="Ellipse_283-16" data-name="Ellipse 283" cx="3" cy="3" r="3" transform="translate(207 3010)" fill="#fff"/>
      </g>
      <g transform="translate(-139 -2942)">
        <circle id="Ellipse_283-17" data-name="Ellipse 283" cx="3" cy="3" r="3" transform="translate(207 3010)" fill="#fff"/>
      </g>
      <g transform="translate(-105 -2942)">
        <circle id="Ellipse_283-18" data-name="Ellipse 283" cx="3" cy="3" r="3" transform="translate(207 3010)" fill="#fff"/>
      </g>
      <g transform="translate(-71 -2942)">
        <circle id="Ellipse_283-19" data-name="Ellipse 283" cx="3" cy="3" r="3" transform="translate(207 3010)" fill="#fff"/>
      </g>
      <g transform="translate(-37 -2942)">
        <circle id="Ellipse_283-20" data-name="Ellipse 283" cx="3" cy="3" r="3" transform="translate(207 3010)" fill="#fff"/>
      </g>
      <g transform="translate(-3 -2942)">
        <circle id="Ellipse_283-21" data-name="Ellipse 283" cx="3" cy="3" r="3" transform="translate(207 3010)" fill="#fff"/>
      </g>
      <g transform="translate(-207 -2908)">
        <circle id="Ellipse_283-22" data-name="Ellipse 283" cx="3" cy="3" r="3" transform="translate(207 3010)" fill="#fff"/>
      </g>
      <g transform="translate(-173 -2908)">
        <circle id="Ellipse_283-23" data-name="Ellipse 283" cx="3" cy="3" r="3" transform="translate(207 3010)" fill="#fff"/>
      </g>
      <g transform="translate(-139 -2908)">
        <circle id="Ellipse_283-24" data-name="Ellipse 283" cx="3" cy="3" r="3" transform="translate(207 3010)" fill="#fff"/>
      </g>
      <g transform="translate(-105 -2908)">
        <circle id="Ellipse_283-25" data-name="Ellipse 283" cx="3" cy="3" r="3" transform="translate(207 3010)" fill="#fff"/>
      </g>
      <g transform="translate(-71 -2908)">
        <circle id="Ellipse_283-26" data-name="Ellipse 283" cx="3" cy="3" r="3" transform="translate(207 3010)" fill="#fff"/>
      </g>
      <g transform="translate(-37 -2908)">
        <circle id="Ellipse_283-27" data-name="Ellipse 283" cx="3" cy="3" r="3" transform="translate(207 3010)" fill="#fff"/>
      </g>
      <g transform="translate(-3 -2908)">
        <circle id="Ellipse_283-28" data-name="Ellipse 283" cx="3" cy="3" r="3" transform="translate(207 3010)" fill="#fff"/>
      </g>
      <g transform="translate(-207 -2874)">
        <circle id="Ellipse_283-29" data-name="Ellipse 283" cx="3" cy="3" r="3" transform="translate(207 3010)" fill="#fff"/>
      </g>
      <g transform="translate(-173 -2874)">
        <circle id="Ellipse_283-30" data-name="Ellipse 283" cx="3" cy="3" r="3" transform="translate(207 3010)" fill="#fff"/>
      </g>
      <g transform="translate(-139 -2874)">
        <circle id="Ellipse_283-31" data-name="Ellipse 283" cx="3" cy="3" r="3" transform="translate(207 3010)" fill="#fff"/>
      </g>
      <g transform="translate(-105 -2874)">
        <circle id="Ellipse_283-32" data-name="Ellipse 283" cx="3" cy="3" r="3" transform="translate(207 3010)" fill="#fff"/>
      </g>
      <g transform="translate(-71 -2874)">
        <circle id="Ellipse_283-33" data-name="Ellipse 283" cx="3" cy="3" r="3" transform="translate(207 3010)" fill="#fff"/>
      </g>
      <g transform="translate(-37 -2874)">
        <circle id="Ellipse_283-34" data-name="Ellipse 283" cx="3" cy="3" r="3" transform="translate(207 3010)" fill="#fff"/>
      </g>
      <g transform="translate(-3 -2874)">
        <circle id="Ellipse_283-35" data-name="Ellipse 283" cx="3" cy="3" r="3" transform="translate(207 3010)" fill="#fff"/>
      </g>
      <g transform="translate(-207 -2840)">
        <circle id="Ellipse_283-36" data-name="Ellipse 283" cx="3" cy="3" r="3" transform="translate(207 3010)" fill="#fff"/>
      </g>
      <g transform="translate(-173 -2840)">
        <circle id="Ellipse_283-37" data-name="Ellipse 283" cx="3" cy="3" r="3" transform="translate(207 3010)" fill="#fff"/>
      </g>
      <g transform="translate(-139 -2840)">
        <circle id="Ellipse_283-38" data-name="Ellipse 283" cx="3" cy="3" r="3" transform="translate(207 3010)" fill="#fff"/>
      </g>
      <g transform="translate(-105 -2840)">
        <circle id="Ellipse_283-39" data-name="Ellipse 283" cx="3" cy="3" r="3" transform="translate(207 3010)" fill="#fff"/>
      </g>
      <g transform="translate(-71 -2840)">
        <circle id="Ellipse_283-40" data-name="Ellipse 283" cx="3" cy="3" r="3" transform="translate(207 3010)" fill="#fff"/>
      </g>
      <g transform="translate(-37 -2840)">
        <circle id="Ellipse_283-41" data-name="Ellipse 283" cx="3" cy="3" r="3" transform="translate(207 3010)" fill="#fff"/>
      </g>
      <g transform="translate(-3 -2840)">
        <circle id="Ellipse_283-42" data-name="Ellipse 283" cx="3" cy="3" r="3" transform="translate(207 3010)" fill="#fff"/>
      </g>
      <g transform="translate(-207 -2806)">
        <circle id="Ellipse_283-43" data-name="Ellipse 283" cx="3" cy="3" r="3" transform="translate(207 3010)" fill="#fff"/>
      </g>
      <g transform="translate(-173 -2806)">
        <circle id="Ellipse_283-44" data-name="Ellipse 283" cx="3" cy="3" r="3" transform="translate(207 3010)" fill="#fff"/>
      </g>
      <g transform="translate(-139 -2806)">
        <circle id="Ellipse_283-45" data-name="Ellipse 283" cx="3" cy="3" r="3" transform="translate(207 3010)" fill="#fff"/>
      </g>
      <g transform="translate(-105 -2806)">
        <circle id="Ellipse_283-46" data-name="Ellipse 283" cx="3" cy="3" r="3" transform="translate(207 3010)" fill="#fff"/>
      </g>
      <g transform="translate(-71 -2806)">
        <circle id="Ellipse_283-47" data-name="Ellipse 283" cx="3" cy="3" r="3" transform="translate(207 3010)" fill="#fff"/>
      </g>
      <g transform="translate(-37 -2806)">
        <circle id="Ellipse_283-48" data-name="Ellipse 283" cx="3" cy="3" r="3" transform="translate(207 3010)" fill="#fff"/>
      </g>
      <g transform="translate(-3 -2806)">
        <circle id="Ellipse_283-49" data-name="Ellipse 283" cx="3" cy="3" r="3" transform="translate(207 3010)" fill="#fff"/>
      </g>
      <g transform="translate(-207 -2772)">
        <circle id="Ellipse_283-50" data-name="Ellipse 283" cx="3" cy="3" r="3" transform="translate(207 3010)" fill="#fff"/>
      </g>
      <g transform="translate(-173 -2772)">
        <circle id="Ellipse_283-51" data-name="Ellipse 283" cx="3" cy="3" r="3" transform="translate(207 3010)" fill="#fff"/>
      </g>
      <g transform="translate(-139 -2772)">
        <circle id="Ellipse_283-52" data-name="Ellipse 283" cx="3" cy="3" r="3" transform="translate(207 3010)" fill="#fff"/>
      </g>
      <g transform="translate(-105 -2772)">
        <circle id="Ellipse_283-53" data-name="Ellipse 283" cx="3" cy="3" r="3" transform="translate(207 3010)" fill="#fff"/>
      </g>
      <g transform="translate(-71 -2772)">
        <circle id="Ellipse_283-54" data-name="Ellipse 283" cx="3" cy="3" r="3" transform="translate(207 3010)" fill="#fff"/>
      </g>
      <g transform="translate(-37 -2772)">
        <circle id="Ellipse_283-55" data-name="Ellipse 283" cx="3" cy="3" r="3" transform="translate(207 3010)" fill="#fff"/>
      </g>
      <g transform="translate(-3 -2772)">
        <circle id="Ellipse_283-56" data-name="Ellipse 283" cx="3" cy="3" r="3" transform="translate(207 3010)" fill="#fff"/>
      </g>
    </g>
    <rect id="Rectangle_2527-2" data-name="Rectangle 2527" width="284" height="102" transform="translate(0 3843)" fill="#e9e2d8" opacity="0.11"/>
    <rect id="Rectangle_2528-2" data-name="Rectangle 2528" width="284" height="102" transform="translate(0 2817)" fill="#e9e2d8" opacity="0.11"/>
    <g id="Repeat_Grid_16-2" data-name="Repeat Grid 16" transform="translate(5 2264)" clip-path="url(#clip-path)">
      <g transform="translate(-207 -3010)">
        <circle id="Ellipse_283-57" data-name="Ellipse 283" cx="3" cy="3" r="3" transform="translate(207 3010)" fill="#fff"/>
      </g>
      <g transform="translate(-173 -3010)">
        <circle id="Ellipse_283-58" data-name="Ellipse 283" cx="3" cy="3" r="3" transform="translate(207 3010)" fill="#fff"/>
      </g>
      <g transform="translate(-139 -3010)">
        <circle id="Ellipse_283-59" data-name="Ellipse 283" cx="3" cy="3" r="3" transform="translate(207 3010)" fill="#fff"/>
      </g>
      <g transform="translate(-105 -3010)">
        <circle id="Ellipse_283-60" data-name="Ellipse 283" cx="3" cy="3" r="3" transform="translate(207 3010)" fill="#fff"/>
      </g>
      <g transform="translate(-71 -3010)">
        <circle id="Ellipse_283-61" data-name="Ellipse 283" cx="3" cy="3" r="3" transform="translate(207 3010)" fill="#fff"/>
      </g>
      <g transform="translate(-37 -3010)">
        <circle id="Ellipse_283-62" data-name="Ellipse 283" cx="3" cy="3" r="3" transform="translate(207 3010)" fill="#fff"/>
      </g>
      <g transform="translate(-3 -3010)">
        <circle id="Ellipse_283-63" data-name="Ellipse 283" cx="3" cy="3" r="3" transform="translate(207 3010)" fill="#fff"/>
      </g>
      <g transform="translate(-207 -2976)">
        <circle id="Ellipse_283-64" data-name="Ellipse 283" cx="3" cy="3" r="3" transform="translate(207 3010)" fill="#fff"/>
      </g>
      <g transform="translate(-173 -2976)">
        <circle id="Ellipse_283-65" data-name="Ellipse 283" cx="3" cy="3" r="3" transform="translate(207 3010)" fill="#fff"/>
      </g>
      <g transform="translate(-139 -2976)">
        <circle id="Ellipse_283-66" data-name="Ellipse 283" cx="3" cy="3" r="3" transform="translate(207 3010)" fill="#fff"/>
      </g>
      <g transform="translate(-105 -2976)">
        <circle id="Ellipse_283-67" data-name="Ellipse 283" cx="3" cy="3" r="3" transform="translate(207 3010)" fill="#fff"/>
      </g>
      <g transform="translate(-71 -2976)">
        <circle id="Ellipse_283-68" data-name="Ellipse 283" cx="3" cy="3" r="3" transform="translate(207 3010)" fill="#fff"/>
      </g>
      <g transform="translate(-37 -2976)">
        <circle id="Ellipse_283-69" data-name="Ellipse 283" cx="3" cy="3" r="3" transform="translate(207 3010)" fill="#fff"/>
      </g>
      <g transform="translate(-3 -2976)">
        <circle id="Ellipse_283-70" data-name="Ellipse 283" cx="3" cy="3" r="3" transform="translate(207 3010)" fill="#fff"/>
      </g>
      <g transform="translate(-207 -2942)">
        <circle id="Ellipse_283-71" data-name="Ellipse 283" cx="3" cy="3" r="3" transform="translate(207 3010)" fill="#fff"/>
      </g>
      <g transform="translate(-173 -2942)">
        <circle id="Ellipse_283-72" data-name="Ellipse 283" cx="3" cy="3" r="3" transform="translate(207 3010)" fill="#fff"/>
      </g>
      <g transform="translate(-139 -2942)">
        <circle id="Ellipse_283-73" data-name="Ellipse 283" cx="3" cy="3" r="3" transform="translate(207 3010)" fill="#fff"/>
      </g>
      <g transform="translate(-105 -2942)">
        <circle id="Ellipse_283-74" data-name="Ellipse 283" cx="3" cy="3" r="3" transform="translate(207 3010)" fill="#fff"/>
      </g>
      <g transform="translate(-71 -2942)">
        <circle id="Ellipse_283-75" data-name="Ellipse 283" cx="3" cy="3" r="3" transform="translate(207 3010)" fill="#fff"/>
      </g>
      <g transform="translate(-37 -2942)">
        <circle id="Ellipse_283-76" data-name="Ellipse 283" cx="3" cy="3" r="3" transform="translate(207 3010)" fill="#fff"/>
      </g>
      <g transform="translate(-3 -2942)">
        <circle id="Ellipse_283-77" data-name="Ellipse 283" cx="3" cy="3" r="3" transform="translate(207 3010)" fill="#fff"/>
      </g>
      <g transform="translate(-207 -2908)">
        <circle id="Ellipse_283-78" data-name="Ellipse 283" cx="3" cy="3" r="3" transform="translate(207 3010)" fill="#fff"/>
      </g>
      <g transform="translate(-173 -2908)">
        <circle id="Ellipse_283-79" data-name="Ellipse 283" cx="3" cy="3" r="3" transform="translate(207 3010)" fill="#fff"/>
      </g>
      <g transform="translate(-139 -2908)">
        <circle id="Ellipse_283-80" data-name="Ellipse 283" cx="3" cy="3" r="3" transform="translate(207 3010)" fill="#fff"/>
      </g>
      <g transform="translate(-105 -2908)">
        <circle id="Ellipse_283-81" data-name="Ellipse 283" cx="3" cy="3" r="3" transform="translate(207 3010)" fill="#fff"/>
      </g>
      <g transform="translate(-71 -2908)">
        <circle id="Ellipse_283-82" data-name="Ellipse 283" cx="3" cy="3" r="3" transform="translate(207 3010)" fill="#fff"/>
      </g>
      <g transform="translate(-37 -2908)">
        <circle id="Ellipse_283-83" data-name="Ellipse 283" cx="3" cy="3" r="3" transform="translate(207 3010)" fill="#fff"/>
      </g>
      <g transform="translate(-3 -2908)">
        <circle id="Ellipse_283-84" data-name="Ellipse 283" cx="3" cy="3" r="3" transform="translate(207 3010)" fill="#fff"/>
      </g>
      <g transform="translate(-207 -2874)">
        <circle id="Ellipse_283-85" data-name="Ellipse 283" cx="3" cy="3" r="3" transform="translate(207 3010)" fill="#fff"/>
      </g>
      <g transform="translate(-173 -2874)">
        <circle id="Ellipse_283-86" data-name="Ellipse 283" cx="3" cy="3" r="3" transform="translate(207 3010)" fill="#fff"/>
      </g>
      <g transform="translate(-139 -2874)">
        <circle id="Ellipse_283-87" data-name="Ellipse 283" cx="3" cy="3" r="3" transform="translate(207 3010)" fill="#fff"/>
      </g>
      <g transform="translate(-105 -2874)">
        <circle id="Ellipse_283-88" data-name="Ellipse 283" cx="3" cy="3" r="3" transform="translate(207 3010)" fill="#fff"/>
      </g>
      <g transform="translate(-71 -2874)">
        <circle id="Ellipse_283-89" data-name="Ellipse 283" cx="3" cy="3" r="3" transform="translate(207 3010)" fill="#fff"/>
      </g>
      <g transform="translate(-37 -2874)">
        <circle id="Ellipse_283-90" data-name="Ellipse 283" cx="3" cy="3" r="3" transform="translate(207 3010)" fill="#fff"/>
      </g>
      <g transform="translate(-3 -2874)">
        <circle id="Ellipse_283-91" data-name="Ellipse 283" cx="3" cy="3" r="3" transform="translate(207 3010)" fill="#fff"/>
      </g>
      <g transform="translate(-207 -2840)">
        <circle id="Ellipse_283-92" data-name="Ellipse 283" cx="3" cy="3" r="3" transform="translate(207 3010)" fill="#fff"/>
      </g>
      <g transform="translate(-173 -2840)">
        <circle id="Ellipse_283-93" data-name="Ellipse 283" cx="3" cy="3" r="3" transform="translate(207 3010)" fill="#fff"/>
      </g>
      <g transform="translate(-139 -2840)">
        <circle id="Ellipse_283-94" data-name="Ellipse 283" cx="3" cy="3" r="3" transform="translate(207 3010)" fill="#fff"/>
      </g>
      <g transform="translate(-105 -2840)">
        <circle id="Ellipse_283-95" data-name="Ellipse 283" cx="3" cy="3" r="3" transform="translate(207 3010)" fill="#fff"/>
      </g>
      <g transform="translate(-71 -2840)">
        <circle id="Ellipse_283-96" data-name="Ellipse 283" cx="3" cy="3" r="3" transform="translate(207 3010)" fill="#fff"/>
      </g>
      <g transform="translate(-37 -2840)">
        <circle id="Ellipse_283-97" data-name="Ellipse 283" cx="3" cy="3" r="3" transform="translate(207 3010)" fill="#fff"/>
      </g>
      <g transform="translate(-3 -2840)">
        <circle id="Ellipse_283-98" data-name="Ellipse 283" cx="3" cy="3" r="3" transform="translate(207 3010)" fill="#fff"/>
      </g>
      <g transform="translate(-207 -2806)">
        <circle id="Ellipse_283-99" data-name="Ellipse 283" cx="3" cy="3" r="3" transform="translate(207 3010)" fill="#fff"/>
      </g>
      <g transform="translate(-173 -2806)">
        <circle id="Ellipse_283-100" data-name="Ellipse 283" cx="3" cy="3" r="3" transform="translate(207 3010)" fill="#fff"/>
      </g>
      <g transform="translate(-139 -2806)">
        <circle id="Ellipse_283-101" data-name="Ellipse 283" cx="3" cy="3" r="3" transform="translate(207 3010)" fill="#fff"/>
      </g>
      <g transform="translate(-105 -2806)">
        <circle id="Ellipse_283-102" data-name="Ellipse 283" cx="3" cy="3" r="3" transform="translate(207 3010)" fill="#fff"/>
      </g>
      <g transform="translate(-71 -2806)">
        <circle id="Ellipse_283-103" data-name="Ellipse 283" cx="3" cy="3" r="3" transform="translate(207 3010)" fill="#fff"/>
      </g>
      <g transform="translate(-37 -2806)">
        <circle id="Ellipse_283-104" data-name="Ellipse 283" cx="3" cy="3" r="3" transform="translate(207 3010)" fill="#fff"/>
      </g>
      <g transform="translate(-3 -2806)">
        <circle id="Ellipse_283-105" data-name="Ellipse 283" cx="3" cy="3" r="3" transform="translate(207 3010)" fill="#fff"/>
      </g>
      <g transform="translate(-207 -2772)">
        <circle id="Ellipse_283-106" data-name="Ellipse 283" cx="3" cy="3" r="3" transform="translate(207 3010)" fill="#fff"/>
      </g>
      <g transform="translate(-173 -2772)">
        <circle id="Ellipse_283-107" data-name="Ellipse 283" cx="3" cy="3" r="3" transform="translate(207 3010)" fill="#fff"/>
      </g>
      <g transform="translate(-139 -2772)">
        <circle id="Ellipse_283-108" data-name="Ellipse 283" cx="3" cy="3" r="3" transform="translate(207 3010)" fill="#fff"/>
      </g>
      <g transform="translate(-105 -2772)">
        <circle id="Ellipse_283-109" data-name="Ellipse 283" cx="3" cy="3" r="3" transform="translate(207 3010)" fill="#fff"/>
      </g>
      <g transform="translate(-71 -2772)">
        <circle id="Ellipse_283-110" data-name="Ellipse 283" cx="3" cy="3" r="3" transform="translate(207 3010)" fill="#fff"/>
      </g>
      <g transform="translate(-37 -2772)">
        <circle id="Ellipse_283-111" data-name="Ellipse 283" cx="3" cy="3" r="3" transform="translate(207 3010)" fill="#fff"/>
      </g>
      <g transform="translate(-3 -2772)">
        <circle id="Ellipse_283-112" data-name="Ellipse 283" cx="3" cy="3" r="3" transform="translate(207 3010)" fill="#fff"/>
      </g>
    </g>
    <g id="Repeat_Grid_18" data-name="Repeat Grid 18" transform="translate(0 4679)" clip-path="url(#clip-path-3)">
      <g transform="translate(-207 -3010)">
        <circle id="Ellipse_283-113" data-name="Ellipse 283" cx="3" cy="3" r="3" transform="translate(207 3010)" fill="#fff"/>
      </g>
      <g transform="translate(-173 -3010)">
        <circle id="Ellipse_283-114" data-name="Ellipse 283" cx="3" cy="3" r="3" transform="translate(207 3010)" fill="#fff"/>
      </g>
      <g transform="translate(-139 -3010)">
        <circle id="Ellipse_283-115" data-name="Ellipse 283" cx="3" cy="3" r="3" transform="translate(207 3010)" fill="#fff"/>
      </g>
      <g transform="translate(-105 -3010)">
        <circle id="Ellipse_283-116" data-name="Ellipse 283" cx="3" cy="3" r="3" transform="translate(207 3010)" fill="#fff"/>
      </g>
      <g transform="translate(-71 -3010)">
        <circle id="Ellipse_283-117" data-name="Ellipse 283" cx="3" cy="3" r="3" transform="translate(207 3010)" fill="#fff"/>
      </g>
      <g transform="translate(-37 -3010)">
        <circle id="Ellipse_283-118" data-name="Ellipse 283" cx="3" cy="3" r="3" transform="translate(207 3010)" fill="#fff"/>
      </g>
      <g transform="translate(-3 -3010)">
        <circle id="Ellipse_283-119" data-name="Ellipse 283" cx="3" cy="3" r="3" transform="translate(207 3010)" fill="#fff"/>
      </g>
      <g transform="translate(31 -3010)">
        <circle id="Ellipse_283-120" data-name="Ellipse 283" cx="3" cy="3" r="3" transform="translate(207 3010)" fill="#fff"/>
      </g>
      <g transform="translate(65 -3010)">
        <circle id="Ellipse_283-121" data-name="Ellipse 283" cx="3" cy="3" r="3" transform="translate(207 3010)" fill="#fff"/>
      </g>
      <g transform="translate(99 -3010)">
        <circle id="Ellipse_283-122" data-name="Ellipse 283" cx="3" cy="3" r="3" transform="translate(207 3010)" fill="#fff"/>
      </g>
      <g transform="translate(133 -3010)">
        <circle id="Ellipse_283-123" data-name="Ellipse 283" cx="3" cy="3" r="3" transform="translate(207 3010)" fill="#fff"/>
      </g>
      <g transform="translate(167 -3010)">
        <circle id="Ellipse_283-124" data-name="Ellipse 283" cx="3" cy="3" r="3" transform="translate(207 3010)" fill="#fff"/>
      </g>
      <g transform="translate(201 -3010)">
        <circle id="Ellipse_283-125" data-name="Ellipse 283" cx="3" cy="3" r="3" transform="translate(207 3010)" fill="#fff"/>
      </g>
      <g transform="translate(235 -3010)">
        <circle id="Ellipse_283-126" data-name="Ellipse 283" cx="3" cy="3" r="3" transform="translate(207 3010)" fill="#fff"/>
      </g>
      <g transform="translate(269 -3010)">
        <circle id="Ellipse_283-127" data-name="Ellipse 283" cx="3" cy="3" r="3" transform="translate(207 3010)" fill="#fff"/>
      </g>
      <g transform="translate(303 -3010)">
        <circle id="Ellipse_283-128" data-name="Ellipse 283" cx="3" cy="3" r="3" transform="translate(207 3010)" fill="#fff"/>
      </g>
      <g transform="translate(337 -3010)">
        <circle id="Ellipse_283-129" data-name="Ellipse 283" cx="3" cy="3" r="3" transform="translate(207 3010)" fill="#fff"/>
      </g>
      <g transform="translate(371 -3010)">
        <circle id="Ellipse_283-130" data-name="Ellipse 283" cx="3" cy="3" r="3" transform="translate(207 3010)" fill="#fff"/>
      </g>
      <g transform="translate(-207 -2976)">
        <circle id="Ellipse_283-131" data-name="Ellipse 283" cx="3" cy="3" r="3" transform="translate(207 3010)" fill="#fff"/>
      </g>
      <g transform="translate(-173 -2976)">
        <circle id="Ellipse_283-132" data-name="Ellipse 283" cx="3" cy="3" r="3" transform="translate(207 3010)" fill="#fff"/>
      </g>
      <g transform="translate(-139 -2976)">
        <circle id="Ellipse_283-133" data-name="Ellipse 283" cx="3" cy="3" r="3" transform="translate(207 3010)" fill="#fff"/>
      </g>
      <g transform="translate(-105 -2976)">
        <circle id="Ellipse_283-134" data-name="Ellipse 283" cx="3" cy="3" r="3" transform="translate(207 3010)" fill="#fff"/>
      </g>
      <g transform="translate(-71 -2976)">
        <circle id="Ellipse_283-135" data-name="Ellipse 283" cx="3" cy="3" r="3" transform="translate(207 3010)" fill="#fff"/>
      </g>
      <g transform="translate(-37 -2976)">
        <circle id="Ellipse_283-136" data-name="Ellipse 283" cx="3" cy="3" r="3" transform="translate(207 3010)" fill="#fff"/>
      </g>
      <g transform="translate(-3 -2976)">
        <circle id="Ellipse_283-137" data-name="Ellipse 283" cx="3" cy="3" r="3" transform="translate(207 3010)" fill="#fff"/>
      </g>
      <g transform="translate(31 -2976)">
        <circle id="Ellipse_283-138" data-name="Ellipse 283" cx="3" cy="3" r="3" transform="translate(207 3010)" fill="#fff"/>
      </g>
      <g transform="translate(65 -2976)">
        <circle id="Ellipse_283-139" data-name="Ellipse 283" cx="3" cy="3" r="3" transform="translate(207 3010)" fill="#fff"/>
      </g>
      <g transform="translate(99 -2976)">
        <circle id="Ellipse_283-140" data-name="Ellipse 283" cx="3" cy="3" r="3" transform="translate(207 3010)" fill="#fff"/>
      </g>
      <g transform="translate(133 -2976)">
        <circle id="Ellipse_283-141" data-name="Ellipse 283" cx="3" cy="3" r="3" transform="translate(207 3010)" fill="#fff"/>
      </g>
      <g transform="translate(167 -2976)">
        <circle id="Ellipse_283-142" data-name="Ellipse 283" cx="3" cy="3" r="3" transform="translate(207 3010)" fill="#fff"/>
      </g>
      <g transform="translate(201 -2976)">
        <circle id="Ellipse_283-143" data-name="Ellipse 283" cx="3" cy="3" r="3" transform="translate(207 3010)" fill="#fff"/>
      </g>
      <g transform="translate(235 -2976)">
        <circle id="Ellipse_283-144" data-name="Ellipse 283" cx="3" cy="3" r="3" transform="translate(207 3010)" fill="#fff"/>
      </g>
      <g transform="translate(269 -2976)">
        <circle id="Ellipse_283-145" data-name="Ellipse 283" cx="3" cy="3" r="3" transform="translate(207 3010)" fill="#fff"/>
      </g>
      <g transform="translate(303 -2976)">
        <circle id="Ellipse_283-146" data-name="Ellipse 283" cx="3" cy="3" r="3" transform="translate(207 3010)" fill="#fff"/>
      </g>
      <g transform="translate(337 -2976)">
        <circle id="Ellipse_283-147" data-name="Ellipse 283" cx="3" cy="3" r="3" transform="translate(207 3010)" fill="#fff"/>
      </g>
      <g transform="translate(371 -2976)">
        <circle id="Ellipse_283-148" data-name="Ellipse 283" cx="3" cy="3" r="3" transform="translate(207 3010)" fill="#fff"/>
      </g>
      <g transform="translate(-207 -2942)">
        <circle id="Ellipse_283-149" data-name="Ellipse 283" cx="3" cy="3" r="3" transform="translate(207 3010)" fill="#fff"/>
      </g>
      <g transform="translate(-173 -2942)">
        <circle id="Ellipse_283-150" data-name="Ellipse 283" cx="3" cy="3" r="3" transform="translate(207 3010)" fill="#fff"/>
      </g>
      <g transform="translate(-139 -2942)">
        <circle id="Ellipse_283-151" data-name="Ellipse 283" cx="3" cy="3" r="3" transform="translate(207 3010)" fill="#fff"/>
      </g>
      <g transform="translate(-105 -2942)">
        <circle id="Ellipse_283-152" data-name="Ellipse 283" cx="3" cy="3" r="3" transform="translate(207 3010)" fill="#fff"/>
      </g>
      <g transform="translate(-71 -2942)">
        <circle id="Ellipse_283-153" data-name="Ellipse 283" cx="3" cy="3" r="3" transform="translate(207 3010)" fill="#fff"/>
      </g>
      <g transform="translate(-37 -2942)">
        <circle id="Ellipse_283-154" data-name="Ellipse 283" cx="3" cy="3" r="3" transform="translate(207 3010)" fill="#fff"/>
      </g>
      <g transform="translate(-3 -2942)">
        <circle id="Ellipse_283-155" data-name="Ellipse 283" cx="3" cy="3" r="3" transform="translate(207 3010)" fill="#fff"/>
      </g>
      <g transform="translate(31 -2942)">
        <circle id="Ellipse_283-156" data-name="Ellipse 283" cx="3" cy="3" r="3" transform="translate(207 3010)" fill="#fff"/>
      </g>
      <g transform="translate(65 -2942)">
        <circle id="Ellipse_283-157" data-name="Ellipse 283" cx="3" cy="3" r="3" transform="translate(207 3010)" fill="#fff"/>
      </g>
      <g transform="translate(99 -2942)">
        <circle id="Ellipse_283-158" data-name="Ellipse 283" cx="3" cy="3" r="3" transform="translate(207 3010)" fill="#fff"/>
      </g>
      <g transform="translate(133 -2942)">
        <circle id="Ellipse_283-159" data-name="Ellipse 283" cx="3" cy="3" r="3" transform="translate(207 3010)" fill="#fff"/>
      </g>
      <g transform="translate(167 -2942)">
        <circle id="Ellipse_283-160" data-name="Ellipse 283" cx="3" cy="3" r="3" transform="translate(207 3010)" fill="#fff"/>
      </g>
      <g transform="translate(201 -2942)">
        <circle id="Ellipse_283-161" data-name="Ellipse 283" cx="3" cy="3" r="3" transform="translate(207 3010)" fill="#fff"/>
      </g>
      <g transform="translate(235 -2942)">
        <circle id="Ellipse_283-162" data-name="Ellipse 283" cx="3" cy="3" r="3" transform="translate(207 3010)" fill="#fff"/>
      </g>
      <g transform="translate(269 -2942)">
        <circle id="Ellipse_283-163" data-name="Ellipse 283" cx="3" cy="3" r="3" transform="translate(207 3010)" fill="#fff"/>
      </g>
      <g transform="translate(303 -2942)">
        <circle id="Ellipse_283-164" data-name="Ellipse 283" cx="3" cy="3" r="3" transform="translate(207 3010)" fill="#fff"/>
      </g>
      <g transform="translate(337 -2942)">
        <circle id="Ellipse_283-165" data-name="Ellipse 283" cx="3" cy="3" r="3" transform="translate(207 3010)" fill="#fff"/>
      </g>
      <g transform="translate(371 -2942)">
        <circle id="Ellipse_283-166" data-name="Ellipse 283" cx="3" cy="3" r="3" transform="translate(207 3010)" fill="#fff"/>
      </g>
      <g transform="translate(-207 -2908)">
        <circle id="Ellipse_283-167" data-name="Ellipse 283" cx="3" cy="3" r="3" transform="translate(207 3010)" fill="#fff"/>
      </g>
      <g transform="translate(-173 -2908)">
        <circle id="Ellipse_283-168" data-name="Ellipse 283" cx="3" cy="3" r="3" transform="translate(207 3010)" fill="#fff"/>
      </g>
      <g transform="translate(-139 -2908)">
        <circle id="Ellipse_283-169" data-name="Ellipse 283" cx="3" cy="3" r="3" transform="translate(207 3010)" fill="#fff"/>
      </g>
      <g transform="translate(-105 -2908)">
        <circle id="Ellipse_283-170" data-name="Ellipse 283" cx="3" cy="3" r="3" transform="translate(207 3010)" fill="#fff"/>
      </g>
      <g transform="translate(-71 -2908)">
        <circle id="Ellipse_283-171" data-name="Ellipse 283" cx="3" cy="3" r="3" transform="translate(207 3010)" fill="#fff"/>
      </g>
      <g transform="translate(-37 -2908)">
        <circle id="Ellipse_283-172" data-name="Ellipse 283" cx="3" cy="3" r="3" transform="translate(207 3010)" fill="#fff"/>
      </g>
      <g transform="translate(-3 -2908)">
        <circle id="Ellipse_283-173" data-name="Ellipse 283" cx="3" cy="3" r="3" transform="translate(207 3010)" fill="#fff"/>
      </g>
      <g transform="translate(31 -2908)">
        <circle id="Ellipse_283-174" data-name="Ellipse 283" cx="3" cy="3" r="3" transform="translate(207 3010)" fill="#fff"/>
      </g>
      <g transform="translate(65 -2908)">
        <circle id="Ellipse_283-175" data-name="Ellipse 283" cx="3" cy="3" r="3" transform="translate(207 3010)" fill="#fff"/>
      </g>
      <g transform="translate(99 -2908)">
        <circle id="Ellipse_283-176" data-name="Ellipse 283" cx="3" cy="3" r="3" transform="translate(207 3010)" fill="#fff"/>
      </g>
      <g transform="translate(133 -2908)">
        <circle id="Ellipse_283-177" data-name="Ellipse 283" cx="3" cy="3" r="3" transform="translate(207 3010)" fill="#fff"/>
      </g>
      <g transform="translate(167 -2908)">
        <circle id="Ellipse_283-178" data-name="Ellipse 283" cx="3" cy="3" r="3" transform="translate(207 3010)" fill="#fff"/>
      </g>
      <g transform="translate(201 -2908)">
        <circle id="Ellipse_283-179" data-name="Ellipse 283" cx="3" cy="3" r="3" transform="translate(207 3010)" fill="#fff"/>
      </g>
      <g transform="translate(235 -2908)">
        <circle id="Ellipse_283-180" data-name="Ellipse 283" cx="3" cy="3" r="3" transform="translate(207 3010)" fill="#fff"/>
      </g>
      <g transform="translate(269 -2908)">
        <circle id="Ellipse_283-181" data-name="Ellipse 283" cx="3" cy="3" r="3" transform="translate(207 3010)" fill="#fff"/>
      </g>
      <g transform="translate(303 -2908)">
        <circle id="Ellipse_283-182" data-name="Ellipse 283" cx="3" cy="3" r="3" transform="translate(207 3010)" fill="#fff"/>
      </g>
      <g transform="translate(337 -2908)">
        <circle id="Ellipse_283-183" data-name="Ellipse 283" cx="3" cy="3" r="3" transform="translate(207 3010)" fill="#fff"/>
      </g>
      <g transform="translate(371 -2908)">
        <circle id="Ellipse_283-184" data-name="Ellipse 283" cx="3" cy="3" r="3" transform="translate(207 3010)" fill="#fff"/>
      </g>
      <g transform="translate(-207 -2874)">
        <circle id="Ellipse_283-185" data-name="Ellipse 283" cx="3" cy="3" r="3" transform="translate(207 3010)" fill="#fff"/>
      </g>
      <g transform="translate(-173 -2874)">
        <circle id="Ellipse_283-186" data-name="Ellipse 283" cx="3" cy="3" r="3" transform="translate(207 3010)" fill="#fff"/>
      </g>
      <g transform="translate(-139 -2874)">
        <circle id="Ellipse_283-187" data-name="Ellipse 283" cx="3" cy="3" r="3" transform="translate(207 3010)" fill="#fff"/>
      </g>
      <g transform="translate(-105 -2874)">
        <circle id="Ellipse_283-188" data-name="Ellipse 283" cx="3" cy="3" r="3" transform="translate(207 3010)" fill="#fff"/>
      </g>
      <g transform="translate(-71 -2874)">
        <circle id="Ellipse_283-189" data-name="Ellipse 283" cx="3" cy="3" r="3" transform="translate(207 3010)" fill="#fff"/>
      </g>
      <g transform="translate(-37 -2874)">
        <circle id="Ellipse_283-190" data-name="Ellipse 283" cx="3" cy="3" r="3" transform="translate(207 3010)" fill="#fff"/>
      </g>
      <g transform="translate(-3 -2874)">
        <circle id="Ellipse_283-191" data-name="Ellipse 283" cx="3" cy="3" r="3" transform="translate(207 3010)" fill="#fff"/>
      </g>
      <g transform="translate(31 -2874)">
        <circle id="Ellipse_283-192" data-name="Ellipse 283" cx="3" cy="3" r="3" transform="translate(207 3010)" fill="#fff"/>
      </g>
      <g transform="translate(65 -2874)">
        <circle id="Ellipse_283-193" data-name="Ellipse 283" cx="3" cy="3" r="3" transform="translate(207 3010)" fill="#fff"/>
      </g>
      <g transform="translate(99 -2874)">
        <circle id="Ellipse_283-194" data-name="Ellipse 283" cx="3" cy="3" r="3" transform="translate(207 3010)" fill="#fff"/>
      </g>
      <g transform="translate(133 -2874)">
        <circle id="Ellipse_283-195" data-name="Ellipse 283" cx="3" cy="3" r="3" transform="translate(207 3010)" fill="#fff"/>
      </g>
      <g transform="translate(167 -2874)">
        <circle id="Ellipse_283-196" data-name="Ellipse 283" cx="3" cy="3" r="3" transform="translate(207 3010)" fill="#fff"/>
      </g>
      <g transform="translate(201 -2874)">
        <circle id="Ellipse_283-197" data-name="Ellipse 283" cx="3" cy="3" r="3" transform="translate(207 3010)" fill="#fff"/>
      </g>
      <g transform="translate(235 -2874)">
        <circle id="Ellipse_283-198" data-name="Ellipse 283" cx="3" cy="3" r="3" transform="translate(207 3010)" fill="#fff"/>
      </g>
      <g transform="translate(269 -2874)">
        <circle id="Ellipse_283-199" data-name="Ellipse 283" cx="3" cy="3" r="3" transform="translate(207 3010)" fill="#fff"/>
      </g>
      <g transform="translate(303 -2874)">
        <circle id="Ellipse_283-200" data-name="Ellipse 283" cx="3" cy="3" r="3" transform="translate(207 3010)" fill="#fff"/>
      </g>
      <g transform="translate(337 -2874)">
        <circle id="Ellipse_283-201" data-name="Ellipse 283" cx="3" cy="3" r="3" transform="translate(207 3010)" fill="#fff"/>
      </g>
      <g transform="translate(371 -2874)">
        <circle id="Ellipse_283-202" data-name="Ellipse 283" cx="3" cy="3" r="3" transform="translate(207 3010)" fill="#fff"/>
      </g>
      <g transform="translate(-207 -2840)">
        <circle id="Ellipse_283-203" data-name="Ellipse 283" cx="3" cy="3" r="3" transform="translate(207 3010)" fill="#fff"/>
      </g>
      <g transform="translate(-173 -2840)">
        <circle id="Ellipse_283-204" data-name="Ellipse 283" cx="3" cy="3" r="3" transform="translate(207 3010)" fill="#fff"/>
      </g>
      <g transform="translate(-139 -2840)">
        <circle id="Ellipse_283-205" data-name="Ellipse 283" cx="3" cy="3" r="3" transform="translate(207 3010)" fill="#fff"/>
      </g>
      <g transform="translate(-105 -2840)">
        <circle id="Ellipse_283-206" data-name="Ellipse 283" cx="3" cy="3" r="3" transform="translate(207 3010)" fill="#fff"/>
      </g>
      <g transform="translate(-71 -2840)">
        <circle id="Ellipse_283-207" data-name="Ellipse 283" cx="3" cy="3" r="3" transform="translate(207 3010)" fill="#fff"/>
      </g>
      <g transform="translate(-37 -2840)">
        <circle id="Ellipse_283-208" data-name="Ellipse 283" cx="3" cy="3" r="3" transform="translate(207 3010)" fill="#fff"/>
      </g>
      <g transform="translate(-3 -2840)">
        <circle id="Ellipse_283-209" data-name="Ellipse 283" cx="3" cy="3" r="3" transform="translate(207 3010)" fill="#fff"/>
      </g>
      <g transform="translate(31 -2840)">
        <circle id="Ellipse_283-210" data-name="Ellipse 283" cx="3" cy="3" r="3" transform="translate(207 3010)" fill="#fff"/>
      </g>
      <g transform="translate(65 -2840)">
        <circle id="Ellipse_283-211" data-name="Ellipse 283" cx="3" cy="3" r="3" transform="translate(207 3010)" fill="#fff"/>
      </g>
      <g transform="translate(99 -2840)">
        <circle id="Ellipse_283-212" data-name="Ellipse 283" cx="3" cy="3" r="3" transform="translate(207 3010)" fill="#fff"/>
      </g>
      <g transform="translate(133 -2840)">
        <circle id="Ellipse_283-213" data-name="Ellipse 283" cx="3" cy="3" r="3" transform="translate(207 3010)" fill="#fff"/>
      </g>
      <g transform="translate(167 -2840)">
        <circle id="Ellipse_283-214" data-name="Ellipse 283" cx="3" cy="3" r="3" transform="translate(207 3010)" fill="#fff"/>
      </g>
      <g transform="translate(201 -2840)">
        <circle id="Ellipse_283-215" data-name="Ellipse 283" cx="3" cy="3" r="3" transform="translate(207 3010)" fill="#fff"/>
      </g>
      <g transform="translate(235 -2840)">
        <circle id="Ellipse_283-216" data-name="Ellipse 283" cx="3" cy="3" r="3" transform="translate(207 3010)" fill="#fff"/>
      </g>
      <g transform="translate(269 -2840)">
        <circle id="Ellipse_283-217" data-name="Ellipse 283" cx="3" cy="3" r="3" transform="translate(207 3010)" fill="#fff"/>
      </g>
      <g transform="translate(303 -2840)">
        <circle id="Ellipse_283-218" data-name="Ellipse 283" cx="3" cy="3" r="3" transform="translate(207 3010)" fill="#fff"/>
      </g>
      <g transform="translate(337 -2840)">
        <circle id="Ellipse_283-219" data-name="Ellipse 283" cx="3" cy="3" r="3" transform="translate(207 3010)" fill="#fff"/>
      </g>
      <g transform="translate(371 -2840)">
        <circle id="Ellipse_283-220" data-name="Ellipse 283" cx="3" cy="3" r="3" transform="translate(207 3010)" fill="#fff"/>
      </g>
      <g transform="translate(-207 -2806)">
        <circle id="Ellipse_283-221" data-name="Ellipse 283" cx="3" cy="3" r="3" transform="translate(207 3010)" fill="#fff"/>
      </g>
      <g transform="translate(-173 -2806)">
        <circle id="Ellipse_283-222" data-name="Ellipse 283" cx="3" cy="3" r="3" transform="translate(207 3010)" fill="#fff"/>
      </g>
      <g transform="translate(-139 -2806)">
        <circle id="Ellipse_283-223" data-name="Ellipse 283" cx="3" cy="3" r="3" transform="translate(207 3010)" fill="#fff"/>
      </g>
      <g transform="translate(-105 -2806)">
        <circle id="Ellipse_283-224" data-name="Ellipse 283" cx="3" cy="3" r="3" transform="translate(207 3010)" fill="#fff"/>
      </g>
      <g transform="translate(-71 -2806)">
        <circle id="Ellipse_283-225" data-name="Ellipse 283" cx="3" cy="3" r="3" transform="translate(207 3010)" fill="#fff"/>
      </g>
      <g transform="translate(-37 -2806)">
        <circle id="Ellipse_283-226" data-name="Ellipse 283" cx="3" cy="3" r="3" transform="translate(207 3010)" fill="#fff"/>
      </g>
      <g transform="translate(-3 -2806)">
        <circle id="Ellipse_283-227" data-name="Ellipse 283" cx="3" cy="3" r="3" transform="translate(207 3010)" fill="#fff"/>
      </g>
      <g transform="translate(31 -2806)">
        <circle id="Ellipse_283-228" data-name="Ellipse 283" cx="3" cy="3" r="3" transform="translate(207 3010)" fill="#fff"/>
      </g>
      <g transform="translate(65 -2806)">
        <circle id="Ellipse_283-229" data-name="Ellipse 283" cx="3" cy="3" r="3" transform="translate(207 3010)" fill="#fff"/>
      </g>
      <g transform="translate(99 -2806)">
        <circle id="Ellipse_283-230" data-name="Ellipse 283" cx="3" cy="3" r="3" transform="translate(207 3010)" fill="#fff"/>
      </g>
      <g transform="translate(133 -2806)">
        <circle id="Ellipse_283-231" data-name="Ellipse 283" cx="3" cy="3" r="3" transform="translate(207 3010)" fill="#fff"/>
      </g>
      <g transform="translate(167 -2806)">
        <circle id="Ellipse_283-232" data-name="Ellipse 283" cx="3" cy="3" r="3" transform="translate(207 3010)" fill="#fff"/>
      </g>
      <g transform="translate(201 -2806)">
        <circle id="Ellipse_283-233" data-name="Ellipse 283" cx="3" cy="3" r="3" transform="translate(207 3010)" fill="#fff"/>
      </g>
      <g transform="translate(235 -2806)">
        <circle id="Ellipse_283-234" data-name="Ellipse 283" cx="3" cy="3" r="3" transform="translate(207 3010)" fill="#fff"/>
      </g>
      <g transform="translate(269 -2806)">
        <circle id="Ellipse_283-235" data-name="Ellipse 283" cx="3" cy="3" r="3" transform="translate(207 3010)" fill="#fff"/>
      </g>
      <g transform="translate(303 -2806)">
        <circle id="Ellipse_283-236" data-name="Ellipse 283" cx="3" cy="3" r="3" transform="translate(207 3010)" fill="#fff"/>
      </g>
      <g transform="translate(337 -2806)">
        <circle id="Ellipse_283-237" data-name="Ellipse 283" cx="3" cy="3" r="3" transform="translate(207 3010)" fill="#fff"/>
      </g>
      <g transform="translate(371 -2806)">
        <circle id="Ellipse_283-238" data-name="Ellipse 283" cx="3" cy="3" r="3" transform="translate(207 3010)" fill="#fff"/>
      </g>
      <g transform="translate(-207 -2772)">
        <circle id="Ellipse_283-239" data-name="Ellipse 283" cx="3" cy="3" r="3" transform="translate(207 3010)" fill="#fff"/>
      </g>
      <g transform="translate(-173 -2772)">
        <circle id="Ellipse_283-240" data-name="Ellipse 283" cx="3" cy="3" r="3" transform="translate(207 3010)" fill="#fff"/>
      </g>
      <g transform="translate(-139 -2772)">
        <circle id="Ellipse_283-241" data-name="Ellipse 283" cx="3" cy="3" r="3" transform="translate(207 3010)" fill="#fff"/>
      </g>
      <g transform="translate(-105 -2772)">
        <circle id="Ellipse_283-242" data-name="Ellipse 283" cx="3" cy="3" r="3" transform="translate(207 3010)" fill="#fff"/>
      </g>
      <g transform="translate(-71 -2772)">
        <circle id="Ellipse_283-243" data-name="Ellipse 283" cx="3" cy="3" r="3" transform="translate(207 3010)" fill="#fff"/>
      </g>
      <g transform="translate(-37 -2772)">
        <circle id="Ellipse_283-244" data-name="Ellipse 283" cx="3" cy="3" r="3" transform="translate(207 3010)" fill="#fff"/>
      </g>
      <g transform="translate(-3 -2772)">
        <circle id="Ellipse_283-245" data-name="Ellipse 283" cx="3" cy="3" r="3" transform="translate(207 3010)" fill="#fff"/>
      </g>
      <g transform="translate(31 -2772)">
        <circle id="Ellipse_283-246" data-name="Ellipse 283" cx="3" cy="3" r="3" transform="translate(207 3010)" fill="#fff"/>
      </g>
      <g transform="translate(65 -2772)">
        <circle id="Ellipse_283-247" data-name="Ellipse 283" cx="3" cy="3" r="3" transform="translate(207 3010)" fill="#fff"/>
      </g>
      <g transform="translate(99 -2772)">
        <circle id="Ellipse_283-248" data-name="Ellipse 283" cx="3" cy="3" r="3" transform="translate(207 3010)" fill="#fff"/>
      </g>
      <g transform="translate(133 -2772)">
        <circle id="Ellipse_283-249" data-name="Ellipse 283" cx="3" cy="3" r="3" transform="translate(207 3010)" fill="#fff"/>
      </g>
      <g transform="translate(167 -2772)">
        <circle id="Ellipse_283-250" data-name="Ellipse 283" cx="3" cy="3" r="3" transform="translate(207 3010)" fill="#fff"/>
      </g>
      <g transform="translate(201 -2772)">
        <circle id="Ellipse_283-251" data-name="Ellipse 283" cx="3" cy="3" r="3" transform="translate(207 3010)" fill="#fff"/>
      </g>
      <g transform="translate(235 -2772)">
        <circle id="Ellipse_283-252" data-name="Ellipse 283" cx="3" cy="3" r="3" transform="translate(207 3010)" fill="#fff"/>
      </g>
      <g transform="translate(269 -2772)">
        <circle id="Ellipse_283-253" data-name="Ellipse 283" cx="3" cy="3" r="3" transform="translate(207 3010)" fill="#fff"/>
      </g>
      <g transform="translate(303 -2772)">
        <circle id="Ellipse_283-254" data-name="Ellipse 283" cx="3" cy="3" r="3" transform="translate(207 3010)" fill="#fff"/>
      </g>
      <g transform="translate(337 -2772)">
        <circle id="Ellipse_283-255" data-name="Ellipse 283" cx="3" cy="3" r="3" transform="translate(207 3010)" fill="#fff"/>
      </g>
      <g transform="translate(371 -2772)">
        <circle id="Ellipse_283-256" data-name="Ellipse 283" cx="3" cy="3" r="3" transform="translate(207 3010)" fill="#fff"/>
      </g>
    </g>
  </g>
</svg>
