<svg xmlns="http://www.w3.org/2000/svg" xmlns:xlink="http://www.w3.org/1999/xlink" width="391.489" height="480.163" viewBox="0 0 391.489 480.163">
  <defs>
    <linearGradient id="linear-gradient" y1="0.5" x2="1" y2="0.5" gradientUnits="objectBoundingBox">
      <stop offset="0" stop-color="#dfcaaa"/>
      <stop offset="1" stop-color="#d6ba99"/>
    </linearGradient>
    <linearGradient id="linear-gradient-2" x1="-5.802" y1="7.523" x2="3.088" y2="-2.399" gradientUnits="objectBoundingBox">
      <stop offset="0" stop-color="#1e083b"/>
      <stop offset="1" stop-color="#a45cb8"/>
    </linearGradient>
    <linearGradient id="linear-gradient-3" x1="0.484" y1="8.22" x2="1.265" y2="-378.975" xlink:href="#linear-gradient-2"/>
    <linearGradient id="linear-gradient-4" x1="1.087" y1="-0.019" x2="0.083" y2="0.869" gradientUnits="objectBoundingBox">
      <stop offset="0" stop-color="#ebebeb"/>
      <stop offset="1" stop-color="#999"/>
    </linearGradient>
    <linearGradient id="linear-gradient-5" x1="0.534" y1="0.479" x2="-2.504" y2="2.353" gradientUnits="objectBoundingBox">
      <stop offset="0" stop-color="#fff"/>
      <stop offset="1" stop-color="#999"/>
    </linearGradient>
    <linearGradient id="linear-gradient-6" x1="1.365" y1="0.032" x2="-0.73" y2="1.165" xlink:href="#linear-gradient-2"/>
    <linearGradient id="linear-gradient-7" x1="-0.393" y1="1.429" x2="-1.93" y2="3.029" xlink:href="#linear-gradient-2"/>
    <linearGradient id="linear-gradient-8" x1="0.195" y1="15.308" x2="0.514" y2="-0.204" xlink:href="#linear-gradient-2"/>
    <linearGradient id="linear-gradient-9" x1="0.498" y1="1.955" x2="0.6" y2="-63.206" xlink:href="#linear-gradient-2"/>
    <linearGradient id="linear-gradient-10" x1="0.054" y1="1.256" x2="0.853" y2="-0.099" xlink:href="#linear-gradient-2"/>
    <linearGradient id="linear-gradient-11" x1="0.46" y1="1.14" x2="0.533" y2="-0.015" xlink:href="#linear-gradient-2"/>
    <linearGradient id="linear-gradient-12" x1="0.48" y1="1.299" x2="0.81" y2="-11.894" xlink:href="#linear-gradient-2"/>
    <linearGradient id="linear-gradient-13" x1="0.461" y1="1.133" x2="0.532" y2="-0.01" xlink:href="#linear-gradient-2"/>
    <linearGradient id="linear-gradient-14" x1="-66.686" y1="5.515" x2="47.296" y2="-2.975" xlink:href="#linear-gradient-2"/>
    <linearGradient id="linear-gradient-15" x1="-5.89" y1="5.463" x2="5.196" y2="-3.142" xlink:href="#linear-gradient-2"/>
    <linearGradient id="linear-gradient-16" x1="-8.746" y1="112.4" x2="1.851" y2="-15.938" xlink:href="#linear-gradient-2"/>
    <linearGradient id="linear-gradient-17" x1="-3.511" y1="43.81" x2="6.672" y2="-66.251" xlink:href="#linear-gradient-2"/>
    <linearGradient id="linear-gradient-18" x1="-76.221" y1="10.448" x2="37.761" y2="-4.304" xlink:href="#linear-gradient-2"/>
    <linearGradient id="linear-gradient-19" x1="-6.817" y1="10.474" x2="4.268" y2="-4.629" xlink:href="#linear-gradient-2"/>
    <linearGradient id="linear-gradient-20" x1="-9.548" y1="121.952" x2="1.05" y2="-6.225" xlink:href="#linear-gradient-2"/>
    <linearGradient id="linear-gradient-21" x1="-5.282" y1="63.02" x2="4.901" y2="-47.159" gradientUnits="objectBoundingBox">
      <stop offset="0" stop-color="#1e083b"/>
      <stop offset="0.582" stop-color="#6c3984"/>
      <stop offset="1" stop-color="#a45cb8"/>
    </linearGradient>
    <linearGradient id="linear-gradient-22" x1="4190.306" y1="7.523" x2="4199.191" y2="-2.399" xlink:href="#linear-gradient-2"/>
    <linearGradient id="linear-gradient-23" x1="328.796" y1="8.224" x2="329.577" y2="-379.192" xlink:href="#linear-gradient-2"/>
    <linearGradient id="linear-gradient-24" x1="-0.003" y1="0.162" x2="1.735" y2="1.329" xlink:href="#linear-gradient-4"/>
    <linearGradient id="linear-gradient-25" x1="0.427" y1="0.453" x2="2.315" y2="1.665" xlink:href="#linear-gradient-5"/>
    <linearGradient id="linear-gradient-26" x1="34.962" y1="0.032" x2="32.868" y2="1.165" xlink:href="#linear-gradient-2"/>
    <linearGradient id="linear-gradient-27" x1="1535.103" y1="1.429" x2="1533.565" y2="3.029" xlink:href="#linear-gradient-2"/>
    <linearGradient id="linear-gradient-28" x1="142.416" y1="15.308" x2="142.736" y2="-0.204" xlink:href="#linear-gradient-2"/>
    <linearGradient id="linear-gradient-29" x1="42.75" y1="1.955" x2="42.853" y2="-63.203" xlink:href="#linear-gradient-2"/>
    <linearGradient id="linear-gradient-30" x1="353.931" y1="1.256" x2="354.73" y2="-0.099" xlink:href="#linear-gradient-2"/>
    <linearGradient id="linear-gradient-31" x1="33.883" y1="1.14" x2="33.956" y2="-0.015" xlink:href="#linear-gradient-2"/>
    <linearGradient id="linear-gradient-32" x1="132.714" y1="1.299" x2="133.044" y2="-11.893" xlink:href="#linear-gradient-2"/>
    <linearGradient id="linear-gradient-33" x1="33.122" y1="1.133" x2="33.193" y2="-0.01" xlink:href="#linear-gradient-2"/>
    <linearGradient id="linear-gradient-34" x1="4016.74" y1="5.515" x2="4130.496" y2="-2.975" xlink:href="#linear-gradient-2"/>
    <linearGradient id="linear-gradient-35" x1="390.948" y1="5.463" x2="402.034" y2="-3.142" xlink:href="#linear-gradient-2"/>
    <linearGradient id="linear-gradient-36" x1="370.684" y1="112.383" x2="381.282" y2="-15.934" xlink:href="#linear-gradient-2"/>
    <linearGradient id="linear-gradient-37" x1="361.068" y1="43.81" x2="371.25" y2="-66.251" xlink:href="#linear-gradient-2"/>
    <linearGradient id="linear-gradient-38" x1="4007.225" y1="10.45" x2="4120.98" y2="-4.305" xlink:href="#linear-gradient-2"/>
    <linearGradient id="linear-gradient-39" x1="390.021" y1="10.474" x2="401.106" y2="-4.629" xlink:href="#linear-gradient-2"/>
    <linearGradient id="linear-gradient-40" x1="369.883" y1="122.105" x2="380.48" y2="-6.233" xlink:href="#linear-gradient-2"/>
    <linearGradient id="linear-gradient-41" x1="359.297" y1="63.02" x2="369.479" y2="-47.16" xlink:href="#linear-gradient-21"/>
    <linearGradient id="linear-gradient-42" x1="0.928" y1="-0.361" x2="-0.041" y2="1.287" gradientUnits="objectBoundingBox">
      <stop offset="0" stop-color="#856c42"/>
      <stop offset="1" stop-color="#dbb476"/>
    </linearGradient>
    <linearGradient id="linear-gradient-43" x1="1.027" y1="-0.489" x2="-0.462" y2="2.2" xlink:href="#linear-gradient-42"/>
    <linearGradient id="linear-gradient-44" x1="1.448" y1="-0.834" x2="-0.79" y2="3.013" xlink:href="#linear-gradient-42"/>
    <linearGradient id="linear-gradient-45" x1="2.822" y1="-8.012" x2="-1.41" y2="7.486" xlink:href="#linear-gradient-42"/>
    <linearGradient id="linear-gradient-46" x1="3.197" y1="-4.663" x2="-6.98" y2="14.789" xlink:href="#linear-gradient-42"/>
    <linearGradient id="linear-gradient-47" x1="2.938" y1="-1.676" x2="-8.549" y2="8.888" xlink:href="#linear-gradient-42"/>
    <linearGradient id="linear-gradient-48" x1="5.769" y1="-3.172" x2="-1.117" y2="1.52" xlink:href="#linear-gradient-42"/>
    <linearGradient id="linear-gradient-49" x1="8.479" y1="-2.898" x2="-3.113" y2="2.146" xlink:href="#linear-gradient-42"/>
    <linearGradient id="linear-gradient-50" x1="6.483" y1="-4.333" x2="-2.499" y2="3.19" xlink:href="#linear-gradient-42"/>
    <linearGradient id="linear-gradient-51" x1="4.945" y1="-2.195" x2="-3.183" y2="2.936" xlink:href="#linear-gradient-42"/>
    <linearGradient id="linear-gradient-52" x1="6.529" y1="-2.22" x2="-5.064" y2="2.959" xlink:href="#linear-gradient-42"/>
    <linearGradient id="linear-gradient-53" x1="7.775" y1="-1.758" x2="-8.02" y2="3.286" xlink:href="#linear-gradient-42"/>
    <linearGradient id="linear-gradient-54" x1="7.486" y1="-1.561" x2="-9.611" y2="3.505" xlink:href="#linear-gradient-42"/>
    <linearGradient id="linear-gradient-55" x1="2.624" y1="-1.257" x2="-3.211" y2="3.783" xlink:href="#linear-gradient-42"/>
  </defs>
  <g id="M_3ndS_2" transform="translate(-265.715 -2587)">
    <path id="Path_4777" data-name="Path 4777" d="M-89.231-211.8H49.2v59.652H-168.008v-24.589q0-25.045,8.424-44.966a149.218,149.218,0,0,1,21.174-35.745,183.663,183.663,0,0,1,27.891-28q15.141-12.181,28.8-21.971Q-67.374-317.669-56.559-327a143.363,143.363,0,0,0,18.214-18.556A70.547,70.547,0,0,0-27.3-364.229a55.524,55.524,0,0,0,3.643-20.15q0-20.946-11.839-31.647t-36.2-10.7q-42.12,0-80.6,33.469v-63.295q42.576-27.549,96.08-27.549,24.817,0,44.511,6.489t33.355,18.556A79.141,79.141,0,0,1,42.481-429.8q7.172,17.19,7.172,38.364,0,22.54-6.944,40.071A123.132,123.132,0,0,1,24.266-319.49a167.284,167.284,0,0,1-26.525,26.3Q-17.285-281.24-33.45-270.084q-10.929,7.741-21.06,15.368a199.662,199.662,0,0,0-17.873,15.027,81.572,81.572,0,0,0-12.295,14.458Q-89.231-218.173-89.231-211.8Z" transform="translate(433.723 3071.102)" fill="url(#linear-gradient)"/>
    <g id="Group_1741" data-name="Group 1741" transform="translate(291.549 2626.604)">
      <g id="Group_1740" data-name="Group 1740" transform="translate(93.776 112.314)">
        <g id="Group_1720" data-name="Group 1720">
          <g id="Group_1719" data-name="Group 1719">
            <g id="Group_1712" data-name="Group 1712" transform="translate(116.74 78.991)" style="isolation: isolate">
              <g id="Group_1708" data-name="Group 1708" transform="translate(0.348 33.514)">
                <path id="Path_4407" data-name="Path 4407" d="M2595.667,1495.923l-9.992.749a.319.319,0,0,1-.061,0l9.992-.749Z" transform="translate(-2585.614 -1495.923)" fill="#6d818f"/>
              </g>
              <g id="Group_1709" data-name="Group 1709" transform="translate(0.092 33.501)">
                <path id="Path_4408" data-name="Path 4408" d="M2595.724,1495.929l-9.992.749-.256-.013,9.992-.749Z" transform="translate(-2585.475 -1495.916)" fill="#6d818f"/>
              </g>
              <g id="Group_1710" data-name="Group 1710" transform="translate(0 0)">
                <path id="Path_4409" data-name="Path 4409" d="M2595.51,1511.3l-9.992.749-.091-33.5,9.992-.749Z" transform="translate(-2585.426 -1477.797)" fill="#6d818f"/>
              </g>
              <g id="Group_1711" data-name="Group 1711" transform="translate(9.992)">
                <path id="Path_4410" data-name="Path 4410" d="M2591.085,1477.81a.7.7,0,0,1,.6.741l.089,32.079a.62.62,0,0,1-.591.68l-.257-.013-.09-33.5Z" transform="translate(-2590.83 -1477.797)" fill="url(#linear-gradient-2)"/>
              </g>
            </g>
            <path id="Path_4411" data-name="Path 4411" d="M2589.45,1590.942a7.389,7.389,0,0,1-1.163.087l-3.825.288q-2.5.186-5,.375c4.682-.351,7.242-.547,10.043-.775Z" transform="translate(-2473.752 -1302.773)" fill="#fff"/>
            <path id="Path_4412" data-name="Path 4412" d="M2587.844,1592.447l-9.992.749a14.764,14.764,0,0,1-1.879.024l9.992-.749A15.134,15.134,0,0,0,2587.844,1592.447Z" transform="translate(-2476.71 -1301.475)" fill="url(#linear-gradient-3)"/>
            <path id="Path_4413" data-name="Path 4413" d="M2566.129,1440.709a1.8,1.8,0,0,1,1.521,1.89,1.586,1.586,0,0,1-1.512,1.738,1.8,1.8,0,0,1-1.52-1.888A1.586,1.586,0,0,1,2566.129,1440.709Zm.009,3.312a1.309,1.309,0,0,0,1.248-1.435,1.487,1.487,0,0,0-1.255-1.561,1.308,1.308,0,0,0-1.248,1.437,1.479,1.479,0,0,0,1.255,1.559Z" transform="translate(-2486.35 -1430.294)" fill="#fff"/>
            <path id="Path_4414" data-name="Path 4414" d="M2625.954,1439.242c9.8.482,17.792,10.4,17.824,22.119l.669,243.82c.031,11.713-7.912,20.853-17.707,20.37l-80.311-3.955c-9.793-.483-17.789-10.408-17.822-22.121l-.667-243.818c-.033-11.717,7.912-20.853,17.7-20.37Zm17.455,265.887-.668-243.818c-.031-11.029-7.559-20.375-16.783-20.83l-80.31-3.955c-9.221-.455-16.7,8.152-16.668,19.181l.667,243.82c.031,11.031,7.557,20.374,16.779,20.827l80.311,3.957c9.225.453,16.7-8.15,16.672-19.181Z" transform="translate(-2517.488 -1434.91)" fill="url(#linear-gradient-4)"/>
            <path id="Path_4415" data-name="Path 4415" d="M2555.908,1442.627a.966.966,0,0,1-.819-1.019.852.852,0,0,1,.813-.934l12.458.614a.966.966,0,0,1,.819,1.015.853.853,0,0,1-.813.937Z" transform="translate(-2494.44 -1430.322)" fill="#657c88"/>
            <path id="Path_4416" data-name="Path 4416" d="M2568.5,1441.1a1.317,1.317,0,0,1,1.117,1.383,1.163,1.163,0,0,1-1.11,1.276l-12.458-.614a1.316,1.316,0,0,1-1.117-1.385,1.162,1.162,0,0,1,1.109-1.274Zm.007,2.306a.854.854,0,0,0,.813-.937.965.965,0,0,0-.819-1.013l-12.458-.614a.853.853,0,0,0-.816.934.968.968,0,0,0,.821,1.017l12.458.614Z" transform="translate(-2494.577 -1430.485)" fill="#fff"/>
            <path id="Path_4417" data-name="Path 4417" d="M2623.723,1441.971c7.181.355,13.024,7.6,13.048,16.193l.669,244.317c.024,8.59-5.78,15.267-12.963,14.914l-80.564-3.968c-7.182-.353-13.024-7.6-13.048-16.195l-.669-244.318c-.024-8.59,5.78-15.265,12.963-14.912,0,0,39.1.42,40.289.479Z" transform="translate(-2515.573 -1432.6)" fill="url(#linear-gradient-5)"/>
            <path id="Path_4418" data-name="Path 4418" d="M2625.347,1440.1c9.058.447,16.454,9.624,16.485,20.458l.667,243.818c.03,10.835-7.318,19.286-16.376,18.841l-80.311-3.955c-9.06-.447-16.452-9.624-16.482-20.458l-.669-243.82c-.03-10.835,7.314-19.285,16.375-18.839Zm13.4,263.953-.669-244.317c-.024-8.59-5.867-15.84-13.048-16.193l-20.009-.747a2.24,2.24,0,0,0-2.139,2.459l0,1.242c.01,3.563-2.4,6.334-5.375,6.187l-26.171-1.749c-2.979-.148-5.4-3.156-5.41-6.719l0-1.242a2.536,2.536,0,0,0-2.154-2.67l-19.3-.729c-7.183-.353-12.987,6.322-12.963,14.912l.669,244.318c.024,8.588,5.866,15.84,13.048,16.195l80.564,3.968c7.183.353,12.987-6.323,12.963-14.914Zm-60.407-259.882a1.162,1.162,0,0,0-1.109,1.272,1.32,1.32,0,0,0,1.117,1.389l12.458.612a1.163,1.163,0,0,0,1.11-1.276,1.317,1.317,0,0,0-1.117-1.383l-12.458-.614Zm18.317.416a1.588,1.588,0,0,0-1.513,1.74,1.8,1.8,0,0,0,1.522,1.888,1.587,1.587,0,0,0,1.512-1.738,1.8,1.8,0,0,0-1.521-1.89Z" transform="translate(-2516.875 -1434.177)" fill="url(#linear-gradient-6)"/>
            <path id="Path_4419" data-name="Path 4419" d="M2566.018,1443.875a1.482,1.482,0,0,1-1.257-1.559,1.311,1.311,0,0,1,1.25-1.437,1.485,1.485,0,0,1,1.255,1.559A1.311,1.311,0,0,1,2566.018,1443.875Z" transform="translate(-2486.23 -1430.148)" fill="url(#linear-gradient-7)"/>
            <path id="Path_4420" data-name="Path 4420" d="M2538.5,1435.847l9.992-.749c-9.076.68-16.153,9.537-16.121,20.689l-9.992.749C2522.344,1445.384,2529.421,1436.527,2538.5,1435.847Z" transform="translate(-2522.211 -1435.056)" fill="url(#linear-gradient-8)"/>
            <path id="Path_4421" data-name="Path 4421" d="M2528.2,1459.51l.03,11-.255-.013a.7.7,0,0,1-.6-.741l-.026-9.579a.619.619,0,0,1,.59-.68Z" transform="translate(-2517.982 -1414.343)" fill="#6d818f"/>
            <path id="Path_4422" data-name="Path 4422" d="M2622.839,1594.276l-9.991.749-80.311-3.955,9.992-.75Z" transform="translate(-2513.586 -1303.28)" fill="url(#linear-gradient-9)"/>
            <path id="Path_4423" data-name="Path 4423" d="M2532.94,1690.537l-9.992.749-.46-244.755,9.992-.75Z" transform="translate(-2522.116 -1425.986)" fill="url(#linear-gradient-10)"/>
            <path id="Path_4424" data-name="Path 4424" d="M2625.481,1439.913c9.225.455,16.752,9.8,16.783,20.83l.668,243.82c.031,11.029-7.448,19.632-16.672,19.179l-80.311-3.957c-9.223-.455-16.75-9.8-16.779-20.827l-.669-243.82c-.029-11.029,7.45-19.636,16.67-19.183Zm17.155,264.635-.669-243.82c-.029-10.835-7.425-20.011-16.483-20.458l-80.311-3.955c-9.06-.446-16.4,8-16.375,18.839l.669,243.82c.03,10.835,7.422,20.011,16.482,20.458l80.311,3.955c9.058.446,16.406-8,16.376-18.839Z" transform="translate(-2517.011 -1434.342)" fill="url(#linear-gradient-11)"/>
            <path id="Path_4425" data-name="Path 4425" d="M2550.848,1600.647l-9.991.749c-9.961-.49-18.087-10.578-18.12-22.489l9.992-.749C2532.762,1590.069,2540.888,1600.155,2550.848,1600.647Z" transform="translate(-2521.905 -1313.606)" fill="url(#linear-gradient-12)"/>
            <path id="Path_4426" data-name="Path 4426" d="M2626.09,1439.05c9.958.49,18.088,10.58,18.122,22.491l.145,52.525.09,33.5.433,157.794c.034,11.911-8.043,21.2-18,20.71l-80.311-3.955c-9.96-.492-18.086-10.578-18.119-22.489l-.411-150.077-.061-21.7-.015-5.676-.059-21.707-.026-9.221-.03-11-.066-24.436c-.033-11.911,8.041-21.2,18-20.714Zm18.493,266.3-.667-243.818c-.033-11.717-8.03-21.638-17.826-22.121l-80.309-3.955c-9.794-.483-17.737,8.653-17.706,20.37l.669,243.818c.031,11.713,8.028,21.638,17.82,22.121l80.311,3.955c9.8.483,17.74-8.656,17.707-20.37Z" transform="translate(-2517.624 -1435.075)" fill="url(#linear-gradient-13)"/>
            <g id="Group_1715" data-name="Group 1715" transform="translate(0 92.753)">
              <g id="Group_1714" data-name="Group 1714">
                <path id="Path_4427" data-name="Path 4427" d="M2528.137,1485.255l.059,21.7-.255-.013a.7.7,0,0,1-.6-.738l-.056-20.283a.617.617,0,0,1,.589-.68Z" transform="translate(-2518.04 -1485.241)" fill="url(#linear-gradient-14)"/>
                <g id="Group_1713" data-name="Group 1713" transform="translate(0 0.642)">
                  <path id="Path_4428" data-name="Path 4428" d="M2522.352,1486.389l9.194-.8.057,20.641-9.315.784Z" transform="translate(-2522.287 -1485.588)" fill="url(#linear-gradient-15)"/>
                </g>
              </g>
              <path id="Path_4429" data-name="Path 4429" d="M2522.851,1486l9.215-.756a.612.612,0,0,0-.551.642l-9.193.795A.634.634,0,0,1,2522.851,1486Z" transform="translate(-2522.257 -1485.24)" fill="url(#linear-gradient-16)"/>
              <path id="Path_4430" data-name="Path 4430" d="M2532.429,1497.274l-9.546,1.071a.7.7,0,0,1-.595-.738l9.314-.938A.807.807,0,0,0,2532.429,1497.274Z" transform="translate(-2522.287 -1475.539)" fill="url(#linear-gradient-17)"/>
            </g>
            <g id="Group_1718" data-name="Group 1718" transform="translate(0 77.101)">
              <g id="Group_1717" data-name="Group 1717" transform="translate(0 0.001)">
                <path id="Path_4431" data-name="Path 4431" d="M2528.137,1476.789l.059,12.484-.255-.013a.7.7,0,0,1-.6-.738l-.056-11.068a.616.616,0,0,1,.589-.678Z" transform="translate(-2518.04 -1476.776)" fill="url(#linear-gradient-18)"/>
                <g id="Group_1716" data-name="Group 1716" transform="translate(0 0.642)">
                  <path id="Path_4432" data-name="Path 4432" d="M2522.352,1477.924l9.194-.8.057,11.423-9.315.784Z" transform="translate(-2522.287 -1477.123)" fill="url(#linear-gradient-19)"/>
                </g>
              </g>
              <path id="Path_4433" data-name="Path 4433" d="M2522.851,1477.533l9.215-.758a.614.614,0,0,0-.551.644l-9.193.795A.633.633,0,0,1,2522.851,1477.533Z" transform="translate(-2522.257 -1476.775)" fill="url(#linear-gradient-20)"/>
              <path id="Path_4434" data-name="Path 4434" d="M2532.429,1483.824l-9.546,1.069a.7.7,0,0,1-.595-.738l9.314-.936A.81.81,0,0,0,2532.429,1483.824Z" transform="translate(-2522.287 -1471.304)" fill="url(#linear-gradient-21)"/>
            </g>
          </g>
        </g>
        <g id="Group_1721" data-name="Group 1721" transform="translate(59.66 221.752)">
          <ellipse id="Ellipse_284" data-name="Ellipse 284" cx="11.701" cy="14.733" rx="11.701" ry="14.733" transform="translate(0 2.812) rotate(-6.902)" fill="#ff3e4c"/>
          <g id="shape_1" data-name="shape 1" transform="translate(6.18 12.238)">
            <path id="Path_4435" data-name="Path 4435" d="M2570.5,1569.652c.479.344.667.187.838.044.14-.116.293-.259.449-.4a1.39,1.39,0,0,0,.389-.947,5.115,5.115,0,0,0-.717-3.263,6.117,6.117,0,0,0-2.842-2.256c-.239-.094-3.637-1.875-6.727-.922-2.568.791-2.845,1.357-3.241,1.8a4.191,4.191,0,0,0-.691,2.874,3.522,3.522,0,0,0,.735,1.561c.135.072.335.005.658-.056s1.906-.377,2.18-.471a.513.513,0,0,0,.429-.631c-.028-.444,0-1.533.017-1.858a.48.48,0,0,1,.455-.536,6.388,6.388,0,0,1,2.773-.213,7.916,7.916,0,0,1,2.559.908c.32.177.3.451.273.71-.022.231-.018.566-.028.847a3.245,3.245,0,0,0,.074.717.709.709,0,0,0,.34.51C2568.571,1568.164,2569.928,1569.246,2570.5,1569.652Z" transform="translate(-2557.897 -1561.628)" fill="#fff" fill-rule="evenodd"/>
          </g>
        </g>
        <g id="Group_1734" data-name="Group 1734" transform="translate(144.209 36.482)">
          <g id="Group_1733" data-name="Group 1733">
            <g id="Group_1726" data-name="Group 1726" transform="translate(0 78.99)" style="isolation: isolate">
              <g id="Group_1722" data-name="Group 1722" transform="translate(0.529 33.512)">
                <path id="Path_4436" data-name="Path 4436" d="M2600.568,1515.653l9.991.751c.021,0,.041,0,.061,0l-9.991-.749A.567.567,0,0,1,2600.568,1515.653Z" transform="translate(-2600.568 -1515.653)" fill="#6d818f"/>
              </g>
              <g id="Group_1723" data-name="Group 1723" transform="translate(0.59 33.501)">
                <path id="Path_4437" data-name="Path 4437" d="M2600.6,1515.66l9.992.749.256-.013-9.992-.749Z" transform="translate(-2600.602 -1515.647)" fill="#6d818f"/>
              </g>
              <g id="Group_1724" data-name="Group 1724" transform="translate(0.847)">
                <path id="Path_4438" data-name="Path 4438" d="M2600.74,1531.029l9.992.749.092-33.5-9.991-.75Z" transform="translate(-2600.74 -1497.528)" fill="#6d818f"/>
              </g>
              <g id="Group_1725" data-name="Group 1725" transform="translate(0 0)">
                <path id="Path_4439" data-name="Path 4439" d="M2600.964,1497.541a.705.705,0,0,0-.6.741l-.087,32.079a.619.619,0,0,0,.59.681l.257-.013.093-33.5Z" transform="translate(-2600.282 -1497.528)" fill="url(#linear-gradient-22)"/>
              </g>
            </g>
            <path id="Path_4440" data-name="Path 4440" d="M2606.783,1610.673a7.336,7.336,0,0,0,1.161.087l3.826.287q2.5.189,5,.375c-4.684-.352-7.244-.546-10.045-.773Z" transform="translate(-2594.809 -1322.504)" fill="#fff"/>
            <path id="Path_4441" data-name="Path 4441" d="M2609.226,1612.178l9.991.749a15.155,15.155,0,0,0,1.88.024l-9.992-.749A15.148,15.148,0,0,1,2609.226,1612.178Z" transform="translate(-2592.689 -1321.206)" fill="url(#linear-gradient-23)"/>
            <path id="Path_4442" data-name="Path 4442" d="M2628.394,1462.18a1.8,1.8,0,0,1-1.521,1.888,1.585,1.585,0,0,1-1.51-1.738,1.8,1.8,0,0,1,1.52-1.89A1.588,1.588,0,0,1,2628.394,1462.18Zm-1.521,1.572a1.48,1.48,0,0,0,1.257-1.559,1.31,1.31,0,0,0-1.248-1.437,1.485,1.485,0,0,0-1.256,1.561,1.306,1.306,0,0,0,1.246,1.435Z" transform="translate(-2578.991 -1450.025)" fill="#fff"/>
            <path id="Path_4443" data-name="Path 4443" d="M2699.469,1455.017c9.793-.482,17.737,8.655,17.706,20.37l-.669,243.82c-.032,11.713-8.028,21.638-17.822,22.121l-80.311,3.955c-9.8.483-17.739-8.657-17.705-20.37l.667-243.82c.031-11.715,8.028-21.636,17.824-22.119ZM2601.7,1724.861c-.03,11.031,7.448,19.634,16.672,19.179l80.311-3.955c9.223-.455,16.75-9.8,16.779-20.827l.669-243.82c.03-11.029-7.447-19.636-16.67-19.183l-80.311,3.957c-9.224.453-16.751,9.8-16.781,20.83l-.669,243.818Z" transform="translate(-2599.955 -1454.642)" fill="url(#linear-gradient-24)"/>
            <path id="Path_4444" data-name="Path 4444" d="M2642.182,1462.358a.968.968,0,0,0,.819-1.019.852.852,0,0,0-.815-.934l-12.457.614a.965.965,0,0,0-.819,1.015.852.852,0,0,0,.814.936Z" transform="translate(-2575.979 -1450.053)" fill="#657c88"/>
            <path id="Path_4445" data-name="Path 4445" d="M2642.324,1460.215a1.162,1.162,0,0,1,1.109,1.274,1.317,1.317,0,0,1-1.117,1.385l-12.458.614a1.164,1.164,0,0,1-1.109-1.276,1.319,1.319,0,0,1,1.117-1.385Zm-12.464,2.919,12.458-.614a.967.967,0,0,0,.819-1.017.853.853,0,0,0-.813-.936l-12.458.614a.965.965,0,0,0-.819,1.015.853.853,0,0,0,.814.937Z" transform="translate(-2576.115 -1450.215)" fill="#fff"/>
            <path id="Path_4446" data-name="Path 4446" d="M2617.138,1461.7c-7.182.353-13.024,7.6-13.046,16.193l-.671,244.316c-.022,8.59,5.782,15.269,12.963,14.916l80.564-3.968c7.181-.355,13.024-7.6,13.048-16.195l.669-244.318c.024-8.59-5.78-15.265-12.961-14.912,0,0-39.1.42-40.29.479Z" transform="translate(-2597.618 -1452.332)" fill="url(#linear-gradient-25)"/>
            <path id="Path_4447" data-name="Path 4447" d="M2698.854,1455.881c9.058-.446,16.4,8,16.372,18.839l-.667,243.82c-.029,10.835-7.423,20.011-16.481,20.457l-80.311,3.957c-9.06.446-16.408-8.006-16.378-18.841l.669-243.818c.03-10.835,7.425-20.011,16.485-20.459Zm-93.708,267.906c-.024,8.59,5.782,15.269,12.963,14.916l80.564-3.97c7.183-.353,13.024-7.6,13.048-16.195l.669-244.318c.024-8.588-5.78-15.265-12.961-14.91l-19.307.728a2.538,2.538,0,0,0-2.154,2.67v1.241c-.011,3.565-2.432,6.573-5.412,6.719l-26.169,1.751c-2.98.146-5.386-2.624-5.375-6.188l0-1.24a2.239,2.239,0,0,0-2.14-2.459l-20.007.747c-7.183.353-13.026,7.6-13.048,16.191l-.671,244.318Zm60.407-259.88-12.458.614a1.316,1.316,0,0,0-1.117,1.383,1.163,1.163,0,0,0,1.109,1.276l12.458-.614a1.317,1.317,0,0,0,1.117-1.387,1.161,1.161,0,0,0-1.109-1.272Zm-18.317.416a1.8,1.8,0,0,0-1.522,1.888,1.588,1.588,0,0,0,1.512,1.74,1.8,1.8,0,0,0,1.521-1.888,1.588,1.588,0,0,0-1.512-1.74Z" transform="translate(-2599.343 -1453.908)" fill="url(#linear-gradient-26)"/>
            <path id="Path_4448" data-name="Path 4448" d="M2626.752,1463.606a1.48,1.48,0,0,0,1.257-1.559,1.31,1.31,0,0,0-1.248-1.437,1.487,1.487,0,0,0-1.258,1.559A1.311,1.311,0,0,0,2626.752,1463.606Z" transform="translate(-2578.87 -1449.879)" fill="url(#linear-gradient-27)"/>
            <path id="Path_4449" data-name="Path 4449" d="M2665.113,1455.578l-9.992-.749c9.075.68,16.15,9.537,16.121,20.69l9.991.749C2681.263,1465.115,2674.188,1456.259,2665.113,1455.578Z" transform="translate(-2553.727 -1454.787)" fill="url(#linear-gradient-28)"/>
            <path id="Path_4450" data-name="Path 4450" d="M2663.817,1479.241l-.03,11,.257-.013a.7.7,0,0,0,.593-.741l.028-9.581a.62.62,0,0,0-.592-.678Z" transform="translate(-2546.37 -1434.073)" fill="#6d818f"/>
            <path id="Path_4451" data-name="Path 4451" d="M2610.243,1614.007l9.991.749,80.311-3.955-9.992-.75Z" transform="translate(-2591.826 -1323.012)" fill="url(#linear-gradient-29)"/>
            <path id="Path_4452" data-name="Path 4452" d="M2663.479,1710.268l9.991.749.46-244.755-9.992-.749Z" transform="translate(-2546.632 -1445.717)" fill="url(#linear-gradient-30)"/>
            <path id="Path_4453" data-name="Path 4453" d="M2698.99,1455.687c9.223-.453,16.7,8.154,16.67,19.183l-.669,243.82c-.03,11.029-7.557,20.372-16.779,20.827l-80.311,3.955c-9.224.455-16.7-8.148-16.672-19.179l.669-243.818c.029-11.031,7.557-20.377,16.781-20.83Zm-97.465,268.592c-.03,10.833,7.318,19.284,16.378,18.839l80.311-3.957c9.058-.446,16.452-9.622,16.481-20.457l.667-243.82c.032-10.835-7.314-19.286-16.374-18.839L2618.678,1460c-9.06.446-16.455,9.624-16.485,20.459l-.669,243.82Z" transform="translate(-2599.479 -1454.073)" fill="url(#linear-gradient-31)"/>
            <path id="Path_4454" data-name="Path 4454" d="M2653.679,1620.377l9.992.75c9.958-.492,18.084-10.578,18.118-22.489l-9.992-.751C2671.765,1609.8,2663.637,1619.887,2653.679,1620.377Z" transform="translate(-2554.951 -1333.338)" fill="url(#linear-gradient-32)"/>
            <path id="Path_4455" data-name="Path 4455" d="M2699.606,1454.825c9.96-.49,18.033,8.8,18,20.714l-.067,24.436-.031,11-.024,9.223-.061,21.7-.015,5.678-.059,21.7-.412,150.077c-.032,11.913-8.16,22-18.118,22.489l-80.311,3.957c-9.958.49-18.036-8.8-18-20.71l.433-157.794.093-33.5.144-52.525c.032-11.911,8.164-22,18.12-22.493Zm-98.8,270.253c-.032,11.713,7.912,20.852,17.707,20.37l80.311-3.955c9.794-.483,17.789-10.408,17.822-22.121l.667-243.818c.033-11.717-7.912-20.854-17.7-20.372l-80.311,3.957c-9.8.483-17.792,10.4-17.824,22.119l-.669,243.82Z" transform="translate(-2600.092 -1454.806)" fill="url(#linear-gradient-33)"/>
            <g id="Group_1729" data-name="Group 1729" transform="translate(117.514 92.752)">
              <g id="Group_1728" data-name="Group 1728" transform="translate(0 0.001)">
                <path id="Path_4456" data-name="Path 4456" d="M2663.9,1504.985l-.059,21.7.257-.013a.7.7,0,0,0,.594-.738l.058-20.285a.618.618,0,0,0-.592-.678Z" transform="translate(-2663.839 -1504.972)" fill="url(#linear-gradient-34)"/>
                <g id="Group_1727" data-name="Group 1727" transform="translate(0.842 0.641)">
                  <path id="Path_4457" data-name="Path 4457" d="M2673.545,1506.12l-9.194-.8-.056,20.641,9.315.784Z" transform="translate(-2664.295 -1505.319)" fill="url(#linear-gradient-35)"/>
                </g>
              </g>
              <path id="Path_4458" data-name="Path 4458" d="M2673.244,1505.729l-9.217-.758a.613.613,0,0,1,.551.643l9.193.793A.631.631,0,0,0,2673.244,1505.729Z" transform="translate(-2663.679 -1504.971)" fill="url(#linear-gradient-36)"/>
              <path id="Path_4459" data-name="Path 4459" d="M2663.847,1517l9.548,1.07a.7.7,0,0,0,.594-.74l-9.315-.936A.807.807,0,0,1,2663.847,1517Z" transform="translate(-2663.833 -1495.268)" fill="url(#linear-gradient-37)"/>
            </g>
            <g id="Group_1732" data-name="Group 1732" transform="translate(117.514 77.101)">
              <g id="Group_1731" data-name="Group 1731" transform="translate(0 0.001)">
                <path id="Path_4460" data-name="Path 4460" d="M2663.9,1496.518l-.059,12.484.257-.011a.7.7,0,0,0,.594-.74l.058-11.066a.619.619,0,0,0-.592-.679Z" transform="translate(-2663.839 -1496.507)" fill="url(#linear-gradient-38)"/>
                <g id="Group_1730" data-name="Group 1730" transform="translate(0.842 0.641)">
                  <path id="Path_4461" data-name="Path 4461" d="M2673.545,1497.655l-9.194-.8-.056,11.423,9.315.784Z" transform="translate(-2664.295 -1496.854)" fill="url(#linear-gradient-39)"/>
                </g>
              </g>
              <path id="Path_4462" data-name="Path 4462" d="M2673.244,1497.264l-9.217-.758a.612.612,0,0,1,.551.644l9.193.793A.631.631,0,0,0,2673.244,1497.264Z" transform="translate(-2663.679 -1496.506)" fill="url(#linear-gradient-40)"/>
              <path id="Path_4463" data-name="Path 4463" d="M2663.847,1503.555l9.548,1.069a.7.7,0,0,0,.594-.738l-9.315-.936A.809.809,0,0,1,2663.847,1503.555Z" transform="translate(-2663.833 -1491.036)" fill="url(#linear-gradient-41)"/>
            </g>
          </g>
        </g>
        <g id="Group_1735" data-name="Group 1735" transform="translate(185.445 258.233)">
          <ellipse id="Ellipse_285" data-name="Ellipse 285" cx="14.733" cy="11.701" rx="14.733" ry="11.701" transform="translate(0 29.252) rotate(-83.098)" fill="#ff3e4c"/>
          <g id="shape_1-2" data-name="shape 1" transform="translate(6.289 12.237)">
            <path id="Path_4464" data-name="Path 4464" d="M2629.765,1587.8a.709.709,0,0,0,.34-.51,3.059,3.059,0,0,0,.074-.717c-.009-.283,0-.618-.026-.849-.025-.257-.046-.531.272-.708a7.893,7.893,0,0,1,2.559-.908,6.433,6.433,0,0,1,2.773.211.484.484,0,0,1,.457.538c.013.325.044,1.412.015,1.858a.512.512,0,0,0,.429.629c.273.094,1.858.41,2.182.471s.523.129.658.055a3.517,3.517,0,0,0,.736-1.559,4.182,4.182,0,0,0-.693-2.873c-.394-.44-.671-1.006-3.239-1.8-3.091-.954-6.488.828-6.727.923a6.1,6.1,0,0,0-2.842,2.256,5.122,5.122,0,0,0-.717,3.263,1.374,1.374,0,0,0,.388.947c.153.141.309.283.448.4.172.144.36.3.839-.043C2628.258,1588.975,2629.615,1587.9,2629.765,1587.8Z" transform="translate(-2625.987 -1581.359)" fill="#fff" fill-rule="evenodd"/>
          </g>
        </g>
        <g id="Group_1736" data-name="Group 1736" transform="translate(42.743 48.656)">
          <path id="Path_4465" data-name="Path 4465" d="M2573.255,1518.4c1.614-4.238,7.48-8.829,8.087-9.343.473-.4.961-.788,1.447-1.176.717-.577,4.478-3.071,4.783-2.624a.234.234,0,0,1,.039.224c-.211.325-4,2.936-4.745,3.537-2.953,2.278-7.074,6.449-8.965,10.43a3.722,3.722,0,0,0,.307.527,15.034,15.034,0,0,1,2.535,8.451c.03,1.381-.021,4.147-1.054,4.362-.282.017-1.849.2-3.048-2.991a18.186,18.186,0,0,1-.9-6.322,11.007,11.007,0,0,1,.893-3.69,28.767,28.767,0,0,0-4.023-4.459c-5.563-4.769-14.6-11.471-14.882-11.741a16.419,16.419,0,0,1-4.854-7.2,15.013,15.013,0,0,1-.636-5.928c.825-7.488,12.063-7.915,12.229-10.156.015-.583.267-3.288.287-3.606a.641.641,0,0,1,.451-.656,4.6,4.6,0,0,0,1.226-.839,10.016,10.016,0,0,1,.845-.54c1.629-.19,1.2,2.243,1.15,2.7a16.186,16.186,0,0,1-.318,2.18,10.31,10.31,0,0,1-.7,1.89,8.5,8.5,0,0,1-1.864,2.472c-.418.406-.887.756-1.328,1.139a7.962,7.962,0,0,1-2.452,1.315c-.617.239-.593.257-.873.86a13.151,13.151,0,0,0-.646,1.914,2.7,2.7,0,0,0,.111,1.757c1.035,2.354,3.793,5.672,9.833,5.484,7.608-.054,13.856-4.748,14.218-5.012a1.746,1.746,0,0,0,.248-.272,3.5,3.5,0,0,1-.563-1.531,4.9,4.9,0,0,1,.019-1.411c.212-1.139.457-2.269.75-3.38.691-2.579,1.8-3.162,2.337-3.348a1.065,1.065,0,0,1,.764.07,4.37,4.37,0,0,1,1.81,3.217c.021.29.048.581.076.91a1.5,1.5,0,0,0,.17-.131,19.414,19.414,0,0,0,1.806-2.045,14.4,14.4,0,0,0,1.363-2.246,1.542,1.542,0,0,0,.03-1.089c-.209-.776-.438-1.549-.66-2.324a36.425,36.425,0,0,0-2.169-4.948c-.078.344-.15.612-.2.887-.111.594-1.126,6.185-1.137,6.274-.014.126-.068.231-.205.246-.113.011-.216-.115-.226-.287a9.252,9.252,0,0,1,.087-2.039c.151-.91.279-1.825.451-2.729.263-1.389.547-2.773.837-4.155.194-.928.409-1.849.62-2.771a.421.421,0,0,1,.213-.307c.116-.009.2.118.27.338a3.724,3.724,0,0,0,.266.629,41.577,41.577,0,0,1,3.014,7.636,6.545,6.545,0,0,1,.1,2.085,16.76,16.76,0,0,1-.564,3.184c-.143.479-.257.969-.394,1.45a9.145,9.145,0,0,1-1.068,2.287c-.455.738-.9,1.486-1.405,2.185a36.7,36.7,0,0,1-2.858,3.092,1.16,1.16,0,0,0-.316.653,7.461,7.461,0,0,0,1.16,4.962c2.529,3.417,4.9,3.128,5.511,3.082.581-.046,4.382-.858,6.216-6.9a8.515,8.515,0,0,0,.094-3.321c-.1-.8-1.109-6.4-3-8.77a2.51,2.51,0,0,0-.192-.24c-.021.146-.039.236-.044.331-.057,1.193-.089,2.389-.174,3.576-.118,1.658-.336,7.168-.351,7.329-.007.094-.048.2-.151.17-.072-.019-.152-.006-.187-.179a36.367,36.367,0,0,1-.135-3.875q.094-2,.161-4c.037-1.063.055-2.13.094-3.193a16.134,16.134,0,0,1,.111-1.618c.109-.786.268-1.561.4-2.341.058-.32.131-1.324.359-1.318.324.374,1.573,2.618,1.819,3.081a20.649,20.649,0,0,1,1.685,4.385,21.718,21.718,0,0,1,.453,2.354,18.5,18.5,0,0,1,.208,2.032,15.989,15.989,0,0,1-.034,2.019c-.079.926-.174,1.853-.342,2.755q-.4,2.175-.917,4.315a14.083,14.083,0,0,1-1.612,3.8c-.644,1.1-3.558,4.933-7.411,3.424a3.262,3.262,0,0,1-.684-.368c-.821-.573-4.891-3.341-3.775-11.112,0-.019.015-.046-.017-.072-.168-.048-1.3,1.305-1.853,1.806a24.517,24.517,0,0,1-4.587,3.345,24.139,24.139,0,0,1-4.112,1.967,25.121,25.121,0,0,1-5.341,1.265,15.191,15.191,0,0,1-6.673-.669,9,9,0,0,1-5.223-4.981,5.427,5.427,0,0,1-.226-2.433,36.721,36.721,0,0,1,1.37-5.186c-.161.044-5.991,1.538-7.318,6.065a2.347,2.347,0,0,0,.047,1.457,11.156,11.156,0,0,0,1.547,2.932,22.263,22.263,0,0,0,5.088,4.874C2571.7,1513.254,2572.421,1517.214,2573.255,1518.4Zm.085,2.344a12.194,12.194,0,0,0-.9,4.781,4.783,4.783,0,0,0,.691,2.441,2.455,2.455,0,0,0,.793.791.717.717,0,0,0,1.068-.24,5.346,5.346,0,0,0,.413-3.1,8.044,8.044,0,0,0-.388-1.514A20.4,20.4,0,0,0,2573.34,1520.749Zm10.7-33.588c.1-.065.1-.155.056-.259-.105-.239-.518-1.246-1.128-1.426a1.033,1.033,0,0,0-.788-.044,1.628,1.628,0,0,0-.976,1.307.48.48,0,0,0,.014.239C2581.708,1488.437,2583.5,1487.505,2584.039,1487.161Z" transform="translate(-2543.054 -1455.827)" fill="url(#linear-gradient-42)"/>
          <path id="Path_4466" data-name="Path 4466" d="M2558.506,1477.732a1.3,1.3,0,0,0,.727-.179c.411-.246.8-.516,1.2-.782.152-.1.289-.222.437-.327a.691.691,0,0,1,.928.118,1.2,1.2,0,0,1,.342.655,4.924,4.924,0,0,1-.061,1.5q-.2,1.11-.468,2.2a3.334,3.334,0,0,1-.812,1.553,2.129,2.129,0,0,1-.355.29,19.562,19.562,0,0,1-3.324,1.775c-.446.181-.888.377-1.328.57a52.226,52.226,0,0,0-4.907,2.755c-5.754,3.977-4.083,11.376-3.988,12.094.041.3.085.608.124.911.013.1.034.218-.085.255a.3.3,0,0,1-.331-.109.793.793,0,0,1-.122-.25,14.8,14.8,0,0,1,2.892-15.636c2.779-3,7.489-4.3,7.836-4.417a.513.513,0,0,0,.381-.457c.084-.629.214-2.435.26-2.7.061-.349.484-4.5,2.517-6.53a6.447,6.447,0,0,1,1.448-1.165,1.419,1.419,0,0,1,1.98.594c.328.525.662,1.044.982,1.573a1.361,1.361,0,0,0,1.193.662c.316.013,2.483.359,4.125-4.155q.524-1.412,1.107-2.8a5.969,5.969,0,0,1,.5-.806,1.513,1.513,0,0,0,.281-.754c.024-.509.1-1.011.153-1.516.026-.248.044-.5.068-.747.01-.109.023-.218.037-.325s.052-.205.168-.194c.348.033-.029,1.523,3.237,2.317a6.237,6.237,0,0,1,1.709.723.673.673,0,0,1,.394.678c-.015.331-.37,3.3-.385,3.35-.086.289-.149.314-.417.152a3.682,3.682,0,0,0-1.208-.451,13.707,13.707,0,0,0-2.365-.3,1.983,1.983,0,0,0-1.226.39,4.051,4.051,0,0,0-1.467,2.167c-.286.893-.551,1.8-.827,2.7a7.061,7.061,0,0,1-1.425,2.6c-.275.314-2.511,2.385-4.13.255-.251-.292-1.255-2.529-2.639-2.084a6.607,6.607,0,0,0-2.756,2.753A6.34,6.34,0,0,0,2558.506,1477.732Z" transform="translate(-2545.405 -1461.391)" fill="url(#linear-gradient-43)"/>
          <path id="Path_4467" data-name="Path 4467" d="M2564.875,1489.4c2.332,1.962,5.472-.788,6.037-1.346a7.787,7.787,0,0,0,1.255-1.716,22.012,22.012,0,0,0,1.346-3.1,5.3,5.3,0,0,0,.257-2.417c-.065-.728-.122-1.459-.24-2.183a16.964,16.964,0,0,0-.594-2.459,33.134,33.134,0,0,0-1.425-3.594c-.066-.14-.141-.277-.24-.479a10.6,10.6,0,0,0-.237,1.427c-.042.538-.442,9.777-.484,10.547-.042.751-.124,1.494-.213,2.235-.056.453-.159.9-.246,1.342-.02.113-.066.338-.214.281-.188-.013-.246-1.416-.242-1.975.005-1.168.169-6.349.188-6.991.024-.834.037-1.67.072-2.5q.064-1.534.161-3.064c.058-.948.121-1.9.211-2.842.056-.566.167-1.119.257-1.677.109-.666.222-1.329.333-1.995a2.092,2.092,0,0,1,.052-.231c.063-.213.185-.235.333-.039.177.242,1.74,3.371,2.1,4.158a21.335,21.335,0,0,1,1.028,2.74,11.616,11.616,0,0,1,.45,2.2,33.377,33.377,0,0,1,.014,4.081,21.339,21.339,0,0,1-.575,4.036c-.155.714-.283,1.437-.472,2.139-2.222,7.764-5.636,7.995-6.812,8.243-.436.053-2.093.468-4.136-2.187-.224-.338-.231-.3-.518-.172-2.2,1-8.487,1.886-8.762,1.609a.365.365,0,0,1-.15-.5c.091-.179.353-.229.54-.261a28.265,28.265,0,0,0,6.338-2.392c.431-.228.821-.525,1.233-.788.143-.091.15-.218.122-.386a18.657,18.657,0,0,1,.324-6.654,38.4,38.4,0,0,1,.934-3.781c.3-.886.625-1.766.952-2.642.525-1.4,1.063-2.786,1.586-4.184a6.613,6.613,0,0,0,.185-.743,1.185,1.185,0,0,1,.058-.2c.064-.144.185-.168.309-.052a.721.721,0,0,1,.159.229c.313.74.6,1.485.932,2.217a11.2,11.2,0,0,1,.7,2.372,12.106,12.106,0,0,1,.177,2.365,17.857,17.857,0,0,1-.456,3.97,29.354,29.354,0,0,1-1.211,4.3,18.127,18.127,0,0,1-1.237,2.7C2564.992,1489.146,2564.944,1489.261,2564.875,1489.4Zm.4-13.978c-.049.115-1.111,3.149-1.684,4.556a18.915,18.915,0,0,0-1.213,3.753,5.659,5.659,0,0,0,.8,4.1,15.023,15.023,0,0,0,3.7-6.939,10.4,10.4,0,0,0-.151-1.664A13.6,13.6,0,0,0,2565.28,1475.421Z" transform="translate(-2538.65 -1457.062)" fill="url(#linear-gradient-44)"/>
          <path id="Path_4468" data-name="Path 4468" d="M2564.417,1489.574a6.679,6.679,0,0,0,.478-.556c.5-.738.995-1.485,1.49-2.23.155-.233.257-.265.518-.085.473.325,3.291,2.768,3.415,2.836-.143.259-1.034,1.7-1.387,2.21-.167.242-.331.488-.488.738-.172.27-.364.3-.64.1-.614-.455-2.474-1.812-2.792-2.03-.168-.117-.222-.117-.362.024-.1.093-1.841,2.305-2.282,2.886-.216.29-3.317-2.557-3.4-2.746a.5.5,0,0,1,.028-.449,13.388,13.388,0,0,1,1.213-1.781c.22-.316.451-.621.68-.93a.865.865,0,0,1,.509-.348.389.389,0,0,1,.409.094c.462.427.933.847,1.385,1.285A9.442,9.442,0,0,0,2564.417,1489.574Z" transform="translate(-2533.921 -1440)" fill="url(#linear-gradient-45)"/>
          <path id="Path_4469" data-name="Path 4469" d="M2570.1,1471.413a3.64,3.64,0,0,1-.124.448c-.346.858-.7,1.71-1.05,2.564a1.206,1.206,0,0,1-.109.205c-.15.224-.222.227-.488.094-.409-.2-.827-.383-1.233-.584-.455-.226-.906-.459-1.352-.7a.737.737,0,0,1-.331-.9c.362-.923.719-1.851,1.078-2.777l.022-.054c.183-.49.238-.5.667-.148a5.033,5.033,0,0,0,1.188.678c.482.209.961.431,1.44.647C2570.034,1470.988,2570.114,1471.114,2570.1,1471.413Z" transform="translate(-2528.456 -1454.659)" fill="url(#linear-gradient-46)"/>
          <path id="Path_4470" data-name="Path 4470" d="M2567.348,1466.525c.338.089.279.07.385.092a1.686,1.686,0,0,1,.713.27,1.376,1.376,0,0,1,.512,1.032c.026.342-.006.684-.011,1.026a4.288,4.288,0,0,1-.416,1.624,4.847,4.847,0,0,1-1.46,1.753c-.6.436-1.206.878-1.81,1.316-.054.039-.333.266-.453.1-.109-.155.081-.4.133-.457.19-.2.379-.407.579-.6a19.258,19.258,0,0,0,2.211-2.487,5.407,5.407,0,0,0,.447-.775c.137-.273.056-.423-.259-.506-.137-.037-.277-.057-.416-.087a1.024,1.024,0,0,1-.847-.664,2.186,2.186,0,0,1-.1-.479,10.816,10.816,0,0,1,.061-1.99,3.9,3.9,0,0,1,.4-1.44c.1-.185.311-.668.616-.555.419.155.088,2.182-.111,2.5C2567.473,1466.286,2567.377,1466.281,2567.348,1466.525Z" transform="translate(-2528.961 -1459.448)" fill="url(#linear-gradient-47)"/>
        </g>
        <g id="Group_1737" data-name="Group 1737" transform="translate(57.95 145.509)">
          <path id="Path_4471" data-name="Path 4471" d="M2559.655,1536.363l-5.96.206-.065-16.591,5.961-.206Z" transform="translate(-2553.629 -1508.681)" fill="#4b909b" stroke="#4b909b" stroke-miterlimit="10" stroke-width="1.125"/>
          <path id="Path_4472" data-name="Path 4472" d="M2572.431,1551.475l-15.482-10.021-.065-16.591,15.4-11.089Z" transform="translate(-2550.867 -1513.774)" fill="#4b909b" stroke="#4b909b" stroke-miterlimit="10" stroke-width="1.125"/>
          <line id="Line_102" data-name="Line 102" y1="8.487" x2="7.361" transform="translate(28.125 2.775)" fill="#4b909b" stroke="#4b909b" stroke-miterlimit="10" stroke-width="0.562"/>
          <line id="Line_103" data-name="Line 103" x1="7.426" y1="7.976" transform="translate(28.182 25.978)" fill="#4b909b" stroke="#4b909b" stroke-miterlimit="10" stroke-width="0.562"/>
          <line id="Line_104" data-name="Line 104" y1="0.318" x2="9.195" transform="translate(28.153 18.302)" fill="#4b909b" stroke="#4b909b" stroke-miterlimit="10" stroke-width="0.562"/>
        </g>
        <g id="Group_1738" data-name="Group 1738" transform="translate(184.499 169.375)">
          <path id="Path_4473" data-name="Path 4473" d="M2639.014,1549.271l5.961.206.065-16.591-5.96-.206Z" transform="translate(-2607.691 -1521.589)" fill="#4b909b" stroke="#4b909b" stroke-miterlimit="10" stroke-width="1.125"/>
          <path id="Path_4474" data-name="Path 4474" d="M2630.61,1564.383l15.483-10.021.065-16.591-15.4-11.09Z" transform="translate(-2614.826 -1526.681)" fill="#4b909b" stroke="#4b909b" stroke-miterlimit="10" stroke-width="1.125"/>
          <line id="Line_105" data-name="Line 105" x1="7.361" y1="8.487" transform="translate(1.862 2.775)" fill="#4b909b" stroke="#4b909b" stroke-miterlimit="10" stroke-width="0.562"/>
          <line id="Line_106" data-name="Line 106" y1="7.976" x2="7.426" transform="translate(1.74 25.978)" fill="#4b909b" stroke="#4b909b" stroke-miterlimit="10" stroke-width="0.562"/>
          <line id="Line_107" data-name="Line 107" x1="9.195" y1="0.318" transform="translate(0 18.302)" fill="#4b909b" stroke="#4b909b" stroke-miterlimit="10" stroke-width="0.562"/>
        </g>
        <g id="Group_1739" data-name="Group 1739" transform="translate(171.675 103.127)">
          <path id="Path_4475" data-name="Path 4475" d="M2625.066,1504.209a2.674,2.674,0,0,1-1.313-.248,2.959,2.959,0,0,1-1.03-.971,4.107,4.107,0,0,1-1.292,1.024,3.624,3.624,0,0,1-1.481.381l-1.33.05a1.134,1.134,0,0,0-.916.381,2.062,2.062,0,0,0-.3,1.168l-.127,4.741-2.145.079.155-5.7a3.859,3.859,0,0,1,.547-2.049,1.933,1.933,0,0,1,1.417-.889,8.891,8.891,0,0,1-.044-4.565,8.563,8.563,0,0,1,.564-1.677,5.818,5.818,0,0,1,1.46-.871,4.2,4.2,0,0,1,1.42-.353,2.87,2.87,0,0,1,1.775.5,3.418,3.418,0,0,1,1.208,1.573,5.932,5.932,0,0,1,.382,2.411,7.343,7.343,0,0,1-.328,2,1.354,1.354,0,0,0,.583.54,1.915,1.915,0,0,0,.854.133l.072-.006c.046,0,.068.026.066.076l-.059,2.173c0,.065-.026.1-.074.1Zm-6.144-4.4a9.1,9.1,0,0,0,.27,2.269l.55-.02a1.894,1.894,0,0,0,1.474-.845,3.29,3.29,0,0,0,.638-1.939,3.007,3.007,0,0,0-.329-1.653,1.053,1.053,0,0,0-.973-.566,2.369,2.369,0,0,0-1.36.594A11.027,11.027,0,0,0,2618.922,1499.812Z" transform="translate(-2615.137 -1487.579)" fill="url(#linear-gradient-48)"/>
          <path id="Path_4476" data-name="Path 4476" d="M2620.5,1506.727c-.048,0-.069-.03-.066-.093l.059-2.174c0-.05.024-.076.072-.078l1.8-.068.342-12.5,2.145-.078-.342,12.5,1.873-.07c.046,0,.072.024.069.076l-.058,2.172c0,.063-.029.1-.076.1Z" transform="translate(-2610.641 -1490.095)" fill="url(#linear-gradient-49)"/>
          <path id="Path_4477" data-name="Path 4477" d="M2623.569,1504.347c-.046,0-.067-.028-.065-.091l.059-2.174c0-.05.024-.078.07-.081l2.217-.08a2.006,2.006,0,0,1-.821-1.065,4.341,4.341,0,0,1-.268-1.707,5.447,5.447,0,0,1,1.158-3.487,3.872,3.872,0,0,1,2.951-1.361,4.73,4.73,0,0,1,1.32.142,3.738,3.738,0,0,1,1.082.407l-.666,2.313a4.308,4.308,0,0,0-.98-.418,3.013,3.013,0,0,0-.884-.094,1.73,1.73,0,0,0-1.387.688,3.122,3.122,0,0,0-.536,1.856,3.288,3.288,0,0,0,.445,1.919,1.428,1.428,0,0,0,1.324.706l2.638-.1-.064,2.346Z" transform="translate(-2608.034 -1487.925)" fill="url(#linear-gradient-50)"/>
          <path id="Path_4478" data-name="Path 4478" d="M2639.736,1503.627c.046,0,.068.024.066.076l-.059,2.172c0,.063-.026.1-.074.1l-4.369.161a3.67,3.67,0,0,1-3.069-1.15,4.915,4.915,0,0,1-1.008-3.485,6.378,6.378,0,0,1,.577-2.574,4.145,4.145,0,0,1,3.765-2.465l.4-.013.026-.956,2.165-.078-.226,8.28Zm-3.948.144.137-4.977-.38.013a1.957,1.957,0,0,0-1.535.716,3.086,3.086,0,0,0-.586,1.916,2.621,2.621,0,0,0,.473,1.775,1.724,1.724,0,0,0,1.483.575Zm-1.085-9.461a.764.764,0,0,1-.693-.349,1.7,1.7,0,0,1-.235-1.017,1.9,1.9,0,0,1,.287-1.043.867.867,0,0,1,.717-.4.744.744,0,0,1,.686.346,1.757,1.757,0,0,1,.226,1.032,1.831,1.831,0,0,1-.289,1.045A.87.87,0,0,1,2634.7,1494.31Zm2.446-.089a.756.756,0,0,1-.687-.349,1.686,1.686,0,0,1-.237-1.019,1.892,1.892,0,0,1,.287-1.043.87.87,0,0,1,.715-.405.747.747,0,0,1,.693.353,1.743,1.743,0,0,1,.226,1.024,1.855,1.855,0,0,1-.291,1.037A.889.889,0,0,1,2637.149,1494.221Z" transform="translate(-2601.483 -1490.381)" fill="url(#linear-gradient-51)"/>
          <path id="Path_4479" data-name="Path 4479" d="M2641.624,1501.235c.046,0,.07.022.068.074l-.059,2.173c0,.063-.028.1-.076.1l-5.818.212c-.046,0-.066-.03-.064-.092l.059-2.174c0-.05.024-.076.07-.08l1.8-.066.2-7.326,2.145-.078-.2,7.323Zm-3.188,7.338a.762.762,0,0,1-.7-.349,1.68,1.68,0,0,1-.233-1.015,1.889,1.889,0,0,1,.287-1.045.87.87,0,0,1,.723-.4.739.739,0,0,1,.683.346,1.727,1.727,0,0,1,.229,1.032,1.836,1.836,0,0,1-.292,1.032A.859.859,0,0,1,2638.436,1508.573Z" transform="translate(-2597.702 -1488.196)" fill="url(#linear-gradient-52)"/>
          <path id="Path_4480" data-name="Path 4480" d="M2638.812,1506.055c-.046,0-.066-.03-.064-.092l.057-2.174c0-.05.026-.078.072-.08l1.8-.065.342-12.5,2.145-.08-.407,14.842Z" transform="translate(-2595.093 -1490.666)" fill="url(#linear-gradient-53)"/>
          <path id="Path_4481" data-name="Path 4481" d="M2646.488,1503.4c.046,0,.07.024.069.076l-.06,2.173c0,.063-.028.1-.074.1l-3.948.146.407-14.842,2.146-.079-.34,12.5Z" transform="translate(-2591.927 -1490.751)" fill="url(#linear-gradient-54)"/>
          <path id="Path_4482" data-name="Path 4482" d="M2644.564,1505.85c-.046,0-.066-.03-.064-.093l.059-2.174c0-.05.024-.078.071-.08l2.134-.078.34-12.5,2.146-.078-.235,8.594q1.414-3.661,4-3.759a2.87,2.87,0,0,1,2.639,1.169,6.5,6.5,0,0,1,.795,3.868l-.127,4.7Zm9.68-2.7.064-2.4a3.469,3.469,0,0,0-.427-2.074,1.611,1.611,0,0,0-1.479-.618q-1.936.07-3.452,3.768l-.041,1.525Z" transform="translate(-2590.209 -1490.851)" fill="url(#linear-gradient-55)"/>
        </g>
      </g>
    </g>
  </g>
</svg>
