<svg xmlns="http://www.w3.org/2000/svg" xmlns:xlink="http://www.w3.org/1999/xlink" width="317" height="1864" viewBox="0 0 317 1864">
  <defs>
    <clipPath id="clip-path">
      <rect width="223" height="260" fill="none"/>
    </clipPath>
  </defs>
  <g id="M_3ndS_BG_right_illustration" data-name="M_3ndS_BG right illustration" transform="translate(-1613 -2428)">
    <rect id="Rectangle_2530" data-name="Rectangle 2530" width="193" height="102" transform="translate(1737 4190)" fill="#e9e2d8" opacity="0.11"/>
    <rect id="Rectangle_2531" data-name="Rectangle 2531" width="305" height="102" transform="translate(1625 2428)" fill="#e9e2d8" opacity="0.11"/>
    <rect id="Rectangle_2529" data-name="Rectangle 2529" width="317" height="102" transform="translate(1613 3202)" fill="#e9e2d8" opacity="0.11"/>
    <g id="Repeat_Grid_17" data-name="Repeat Grid 17" transform="translate(1697 3713)" clip-path="url(#clip-path)">
      <g transform="translate(-207 -3010)">
        <circle id="Ellipse_283" data-name="Ellipse 283" cx="3" cy="3" r="3" transform="translate(207 3010)" fill="#fff"/>
      </g>
      <g transform="translate(-173 -3010)">
        <circle id="Ellipse_283-2" data-name="Ellipse 283" cx="3" cy="3" r="3" transform="translate(207 3010)" fill="#fff"/>
      </g>
      <g transform="translate(-139 -3010)">
        <circle id="Ellipse_283-3" data-name="Ellipse 283" cx="3" cy="3" r="3" transform="translate(207 3010)" fill="#fff"/>
      </g>
      <g transform="translate(-105 -3010)">
        <circle id="Ellipse_283-4" data-name="Ellipse 283" cx="3" cy="3" r="3" transform="translate(207 3010)" fill="#fff"/>
      </g>
      <g transform="translate(-71 -3010)">
        <circle id="Ellipse_283-5" data-name="Ellipse 283" cx="3" cy="3" r="3" transform="translate(207 3010)" fill="#fff"/>
      </g>
      <g transform="translate(-37 -3010)">
        <circle id="Ellipse_283-6" data-name="Ellipse 283" cx="3" cy="3" r="3" transform="translate(207 3010)" fill="#fff"/>
      </g>
      <g transform="translate(-3 -3010)">
        <circle id="Ellipse_283-7" data-name="Ellipse 283" cx="3" cy="3" r="3" transform="translate(207 3010)" fill="#fff"/>
      </g>
      <g transform="translate(-207 -2976)">
        <circle id="Ellipse_283-8" data-name="Ellipse 283" cx="3" cy="3" r="3" transform="translate(207 3010)" fill="#fff"/>
      </g>
      <g transform="translate(-173 -2976)">
        <circle id="Ellipse_283-9" data-name="Ellipse 283" cx="3" cy="3" r="3" transform="translate(207 3010)" fill="#fff"/>
      </g>
      <g transform="translate(-139 -2976)">
        <circle id="Ellipse_283-10" data-name="Ellipse 283" cx="3" cy="3" r="3" transform="translate(207 3010)" fill="#fff"/>
      </g>
      <g transform="translate(-105 -2976)">
        <circle id="Ellipse_283-11" data-name="Ellipse 283" cx="3" cy="3" r="3" transform="translate(207 3010)" fill="#fff"/>
      </g>
      <g transform="translate(-71 -2976)">
        <circle id="Ellipse_283-12" data-name="Ellipse 283" cx="3" cy="3" r="3" transform="translate(207 3010)" fill="#fff"/>
      </g>
      <g transform="translate(-37 -2976)">
        <circle id="Ellipse_283-13" data-name="Ellipse 283" cx="3" cy="3" r="3" transform="translate(207 3010)" fill="#fff"/>
      </g>
      <g transform="translate(-3 -2976)">
        <circle id="Ellipse_283-14" data-name="Ellipse 283" cx="3" cy="3" r="3" transform="translate(207 3010)" fill="#fff"/>
      </g>
      <g transform="translate(-207 -2942)">
        <circle id="Ellipse_283-15" data-name="Ellipse 283" cx="3" cy="3" r="3" transform="translate(207 3010)" fill="#fff"/>
      </g>
      <g transform="translate(-173 -2942)">
        <circle id="Ellipse_283-16" data-name="Ellipse 283" cx="3" cy="3" r="3" transform="translate(207 3010)" fill="#fff"/>
      </g>
      <g transform="translate(-139 -2942)">
        <circle id="Ellipse_283-17" data-name="Ellipse 283" cx="3" cy="3" r="3" transform="translate(207 3010)" fill="#fff"/>
      </g>
      <g transform="translate(-105 -2942)">
        <circle id="Ellipse_283-18" data-name="Ellipse 283" cx="3" cy="3" r="3" transform="translate(207 3010)" fill="#fff"/>
      </g>
      <g transform="translate(-71 -2942)">
        <circle id="Ellipse_283-19" data-name="Ellipse 283" cx="3" cy="3" r="3" transform="translate(207 3010)" fill="#fff"/>
      </g>
      <g transform="translate(-37 -2942)">
        <circle id="Ellipse_283-20" data-name="Ellipse 283" cx="3" cy="3" r="3" transform="translate(207 3010)" fill="#fff"/>
      </g>
      <g transform="translate(-3 -2942)">
        <circle id="Ellipse_283-21" data-name="Ellipse 283" cx="3" cy="3" r="3" transform="translate(207 3010)" fill="#fff"/>
      </g>
      <g transform="translate(-207 -2908)">
        <circle id="Ellipse_283-22" data-name="Ellipse 283" cx="3" cy="3" r="3" transform="translate(207 3010)" fill="#fff"/>
      </g>
      <g transform="translate(-173 -2908)">
        <circle id="Ellipse_283-23" data-name="Ellipse 283" cx="3" cy="3" r="3" transform="translate(207 3010)" fill="#fff"/>
      </g>
      <g transform="translate(-139 -2908)">
        <circle id="Ellipse_283-24" data-name="Ellipse 283" cx="3" cy="3" r="3" transform="translate(207 3010)" fill="#fff"/>
      </g>
      <g transform="translate(-105 -2908)">
        <circle id="Ellipse_283-25" data-name="Ellipse 283" cx="3" cy="3" r="3" transform="translate(207 3010)" fill="#fff"/>
      </g>
      <g transform="translate(-71 -2908)">
        <circle id="Ellipse_283-26" data-name="Ellipse 283" cx="3" cy="3" r="3" transform="translate(207 3010)" fill="#fff"/>
      </g>
      <g transform="translate(-37 -2908)">
        <circle id="Ellipse_283-27" data-name="Ellipse 283" cx="3" cy="3" r="3" transform="translate(207 3010)" fill="#fff"/>
      </g>
      <g transform="translate(-3 -2908)">
        <circle id="Ellipse_283-28" data-name="Ellipse 283" cx="3" cy="3" r="3" transform="translate(207 3010)" fill="#fff"/>
      </g>
      <g transform="translate(-207 -2874)">
        <circle id="Ellipse_283-29" data-name="Ellipse 283" cx="3" cy="3" r="3" transform="translate(207 3010)" fill="#fff"/>
      </g>
      <g transform="translate(-173 -2874)">
        <circle id="Ellipse_283-30" data-name="Ellipse 283" cx="3" cy="3" r="3" transform="translate(207 3010)" fill="#fff"/>
      </g>
      <g transform="translate(-139 -2874)">
        <circle id="Ellipse_283-31" data-name="Ellipse 283" cx="3" cy="3" r="3" transform="translate(207 3010)" fill="#fff"/>
      </g>
      <g transform="translate(-105 -2874)">
        <circle id="Ellipse_283-32" data-name="Ellipse 283" cx="3" cy="3" r="3" transform="translate(207 3010)" fill="#fff"/>
      </g>
      <g transform="translate(-71 -2874)">
        <circle id="Ellipse_283-33" data-name="Ellipse 283" cx="3" cy="3" r="3" transform="translate(207 3010)" fill="#fff"/>
      </g>
      <g transform="translate(-37 -2874)">
        <circle id="Ellipse_283-34" data-name="Ellipse 283" cx="3" cy="3" r="3" transform="translate(207 3010)" fill="#fff"/>
      </g>
      <g transform="translate(-3 -2874)">
        <circle id="Ellipse_283-35" data-name="Ellipse 283" cx="3" cy="3" r="3" transform="translate(207 3010)" fill="#fff"/>
      </g>
      <g transform="translate(-207 -2840)">
        <circle id="Ellipse_283-36" data-name="Ellipse 283" cx="3" cy="3" r="3" transform="translate(207 3010)" fill="#fff"/>
      </g>
      <g transform="translate(-173 -2840)">
        <circle id="Ellipse_283-37" data-name="Ellipse 283" cx="3" cy="3" r="3" transform="translate(207 3010)" fill="#fff"/>
      </g>
      <g transform="translate(-139 -2840)">
        <circle id="Ellipse_283-38" data-name="Ellipse 283" cx="3" cy="3" r="3" transform="translate(207 3010)" fill="#fff"/>
      </g>
      <g transform="translate(-105 -2840)">
        <circle id="Ellipse_283-39" data-name="Ellipse 283" cx="3" cy="3" r="3" transform="translate(207 3010)" fill="#fff"/>
      </g>
      <g transform="translate(-71 -2840)">
        <circle id="Ellipse_283-40" data-name="Ellipse 283" cx="3" cy="3" r="3" transform="translate(207 3010)" fill="#fff"/>
      </g>
      <g transform="translate(-37 -2840)">
        <circle id="Ellipse_283-41" data-name="Ellipse 283" cx="3" cy="3" r="3" transform="translate(207 3010)" fill="#fff"/>
      </g>
      <g transform="translate(-3 -2840)">
        <circle id="Ellipse_283-42" data-name="Ellipse 283" cx="3" cy="3" r="3" transform="translate(207 3010)" fill="#fff"/>
      </g>
      <g transform="translate(-207 -2806)">
        <circle id="Ellipse_283-43" data-name="Ellipse 283" cx="3" cy="3" r="3" transform="translate(207 3010)" fill="#fff"/>
      </g>
      <g transform="translate(-173 -2806)">
        <circle id="Ellipse_283-44" data-name="Ellipse 283" cx="3" cy="3" r="3" transform="translate(207 3010)" fill="#fff"/>
      </g>
      <g transform="translate(-139 -2806)">
        <circle id="Ellipse_283-45" data-name="Ellipse 283" cx="3" cy="3" r="3" transform="translate(207 3010)" fill="#fff"/>
      </g>
      <g transform="translate(-105 -2806)">
        <circle id="Ellipse_283-46" data-name="Ellipse 283" cx="3" cy="3" r="3" transform="translate(207 3010)" fill="#fff"/>
      </g>
      <g transform="translate(-71 -2806)">
        <circle id="Ellipse_283-47" data-name="Ellipse 283" cx="3" cy="3" r="3" transform="translate(207 3010)" fill="#fff"/>
      </g>
      <g transform="translate(-37 -2806)">
        <circle id="Ellipse_283-48" data-name="Ellipse 283" cx="3" cy="3" r="3" transform="translate(207 3010)" fill="#fff"/>
      </g>
      <g transform="translate(-3 -2806)">
        <circle id="Ellipse_283-49" data-name="Ellipse 283" cx="3" cy="3" r="3" transform="translate(207 3010)" fill="#fff"/>
      </g>
      <g transform="translate(-207 -2772)">
        <circle id="Ellipse_283-50" data-name="Ellipse 283" cx="3" cy="3" r="3" transform="translate(207 3010)" fill="#fff"/>
      </g>
      <g transform="translate(-173 -2772)">
        <circle id="Ellipse_283-51" data-name="Ellipse 283" cx="3" cy="3" r="3" transform="translate(207 3010)" fill="#fff"/>
      </g>
      <g transform="translate(-139 -2772)">
        <circle id="Ellipse_283-52" data-name="Ellipse 283" cx="3" cy="3" r="3" transform="translate(207 3010)" fill="#fff"/>
      </g>
      <g transform="translate(-105 -2772)">
        <circle id="Ellipse_283-53" data-name="Ellipse 283" cx="3" cy="3" r="3" transform="translate(207 3010)" fill="#fff"/>
      </g>
      <g transform="translate(-71 -2772)">
        <circle id="Ellipse_283-54" data-name="Ellipse 283" cx="3" cy="3" r="3" transform="translate(207 3010)" fill="#fff"/>
      </g>
      <g transform="translate(-37 -2772)">
        <circle id="Ellipse_283-55" data-name="Ellipse 283" cx="3" cy="3" r="3" transform="translate(207 3010)" fill="#fff"/>
      </g>
      <g transform="translate(-3 -2772)">
        <circle id="Ellipse_283-56" data-name="Ellipse 283" cx="3" cy="3" r="3" transform="translate(207 3010)" fill="#fff"/>
      </g>
    </g>
  </g>
</svg>
