<svg xmlns="http://www.w3.org/2000/svg" xmlns:xlink="http://www.w3.org/1999/xlink" width="340.457" height="448.063" viewBox="0 0 340.457 448.063">
  <defs>
    <linearGradient id="linear-gradient" y1="0.5" x2="1" y2="0.5" gradientUnits="objectBoundingBox">
      <stop offset="0" stop-color="#dfcaaa"/>
      <stop offset="1" stop-color="#d6ba99"/>
    </linearGradient>
    <linearGradient id="linear-gradient-2" x1="-0.008" y1="-93.313" x2="0.619" y2="-91.993" gradientUnits="objectBoundingBox">
      <stop offset="0" stop-color="#007cd6"/>
      <stop offset="1" stop-color="#00b4ef"/>
    </linearGradient>
    <linearGradient id="linear-gradient-3" x1="0.47" y1="-94.292" x2="0.503" y2="-93.632" xlink:href="#linear-gradient-2"/>
    <linearGradient id="linear-gradient-4" x1="1.46" y1="-0.113" x2="0.179" y2="1" xlink:href="#linear-gradient-2"/>
    <linearGradient id="linear-gradient-5" x1="0.5" y1="1" x2="0.5" gradientUnits="objectBoundingBox">
      <stop offset="0" stop-color="#20b038"/>
      <stop offset="1" stop-color="#60d66a"/>
    </linearGradient>
    <linearGradient id="linear-gradient-6" x1="0.5" y1="1" x2="0.5" gradientUnits="objectBoundingBox">
      <stop offset="0" stop-color="#f9f9f9"/>
      <stop offset="1" stop-color="#fff"/>
    </linearGradient>
  </defs>
  <g id="M_3ndS_3" transform="translate(-1208.049 -3042.432)">
    <path id="Path_4778" data-name="Path 4778" d="M-156.719-155.339v-64.075q33.552,24.465,78.288,24.465,28.193,0,43.92-12.116t15.727-33.785q0-22.368-19.455-34.484T-91.712-287.45H-122.7v-56.386h28.659q65.24,0,65.24-43.338,0-40.775-50.095-40.775-33.552,0-65.24,21.669v-60.114Q-108.954-484.1-62.121-484.1q51.26,0,79.8,23.067t28.542,59.881q0,65.473-66.4,82.016v1.165q35.416,4.427,55.92,25.746t20.5,52.309q0,46.833-34.251,74.094t-94.6,27.261Q-124.332-138.563-156.719-155.339Z" transform="translate(1364.768 3526.534)" fill="url(#linear-gradient)"/>
    <g id="Group_1779" data-name="Group 1779" transform="translate(1220.082 3109.437)">
      <g id="FULL_COLOR_ICON" data-name="FULL COLOR ICON" transform="translate(30.421 319.365)">
        <rect id="Rectangle_2504" data-name="Rectangle 2504" width="61.694" height="61.694" rx="7.229" fill="#00b900"/>
        <g id="TYPE_A" data-name="TYPE A" transform="translate(8.284 9.906)">
          <g id="Group_1773" data-name="Group 1773">
            <path id="Path_4719" data-name="Path 4719" d="M3119.668,1809.608c0-10.051-10.075-18.227-22.46-18.227s-22.463,8.176-22.463,18.227c0,9.012,7.991,16.557,18.786,17.985.732.157,1.727.483,1.98,1.107a4.63,4.63,0,0,1,.072,2.03s-.264,1.586-.32,1.923c-.1.568-.453,2.223,1.945,1.211s12.935-7.616,17.648-13.041h0c3.256-3.57,4.814-7.192,4.814-11.216" transform="translate(-3074.744 -1791.381)" fill="#fff"/>
            <g id="Group_1772" data-name="Group 1772" transform="translate(7.37 13.37)">
              <path id="Path_4720" data-name="Path 4720" d="M3085.35,1798.612h-1.577a.438.438,0,0,0-.437.438v9.786a.436.436,0,0,0,.437.437h1.577a.436.436,0,0,0,.436-.437v-9.786a.437.437,0,0,0-.436-.438" transform="translate(-3074.82 -1798.612)" fill="#00b900"/>
              <path id="Path_4721" data-name="Path 4721" d="M3094.365,1798.612h-1.576a.438.438,0,0,0-.438.438v5.815l-4.486-6.059a.35.35,0,0,0-.033-.042l0,0-.025-.028-.007-.007-.024-.019-.011-.009-.022-.015-.013-.009-.024-.013-.015-.005-.024-.011-.015-.006-.026-.008-.015,0-.025-.008-.019,0-.022,0-.023,0-.017,0h-1.575a.438.438,0,0,0-.437.438v9.786a.436.436,0,0,0,.437.437h1.575a.436.436,0,0,0,.438-.437v-5.813l4.491,6.064a.45.45,0,0,0,.111.109l0,0,.028.015.013.007.021.011.022.007.013.006.03.009.005,0a.449.449,0,0,0,.113.015h1.576a.435.435,0,0,0,.436-.437v-9.786a.436.436,0,0,0-.436-.438" transform="translate(-3072.991 -1798.612)" fill="#00b900"/>
              <path id="Path_4722" data-name="Path 4722" d="M3085.461,1806.823h-4.281v-7.773a.437.437,0,0,0-.436-.438h-1.577a.438.438,0,0,0-.437.438v9.786h0a.427.427,0,0,0,.122.3l.006.007.007.006a.43.43,0,0,0,.3.122h6.294a.438.438,0,0,0,.438-.437v-1.577a.438.438,0,0,0-.438-.436" transform="translate(-3078.73 -1798.612)" fill="#00b900"/>
              <path id="Path_4723" data-name="Path 4723" d="M3098.087,1801.064a.437.437,0,0,0,.436-.438v-1.575a.437.437,0,0,0-.436-.438h-6.3a.437.437,0,0,0-.3.124l-.005.006-.008.008a.439.439,0,0,0-.12.3h0v9.786h0a.429.429,0,0,0,.122.3l.006.007.007.006a.432.432,0,0,0,.3.122h6.3a.437.437,0,0,0,.436-.437v-1.577a.437.437,0,0,0-.436-.436H3093.8v-1.655h4.283a.437.437,0,0,0,.436-.438v-1.575a.438.438,0,0,0-.436-.438H3093.8v-1.653Z" transform="translate(-3068.012 -1798.612)" fill="#00b900"/>
            </g>
          </g>
        </g>
      </g>
      <g id="Group_1776" data-name="Group 1776" transform="translate(249.911 94.28)">
        <circle id="Ellipse_287" data-name="Ellipse 287" cx="22.769" cy="22.769" r="22.769" fill="url(#linear-gradient-2)"/>
        <circle id="Ellipse_288" data-name="Ellipse 288" cx="22.769" cy="22.769" r="22.769" transform="translate(32.975 32.975)" fill="url(#linear-gradient-3)"/>
        <circle id="Ellipse_289" data-name="Ellipse 289" cx="37.686" cy="37.686" r="37.686" transform="translate(1.57 1.57)" fill="url(#linear-gradient-4)"/>
        <path id="Path_4727" data-name="Path 4727" d="M3083.862,1700.957a10.144,10.144,0,0,1-4.866-8.951,9.855,9.855,0,0,1,2.2-6.281A14.674,14.674,0,0,1,3087,1681.8a24.5,24.5,0,0,1,7.537-1.256c1.729,0,3.3.157,5.025.314a12.524,12.524,0,0,1,3.456.941,5.281,5.281,0,0,1,2.668,1.729,3.077,3.077,0,0,1,.786,2.354,3.844,3.844,0,0,1-.943,2.512,3.094,3.094,0,0,1-2.2.943,6.689,6.689,0,0,1-1.727-.314,19.678,19.678,0,0,0-3.925-1.413,15.479,15.479,0,0,0-3.769-.471,8.189,8.189,0,0,0-4.711,1.255,3.726,3.726,0,0,0-1.883,3.613,3.568,3.568,0,0,0,.94,2.511,10.359,10.359,0,0,0,2.67,1.886c1.1.627,2.827,1.256,5.026,2.2.314,0,.472.157.784.312a28.294,28.294,0,0,1,6.125,3.141,11.3,11.3,0,0,1,3.768,3.926,10.622,10.622,0,0,1,1.413,5.5,10.428,10.428,0,0,1-7.222,10.521,19.958,19.958,0,0,1-8.01,1.255,25.169,25.169,0,0,1-10.835-2.041,4.065,4.065,0,0,1-2.2-1.727,4.239,4.239,0,0,1-.784-2.355,3.2,3.2,0,0,1,.941-2.356,3.566,3.566,0,0,1,2.513-.941,5.871,5.871,0,0,1,2.827.784c1.1.628,2.042.943,2.669,1.257.784.313,1.413.47,2.2.784a17.26,17.26,0,0,0,2.825.314,7.588,7.588,0,0,0,4.868-1.255,3.952,3.952,0,0,0,1.57-3.613,3.677,3.677,0,0,0-1.1-2.668,9.731,9.731,0,0,0-2.984-2.2c-1.413-.629-3.14-1.572-5.652-2.513-1.884-1.414-3.925-2.355-5.811-3.768" transform="translate(-3054.342 -1662.485)" fill="#fff" fill-rule="evenodd"/>
      </g>
      <g id="Group_1778" data-name="Group 1778" transform="translate(91.779 139.383)">
        <g id="shape_4" data-name="shape 4">
          <path id="Path_4728" data-name="Path 4728" d="M2994.2,1864.808l12.044-43.975a84.9,84.9,0,1,1,73.563,42.505h-.037a84.835,84.835,0,0,1-40.566-10.33Zm47.089-27.164,2.578,1.529a70.459,70.459,0,0,0,35.912,9.833h.028a70.546,70.546,0,1,0-59.773-33.055l1.679,2.668-7.129,26.028Z" transform="translate(-2994.198 -1693.548)" fill="#fff"/>
        </g>
        <path id="shape_3" data-name="shape 3" d="M2995.795,1860.484l11.626-42.454a81.957,81.957,0,1,1,71.016,41.033h-.037a81.946,81.946,0,0,1-39.161-9.971Z" transform="translate(-2992.842 -1692.187)" fill="url(#linear-gradient-5)"/>
        <g id="shape_2" data-name="shape 2">
          <g id="Group_1777" data-name="Group 1777">
            <path id="Path_4729" data-name="Path 4729" d="M2994.2,1864.808l12.044-43.975a84.9,84.9,0,1,1,73.563,42.505h-.037a84.835,84.835,0,0,1-40.566-10.33Zm47.089-27.164,2.578,1.529a70.459,70.459,0,0,0,35.912,9.833h.028a70.546,70.546,0,1,0-59.773-33.055l1.679,2.668-7.129,26.028Z" transform="translate(-2994.198 -1693.548)" fill="url(#linear-gradient-6)"/>
          </g>
        </g>
        <g id="shape_1" data-name="shape 1" transform="translate(42.47 45.667)">
          <path id="Path_4730" data-name="Path 4730" d="M3039.088,1721.962c-1.59-3.532-3.263-3.6-4.774-3.665-1.237-.052-2.651-.05-4.065-.05a7.8,7.8,0,0,0-5.656,2.655c-1.943,2.123-7.424,7.253-7.424,17.689s7.6,20.521,8.661,21.938,14.675,23.515,36.233,32.016c17.918,7.067,21.564,5.661,25.455,5.306s12.549-5.129,14.316-10.082,1.768-9.2,1.237-10.084-1.943-1.414-4.066-2.476-12.548-6.192-14.494-6.9-3.358-1.06-4.772,1.063-5.477,6.9-6.716,8.313-2.474,1.594-4.6.532a57.98,57.98,0,0,1-17.057-10.526,63.833,63.833,0,0,1-11.8-14.69c-1.239-2.121-.133-3.269.93-4.326.954-.95,2.123-2.478,3.182-3.715a14.568,14.568,0,0,0,2.121-3.537,3.908,3.908,0,0,0-.177-3.717C3045.094,1736.646,3040.973,1726.157,3039.088,1721.962Z" transform="translate(-3017.168 -1718.247)" fill="#fff" fill-rule="evenodd"/>
        </g>
      </g>
    </g>
  </g>
</svg>
