<svg xmlns="http://www.w3.org/2000/svg" width="42.005" height="22.241" viewBox="0 0 42.005 22.241">
  <g id="Rahimahu_allah" data-name="Rahimahu allah" transform="translate(3055.044 -3062.154)">
    <path id="Path_4961" data-name="Path 4961" d="M-3026.2,3239.1l-.67-.863a16.424,16.424,0,0,0-3.073,1.375c-.39.255-.381.466-.01.956l1.152-.28a1.3,1.3,0,0,1,1.774,1.208,4.368,4.368,0,0,1-.036,1.435,1.182,1.182,0,0,1-1.8.82,3.392,3.392,0,0,1-1.4-1.472c-.032-.058-.058-.119-.1-.2-.644.276-1.277.561-1.92.821a24.885,24.885,0,0,1-7,1.757c-1.461.138-2.933.2-4.4.221a16.138,16.138,0,0,1-4.547-.652,3.672,3.672,0,0,1-2.77-2.962,9.847,9.847,0,0,0-.3-1.094c-.015.058-.033.115-.046.174a1.84,1.84,0,0,1-.9,1.259,3.7,3.7,0,0,1-1.955.645.81.81,0,0,1-.849-.964,4.546,4.546,0,0,1,1.454-2.949c.368-.382.78-.724,1.18-1.074a.38.38,0,0,0,.159-.449,2.956,2.956,0,0,1,.308-2.18,15.216,15.216,0,0,1,.707,1.8l1.284-.966.073.033a4.637,4.637,0,0,1-.332.734c-.209.311-.481.579-.705.881a.544.544,0,0,0-.124.378c.247,1.082.479,2.17.787,3.235a2.869,2.869,0,0,0,2.387,2.044c1.135.224,2.291.356,3.443.472a24.317,24.317,0,0,0,4.172,0,24.972,24.972,0,0,0,6.009-1.173c1.093-.357,2.183-.723,3.278-1.075.173-.056.258-.127.242-.321a2.986,2.986,0,0,1,2.1-3.177c.318-.139.638-.273,1.006-.43-.121-.1-.215-.175-.306-.253-.542-.468-1.107-.911-1.619-1.409a1.607,1.607,0,0,1,.511-2.659,3.244,3.244,0,0,1,1.764-.167,45.367,45.367,0,0,1,7.655,1.7c.456.127.479.19.324.637-.079.228-.189.447-.254.678a.666.666,0,0,1-.53.464c-1.909.593-3.814,1.2-5.723,1.794a.333.333,0,0,0-.268.4c.018.27,0,.542,0,.813Zm-3.075-5.08-.052.172c.161.136.322.271.482.408.655.558,1.334,1.091,1.955,1.686a.809.809,0,0,0,.947.191c1.054-.344,2.122-.649,3.185-.966.284-.085.571-.156.857-.234,0-.034,0-.067,0-.1-1.1-.286-2.2-.592-3.3-.854a13.486,13.486,0,0,0-3.243-.405A7.172,7.172,0,0,0-3029.273,3234.016Zm-22.6,3.823-.116,0a7.228,7.228,0,0,0-.6.495c-.55.555-1.109,1.1-1.617,1.7-.315.367-.212.57.267.613a2.967,2.967,0,0,0,2.088-.689.728.728,0,0,0,.269-.543C-3051.642,3238.885-3051.775,3238.363-3051.877,3237.839Zm22.693,3.867-.021.121a1.652,1.652,0,0,0,1.127.539c.083.009.226-.024.249-.077a.337.337,0,0,0-.03-.293.633.633,0,0,0-.344-.231C-3028.526,3241.718-3028.856,3241.721-3029.184,3241.705Z" transform="translate(0 -160.48)" fill="#fff"/>
    <path id="Path_4962" data-name="Path 4962" d="M-2928.672,3215.385a4.9,4.9,0,0,1-.938,2.109,2.3,2.3,0,0,1-2.5.879,2.079,2.079,0,0,1-1.534-1.818,7.527,7.527,0,0,1,.087-2.938c.063-.348.138-.694.208-1.041l-.083-.038a3.262,3.262,0,0,0-.3.56c-.269.856-.507,1.722-.774,2.579a12.493,12.493,0,0,1-.636,1.826.912.912,0,0,1-1.749.032,5.5,5.5,0,0,1-.554-1.632,6.914,6.914,0,0,1,.193-3.158,1.742,1.742,0,0,1,.077-.218c.014-.034.044-.062.129-.084-.033.314-.062.628-.1.941a6.5,6.5,0,0,0,.091,2.649,1.99,1.99,0,0,0,.3.65.73.73,0,0,0,1.284-.109,12.265,12.265,0,0,0,.6-1.9,11.241,11.241,0,0,1,1.054-3.146,3.835,3.835,0,0,1,.547-.7.427.427,0,0,1,.384-.092.422.422,0,0,1,.176.35c-.066.652-.157,1.3-.252,1.95a7.749,7.749,0,0,0-.154,2.448,1.584,1.584,0,0,0,2.215,1.331,2.194,2.194,0,0,0,1.791-2.41,8.925,8.925,0,0,0-.452-3.056,1.746,1.746,0,0,1-.006-1.1c.1-.315.21-.629.341-1.02a9.413,9.413,0,0,1,.882,2.729c.164.913.337,1.824.526,2.732a4.756,4.756,0,0,0,.265.765,1.876,1.876,0,0,0,2.227.938c.516-.181.631-.452.427-.95-.372-.911-.772-1.813-1.085-2.745a15.549,15.549,0,0,1-.394-1.868c-.01-.047,0-.1-.025-.142-.391-.614.086-1.087.27-1.629a8.693,8.693,0,0,1,1.426,2.146l-.066.07-.632-.213c.081.3.151.581.236.86.266.867.584,1.72.793,2.6a3.721,3.721,0,0,1-.19,2.474,1.827,1.827,0,0,1-2.943.618,3.808,3.808,0,0,1-1.069-1.892C-2928.614,3215.607-2928.641,3215.5-2928.672,3215.385Z" transform="translate(-110.667 -138.364)" fill="#fff"/>
    <path id="Path_4963" data-name="Path 4963" d="M-2540.52,3316.905a2.772,2.772,0,0,1-.227-.252,1.641,1.641,0,0,0-2-.624,6.3,6.3,0,0,0-2.74,1.74c-.937.952-1.837,1.939-2.759,2.9a7.138,7.138,0,0,1-.663.608,1.853,1.853,0,0,1-3.006-.76,2.725,2.725,0,0,1-.2-1.533c.023-.142.019-.288.03-.484l-.976.384c.089-.542.228-1.01.829-1.133.318-.065.443-.29.55-.565.192-.5.4-.982.621-1.467a3.007,3.007,0,0,1,.257-.4l.073.035c-.1.35-.2.7-.311,1.047s-.249.664-.4,1.074l5.025-1.811a.844.844,0,0,1-.622.895c-1.454.55-2.9,1.115-4.358,1.663a.415.415,0,0,0-.311.372,4.856,4.856,0,0,0,.005,1.092,1.091,1.091,0,0,0,1.449.822,4.009,4.009,0,0,0,1.7-1.117c1.1-1.128,2.188-2.271,3.317-3.371a6.374,6.374,0,0,1,2.976-1.611,1.806,1.806,0,0,1,1.614.35,1.22,1.22,0,0,1,.367.6A2.342,2.342,0,0,1-2540.52,3316.905Z" transform="translate(-472.811 -237.547)" fill="#fff"/>
    <path id="Path_4964" data-name="Path 4964" d="M-2689.3,3062.154a11.759,11.759,0,0,1,1.226,3.552l-.674-.525c.064.916.124,1.79.187,2.664.089,1.214.189,2.428.269,3.643.088,1.341.2,2.681.225,4.024a7.444,7.444,0,0,1-.724,3.4.755.755,0,0,1-.054.1c-.008.012-.031.015-.086.038.021-.406.063-.793.056-1.18-.018-1.062-.04-2.125-.093-3.186-.068-1.371-.166-2.74-.257-4.109-.1-1.553-.215-3.105-.321-4.658-.031-.453-.05-.907-.087-1.36a6.892,6.892,0,0,0-.111-.86A1.918,1.918,0,0,1-2689.3,3062.154Z" transform="translate(-344.049)" fill="#fff"/>
    <path id="Path_4965" data-name="Path 4965" d="M-2971.667,3152.939c-.122-.071-.214-.123-.3-.177a.919.919,0,0,1-.365-1.3,1.734,1.734,0,0,1,.893-.752.407.407,0,0,1,.56.308,2.877,2.877,0,0,1-.036.91c-.051.269-.078.479.207.631a.3.3,0,0,1,.118.446c-.076.144-.154.287-.243.454l-.529-.382a7.535,7.535,0,0,1-4.363,2.646A46.642,46.642,0,0,0-2971.667,3152.939Zm.3-.733.11-.084a3.022,3.022,0,0,0-.154-.594c-.091-.19-.267-.127-.385-.011-.064.062-.131.231-.1.258A6.264,6.264,0,0,0-2971.363,3152.206Z" transform="translate(-74.707 -83.381)" fill="#fff"/>
    <path id="Path_4966" data-name="Path 4966" d="M-2834.373,3134.4a14.912,14.912,0,0,1,.475,1.615,1.63,1.63,0,0,1-.161.863.534.534,0,0,1-.968.1,2.36,2.36,0,0,1-.183-.324,3.906,3.906,0,0,1-.233.424.663.663,0,0,1-.691.331.631.631,0,0,1-.48-.559c-.05-.234-.039-.48-.079-.718a2.444,2.444,0,0,0-.158-.569c-.121-.277.071-.61.513-.729,0,.232,0,.444,0,.656a3.641,3.641,0,0,0,.011.8c.107.464.484.553.77.18a1.154,1.154,0,0,0,.183-.636c.008-.246-.1-.494-.1-.743a3.143,3.143,0,0,1,.09-.6l.134,0c.07.283.143.566.208.851a5.451,5.451,0,0,0,.186.817.713.713,0,0,0,.375.346c.21.083.373-.119.293-.337-.106-.29-.217-.579-.33-.866A.892.892,0,0,1-2834.373,3134.4Z" transform="translate(-205.481 -68.05)" fill="#fff"/>
    <path id="Path_4967" data-name="Path 4967" d="M-2641.354,3109.192c-.349-.354-.508.046-.791.2a7.672,7.672,0,0,1,.2-.833.418.418,0,0,1,.626-.266,3.484,3.484,0,0,1,.61.382.59.59,0,0,1,.268.654.684.684,0,0,1-.52.491c-.258.079-.51.18-.767.26s-.306.215-.258.477c.163.891.329,1.784.422,2.683a6.9,6.9,0,0,1-.115,1.338l-.082,0c-.016-.317-.009-.637-.054-.949-.135-.936-.3-1.867-.434-2.8C-2642.4,3109.822-2642.285,3109.635-2641.354,3109.192Z" transform="translate(-388.755 -43.405)" fill="#fff"/>
    <path id="Path_4968" data-name="Path 4968" d="M-2867.077,3088.459c.092-.26.152-.464.237-.657a.347.347,0,0,1,.182-.164q2.476-.91,4.955-1.808a.6.6,0,0,1,.137-.017.6.6,0,0,1-.442.669c-.833.334-1.673.653-2.509.978Z" transform="translate(-177.044 -22.284)" fill="#fff"/>
    <path id="Path_4969" data-name="Path 4969" d="M-2533.92,3165.73a.742.742,0,0,1,.52-.819q2.335-.86,4.665-1.73c.086-.032.174-.059.268-.091a.647.647,0,0,1-.471.689q-2.084.826-4.173,1.642C-2533.376,3165.526-2533.644,3165.625-2533.92,3165.73Z" transform="translate(-490.841 -95.071)" fill="#fff"/>
    <path id="Path_4970" data-name="Path 4970" d="M-2417.046,3213.949c-.178.668-.39,1.33-.521,2.007a4.6,4.6,0,0,0-.023,1.256.538.538,0,0,0,.333.373c.119.031.316-.1.428-.215.145-.143.24-.336.381-.5a2.21,2.21,0,0,1-.562,1.549.586.586,0,0,1-.982-.245,3.9,3.9,0,0,1-.137-1.168A5.44,5.44,0,0,1-2417.046,3213.949Z" transform="translate(-599.901 -142.974)" fill="#fff"/>
    <path id="Path_4971" data-name="Path 4971" d="M-2574.761,3101.382c-.069.266-.141.532-.206.8-.142.58-.311,1.157-.409,1.745a1.876,1.876,0,0,0,.083.874c.115.341.369.363.621.107a3.831,3.831,0,0,0,.263-.309c.076-.1.146-.2.219-.3l.089.04c-.139.424-.254.859-.426,1.269a.639.639,0,0,1-.694.46.72.72,0,0,1-.607-.712,5.248,5.248,0,0,1,.166-1.981A6.373,6.373,0,0,1-2574.761,3101.382Z" transform="translate(-451.339 -36.948)" fill="#fff"/>
    <path id="Path_4972" data-name="Path 4972" d="M-2402.2,3381.433c.305-.347.627-.682.91-1.046a5.289,5.289,0,0,0,.514-.837c.087-.169.153-.412-.052-.524a1.163,1.163,0,0,0-.571-.069.967.967,0,0,0-.317.138c-.061-.7.413-1.254.989-1.17.372.055.569.245.554.619a2.55,2.55,0,0,1-.16.871A4.172,4.172,0,0,1-2402.2,3381.433Z" transform="translate(-614.908 -297.412)" fill="#fff"/>
    <path id="Path_4973" data-name="Path 4973" d="M-2740.409,3093.788a1.575,1.575,0,0,1-.328,1.061.437.437,0,0,1-.8-.113,2.308,2.308,0,0,1-.073-1.34,5.058,5.058,0,0,1,.771-1.858c-.124.49-.262.976-.365,1.47a3.17,3.17,0,0,0-.069.861.542.542,0,0,0,.263.4c.088.037.273-.115.4-.209A1.282,1.282,0,0,0-2740.409,3093.788Z" transform="translate(-295.16 -27.677)" fill="#fff"/>
  </g>
</svg>
