<svg id="FooterLogo" xmlns="http://www.w3.org/2000/svg" xmlns:xlink="http://www.w3.org/1999/xlink" width="126.191" height="164" viewBox="0 0 126.191 164">
  <defs>
    <clipPath id="clip-path">
      <rect id="Rectangle_2293" data-name="Rectangle 2293" width="126.191" height="164" fill="#a98c4b"/>
    </clipPath>
  </defs>
  <g id="Group_1189" data-name="Group 1189" clip-path="url(#clip-path)">
    <path id="Path_3485" data-name="Path 3485" d="M134.639,143.11c2.629-7.1,12.18-15.435,13.165-16.361.771-.724,1.567-1.422,2.356-2.126,1.17-1.045,7.29-5.663,7.787-4.988a.359.359,0,0,1,.063.358c-.342.559-6.518,5.368-7.721,6.455-4.808,4.141-11.517,11.525-14.594,18.252a5.023,5.023,0,0,0,.5.806,22.474,22.474,0,0,1,4.128,13.262c.048,2.225-.034,6.7-1.716,7.211-.459.071-3.009.617-4.963-4.359a27.9,27.9,0,0,1-1.457-10.073,18.882,18.882,0,0,1,1.452-6.1,40.2,40.2,0,0,0-6.549-6.578c-9.056-6.838-23.762-16.258-24.223-16.651a23.191,23.191,0,0,1-7.9-10.881,23.426,23.426,0,0,1-1.034-9.482c1.34-12.227,19.633-14.672,19.9-18.322.025-.943.433-5.352.468-5.87a1.162,1.162,0,0,1,.733-1.131,8.545,8.545,0,0,0,2-1.548c.435-.364.909-.682,1.376-1.005,2.651-.562,1.95,3.438,1.871,4.181a26.955,26.955,0,0,1-.518,3.573,18.3,18.3,0,0,1-1.144,3.163,15.747,15.747,0,0,1-3.036,4.286c-.679.721-1.444,1.36-2.159,2.048a14.729,14.729,0,0,1-3.991,2.506c-1.006.483-.968.508-1.422,1.526a23.05,23.05,0,0,0-1.051,3.194,4.256,4.256,0,0,0,.179,2.819c1.685,3.641,6.176,8.574,16.007,7.328,12.385-1.275,22.553-9.837,23.145-10.321a3.3,3.3,0,0,0,.4-.478,5.126,5.126,0,0,1-.919-2.386,8,8,0,0,1,.033-2.284c.344-1.871.742-3.736,1.219-5.577,1.127-4.275,2.926-5.39,3.8-5.775a1.719,1.719,0,0,1,1.243-.006c2.1.946,2.868,3.792,2.949,4.915.033.466.078.93.123,1.459a3.146,3.146,0,0,0,.276-.239,36.2,36.2,0,0,0,2.939-3.586,26.185,26.185,0,0,0,2.218-3.846,2.476,2.476,0,0,0,.049-1.764c-.339-1.223-.714-2.436-1.074-3.653a52.513,52.513,0,0,0-3.529-7.655c-.128.566-.243,1.013-.327,1.465-.18.976-1.831,10.171-1.848,10.314a.434.434,0,0,1-.334.429c-.185.036-.355-.149-.369-.426a15.19,15.19,0,0,1,.14-3.31c.248-1.493.456-2.993.735-4.48.429-2.287.893-4.567,1.363-6.846.316-1.529.667-3.051,1.01-4.574a.772.772,0,0,1,.345-.53c.19-.033.318.161.438.506a5.975,5.975,0,0,0,.434.974c2.262,3.476,4.759,11.22,4.908,11.869a10.4,10.4,0,0,1,.163,3.354,28.437,28.437,0,0,1-.918,5.233c-.233.8-.42,1.605-.641,2.405a16.4,16.4,0,0,1-1.741,3.861c-.738,1.265-1.46,2.545-2.285,3.752a68.91,68.91,0,0,1-4.654,5.442,2.073,2.073,0,0,0-.514,1.1c-.35,4.692,1.427,7.3,1.886,7.837,4.12,5.126,7.983,4.291,8.973,4.12.946-.163,7.133-2.07,10.119-12.115a13.726,13.726,0,0,0,.153-5.381c-.162-1.275-1.8-10.172-4.888-13.7a3.979,3.979,0,0,0-.312-.358c-.033.24-.065.389-.072.54-.093,1.936-.145,3.875-.283,5.807-.193,2.7-.55,11.637-.572,11.9-.013.156-.078.324-.248.3-.115-.017-.247.015-.3-.26a57.74,57.74,0,0,1-.219-6.241c.1-2.163.185-4.328.262-6.492.061-1.725.089-3.452.154-5.177a26.32,26.32,0,0,1,.181-2.629c.178-1.288.434-2.564.659-3.846.093-.529.213-2.161.582-2.188a53.553,53.553,0,0,1,2.961,4.692,30.147,30.147,0,0,1,2.742,6.824,33.376,33.376,0,0,1,.738,3.733,29.421,29.421,0,0,1,.339,3.252,25.655,25.655,0,0,1-.056,3.269c-.128,1.507-.282,3.02-.555,4.506q-.657,3.575-1.495,7.117a25.1,25.1,0,0,1-2.624,6.4c-1.048,1.88-5.791,8.528-12.063,6.691a4.693,4.693,0,0,1-1.112-.488c-1.338-.8-7.961-4.636-6.148-17.368,0-.029.026-.077-.026-.114-.275-.052-2.118,2.313-3.015,3.208a45.661,45.661,0,0,1-7.469,6.121,42.457,42.457,0,0,1-15.387,6.7,24.66,24.66,0,0,1-10.862-.041,12.753,12.753,0,0,1-8.5-7.233,8.478,8.478,0,0,1-.366-3.9,63.271,63.271,0,0,1,2.23-8.595c-.263.1-9.751,3.422-11.913,10.944a3.72,3.72,0,0,0,.075,2.347,15.927,15.927,0,0,0,2.519,4.5,31.315,31.315,0,0,0,8.284,7.083c25.815,15.326,27,21.611,28.352,23.406m.14,3.773a20.779,20.779,0,0,0-1.461,7.869,7.15,7.15,0,0,0,1.126,3.835,3.468,3.468,0,0,0,1.292,1.155,1.241,1.241,0,0,0,1.74-.554,9,9,0,0,0,.669-5.082,11.954,11.954,0,0,0-.63-2.388,29.312,29.312,0,0,0-2.737-4.834M152.2,90.937a.305.305,0,0,0,.09-.428c-.17-.368-.843-1.932-1.835-2.127a1.69,1.69,0,0,0-1.282.052,2.985,2.985,0,0,0-1.588,2.263.764.764,0,0,0,.021.385c.8,2.28,3.715.495,4.595-.145" transform="translate(-67.045 -42.484)" fill="#a98c4b"/>
    <path id="Path_3486" data-name="Path 3486" d="M85.938,28.578a2.283,2.283,0,0,0,1.184-.4c.668-.462,1.311-.96,1.958-1.452.246-.187.467-.405.71-.6a1.109,1.109,0,0,1,1.511.046,1.691,1.691,0,0,1,.556,1,7.9,7.9,0,0,1-.1,2.433q-.324,1.825-.761,3.628a6.006,6.006,0,0,1-1.323,2.639,3.965,3.965,0,0,1-.576.522,36.175,36.175,0,0,1-5.412,3.388c-.726.364-1.443.748-2.162,1.127-.787.415-7.093,4.363-7.986,5.22C64.17,53.458,66.89,65.155,67.044,66.3c.065.484.138.968.2,1.452.021.161.054.35-.139.425a.466.466,0,0,1-.538-.124,1.2,1.2,0,0,1-.2-.383c-.626-1.752-5.627-13.677,4.707-25.719,4.523-5.28,12.187-8.113,12.754-8.362a.939.939,0,0,0,.619-.8c.14-1.031.35-3.97.425-4.4.1-.577.789-7.348,4.1-10.949a12.165,12.165,0,0,1,2.358-2.107,2.2,2.2,0,0,1,3.224.649c.533.8,1.078,1.587,1.6,2.392a2,2,0,0,0,1.941.882c.515-.029,4.04.193,6.712-7.357q.857-2.362,1.8-4.692a10.828,10.828,0,0,1,.813-1.382,2.65,2.65,0,0,0,.458-1.263c.039-.827.167-1.65.252-2.475.042-.4.071-.811.109-1.216.016-.178.037-.356.061-.533s.084-.341.274-.341c.567,0-.048,2.468,5.271,3.24a9.219,9.219,0,0,1,2.779.9.97.97,0,0,1,.642,1.033c-.024.537-.6,5.4-.625,5.476-.141.479-.244.531-.68.309a5.492,5.492,0,0,0-1.967-.54,21.8,21.8,0,0,0-3.85-.116,3.556,3.556,0,0,0-1.995.822,7.43,7.43,0,0,0-2.386,3.729c-.468,1.49-.9,2.992-1.346,4.489a12.8,12.8,0,0,1-2.321,4.429c-.448.553-4.085,4.247-6.723,1.059-.408-.434-2.043-3.891-4.295-2.957-1.8.836-3.937,3.622-4.488,4.882a11.433,11.433,0,0,0-.654,1.821" transform="translate(-46.178)" fill="#a98c4b"/>
    <path id="Path_3487" data-name="Path 3487" d="M167.273,88.42c3.8,2.807,8.907-2.128,9.828-3.116a14.525,14.525,0,0,0,2.043-2.971,39.483,39.483,0,0,0,2.191-5.215,8.773,8.773,0,0,0,.419-3.945c-.106-1.167-.2-2.339-.391-3.493a25.258,25.258,0,0,0-.968-3.88,47.382,47.382,0,0,0-2.321-5.585c-.105-.217-.226-.427-.391-.737a17.951,17.951,0,0,0-.384,2.345c-.071.876-.72,15.867-.79,17.118-.068,1.217-.2,2.433-.346,3.644-.09.741-.258,1.473-.4,2.207-.035.185-.11.557-.35.487-.308.009-.4-2.249-.4-3.152.01-1.89.276-10.287.307-11.328.04-1.351.06-2.7.117-4.052q.105-2.489.261-4.976c.1-1.543.2-3.087.344-4.627.089-.921.272-1.834.419-2.749.176-1.092.36-2.184.542-3.275a3.326,3.326,0,0,1,.083-.381c.1-.354.3-.41.542-.115.287.362,2.83,5.174,3.414,6.392a31.785,31.785,0,0,1,1.673,4.268,17.6,17.6,0,0,1,.73,3.483,52.839,52.839,0,0,1,.024,6.59,35.646,35.646,0,0,1-.935,6.613c-.253,1.177-.462,2.365-.767,3.528-3.618,12.9-9.173,13.8-11.088,14.385-.71.155-3.407,1.083-6.733-2.889-.365-.512-.377-.446-.842-.2-3.581,1.961-13.817,4.371-14.264,3.968a.552.552,0,0,1-.245-.788c.148-.3.574-.425.88-.506A51.223,51.223,0,0,0,159.8,90.615c.7-.434,1.338-.976,2.008-1.464a.568.568,0,0,0,.2-.643,30.486,30.486,0,0,1,.527-10.8c.171-1.295,1.251-5.453,1.519-6.255.5-1.481,1.016-2.953,1.551-4.42.852-2.339,1.731-4.668,2.582-7.008a11.521,11.521,0,0,0,.3-1.231,1.975,1.975,0,0,1,.092-.328c.107-.245.3-.3.5-.132a.979.979,0,0,1,.257.347c.509,1.144.983,2.3,1.519,3.436A16.715,16.715,0,0,1,172,65.836a19.182,19.182,0,0,1,.286,3.793,29.558,29.558,0,0,1-.742,6.488,50.874,50.874,0,0,1-1.972,7.146,32.23,32.23,0,0,1-2.012,4.55c-.1.181-.179.375-.29.609m.658-22.652c-.081.193-1.808,5.264-2.742,7.625a33.228,33.228,0,0,0-1.974,6.255c-.9,3.262,1.157,6.269,1.3,6.509a27.332,27.332,0,0,0,6.024-11.79,15.95,15.95,0,0,0-.249-2.667,19.87,19.87,0,0,0-2.36-5.932" transform="translate(-106.149 -36.044)" fill="#a98c4b"/>
    <path id="Path_3488" data-name="Path 3488" d="M216.227,265.9a12.077,12.077,0,0,0,.777-.972c.82-1.271,1.619-2.556,2.426-3.837.252-.4.42-.468.843-.22.77.453,5.356,3.959,5.559,4.05-.23.443-1.683,2.9-2.257,3.788q-.408.628-.795,1.269a.642.642,0,0,1-1.042.256c-1-.641-4.028-2.541-4.544-2.845-.275-.162-.36-.154-.591.094-.154.166-3,4.013-3.712,5.021-.355.5-5.4-3.616-5.526-3.909a.82.82,0,0,1,.045-.73,24.734,24.734,0,0,1,1.973-3.066c.358-.544.736-1.075,1.108-1.609a1.61,1.61,0,0,1,.827-.64.608.608,0,0,1,.667.088c.753.619,1.518,1.223,2.254,1.861a13.248,13.248,0,0,0,1.988,1.4" transform="translate(-148.15 -186.334)" fill="#a98c4b"/>
    <path id="Path_3489" data-name="Path 3489" d="M282.914,79.7a6.054,6.054,0,0,1-.2.743c-.561,1.439-1.136,2.873-1.709,4.308a2.083,2.083,0,0,1-.177.347c-.246.387-.36.4-.8.23-.665-.263-1.344-.488-2.008-.752-.739-.294-1.474-.6-2.2-.925a1.1,1.1,0,0,1-.537-1.395c.59-1.55,1.17-3.1,1.754-4.657.011-.03.024-.06.035-.091.3-.82.388-.839,1.088-.344a7.322,7.322,0,0,0,1.934.912c.786.263,1.565.545,2.346.82.36.127.49.319.47.8" transform="translate(-196.686 -54.908)" fill="#a98c4b"/>
    <path id="Path_3490" data-name="Path 3490" d="M273.124,22.256c.551.09.453.067.625.088a2.534,2.534,0,0,1,1.163.324,1.987,1.987,0,0,1,.833,1.587c.044.549-.008,1.105-.017,1.658a7.407,7.407,0,0,1-.68,2.689,9,9,0,0,1-2.376,3.062c-.986.8-1.964,1.608-2.947,2.41-.088.072-.542.481-.737.225-.178-.234.132-.663.216-.759.309-.357.617-.716.942-1.057a36.007,36.007,0,0,0,3.6-4.364,9.7,9.7,0,0,0,.728-1.322c.224-.464.09-.692-.421-.778-.224-.038-.453-.05-.679-.076A1.468,1.468,0,0,1,272,25a3.309,3.309,0,0,1-.164-.76,17.511,17.511,0,0,1,.1-3.223,6.775,6.775,0,0,1,.648-2.391c.167-.314.5-1.125,1-.99.685.186.147,3.511-.179,4.055-.077.155-.231.16-.28.561" transform="translate(-192.202 -12.596)" fill="#a98c4b"/>
    <path id="Path_3491" data-name="Path 3491" d="M72.118,467c.325.138-.217,1.475.873,1.947a2.116,2.116,0,0,0,1.66.079l.326-.133a.929.929,0,0,1-.118.611c-.187.4-.683,1.869-1.848,1.957-.3.883,1.106,6.461.992,10.528-.041.522-.043,1.048-.067,1.572a5.588,5.588,0,0,1-.156,1.283,2.407,2.407,0,0,1-.892,1.288,3.16,3.16,0,0,1-2.073.653,3.957,3.957,0,0,1-1.969-.548c-.084-.05-.177-.088-.289-.143-.172.363-.329.7-.487,1.027-.088.185-.174.372-.268.555a5.862,5.862,0,0,0-.487,2.122,2.467,2.467,0,0,0,.019.95,2.092,2.092,0,0,0,.518.968c.176.173.36.338.544.5a2.067,2.067,0,0,0,1.726.489,5.765,5.765,0,0,0,1.956-.535,17.294,17.294,0,0,0,2.337-1.434,27.61,27.61,0,0,0,3.352-3.048c.446-.469.863-.967,1.319-1.427.427-.43.887-.827,1.334-1.237.349-.32.7-.637,1.049-.956a19.493,19.493,0,0,1,2.657-2.055c.58-.37,1.153-.759,1.761-1.076a5.963,5.963,0,0,1,1.679-.6c.161-.029.321-.07.523-.115-.024-.265-.033-.528-.073-.787-.26-1.677-.547-3.349-.952-5a24.7,24.7,0,0,1-.523-2.914c-.03-.243-.109-.48-.153-.723-.075-.413-.146-.827-.208-1.242a.81.81,0,0,1,.022-.306q.252-1.018.518-2.032a1.978,1.978,0,0,1,.151-.323c.211.067.194.211.178.338a1.554,1.554,0,0,0,.247,1c.68,1.243,2.2.657,2.43.515a1.139,1.139,0,0,1,.211-.077c.1.481-.234.789-.379,1.158a1.763,1.763,0,0,1-.817.934c-.359.193-.738.348-1.151.54a2.436,2.436,0,0,0,.031.306c.245,1.167.5,2.331.74,3.5a25.8,25.8,0,0,1,.516,3.383c.031.461.014.926.019,1.389,0,.091,0,.181,0,.279l.641.173a2.541,2.541,0,0,1,1.313.976,2.73,2.73,0,0,1,.351.662,1.055,1.055,0,0,1,.079.449c-.025.493-.068.985-.116,1.477a1.111,1.111,0,0,1-.11.38c-.059.118-.162.113-.243.007a1.062,1.062,0,0,1-.094-.16,3.507,3.507,0,0,0-.938-1.133,2.261,2.261,0,0,0-1.167-.44c-.147-.019-.183.069-.219.195-.242.829-.483,1.658-.747,2.48a4.6,4.6,0,0,1-.637,1.33,3.6,3.6,0,0,1-.778.807,32.426,32.426,0,0,1-4.535,2.24.615.615,0,0,0-.445.577c-.41,1.951.591,2.759,2.13,2.586a3.027,3.027,0,0,0,1.059-.482,15.6,15.6,0,0,0,2.808-2.4c4.219-4.688,7.709-4.8,8.451-5.008.039-.011.075-.028.132-.05a.965.965,0,0,0-.065-.2,1.513,1.513,0,0,1-.244-1.169,15.853,15.853,0,0,1,.77-2.31,3.292,3.292,0,0,1,.871-1,6.541,6.541,0,0,1,1.293-.942,2.806,2.806,0,0,1,.512-.213.471.471,0,0,1,.569.182,2.155,2.155,0,0,1,.356,1.039,5.748,5.748,0,0,1-.194,2.444q-.254.792-.5,1.586c-.012.037-.015.077-.029.153a13.205,13.205,0,0,0,4.188.815,1.216,1.216,0,0,0,.368-.034.665.665,0,0,0,.591-.584,4.79,4.79,0,0,0,.035-.491,13.71,13.71,0,0,0-.41-3.207c-.309-1.385-.627-2.769-1.006-4.135a28.445,28.445,0,0,1-.677-3.227c-.117-.75-.127-1.516-.178-2.275a1.666,1.666,0,0,0-.172-.8.687.687,0,0,1-.086-.356,4.246,4.246,0,0,1,.158-1.52c.163-.411.3-.83.457-1.245a.451.451,0,0,1,.071-.135.112.112,0,0,1,.207.048,1.581,1.581,0,0,1,.009.369,1.917,1.917,0,0,0,.692,1.584,1.387,1.387,0,0,0,1.342.242c.149-.035.288-.108.434-.158.064-.022.132-.031.245-.055a2.514,2.514,0,0,1-.5,1,2.392,2.392,0,0,1-1.913,1.024,2.033,2.033,0,0,0,0,.387c.183.928.354,1.858.57,2.778.305,1.3.677,2.586.961,3.891a17.6,17.6,0,0,1,.512,3.256,14.592,14.592,0,0,1-.418,3.336c-.019.091-.032.182-.053.273-.087.38-.808,2.2-1.869,2.2-.857-.03-3.648-.27-4.7-.9a.912.912,0,0,0-.984-.027,20.809,20.809,0,0,1-2.939.914,12.551,12.551,0,0,0-2.188.731A14.075,14.075,0,0,0,87.3,491.8a21.971,21.971,0,0,1-2.752,2.562,4.529,4.529,0,0,1-1.2.694c-.681.237-3.928.869-2.566-4.654.1-.382.094-.384-.3-.579.132-.113.257-.209.368-.32a.947.947,0,0,0,.244-.3,6.835,6.835,0,0,1,.98-1.878c.169-.22.358-.425.541-.634.052-.059.115-.109.2-.188a.631.631,0,0,1-.072.486,10.986,10.986,0,0,0-1.073,1.938c.1-.052.175-.089.246-.137.943-.639,2.043-1.3,2.969-1.961a8.889,8.889,0,0,0,2.42-2.482,4.843,4.843,0,0,0,.653-1.753,1.781,1.781,0,0,0-.814.074,8.3,8.3,0,0,0-2.685,1.286c-.36.256-.72.512-1.088.758a17.213,17.213,0,0,0-2.454,2.061c-.441.432-.929.815-1.361,1.256-.583.595-1.129,1.225-1.695,1.837a30.769,30.769,0,0,1-3.269,3.138,15.019,15.019,0,0,1-1.774,1.274,5.143,5.143,0,0,1-1.559.71c-.28.057-.55.17-.831.22a3.114,3.114,0,0,1-.605,0c-.05,0-.1-.027-.15-.026a2.609,2.609,0,0,1-1.722-.643,3.441,3.441,0,0,1-.927-.98,3.029,3.029,0,0,1-.393-1.536,16.694,16.694,0,0,1,.2-2.521,10.414,10.414,0,0,1,.909-2.774c.137-.275.28-.547.437-.854a1.757,1.757,0,0,0-.184-.2c-.7-.574-1.407-1.139-2.1-1.716-.665-.551-7.733-6.03-8.883-6.254a14.967,14.967,0,0,1,3.673,5.85,3.249,3.249,0,0,1-2.2,3.89,5.473,5.473,0,0,1-.586.166c-.878.206-1.764.386-2.636.617a9.043,9.043,0,0,0-1.91.689,7.16,7.16,0,0,0-1.357.957,11.756,11.756,0,0,0-1.8,1.982,15.955,15.955,0,0,1-2.291,2.622,3.4,3.4,0,0,1-1.578.918,1.761,1.761,0,0,1-1.9-.952,4.832,4.832,0,0,1-.468-2,8.043,8.043,0,0,1,.2-2.237,10.789,10.789,0,0,1,1.132-2.957c.128-.221.89-1.349,1.073-1.247a.31.31,0,0,1-.006.4c-.368.63-.769,1.243-1.1,1.892a4.751,4.751,0,0,0-.667,2.564,3.778,3.778,0,0,0,.375,1.454,1.2,1.2,0,0,0,.873.672,1.885,1.885,0,0,0,1.336-.233,9.907,9.907,0,0,0,2.434-2.2c.269-.312.529-.631.787-.952a15.684,15.684,0,0,1,2.4-2.362c1.616-1.3,5.113-1.873,5.642-2.04.419-.132.828-.3,1.234-.466.288-.119.288-.338.222-.649a1.351,1.351,0,0,0-.19-.478,13.846,13.846,0,0,0-2.035-2.783c-1.009-1.071-2.02-2.14-3.121-3.118-.438-.389-.9-.755-1.326-1.153-.518-.481-1-1-1.527-1.472-1.149-1.031-.54-3.615.712-4.846.915-.9,3.731-1.414,7.075-2.564,3.173-1.091,6.4-2.388,7.325-2.424a.755.755,0,0,1,.755.376,1.521,1.521,0,0,1,.2,1.041,3.168,3.168,0,0,1-.212.736c-.193.465-.391.931-.627,1.375a10.716,10.716,0,0,1-1.436,1.98c-.808.932-3,3.861-3.343,4.337a2.506,2.506,0,0,1-.261.27l-.054-.035a.508.508,0,0,1,.016-.162c.187-.411,2.653-4.12,4.283-6.232a1.162,1.162,0,0,0,.186-1.048c-.114-.367-.23-.514-.61-.5a4.125,4.125,0,0,0-1.5.328c-.606.228-6.141,2.435-6.745,2.637-.74.248-1.493.453-2.239.681-.7.213-3.07.563-3.575,1.81.385.183.776.388,1.182.558,2.807.872,10.521,6.063,11.327,6.735.7.585,2.914,2.4,3.321,2.711,3.035,2.438,5.273,1.006,5.586.769a.468.468,0,0,0,.194-.454c-.106-1.209-1.176-8.237-1.366-9.8-.1-.837-.112-1.687-.226-2.522-.061-.446-.185-.884-.239-1.33a2.065,2.065,0,0,1,.066-.7c.115-.49.254-.974.39-1.459.041-.147.1-.4.249-.365m26.676,15.117a2.035,2.035,0,0,0-.108-.416c-.538-1.079-1.768.308-2.007.607-.161.2-.167.3-.015.491a5.765,5.765,0,0,0,1.449,1.1.364.364,0,0,0,.519-.088,5.7,5.7,0,0,0,.162-1.695" transform="translate(-31.41 -332.505)" fill="#a98c4b"/>
    <path id="Path_3492" data-name="Path 3492" d="M336.021,493.3a2.582,2.582,0,0,0-2.091-.208c-.12-.088-.084-.181-.05-.265.232-.571.445-1.152.712-1.707.671-1.495,4.167-.069,4.367.036a.862.862,0,0,1,.431.915,4.675,4.675,0,0,1-.312,1.125c-.027.087-.061.172-.1.273a4.973,4.973,0,0,0,1.624.571c.357.048.454-.02.6-.333a3.5,3.5,0,0,0,.241-1.663,15.8,15.8,0,0,0-.418-2.928c-.276-1.182-.539-2.366-.811-3.548-.044-.19-.112-.375-.159-.564-.23-.928-.461-1.855-.682-2.785-.13-.55-.241-1.1-.362-1.656a6.33,6.33,0,0,1-.1-1.194,10.7,10.7,0,0,1,.319-2.471,5.17,5.17,0,0,1,.227-.654c.187.071.27.156.267.345a2.129,2.129,0,0,0,.156,1.023,1.631,1.631,0,0,0,1.752.981,2.677,2.677,0,0,0,.413-.116c.127.1.064.221.022.308a2.065,2.065,0,0,1-.849,1.1,5.976,5.976,0,0,1-.659.254c-.125.045-.255.077-.4.118a1.057,1.057,0,0,0,0,.243c.34,1.355.692,2.708,1.027,4.064a38.6,38.6,0,0,1,.821,3.957c.067.489.163.974.214,1.464a8.985,8.985,0,0,1-.138,2.336c-.081.507-.157,1.017-.278,1.515a4.532,4.532,0,0,1-.387,1.069,1.7,1.7,0,0,1-.807.854.8.8,0,0,1-.535.057,3.764,3.764,0,0,1-1.164-.616,11.026,11.026,0,0,0-1.324-.9.455.455,0,0,0-.483.026c-.83.474-1.65.973-2.511,1.386-.8.386-1.647.7-2.487,1a19.868,19.868,0,0,1-3.581.917,20.74,20.74,0,0,1-2.085.22,13.711,13.711,0,0,1-3.318-.185,7.989,7.989,0,0,1-2.24-.75,3.994,3.994,0,0,1-1.4-1.208,9.582,9.582,0,0,1-1.31-2.639c-.1-.3-.15-.617-.268-.937-.04.141-.087.28-.12.422-.128.551-.559,3.166-2.759,4a.577.577,0,0,0-.2.287c-.1.333-.193.671-.27,1.012a6.514,6.514,0,0,1-1.815,3.1,14.009,14.009,0,0,1-2.294,1.862,10.528,10.528,0,0,1-1.357.726c-.388.184-.8.327-1.2.479a4.813,4.813,0,0,1-2.361.3,5.914,5.914,0,0,1-1.12-.331,2.881,2.881,0,0,1-1.173-.877,3.311,3.311,0,0,1-.507-.872,4.708,4.708,0,0,1-.378-1.423,4.975,4.975,0,0,1-.011-.83,17.742,17.742,0,0,1,.78-4.046c.069-.226.138-.452.21-.677.027-.082.066-.16.1-.239l.063.011a2.042,2.042,0,0,1,0,.339c-.14.82-.291,1.639-.433,2.459a3.829,3.829,0,0,0,.5,2.753,2.624,2.624,0,0,0,1.357,1.061,4.567,4.567,0,0,0,1.839.3,5.369,5.369,0,0,0,.816-.149,7.809,7.809,0,0,0,1.8-.619q.306-.144.617-.276a10.349,10.349,0,0,0,2.353-1.509,8.138,8.138,0,0,0,1.559-1.572.592.592,0,0,0,.02-.8,6.608,6.608,0,0,1-2.243.355,2.413,2.413,0,0,1-1.54-.616c-.647-.84-.042-2.683.131-3.086a4.756,4.756,0,0,1,1.265-1.8,1.119,1.119,0,0,1,1.329-.017,8.305,8.305,0,0,1,1.921,2.711c.239-.1.46-.178.671-.281a5.681,5.681,0,0,0,1.327-.769,1.027,1.027,0,0,0,.393-.853,32.675,32.675,0,0,0-.349-4.21q-.276-1.831-.542-3.662c-.16-1.109-.3-2.221-.475-3.328-.075-.475-.215-.941-.321-1.411a.707.707,0,0,1-.03-.271c.118-.616.243-1.23.371-1.844a1.443,1.443,0,0,1,.1-.239c.154.007.169.1.192.191.221.867,2.381,13.055,2.576,13.618,2.091,8.107,17.092,1.916,17.324,1.792M313,495.075a2.367,2.367,0,0,0-1.243-1.064.885.885,0,0,0-1.1.432.243.243,0,0,0,.066.354,2.935,2.935,0,0,0,2.274.279" transform="translate(-216.071 -340.361)" fill="#a98c4b"/>
    <path id="Path_3493" data-name="Path 3493" d="M16.612,501.452a9.014,9.014,0,0,1-1.463-4.365.575.575,0,0,0-.072-.266.976.976,0,0,1-.092-.832c.121-.541.275-1.075.423-1.61a2.979,2.979,0,0,1,.183-.392,2.489,2.489,0,0,0,1.979,2.207.568.568,0,0,0,.548-.228c.086-.125.093-.289.184-.427.133.059.234.121.165.257a1.91,1.91,0,0,1-1.8,1.321c-.29.07-.354.167-.3.463a.83.83,0,0,0,.034.119,6,6,0,0,0,3.6,3.627,1.849,1.849,0,0,1,.873.934,3.956,3.956,0,0,1-.671,2.365,6.817,6.817,0,0,0-2.738-1.038,3.657,3.657,0,0,0-.522.026,11.4,11.4,0,0,0-3.945,1.446q-1.035.609-2.033,1.281a15.348,15.348,0,0,0-2.088,1.73c-1.855,1.517-5.068,6.075-7.364,4.676-.789-.413-2.287-1.673-1.049-5.878a9.835,9.835,0,0,1,2.879-4.285,1.274,1.274,0,0,0-.086-.157,3.777,3.777,0,0,1-.7-2.13,12.014,12.014,0,0,1,2.12-6.507c.063-.093.1-.262.268-.171s.076.211.024.322c-.528,1.118-1.915,3.245-1.551,6.007a1.162,1.162,0,0,0,2.087.414,1.507,1.507,0,0,0,.162-.52c.081-.6.435-.708.436.126.016.143.049,2.252-1.207,2.8a1.015,1.015,0,0,1-.39.058,1.152,1.152,0,0,0-.954.267c-.574.635-3,3.087-2.817,5.616.163,2.275,2.469,2.034,3.09,1.725a7.032,7.032,0,0,0,1.7-1.223c.895-.85,1.793-1.7,2.666-2.568a23.827,23.827,0,0,1,3.274-2.711,15.629,15.629,0,0,1,5.138-2.479" transform="translate(0 -352.757)" fill="#a98c4b"/>
    <path id="Path_3494" data-name="Path 3494" d="M255.721,520.584c.142.074.037.543-.078.733a17.393,17.393,0,0,0-1.91,3.46c-.944,3.511,2.458,3.412,3.547,2.863.578-.291,3.078-2.372,3.428-2.658a18.773,18.773,0,0,1,8.952-4.5c-.085-.039-.134-.056-.178-.083a.461.461,0,0,1-.19-.593c.112-.342.242-.678.368-1.015q.178-.477.366-.95c.037-.092.086-.179.13-.271,1.009.356,2.028.553,3.031.814a.266.266,0,0,1,.234.306c-.006.1-.21,1.067-.292,1.448a2.342,2.342,0,0,1-1.061,1.491,6.779,6.779,0,0,1-1.775.843c-1.03.318-2.071.6-3.1.921a17.184,17.184,0,0,0-6.95,4.346,21.394,21.394,0,0,1-2.616,2.006,3.414,3.414,0,0,1-1.481.559c-1.051.1-4.233-.051-3-4.962a11.088,11.088,0,0,1,1.181-2.833,9.485,9.485,0,0,1,1.393-1.928" transform="translate(-180.717 -369.896)" fill="#a98c4b"/>
    <path id="Path_3495" data-name="Path 3495" d="M133.968,494.771c.23-.15.456-.308.691-.451,1.247-.759,6.672-3.576,8.255-6.412a10.334,10.334,0,0,0,.149-5.635c-.211-1.038-.367-2.059-.587-3.095a40.366,40.366,0,0,1-.965-5.083.411.411,0,0,1,.011-.152c.173-.6.346-1.205.528-1.8.037-.12.065-.292.235-.282s.18.177.2.306a2.891,2.891,0,0,1,.049.4,1.418,1.418,0,0,0,1.918,1.273c.134-.051.27-.1.406-.144.183-.081.106.227.066.307-.169.34-.34.68-.538,1a1.337,1.337,0,0,1-.759.551c-.088.029-.174.063-.261.094-.368.129-.425.2-.357.6.063.374,1,4.379,1.144,6.056a14.879,14.879,0,0,1-.087,3.722c-.193,1.169-1.193,4.818-3.977,6.083-.384.173-1.64.784-1.889.906-.71.348-1.416.706-2.128,1.051-.454.22-.909.437-1.375.627a4.524,4.524,0,0,1-.707.168l-.025-.091" transform="translate(-95.744 -337.224)" fill="#a98c4b"/>
    <path id="Path_3496" data-name="Path 3496" d="M272.489,471.5a1.2,1.2,0,0,1,.259.781,3.132,3.132,0,0,0,.468,1.673,1.338,1.338,0,0,0,1.325.676,2.485,2.485,0,0,0,1.019-.533c.276-.211.152.166.123.215-.242.409-1.034,1.635-2.044,1.743-.144.031-.183.215-.125.432.064.238.147.47.218.706.349,1.161.712,2.319,1.039,3.486a15.768,15.768,0,0,1,.583,3.585,13.465,13.465,0,0,1-.325,3.184,16.227,16.227,0,0,1-.7,2.555,18.239,18.239,0,0,1-1.368,2.177c-.077.081-.246.345-.394.22-.13-.1.008-.29.047-.35.22-.348,2.382-3.344,1.411-8.976-.247-1.158-1.88-5.177-2.39-8.742a3.671,3.671,0,0,1,.857-2.831" transform="translate(-194.084 -336.972)" fill="#a98c4b"/>
    <path id="Path_3497" data-name="Path 3497" d="M390.494,480.78l-.583-.718a12.845,12.845,0,0,1-1.883,2.429,10.152,10.152,0,0,1-2.63,1.7c-.976.433-1.915.948-2.872,1.423-.359.178-.725.342-1.086.516a2,2,0,0,1-.855.128,2.9,2.9,0,0,1,.638-.534q1.848-1.2,3.7-2.4a20.061,20.061,0,0,0,2.918-2.321,16.93,16.93,0,0,0,1.205-1.4.719.719,0,0,0,.073-.144,2.024,2.024,0,0,0-.965-.385.9.9,0,0,1-.687-.643,1.957,1.957,0,0,1,.1-1.088,3.277,3.277,0,0,1,1.607-1.948c.264-.154.367-.136.562.092a4.614,4.614,0,0,1,.617,2.883.492.492,0,0,0,.133.417c.187.231.35.481.516.727a.268.268,0,0,1,.052.172,1.684,1.684,0,0,1-.569,1.092m-1.009-2.691a1.692,1.692,0,0,0-.336-.939.274.274,0,0,0-.361-.079,1.343,1.343,0,0,0-.524.542l1.221.476" transform="translate(-271.996 -339.683)" fill="#a98c4b"/>
    <path id="Path_3498" data-name="Path 3498" d="M313.217,478.611l-.583-.719a12.831,12.831,0,0,1-1.883,2.429,10.156,10.156,0,0,1-2.629,1.7c-.976.433-1.915.948-2.872,1.424-.359.178-.725.342-1.086.516a2,2,0,0,1-.855.129,2.9,2.9,0,0,1,.638-.534q1.848-1.2,3.7-2.4a20.029,20.029,0,0,0,2.918-2.321,16.883,16.883,0,0,0,1.2-1.4.724.724,0,0,0,.073-.144,2.024,2.024,0,0,0-.965-.385.9.9,0,0,1-.687-.643,1.958,1.958,0,0,1,.1-1.088,3.277,3.277,0,0,1,1.607-1.948c.265-.154.367-.137.562.092a4.612,4.612,0,0,1,.617,2.883.492.492,0,0,0,.133.417c.187.231.35.481.516.727a.27.27,0,0,1,.052.172,1.686,1.686,0,0,1-.569,1.092m-1.009-2.691a1.691,1.691,0,0,0-.336-.939.274.274,0,0,0-.361-.079,1.337,1.337,0,0,0-.523.542l1.221.476" transform="translate(-216.768 -338.132)" fill="#a98c4b"/>
    <path id="Path_3499" data-name="Path 3499" d="M211.554,467.245l-.455-.561a10.019,10.019,0,0,1-1.47,1.9,7.91,7.91,0,0,1-2.053,1.326c-.762.338-1.495.741-2.242,1.112-.28.139-.566.267-.848.4a1.564,1.564,0,0,1-.667.1,2.251,2.251,0,0,1,.5-.417q1.443-.94,2.892-1.871a15.688,15.688,0,0,0,2.278-1.812,13.192,13.192,0,0,0,.941-1.094.629.629,0,0,0,.057-.112,1.588,1.588,0,0,0-.754-.3.7.7,0,0,1-.536-.5,1.532,1.532,0,0,1,.081-.849,2.559,2.559,0,0,1,1.255-1.521c.206-.12.287-.107.439.072a3.6,3.6,0,0,1,.482,2.251.385.385,0,0,0,.1.326c.146.18.273.375.4.568a.211.211,0,0,1,.041.134,1.316,1.316,0,0,1-.444.853m-.788-2.1a1.32,1.32,0,0,0-.262-.733.214.214,0,0,0-.282-.062,1.044,1.044,0,0,0-.409.423l.953.371" transform="translate(-145.664 -330.869)" fill="#a98c4b"/>
    <path id="Path_3500" data-name="Path 3500" d="M300.1,482.4a2.053,2.053,0,0,1,.278-.283c.436-.291.878-.572,1.319-.856l1.177-.758c-.037-.033-.058-.068-.076-.066-.317.026-.633.064-.949.084-.3.018-.595.017-.893.026-.349.01-.7.025-1.048.033a.881.881,0,0,0-.8.429,1.539,1.539,0,0,1-.146.168.879.879,0,0,1-.1-.544,5.294,5.294,0,0,1,.6-1.51,1.718,1.718,0,0,1,.432-.476.732.732,0,0,1,.426-.139c.668,0,1.337.036,2,.036.389,0,.778-.046,1.167-.063a4.57,4.57,0,0,1,.7,0,.616.616,0,0,1,.556.883,3.082,3.082,0,0,1-.261.557c-.154.276-.329.541-.486.816a1.675,1.675,0,0,1-.776.633c-.414.206-.843.381-1.253.595a3.9,3.9,0,0,1-1.871.435" transform="translate(-213.58 -341.946)" fill="#a98c4b"/>
    <path id="Path_3501" data-name="Path 3501" d="M34.779,485.85a2.111,2.111,0,0,1,.278-.282c.436-.291.879-.572,1.319-.856l1.177-.758c-.037-.033-.058-.067-.076-.066-.317.026-.633.065-.95.084-.3.018-.595.017-.892.026-.349.01-.7.025-1.047.033a.883.883,0,0,0-.8.43,1.466,1.466,0,0,1-.146.167.881.881,0,0,1-.1-.544,5.286,5.286,0,0,1,.6-1.51,1.731,1.731,0,0,1,.431-.477.739.739,0,0,1,.426-.139c.669,0,1.337.036,2.006.037.389,0,.778-.047,1.167-.064a4.6,4.6,0,0,1,.7,0,.616.616,0,0,1,.556.883,3.137,3.137,0,0,1-.261.557c-.154.276-.329.541-.486.816a1.677,1.677,0,0,1-.777.633c-.414.206-.843.381-1.253.595a3.894,3.894,0,0,1-1.871.435" transform="translate(-23.96 -344.414)" fill="#a98c4b"/>
    <path id="Path_3502" data-name="Path 3502" d="M214.328,493.48a6.522,6.522,0,0,1,1.193-2.026c.019.005.044,0,.057.017a6.857,6.857,0,0,0,1.741,1.035.981.981,0,0,0,.141.06c.244.076.323.048.46-.171.24-.383.476-.768.715-1.151a1.351,1.351,0,0,1,.088-.127c.136-.168.169-.182.361-.092q.85.4,1.695.81c.22.108.262.2.156.418a7.528,7.528,0,0,1-1.007,1.618c-.14.165-.166.161-.367.059-.439-.224-.876-.451-1.318-.669-.294-.145-.284-.132-.473.154-.22.333-.464.65-.7.973a1.073,1.073,0,0,1-.574.34.366.366,0,0,1-.26-.038,9.046,9.046,0,0,1-1.91-1.21" transform="translate(-153.175 -350.885)" fill="#a98c4b"/>
    <path id="Path_3503" data-name="Path 3503" d="M72.279,556.589a6.148,6.148,0,0,1,1.224-2.044c.283.14.574.286.868.428.341.166.681.335,1.027.488.243.107.277.093.433-.124.27-.376.531-.758.8-1.137.035-.05.072-.1.11-.148a.215.215,0,0,1,.318-.06c.616.35,1.238.691,1.86,1.031a.253.253,0,0,1,.135.335,1.073,1.073,0,0,1-.136.274c-.277.4-.561.787-.843,1.179a.936.936,0,0,1-.08.094c-.224.237-.266.237-.544.075q-.732-.426-1.473-.835c-.268-.148-.317-.125-.49.145-.182.286-.365.572-.555.853a1.646,1.646,0,0,1-.223.255c-.28.27-.32.285-.668.108-.512-.261-1.014-.54-1.521-.81-.071-.038-.148-.065-.238-.1" transform="translate(-51.656 -395.891)" fill="#a98c4b"/>
    <path id="Path_3504" data-name="Path 3504" d="M193.653,555.547c.054-.09,6.2-2.916,7.221-3.435a5.3,5.3,0,0,0,.637-.431c.2-.141.386-.3.591-.431a.278.278,0,0,1,.245-.025c.056.039.049.068.072.15a.388.388,0,0,1-.055.295,6.339,6.339,0,0,1-.712,1.251,3.665,3.665,0,0,1-1.4.929c-.456.185-.924.342-1.388.506-.406.144-.811.294-1.223.418a16.583,16.583,0,0,1-3.991.773" transform="translate(-138.399 -393.933)" fill="#a98c4b"/>
    <path id="Path_3505" data-name="Path 3505" d="M109.881,490.934c.035-.08,4.77-3.036,5.548-3.568a4.343,4.343,0,0,0,.476-.419c.148-.136.285-.284.438-.414a.229.229,0,0,1,.2-.046c.05.027.047.051.074.115a.321.321,0,0,1-.014.247,5.226,5.226,0,0,1-.451,1.1,3.032,3.032,0,0,1-1.045.906c-.354.2-.72.376-1.082.56-.317.16-.633.326-.957.47a13.685,13.685,0,0,1-3.184,1.051" transform="translate(-78.529 -347.674)" fill="#a98c4b"/>
    <path id="Path_3506" data-name="Path 3506" d="M268.091,558.966c.054-.091,6.2-2.916,7.221-3.436a5.224,5.224,0,0,0,.637-.431c.2-.141.387-.3.591-.43a.276.276,0,0,1,.245-.025c.056.039.049.068.072.149a.388.388,0,0,1-.055.3,6.348,6.348,0,0,1-.712,1.251,3.664,3.664,0,0,1-1.4.929c-.456.185-.924.342-1.388.506-.406.144-.811.294-1.223.419a16.583,16.583,0,0,1-3.991.773" transform="translate(-191.598 -396.377)" fill="#a98c4b"/>
    <path id="Path_3507" data-name="Path 3507" d="M407.027,557.092c.054-.09,6.2-2.916,7.221-3.436a5.234,5.234,0,0,0,.637-.431c.2-.141.387-.3.591-.43a.276.276,0,0,1,.245-.025c.056.039.049.068.072.149a.388.388,0,0,1-.055.3,6.345,6.345,0,0,1-.712,1.251,3.663,3.663,0,0,1-1.4.929c-.456.185-.924.342-1.388.506-.406.144-.811.294-1.223.418a16.583,16.583,0,0,1-3.991.773" transform="translate(-290.892 -395.038)" fill="#a98c4b"/>
    <path id="Path_3508" data-name="Path 3508" d="M93.592,556.145c.045-.076,5.227-2.457,6.083-2.894a4.476,4.476,0,0,0,.537-.363c.167-.119.326-.251.5-.363a.234.234,0,0,1,.206-.021c.047.033.041.057.06.126a.326.326,0,0,1-.047.249,5.342,5.342,0,0,1-.6,1.053,3.091,3.091,0,0,1-1.176.783c-.384.155-.778.288-1.169.427-.342.121-.683.248-1.031.353a13.994,13.994,0,0,1-3.362.651" transform="translate(-66.888 -394.85)" fill="#a98c4b"/>
    <path id="Path_3509" data-name="Path 3509" d="M186.712,459.518a1.209,1.209,0,0,1-.8,1.219,9.919,9.919,0,0,0-1.141.461,9.975,9.975,0,0,1-6.045.339,1.607,1.607,0,0,1-.394-.171c-.365-.2-.441-.18-.7.135-.234.286-.475.567-.718.845-.071.082-.368.224-.294.006a.885.885,0,0,1,.129-.243q.734-.952,1.475-1.9a.456.456,0,0,1,.094-.071.366.366,0,0,1,.095.028c1.658.986,4.953.646,6.163.273a6.994,6.994,0,0,0,1.776-.768,2.37,2.37,0,0,1,.359-.155" transform="translate(-126.219 -328.406)" fill="#a98c4b"/>
    <path id="Path_3510" data-name="Path 3510" d="M373.053,476.325a.836.836,0,0,1,.126.69,17.875,17.875,0,0,1-.384,1.923,1.027,1.027,0,0,1-1.676.379,2.4,2.4,0,0,1-.839-1.65,11.362,11.362,0,0,1,.763-4.615c.13-.346.288-.681.444-1.016.044-.094.1-.218.253-.165.134.046.192.153.139.327a3.885,3.885,0,0,1-.21.512c-.594,1.317-.9,3.284-.534,4.073a1.064,1.064,0,0,0,1.011.725.537.537,0,0,0,.61-.439,2.307,2.307,0,0,1,.3-.745" transform="translate(-264.615 -337.226)" fill="#a98c4b"/>
    <path id="Path_3511" data-name="Path 3511" d="M378.451,517.6a.28.28,0,0,1,.011.344c-.089.185-.186.367-.271.554a1.17,1.17,0,0,0-.115.747.666.666,0,0,0,.38.49,2.156,2.156,0,0,0,2.175-.319.878.878,0,0,0,.164-.252c.078-.156.169-.617.412-.569.448.125-.246,2.519-1.68,3.134a2.339,2.339,0,0,1-1.654-.059.871.871,0,0,1-.529-.635,3.178,3.178,0,0,1,.037-1.437,6.387,6.387,0,0,1,.879-1.859.481.481,0,0,1,.1-.111.272.272,0,0,1,.088-.029" transform="translate(-269.631 -369.914)" fill="#a98c4b"/>
    <path id="Path_3512" data-name="Path 3512" d="M176.351,498.675a3.832,3.832,0,0,1,1.372.825c.126.106.247.217.376.319a.336.336,0,0,1,.1.385,16.7,16.7,0,0,1-1.136,2.029c-.122.235-1.6-.8-2.048-1.11-.194-.132-.245-.209-.153-.4.277-.585.567-1.163.858-1.741a.494.494,0,0,1,.628-.3" transform="translate(-124.94 -356.372)" fill="#a98c4b"/>
  </g>
</svg>
