<svg xmlns="http://www.w3.org/2000/svg" width="200" height="150" viewBox="0 0 200 150">
  <g id="H_2ndS_1st_icon" transform="translate(-1325 -1420)">
    <rect id="Rectangle_2537" data-name="Rectangle 2537" width="200" height="150" transform="translate(1325 1420)" fill="none"/>
    <g id="Group_1513" data-name="Group 1513" transform="translate(-612.383 -384.209)">
      <g id="Group_1509" data-name="Group 1509" transform="translate(2039.931 1837.22)">
        <path id="Path_4253" data-name="Path 4253" d="M2047.906,1892.724a1.766,1.766,0,0,0-.052.227l-.021-.144C2047.855,1892.776,2047.886,1892.755,2047.906,1892.724Z" transform="translate(-2036.972 -1835.469)" fill="#ffeaba"/>
        <path id="Path_4255" data-name="Path 4255" d="M2104.849,1888.529a31.944,31.944,0,0,0-4.136-5.065c-3.5-3.58-3.208-5.405-2.517-9.81a51.66,51.66,0,0,0,.784-8.644c0-15.515-14.173-27.295-21.941-27.79h-.227c-7.675.5-21.848,12.275-21.848,27.79a51.66,51.66,0,0,0,.784,8.644c.7,4.4.98,6.23-2.517,9.81q-1.006,1.037-1.857,2.011h-3.745a3.507,3.507,0,0,0-2.682,1.248,3.464,3.464,0,0,0-.774,2.857l.732,4.25c-5.931,8.1-7.6,18.238-7.6,20.755v6.973h80.13v-6.973C2117.434,1911.471,2114.876,1896.7,2104.849,1888.529Zm-28.667-41.633c5.137,0,13.885,12.667,13.885,15.349,0,8.459-6.22,15.349-13.885,15.349s-13.874-6.891-13.874-15.349C2062.309,1859.563,2071.056,1846.9,2076.183,1846.9Zm-35.784,71.569v-3.879a39,39,0,0,1,5.25-16.412l3.5,20.29Zm29.224-.144a.449.449,0,0,1-.33.144h-16.649a.412.412,0,0,1-.413-.351l-2.826-16.391-.464-2.672-.753-4.343v-.01l-.021-.144-.33-1.939-.227-1.269-.1-.619-.289-1.671a.436.436,0,0,1,.093-.34.444.444,0,0,1,.32-.144h16.66a.412.412,0,0,1,.413.351l2.981,17.258.268,1.6.279,1.589,1.486,8.613A.465.465,0,0,1,2069.622,1918.32Zm44.717.144h-41.55a3.716,3.716,0,0,0-.031-1.011l-1.331-7.726c1.723.144,3.559.227,5.488.227h.124c22.261-.01,30.585-10.377,30.585-12.492v-.062c-.021-.567-.062-1.114-.134-1.651a38.814,38.814,0,0,1,6.849,18.836Z" transform="translate(-2037.304 -1837.22)" fill="#ffeaba"/>
      </g>
      <g id="Group_1510" data-name="Group 1510" transform="translate(2050.793 1894.471)">
        <path id="Path_4256" data-name="Path 4256" d="M2047.834,1892.8l.021.144a1.771,1.771,0,0,1,.052-.227C2047.886,1892.751,2047.855,1892.772,2047.834,1892.8Z" transform="translate(-2047.834 -1892.72)" fill="#ffeaba"/>
      </g>
      <g id="Group_1511" data-name="Group 1511" transform="translate(1954.014 1837.22)">
        <path id="Path_4257" data-name="Path 4257" d="M2027.068,1894.564l.856-4.983a3.522,3.522,0,0,0-3.466-4.105h-5.178c-.557-.65-1.176-1.32-1.847-2.011-3.507-3.58-3.218-5.405-2.527-9.81a51.656,51.656,0,0,0,.784-8.644c0-15.515-14.174-27.295-21.941-27.79h-.227c-7.675.5-21.848,12.275-21.848,27.79a51.66,51.66,0,0,0,.784,8.644c.7,4.4.99,6.23-2.517,9.81a27.894,27.894,0,0,0-4.962,6.488c-8.7,8.356-10.965,21.693-10.965,24.633v6.973h80.13v-6.973C2034.145,1912.141,2032.576,1902.537,2027.068,1894.564Zm-32.989-47.668c5.137,0,13.885,12.667,13.885,15.349,0,8.459-6.23,15.349-13.885,15.349s-13.885-6.891-13.885-15.349C1980.195,1859.563,1988.942,1846.9,1994.079,1846.9Zm5.25,70.558a3.716,3.716,0,0,0-.031,1.011h-42.19v-3.879a38.934,38.934,0,0,1,5.952-17.526c-.021.134-.021.268-.031.4,0,2.115,8.335,12.482,30.6,12.492h.124a62.923,62.923,0,0,0,6.932-.371Zm20.115,1.011H2002.8a.4.4,0,0,1-.32-.144.423.423,0,0,1-.1-.34l1.527-8.84.557-3.218,2.93-17a.412.412,0,0,1,.413-.351h16.659a.445.445,0,0,1,.32.144.4.4,0,0,1,.093.34l-.392,2.249-.33,1.929-.186,1.1-.155.9-.815,4.7-3.125,18.176A.43.43,0,0,1,2019.445,1918.464Zm11.6,0h-8.108l3.353-19.424a38.755,38.755,0,0,1,4.755,15.545Z" transform="translate(-1954.014 -1837.22)" fill="#ffeaba"/>
      </g>
      <g id="Group_1512" data-name="Group 1512" transform="translate(2050.793 1894.471)">
        <path id="Path_4258" data-name="Path 4258" d="M2047.834,1892.8l.021.144a1.771,1.771,0,0,1,.052-.227C2047.886,1892.751,2047.855,1892.772,2047.834,1892.8Z" transform="translate(-2047.834 -1892.72)" fill="#ffeaba"/>
      </g>
    </g>
  </g>
</svg>
