<svg xmlns="http://www.w3.org/2000/svg" width="200" height="150" viewBox="0 0 200 150">
  <g id="H_2ndS_2nd_icon" transform="translate(-860 -1420)">
    <rect id="Rectangle_2536" data-name="Rectangle 2536" width="200" height="150" transform="translate(860 1420)" fill="none"/>
    <g id="Group_1507" data-name="Group 1507" transform="translate(-848.844 -366.92)">
      <g id="Group_1506" data-name="Group 1506">
        <path id="Path_4251" data-name="Path 4251" d="M1897.394,1906.45h-12.84v-96.2a6.2,6.2,0,0,0-6.19-6.19h-141.19a6.2,6.2,0,0,0-6.2,6.19v96.2h-10.44a6.925,6.925,0,1,0,0,13.85h176.86a6.925,6.925,0,0,0,0-13.85Zm-34.76-55.37c.36-.38.77-.83,1.22-1.37a9.008,9.008,0,0,0,1.64-6.47,6.244,6.244,0,0,0-2.38-4.39,4.26,4.26,0,0,0-3.73-.68c-2.29.62-4.2,2.9-5.08,4.89a13.833,13.833,0,0,0-.9,2.9l-17.8,28.14c-7.49.35-24.98,1.1-27.52.75-1.03-.13-3.16-.34-5.92-.5-.08-1.76-.45-3.85-1.65-4.97v-.01a4.881,4.881,0,0,1-.86-1.12c1.83-2.8,2.78-6.46,2.82-10.92a30.908,30.908,0,0,0-9.89-23.54,5.827,5.827,0,0,0-7.15-.56c-4.04,2.66-9.45,6.62-12.26,10.34-3.69,4.89-6.69,13.82-6.87,19.68v-45.48h105.06v77.12H1834.4c4.21-1.2,7.59-2.48,8.57-3.67,1.38-1.69,6.72-11.27,11.42-20.51C1861.144,1857.47,1862.664,1852.92,1862.634,1851.08Zm-1.91-2.35a28.162,28.162,0,0,0-4.37-2.22,10.814,10.814,0,0,1,.7-2.24,6,6,0,0,1,3.12-3.2,1.255,1.255,0,0,1,1.18.21,3.441,3.441,0,0,1,1.16,2.33,5.948,5.948,0,0,1-.97,4.18C1861.244,1848.15,1860.974,1848.46,1860.724,1848.73Zm-63.79,8.09c0,7.17-4.62,13.01-10.3,13.01a11.1,11.1,0,0,1-8.87-5.02,8.125,8.125,0,0,1-.54-8.07c2.1-4.47,5.68-10.49,8.05-12.81a3.922,3.922,0,0,1,4.44-.83C1793.364,1844.63,1796.934,1851.43,1796.934,1856.82Zm-30.46,9.19a11.372,11.372,0,0,0,4.32,6.84,3.607,3.607,0,0,0-.84,3.13c-1.04.21-2.06.44-3.07.69-.2.05-.39.1-.58.16V1864.4A11.057,11.057,0,0,0,1766.474,1866.01Zm1.14,13.57c1.36-.34,2.76-.64,4.18-.89,4.03,3.36,14.2,8.01,17.46,8.01h.19c3.63-.21,12.2-6.99,12.6-9.35v-.01c2.93.18,4.93.39,5.64.49,3.39.45,26.25-.65,28.85-.77l.77-.04,17.03-26.93.59-.93a23.848,23.848,0,0,1,4.68,2.44,8.015,8.015,0,0,1-.28,1.14c-2.25,7.16-16.2,33.56-18.67,36.57-1.1,1.27-9.68,3.58-19.16,5.58-2.51.53-5.08,1.03-7.6,1.5-.39.07-.78.14-1.16.21l-1.23.22v9.63h-62.85c.02-3.16,2.86-19.24,14.65-25.26q.72-.375,1.5-.69.72-.3,1.5-.54C1766.724,1879.82,1767.164,1879.69,1767.614,1879.58Zm129.78,37.72h-176.86a3.925,3.925,0,1,1,0-7.85h176.86a3.925,3.925,0,0,1,0,7.85Z" fill="#aa9aff"/>
      </g>
    </g>
  </g>
</svg>
