<svg xmlns="http://www.w3.org/2000/svg" width="110" height="110" viewBox="0 0 110 110">
  <g id="H_4S_6icon_Order" transform="translate(-492 -3791)">
    <g id="Group_1581" data-name="Group 1581" transform="translate(509 3807)">
      <path id="Path_4341" data-name="Path 4341" d="M908.03,3631.558h0l-.132.132a3,3,0,0,0,0,4.241l2.6,2.6a3,3,0,0,0,4.241,0l17.649-17.649a3,3,0,0,0,0-4.241l-2.6-2.6a3.069,3.069,0,0,0-4.241,0l-.132.131-20.962-20.962h0l.132-.132a3,3,0,0,0,0-4.241l-2.6-2.6a3.006,3.006,0,0,0-4.241,0l-17.648,17.649a3,3,0,0,0,0,4.242l2.6,2.6a3,3,0,0,0,4.241,0l.131-.131h0l6.3,6.3-26.7,26.7a5.918,5.918,0,0,0,8.369,8.369l26.7-26.7ZM882.213,3606l17.648-17.649,2.6,2.6-2.252,2.252h0l-1.337,1.336-14.059,14.06Zm48.057,12.761-17.648,17.648-2.6-2.6-1.06,1.06,3.312-3.312h0l7.825-7.825,7.571-7.572Zm-27.938-23.434,20.963,20.962-.515.515-12.629,12.63-6.3-6.3h0l-4.185-4.184-10.481-10.481Zm-29.421,54.511a2.987,2.987,0,0,1-4.127,0,2.918,2.918,0,0,1,0-4.127l26.7-26.7,4.128,4.128Z" transform="translate(-864.929 -3585.358)" fill="#fff" stroke="rgba(0,0,0,0)" stroke-width="1"/>
      <path id="Path_4342" data-name="Path 4342" d="M936.684,3653.136h-29.59a4.878,4.878,0,0,0,0,9.755h29.59a4.878,4.878,0,1,0,0-9.755Zm0,6.755h-29.59a1.878,1.878,0,1,1,0-3.755h29.59a1.878,1.878,0,1,1,0,3.755Z" transform="translate(-864.929 -3585.358)" fill="#fff" stroke="rgba(0,0,0,0)" stroke-width="1"/>
      <rect id="Rectangle_2432" data-name="Rectangle 2432" width="22.198" height="3" transform="translate(46.069 62.232)" fill="#fff" stroke="rgba(0,0,0,0)" stroke-width="1"/>
    </g>
    <rect id="Rectangle_2539" data-name="Rectangle 2539" width="110" height="110" transform="translate(492 3791)" fill="none"/>
  </g>
</svg>
