<svg xmlns="http://www.w3.org/2000/svg" width="110" height="110" viewBox="0 0 110 110">
  <g id="H_4S_2icon_Maqraa" transform="translate(-905 -3387)">
    <g id="Group_1585" data-name="Group 1585" transform="translate(920 3401)">
      <g id="Group_1583" data-name="Group 1583">
        <path id="Path_4335" data-name="Path 4335" d="M1434.759,3642.029V3600.9c2.435-1.8,10.818-7.5,19.132-7.5,7.427,0,11.132,1.648,12.427,2.4v7.231h3v-7.286a2.907,2.907,0,0,0-1.423-2.5c-1.806-1.061-6.027-2.842-14-2.842-8.932,0-17.695,5.756-20.631,7.885-2.934-2.128-11.7-7.885-20.631-7.885-7.977,0-12.2,1.781-14.006,2.843a2.908,2.908,0,0,0-1.42,2.5V3639.3a2.9,2.9,0,0,0,1.354,2.459,2.865,2.865,0,0,0,2.769.173c1.345-.635,4-1.392,9.033-1.392,8.593,0,18.8,3.68,21.729,4.809a8.658,8.658,0,0,1,1.637.13,1.994,1.994,0,0,0,.707-.13c1-.386,3.076-1.155,5.761-1.972l-.873-2.869C1437.477,3641.073,1435.909,3641.613,1434.759,3642.029Zm-34.557-2.878v-43.362c1.3-.747,5-2.394,12.427-2.394,8.308,0,16.691,5.7,19.131,7.5v41.131c-4.17-1.513-13.382-4.484-21.4-4.484C1405.973,3637.544,1402.558,3638.085,1400.2,3639.151Z" transform="translate(-1397.203 -3590.395)" fill="#fff" stroke="rgba(0,0,0,0)" stroke-width="1"/>
        <path id="Path_4336" data-name="Path 4336" d="M1472.313,3607.386h-23.86a5.505,5.505,0,0,0-5.5,5.5v53.452a5.505,5.505,0,0,0,5.5,5.5h23.86a5.505,5.505,0,0,0,5.5-5.5v-53.452A5.505,5.505,0,0,0,1472.313,3607.386Zm-23.86,3h2.426v.743a3.129,3.129,0,0,0,3.187,3.06H1466.7a3.129,3.129,0,0,0,3.187-3.06v-.743h2.427a2.5,2.5,0,0,1,2.5,2.5v11.143h-28.859v-11.143A2.5,2.5,0,0,1,1448.453,3610.386Zm23.86,58.45h-23.86a2.5,2.5,0,0,1-2.5-2.5v-39.309h28.859v39.309A2.5,2.5,0,0,1,1472.313,3668.836Z" transform="translate(-1397.203 -3590.395)" fill="#fff" stroke="rgba(0,0,0,0)" stroke-width="1"/>
      </g>
      <path id="Path_4337" data-name="Path 4337" d="M1460.525,3656.612a2.5,2.5,0,1,0,2.5,2.5A2.5,2.5,0,0,0,1460.525,3656.612Z" transform="translate(-1397.203 -3590.395)" fill="#fff" stroke="rgba(0,0,0,0)" stroke-width="1"/>
    </g>
    <rect id="Rectangle_2542" data-name="Rectangle 2542" width="110" height="110" transform="translate(905 3387)" fill="none"/>
  </g>
</svg>
