<svg xmlns="http://www.w3.org/2000/svg" width="110" height="110" viewBox="0 0 110 110">
  <g id="H_4S_3icon_Certificate" transform="translate(-488 -3386)">
    <path id="Path_4332" data-name="Path 4332" d="M1359.308,3588.549h-80.643a5.505,5.505,0,0,0-5.5,5.5V3650.4a5.505,5.505,0,0,0,5.5,5.5h7.3v-3h-7.3a2.5,2.5,0,0,1-2.5-2.5v-41.414l17.434-17.433h50.766l17.442,17.442V3650.4a2.5,2.5,0,0,1-2.5,2.5h-50.026v3h50.026a5.5,5.5,0,0,0,5.5-5.5v-56.349A5.5,5.5,0,0,0,1359.308,3588.549Zm-83.143,16.191v-10.693a2.5,2.5,0,0,1,2.5-2.5h10.692Zm72.442-13.191h10.7a2.5,2.5,0,0,1,2.5,2.5v10.7Z" transform="translate(-775.166 -185.549)" fill="#fff" stroke="rgba(0,0,0,0)" stroke-width="1"/>
    <path id="Path_4333" data-name="Path 4333" d="M1309.817,3644.1a4.545,4.545,0,0,0,1.191-7.4,1.546,1.546,0,0,1-.338-1.762,4.543,4.543,0,0,0-3.84-6.429,1.547,1.547,0,0,1-1.392-1.134,4.544,4.544,0,0,0-7.074-2.457,1.551,1.551,0,0,1-1.8.026,4.544,4.544,0,0,0-7,2.665,1.545,1.545,0,0,1-1.358,1.174,4.545,4.545,0,0,0-3.648,6.542,1.548,1.548,0,0,1-.285,1.771,4.544,4.544,0,0,0,1.409,7.355,1.548,1.548,0,0,1,.92,1.541,4.53,4.53,0,0,0,3.764,4.842v13.523a2.476,2.476,0,0,0,4.226,1.751l3.265-3.264,3.33,3.329a2.476,2.476,0,0,0,4.227-1.749V3650.6a4.537,4.537,0,0,0,3.522-4.932A1.549,1.549,0,0,1,1309.817,3644.1Zm-10.2,16.257a2.481,2.481,0,0,0-3.5,0l-2.741,2.742v-12.342a1.538,1.538,0,0,1,.74.558,4.54,4.54,0,0,0,3.706,1.914h.068a4.544,4.544,0,0,0,3.715-2.025,1.527,1.527,0,0,1,.821-.6v12.565Zm8.919-18.967a4.547,4.547,0,0,0-2.57,4.609,1.546,1.546,0,0,1-1.928,1.665,4.543,4.543,0,0,0-4.93,1.878,1.523,1.523,0,0,1-1.264.688,1.672,1.672,0,0,1-1.284-.651,4.548,4.548,0,0,0-4.984-1.731,1.546,1.546,0,0,1-1.975-1.609,4.546,4.546,0,0,0-2.705-4.529,1.545,1.545,0,0,1-.479-2.5,4.547,4.547,0,0,0,.838-5.209,1.547,1.547,0,0,1,1.241-2.225,4.544,4.544,0,0,0,3.992-3.451,1.546,1.546,0,0,1,2.381-.907,4.546,4.546,0,0,0,5.276-.077,1.546,1.546,0,0,1,2.406.836,4.543,4.543,0,0,0,4.091,3.331,1.546,1.546,0,0,1,1.307,2.187,4.544,4.544,0,0,0,.992,5.182,1.546,1.546,0,0,1-.405,2.515Z" transform="translate(-775.166 -185.549)" fill="#fff" stroke="rgba(0,0,0,0)" stroke-width="1"/>
    <path id="Path_4334" data-name="Path 4334" d="M1297.9,3631.793a7.057,7.057,0,1,0,7.056,7.057A7.065,7.065,0,0,0,1297.9,3631.793Zm0,11.114a4.057,4.057,0,1,1,4.057-4.057A4.062,4.062,0,0,1,1297.9,3642.907Z" transform="translate(-775.166 -185.549)" fill="#fff" stroke="rgba(0,0,0,0)" stroke-width="1"/>
    <rect id="Rectangle_2429" data-name="Rectangle 2429" width="50.041" height="3" transform="translate(522.4 3422.528)" fill="#fff" stroke="rgba(0,0,0,0)" stroke-width="1"/>
    <rect id="Rectangle_2430" data-name="Rectangle 2430" width="34.147" height="3" transform="translate(538.294 3433.87)" fill="#fff" stroke="rgba(0,0,0,0)" stroke-width="1"/>
    <rect id="Rectangle_2431" data-name="Rectangle 2431" width="27.892" height="3" transform="translate(544.549 3445.213)" fill="#fff" stroke="rgba(0,0,0,0)" stroke-width="1"/>
    <rect id="Rectangle_2543" data-name="Rectangle 2543" width="110" height="110" transform="translate(488 3386)" fill="none"/>
  </g>
</svg>
