<svg xmlns="http://www.w3.org/2000/svg" width="110" height="110" viewBox="0 0 110 110">
  <g id="H_4S_1icon_Free" transform="translate(-1321 -3387)">
    <g id="Group_1579" data-name="Group 1579" transform="translate(1333 3399)">
      <path id="Path_4330" data-name="Path 4330" d="M1191.118,3607.531h-1.544l-1.71,3h3.254a2.5,2.5,0,0,1,2.5,2.5v11.386h-13.666l-4.843,8.492h18.509v4.774a2.5,2.5,0,0,1-2.5,2.5h-20.153l-1.71,3h21.863a5.505,5.505,0,0,0,5.5-5.5V3613.03A5.509,5.509,0,0,0,1191.118,3607.531Z" transform="translate(-1130.02 -3581.188)" fill="#fff" stroke="rgba(0,0,0,0)" stroke-width="1"/>
      <path id="Path_4331" data-name="Path 4331" d="M1173.248,3581.188a43.229,43.229,0,1,0,43.228,43.228A43.277,43.277,0,0,0,1173.248,3581.188Zm-40.229,43.228a40.2,40.2,0,0,1,58.346-35.9l-10.839,19.016h-26a5.5,5.5,0,0,0-5.5,5.5v24.652a5.5,5.5,0,0,0,5.5,5.5h5.681l-8.613,15.112A40.22,40.22,0,0,1,1133.019,3624.416Zm28.9,15.765h-7.391a2.5,2.5,0,0,1-2.5-2.5v-4.774h14.035Zm8.986-15.765h-18.876V3613.03a2.5,2.5,0,0,1,2.5-2.5h24.291Zm2.346,40.229a39.975,39.975,0,0,1-19.077-4.821l39.821-69.862a40.22,40.22,0,0,1-20.744,74.683Z" transform="translate(-1130.02 -3581.188)" fill="#fff" stroke="rgba(0,0,0,0)" stroke-width="1"/>
    </g>
    <rect id="Rectangle_2541" data-name="Rectangle 2541" width="110" height="110" transform="translate(1321 3387)" fill="none"/>
  </g>
</svg>
