<svg xmlns="http://www.w3.org/2000/svg" xmlns:xlink="http://www.w3.org/1999/xlink" width="141" height="141" viewBox="0 0 141 141">
  <defs>
    <linearGradient id="linear-gradient" x1="0.5" x2="0.5" y2="1" gradientUnits="objectBoundingBox">
      <stop offset="0" stop-color="#b8965c"/>
      <stop offset="1" stop-color="#dbb476"/>
    </linearGradient>
  </defs>
  <g id="H_5S_5Subject_Seerah" transform="translate(-462 -4672)">
    <circle id="Ellipse_279" data-name="Ellipse 279" cx="70.5" cy="70.5" r="70.5" transform="translate(462 4672)" fill="url(#linear-gradient)"/>
    <g id="Group_1470" data-name="Group 1470" transform="translate(482 4692)">
      <path id="Path_4135" data-name="Path 4135" d="M868.877,4099.587h-7.257a2.556,2.556,0,0,1-3.724,0h-7.257a2.559,2.559,0,0,0-1.63.6,1.822,1.822,0,0,0-1.344-.6H840.9V4084.18a.717.717,0,0,0-1.11-.6l-.817.539c-1.678.018-5.634-.2-7.274-1.36v-1.887a.717.717,0,0,0-1.142-.577l-.633.466c-.005,0-.007.009-.011.012l-17.76,13.169-.158.116a.715.715,0,0,0-.294.579v36.133a2.44,2.44,0,0,0,.689,2.1c1.105,1.11,3.36,1.371,5.239,1.371a22.9,22.9,0,0,0,2.989-.2.324.324,0,0,0,.04-.013.723.723,0,0,0,.156-.052c.024-.011.047-.02.07-.032s.02-.008.029-.014l16.167-10.667v14.154a1.831,1.831,0,0,0,1.829,1.829h8.757a1.818,1.818,0,0,0,1.344-.6,2.553,2.553,0,0,0,1.63.6H857.9a2.558,2.558,0,0,1,3.724,0h7.257a2.581,2.581,0,0,0,2.578-2.579v-34.5A2.582,2.582,0,0,0,868.877,4099.587Zm-39.1-16.931c.006.015.018.028.024.043a2.568,2.568,0,0,0,.257.455c.014.019.029.036.044.055a3.044,3.044,0,0,0,.393.434h0l0,0c1.416,1.278,4.309,1.706,6.382,1.846l-16.56,10.929-.065.042-.145.018-.255.028-.159.015-.367.032-.087.006c-.151.011-.3.021-.461.029l-.032,0a11.147,11.147,0,0,1-4.862-.571c-.061-.031-.126-.06-.181-.094s-.078-.061-.118-.09a1.8,1.8,0,0,1-.163-.128,1.223,1.223,0,0,1-.082-.1,1.155,1.155,0,0,1-.115-.152,1.1,1.1,0,0,1-.047-.121.882.882,0,0,1-.057-.168V4095ZM813.4,4131.861a1.013,1.013,0,0,1-.279-.938.707.707,0,0,0,.008-.1v-33.593c.011.006.024.009.034.015a5.029,5.029,0,0,0,.723.315l.031.009a7.41,7.41,0,0,0,.787.218l.063.015c.264.057.535.1.809.137l.125.018c.259.032.52.053.78.071.058,0,.115.009.173.011.246.014.49.021.73.024l.2,0h.052c.214,0,.421,0,.623-.011l.25-.008c.191-.008.375-.018.549-.028l.188-.013c.17-.013.326-.026.472-.039l.075-.006V4132.7C817.625,4132.921,814.408,4132.872,813.4,4131.861Zm7.831.144v-34.463l18.231-12.033v14.078h-.558a1.831,1.831,0,0,0-1.829,1.828v20.135Zm26.826,5.416a.4.4,0,0,1-.4.4h-8.757a.4.4,0,0,1-.4-.4v-36.006a.4.4,0,0,1,.4-.4h8.757a.4.4,0,0,1,.4.4Zm9.836.395h-7.257a1.147,1.147,0,0,1-1.145-1.146v-34.5a1.147,1.147,0,0,1,1.145-1.146H857.9a1.146,1.146,0,0,1,1.145,1.146v34.5A1.146,1.146,0,0,1,857.9,4137.815Zm12.127-1.146a1.147,1.147,0,0,1-1.145,1.146h-7.257a1.147,1.147,0,0,1-1.146-1.146v-34.5a1.147,1.147,0,0,1,1.146-1.146h7.257a1.147,1.147,0,0,1,1.145,1.146Z" transform="translate(-790.583 -4062.462)" fill="#fff" stroke="#fff" stroke-width="1"/>
      <path id="Path_4148" data-name="Path 4148" d="M833.123,4055.465a50.88,50.88,0,1,0,50.88,50.88A50.937,50.937,0,0,0,833.123,4055.465Zm0,100.327a49.447,49.447,0,1,1,49.447-49.447A49.5,49.5,0,0,1,833.123,4155.792Z" transform="translate(-782.243 -4055.465)" fill="#fff" stroke="#fff" stroke-width="1"/>
    </g>
  </g>
</svg>
