<svg xmlns="http://www.w3.org/2000/svg" xmlns:xlink="http://www.w3.org/1999/xlink" width="141" height="141" viewBox="0 0 141 141">
  <defs>
    <linearGradient id="linear-gradient" x1="0.5" x2="0.5" y2="1" gradientUnits="objectBoundingBox">
      <stop offset="0" stop-color="#b8965c"/>
      <stop offset="1" stop-color="#dbb476"/>
    </linearGradient>
  </defs>
  <g id="H_5S_2Subject_QuraanS" transform="translate(-1318 -4583)">
    <circle id="Ellipse_277" data-name="Ellipse 277" cx="70.5" cy="70.5" r="70.5" transform="translate(1318 4583)" fill="url(#linear-gradient)"/>
    <g id="Group_1467" data-name="Group 1467" transform="translate(1338 4603)">
      <path id="Path_4150" data-name="Path 4150" d="M1454.011,4055.594a50.482,50.482,0,1,0,50.483,50.482A50.539,50.539,0,0,0,1454.011,4055.594Zm0,99.531a49.049,49.049,0,1,1,49.05-49.049A49.1,49.1,0,0,1,1454.011,4155.125Z" transform="translate(-1403.528 -4055.594)" fill="#fff" stroke="#fff" stroke-width="1"/>
      <path id="Path_4151" data-name="Path 4151" d="M1513.572,4101.782a.717.717,0,1,0-1.43.092c.067,1.054,1.667,25.879,2.5,29.951a.717.717,0,0,0,.7.574.691.691,0,0,0,.143-.015.716.716,0,0,0,.559-.845C1515.233,4127.563,1513.588,4102.039,1513.572,4101.782Z" transform="translate(-1434.307 -4068.493)" fill="#fff" stroke="#fff" stroke-width="1"/>
      <path id="Path_4152" data-name="Path 4152" d="M1488.05,4119.3c-.712-7.124-3.749-28.135-3.779-28.346a.716.716,0,0,0-1.417.206c.03.211,3.061,21.191,3.77,28.283.085.846.173,1.655.258,2.43.627,5.749,1.005,9.219-1.667,11.118a2.543,2.543,0,0,1-2.745.2,6.9,6.9,0,0,1-2.9-3.222,7.585,7.585,0,0,0,2.444-3.167,4.953,4.953,0,0,0-.545-4.489c-.352-.559-1.286-2.047-2.472-1.671-1.538.485-1.69,3.993-1.547,6.852a7.6,7.6,0,0,0,.38,1.967,17.122,17.122,0,0,1-4.369,1.987c-4.012,1.233-6.519,3.989-9.423,7.181a61.2,61.2,0,0,1-5.041,5.1c-1.46,1.278-2.1.733-2.345.528-.985-.837-1.557-3.13-1.7-5.733,5.547-1.31,9.565-4.606,11.105-7,.856-1.323,1.066-2.476.608-3.329a34.318,34.318,0,0,1-2.12-5.968.717.717,0,1,0-1.379.393,37.561,37.561,0,0,0,2.235,6.251c.139.259.079.906-.548,1.876-1.462,2.266-5.137,5.066-9.938,6.288.014-2.9.531-5.917,1.569-7.584a.716.716,0,1,0-1.216-.757c-1.179,1.893-1.808,5.337-1.789,8.651a19.441,19.441,0,0,1-4.745.271c-2.941-.2-4.91-1.1-5.853-2.686-1.585-2.664.147-6.508.164-6.545a.71.71,0,0,0-.1-.748,20.992,20.992,0,0,1,10.189-4.87c5.622-1.054,6.619-5.521,6.736-7.948,1.927,1.471,3.634,2.724,4.876,3.53a17.738,17.738,0,0,0,3.582,1.824c.25,2.9.469,5.5.625,7.395a.717.717,0,0,0,.713.657l.06,0a.716.716,0,0,0,.655-.773c-.148-1.772-.349-4.172-.579-6.854a7.974,7.974,0,0,0,1.67.2,4.606,4.606,0,0,0,2.427-.612c1.013-.618,2.153-2.006,1.838-5.109-.629-6.2-3.145-30.385-3.145-30.385l-1.426.148s2.516,24.179,3.145,30.38c.192,1.9-.2,3.155-1.159,3.742a4.6,4.6,0,0,1-3.481.121c-.669-7.727-1.526-17.137-2.028-20.753a.716.716,0,1,0-1.419.2c.484,3.491,1.306,12.458,1.964,20.04a16.872,16.872,0,0,1-2.662-1.415c-1.459-.946-3.587-2.532-5.971-4.376l-.02-.015c-2.458-1.9-5.188-4.073-7.746-6.11l-.074-.06a6.8,6.8,0,0,1,1.132-.681c3.438-1.553,9.869,1.235,9.933,1.263l.689-1.25c-.047-.032-4.738-3.229-5.732-6.833a9.574,9.574,0,0,1,.4-6.36.717.717,0,0,0-1.276-.654,10.837,10.837,0,0,0-.5,7.395,12.475,12.475,0,0,0,3.344,5.153c-2.322-.6-5.282-1-7.442-.019a8.935,8.935,0,0,0-1.7,1.064c-3.129-2.489-5.775-4.579-7.213-5.583-2.443-1.7-4.649-3.352-4.816-4.768a1.972,1.972,0,0,1,.626-1.538c2.019-2.262,23.5-10.282,26.993-10.1.611.032.7.237.724.3.313.754-.7,3.749-6.493,10.186a.716.716,0,1,0,1.065.958c5.269-5.856,7.541-9.791,6.753-11.693a2.03,2.03,0,0,0-1.974-1.187c-.037,0-.076,0-.117,0-3.745,0-25.587,7.854-28.02,10.579a3.355,3.355,0,0,0-.98,2.659c.235,2.012,2.492,3.735,5.418,5.777,1.364.951,3.99,3.022,6.912,5.348-1.367,1.224-2.829,2.792-4.343,4.426-2.3,2.484-4.686,5.054-6.552,6.091-2.151,1.2-4.116,1.571-5.008.958a1.689,1.689,0,0,1-.5-1.758,8,8,0,0,1,2.026-4.4.717.717,0,0,0-.977-1.049,9.281,9.281,0,0,0-2.468,5.243,3,3,0,0,0,1.1,3.142,3.423,3.423,0,0,0,1.976.545,9.8,9.8,0,0,0,4.54-1.431c2.066-1.148,4.528-3.8,6.907-6.37,1.506-1.624,3.043-3.282,4.427-4.5l.327.261c2.485,1.979,5.132,4.085,7.542,5.952.11,1.286.2,6.558-5.57,7.639-7.2,1.35-10.989,5.145-14.033,8.193l-.274.273a2.827,2.827,0,0,1-3.884.358c-.955-.759-1.63-2.348-.4-4.325a.716.716,0,1,0-1.215-.76c-1.625,2.6-.811,4.991.718,6.207a4.28,4.28,0,0,0,2.639.921,4.407,4.407,0,0,0,3.15-1.388l.275-.274c.451-.451.912-.911,1.39-1.372-.464,1.6-.9,4.261.406,6.465,1.2,2.018,3.549,3.158,6.993,3.39q.735.05,1.45.049a21.1,21.1,0,0,0,3.443-.292c.189,2.867.9,5.437,2.2,6.542a2.543,2.543,0,0,0,1.653.63,3.955,3.955,0,0,0,2.563-1.171,62.974,62.974,0,0,0,5.157-5.216c2.763-3.034,5.148-5.655,8.785-6.774a18.821,18.821,0,0,0,4.509-2.01,8.237,8.237,0,0,0,3.451,3.672,3.98,3.98,0,0,0,4.2-.325c3.358-2.386,2.9-6.6,2.262-12.441C1488.222,4120.951,1488.134,4120.146,1488.05,4119.3Zm-9.166,8.126c-.148-2.952.2-4.933.527-5.371a3.346,3.346,0,0,1,.846,1.024,3.525,3.525,0,0,1,.414,3.228,5.8,5.8,0,0,1-1.621,2.224A5.865,5.865,0,0,1,1478.884,4127.431Z" transform="translate(-1411.473 -4063.149)" fill="#fff" stroke="#fff" stroke-width="1"/>
      <path id="Path_4153" data-name="Path 4153" d="M1498.41,4110.023a.65.65,0,0,0,.081,0,.717.717,0,0,0,.632-.792c-.966-8.574-2.334-22.052-2.347-22.187a.717.717,0,1,0-1.426.144c.014.135,1.382,13.62,2.348,22.2A.717.717,0,0,0,1498.41,4110.023Z" transform="translate(-1429.548 -4064.323)" fill="#fff" stroke="#fff" stroke-width="1"/>
      <path id="Path_4154" data-name="Path 4154" d="M1459.37,4127.164a.721.721,0,0,0-.778.649c-.024.256-.183,2.52,1.337,3.153a.716.716,0,0,0,.937-.386.716.716,0,0,0-.385-.937c-.414-.173-.5-1.194-.461-1.7A.717.717,0,0,0,1459.37,4127.164Z" transform="translate(-1419.127 -4075.875)" fill="#fff" stroke="#fff" stroke-width="1"/>
      <path id="Path_4155" data-name="Path 4155" d="M1455.753,4127.164a.714.714,0,0,0-.779.648c-.023.257-.183,2.52,1.337,3.154a.716.716,0,0,0,.937-.386.716.716,0,0,0-.385-.937c-.413-.173-.5-1.194-.46-1.7A.717.717,0,0,0,1455.753,4127.164Z" transform="translate(-1418.102 -4075.875)" fill="#fff" stroke="#fff" stroke-width="1"/>
      <path id="Path_4156" data-name="Path 4156" d="M1502.321,4130.966a.717.717,0,0,0,.937-.386.716.716,0,0,0-.385-.937c-.413-.173-.5-1.194-.461-1.7a.717.717,0,0,0-1.428-.128C1500.962,4128.069,1500.8,4130.333,1502.321,4130.966Z" transform="translate(-1431.141 -4075.875)" fill="#fff" stroke="#fff" stroke-width="1"/>
      <path id="Path_4157" data-name="Path 4157" d="M1498.146,4127.164a.716.716,0,0,0-.779.648c-.023.257-.183,2.52,1.337,3.154a.725.725,0,0,0,.276.055.717.717,0,0,0,.276-1.378c-.414-.173-.5-1.194-.462-1.7A.716.716,0,0,0,1498.146,4127.164Z" transform="translate(-1430.116 -4075.875)" fill="#fff" stroke="#fff" stroke-width="1"/>
      <path id="Path_4158" data-name="Path 4158" d="M1456.388,4147.253a.712.712,0,0,0-.779.648c-.023.257-.183,2.52,1.336,3.154a.725.725,0,0,0,.276.055.717.717,0,0,0,.276-1.378c-.414-.173-.5-1.194-.461-1.7A.716.716,0,0,0,1456.388,4147.253Z" transform="translate(-1418.282 -4081.568)" fill="#fff" stroke="#fff" stroke-width="1"/>
    </g>
  </g>
</svg>
