<svg xmlns="http://www.w3.org/2000/svg" xmlns:xlink="http://www.w3.org/1999/xlink" width="141" height="141" viewBox="0 0 141 141">
  <defs>
    <linearGradient id="linear-gradient" x1="0.5" x2="0.5" y2="1" gradientUnits="objectBoundingBox">
      <stop offset="0" stop-color="#b8965c"/>
      <stop offset="1" stop-color="#dbb476"/>
    </linearGradient>
  </defs>
  <g id="H_5S_4Subject_ArabicL" transform="translate(-747 -4672)">
    <circle id="Ellipse_278" data-name="Ellipse 278" cx="70.5" cy="70.5" r="70.5" transform="translate(747 4672)" fill="url(#linear-gradient)"/>
    <g id="Group_1469" data-name="Group 1469" transform="translate(767 4692)">
      <path id="Path_4127" data-name="Path 4127" d="M1045.823,4135.939l.055.618a29.16,29.16,0,0,0,2.92-1.01l-.056-.618A27.93,27.93,0,0,1,1045.823,4135.939Z" transform="translate(-1011.549 -4077.983)" fill="#fff" stroke="#fff" stroke-width="1"/>
      <path id="Path_4128" data-name="Path 4128" d="M1045.558,4124.851a2.409,2.409,0,0,0-2.414,2.4,2.514,2.514,0,0,0,.73,1.812l-.211.028c-1.221.167-1.585.574-1.557,1.838l.112,4.435h.969v-4.337c0-.674.154-.7.814-.786l1.516-.183c1.756-.21,2.4-1.038,2.4-2.583A2.471,2.471,0,0,0,1045.558,4124.851Zm.477,3.916-1.052.141a1.93,1.93,0,0,1-.857-1.516,1.294,1.294,0,0,1,1.432-1.292,1.435,1.435,0,0,1,1.376,1.516A1.019,1.019,0,0,1,1046.035,4128.767Z" transform="translate(-1010.495 -4075.128)" fill="#fff" stroke="#fff" stroke-width="1"/>
      <path id="Path_4129" data-name="Path 4129" d="M1078.949,4112.944H1076.4v-21.6a4.064,4.064,0,0,0-4.056-4.063H1048.8a4.068,4.068,0,0,0-4.063,4.063v10.57h-16.611a4.064,4.064,0,0,0-4.056,4.063v23.7a4.061,4.061,0,0,0,4.056,4.057h23.219v6.973a4.068,4.068,0,0,0,4.063,4.063h23.541a4.068,4.068,0,0,0,4.063-4.063v-23.7A4.068,4.068,0,0,0,1078.949,4112.944Zm-32.778-21.6a2.633,2.633,0,0,1,2.63-2.63h23.541a2.63,2.63,0,0,1,2.623,2.63v23.7a2.629,2.629,0,0,1-2.623,2.63H1048.8a2.633,2.633,0,0,1-2.63-2.63v-23.7Zm-18.045,40.955a2.626,2.626,0,0,1-2.623-2.624v-23.7a2.63,2.63,0,0,1,2.623-2.63h16.611v11.694a4.068,4.068,0,0,0,4.063,4.063h2.544V4132.3Zm53.453,8.406a2.633,2.633,0,0,1-2.63,2.63h-23.541a2.633,2.633,0,0,1-2.63-2.63v-21.6h19.564a4.064,4.064,0,0,0,4.056-4.063v-.666h2.551a2.633,2.633,0,0,1,2.63,2.63Z" transform="translate(-1005.385 -4064.481)" fill="#fff" stroke="#fff" stroke-width="1"/>
      <path id="Path_4130" data-name="Path 4130" d="M1085.15,4135.4l.057.616a28.1,28.1,0,0,0,2.924-1.01l-.057-.616A26.848,26.848,0,0,1,1085.15,4135.4Z" transform="translate(-1022.694 -4077.832)" fill="#fff" stroke="#fff" stroke-width="1"/>
      <path id="Path_4131" data-name="Path 4131" d="M1084.668,4147.941c0,.881-.982,1.6-2.5,1.6a2.131,2.131,0,0,1-2.429-2.208,4.272,4.272,0,0,1,.717-2.243l-.717-.452a5.1,5.1,0,0,0-1.068,3c0,1.971,1.326,3.174,3.5,3.174a3.183,3.183,0,0,0,3.483-3.046l.057-9.237H1084.6Z" transform="translate(-1020.858 -4079.005)" fill="#fff" stroke="#fff" stroke-width="1"/>
      <path id="Path_4132" data-name="Path 4132" d="M1074.184,4116.472h.932l.072-12.226H1074.1Z" transform="translate(-1019.564 -4069.289)" fill="#fff" stroke="#fff" stroke-width="1"/>
      <path id="Path_4133" data-name="Path 4133" d="M1072.82,4101.725l2.752-.523-.129-.652-.595.129c-.91-.014-1.412-.337-1.412-.817a.649.649,0,0,1,.724-.631.768.768,0,0,1,.667.373l.394-.244a1.217,1.217,0,0,0-1.118-.8,1.281,1.281,0,0,0-1.225,1.34,1.11,1.11,0,0,0,.667,1.061l-.839.186Z" transform="translate(-1019.167 -4067.677)" fill="#fff" stroke="#fff" stroke-width="1"/>
      <path id="Path_4134" data-name="Path 4134" d="M1048.876,4055.465a50.88,50.88,0,1,0,50.88,50.88A50.938,50.938,0,0,0,1048.876,4055.465Zm0,100.327a49.447,49.447,0,1,1,49.447-49.447A49.5,49.5,0,0,1,1048.876,4155.792Z" transform="translate(-997.996 -4055.465)" fill="#fff" stroke="#fff" stroke-width="1"/>
    </g>
  </g>
</svg>
