<svg xmlns="http://www.w3.org/2000/svg" xmlns:xlink="http://www.w3.org/1999/xlink" width="141" height="141" viewBox="0 0 141 141">
  <defs>
    <linearGradient id="linear-gradient" x1="0.5" x2="0.5" y2="1" gradientUnits="objectBoundingBox">
      <stop offset="0" stop-color="#b8965c"/>
      <stop offset="1" stop-color="#dbb476"/>
    </linearGradient>
  </defs>
  <g id="H_5S_6Subject_FIbadat" transform="translate(-177 -4672)">
    <circle id="Ellipse_280" data-name="Ellipse 280" cx="70.5" cy="70.5" r="70.5" transform="translate(177 4672)" fill="url(#linear-gradient)"/>
    <g id="Group_1471" data-name="Group 1471" transform="translate(197 4692)">
      <path id="Path_4136" data-name="Path 4136" d="M651.753,4097.259a3.767,3.767,0,0,0,3.581-3.92,4.25,4.25,0,0,0-.086-.84c0-.023.007-.044,0-.066-.17-1.685-.426-4.232-3.5-4.232-3.029,0-3.28,2.387-3.459,4.137a4.286,4.286,0,0,0-.121,1A3.766,3.766,0,0,0,651.753,4097.259Zm0-1.105a2.664,2.664,0,0,1-2.474-2.815,3.1,3.1,0,0,1,.194-1.095,2.489,2.489,0,0,1,2.28-1.72,2.191,2.191,0,0,1,.368.031,2.54,2.54,0,0,1,1.908,1.689v0a3.084,3.084,0,0,1,.2,1.092A2.665,2.665,0,0,1,651.753,4096.154Zm0-6.848a2.1,2.1,0,0,1,1.576.508l-.017-.007c-.029-.016-.059-.026-.089-.04a3.049,3.049,0,0,0-.327-.14c-.088-.032-.178-.057-.268-.082-.042-.011-.083-.022-.125-.031a3.34,3.34,0,0,0-.751-.1,3.3,3.3,0,0,0-.787.105l-.1.026c-.092.026-.184.053-.273.087s-.179.072-.265.113c-.049.022-.1.043-.147.068l-.035.016A2.067,2.067,0,0,1,651.753,4089.306Z" transform="translate(-588.577 -4063.401)" fill="#fff" stroke="#fff" stroke-width="1"/>
      <path id="Path_4137" data-name="Path 4137" d="M658.547,4108.365c0-.009-.007-.02-.012-.029-2.18-3.677-5.8-3.646-7.97-3.628l-.416,0-.389,0c-2.186-.008-5.809-.033-8,3.641a.743.743,0,0,0-.113.135,19.984,19.984,0,0,0-3.362,10.9c0,2.041.151,3.9,1.713,4.343V4146.1a.712.712,0,0,0,.193.488c.118.127,2.965,3.1,9.955,3.1s9.838-2.969,9.955-3.1a.713.713,0,0,0,.192-.487v-22.418c1.462-.526,1.6-2.328,1.6-4.3a19.758,19.758,0,0,0-.706-5.126A21.255,21.255,0,0,0,658.547,4108.365Zm-1.362.523-.566,7.481-5.3,2.29a3.106,3.106,0,0,0-.451.25v-12.77C652.888,4106.129,655.5,4106.235,657.186,4108.889Zm-7.749-2.749v12.87a3.246,3.246,0,0,0-.6-.353l-5.271-2.287-.553-7.318C644.7,4106.257,647.372,4106.132,649.437,4106.14Zm-7.7,5.062.431,5.709a.716.716,0,0,0,.429.6l5.667,2.458a1.681,1.681,0,0,1,.746.629,1.706,1.706,0,0,1-1.684,2.628c-3.549-.543-5.717-.819-6.443-.819l-.13-.006c-.53-.025-1.031-.05-1.031-3.018A18.142,18.142,0,0,1,641.738,4111.2Zm8.412,37.051c-5.348,0-8.012-1.878-8.714-2.466v-21.909c.76.067,2.346.259,5.673.768a1.877,1.877,0,0,1,3.423-.713,3.123,3.123,0,0,0,2.032.751,3.085,3.085,0,0,0,.482-.038c3.519-.533,5.1-.719,5.819-.777v21.918C658.16,4146.376,655.5,4148.252,650.15,4148.252Zm9.31-25.846a1.115,1.115,0,0,1-.152,0c-.728,0-2.908.275-6.481.819a1.687,1.687,0,0,1-1.364-.386,1.711,1.711,0,0,1-.6-1.3,1.732,1.732,0,0,1,.281-.936,1.758,1.758,0,0,1,.748-.635l5.69-2.458a.716.716,0,0,0,.431-.6l.44-5.812a19.518,19.518,0,0,1,1.35,3.54,18.229,18.229,0,0,1,.656,4.749C660.462,4122.311,659.958,4122.358,659.46,4122.406Z" transform="translate(-586.836 -4069.419)" fill="#fff" stroke="#fff" stroke-width="1"/>
      <path id="Path_4138" data-name="Path 4138" d="M621.84,4096.025a10.656,10.656,0,0,1-2.547-4.081,11.58,11.58,0,0,0-4.207-5.676,3.876,3.876,0,0,0-4.4-.041c-2.463,1.445-3.23,3.392-3.971,5.274a8.935,8.935,0,0,1-2.71,4.214c-3.523,2.791-3.894,9.513-4.116,13.528-.027.492-.052.946-.08,1.35-.118,1.708.938,3.4,2.96,4.8v18.456a.718.718,0,0,0,.192.489c.115.123,2.878,3,9.664,3s9.546-2.88,9.66-3a.719.719,0,0,0,.192-.489v-18.139c2.345-1.463,3.573-3.266,3.442-5.119l-.049-.742C625.616,4105.9,625.186,4099.279,621.84,4096.025Zm-.794,37.511c-.692.576-3.265,2.374-8.419,2.374s-7.734-1.8-8.422-2.374v-17.271c.321.167.654.323,1,.472.08.034.164.064.245.1.282.116.567.229.86.333.133.047.269.089.4.133.249.082.5.162.754.233.152.042.3.082.458.122q.37.1.745.177c.159.035.318.068.478.1.255.048.511.091.769.13.156.023.311.049.468.068.279.036.56.063.841.086.135.012.269.028.4.037.414.026.829.042,1.242.042.381,0,.765-.014,1.15-.038.125-.008.249-.021.375-.032.262-.021.522-.045.784-.076.147-.019.293-.041.44-.061.24-.035.479-.072.718-.115.152-.027.3-.057.453-.087.235-.047.469-.1.7-.156.146-.036.292-.07.436-.108.242-.063.479-.133.715-.205.129-.04.259-.076.386-.119.279-.091.551-.19.82-.293.079-.03.161-.057.239-.087.328-.131.649-.269.96-.416Zm3.445-22.842c.1,1.353-1.03,2.813-3.088,4.006a17.831,17.831,0,0,1-10.962,1.992,16.708,16.708,0,0,1-6.566-2.271h0c-1.784-1.148-2.72-2.472-2.633-3.727.029-.41.054-.871.082-1.371.209-3.775.558-10.094,3.576-12.484a10.229,10.229,0,0,0,3.152-4.813c.682-1.732,1.326-3.368,3.362-4.563a3.084,3.084,0,0,1,1.546-.458,2.086,2.086,0,0,1,1.268.41,10.25,10.25,0,0,1,3.741,5.075,11.988,11.988,0,0,0,2.872,4.562c2.951,2.87,3.359,9.144,3.6,12.893l.049.748Z" transform="translate(-575.929 -4063.995)" fill="#fff" stroke="#fff" stroke-width="1"/>
      <path id="Path_4139" data-name="Path 4139" d="M614.845,4088.616a3.018,3.018,0,0,0-2.871,3.14,3.34,3.34,0,0,0,.5,1.767,2.731,2.731,0,0,0,4.682.1,3.3,3.3,0,0,0,.563-1.862A3.019,3.019,0,0,0,614.845,4088.616Zm1.524,4.471,0,0a1.831,1.831,0,0,1-1.522.859,1.865,1.865,0,0,1-1.569-.926,2.389,2.389,0,0,1-.355-1.267,1.94,1.94,0,1,1,3.847,0A2.356,2.356,0,0,1,616.369,4093.087Z" transform="translate(-577.905 -4063.248)" fill="#fff" stroke="#fff" stroke-width="1"/>
      <path id="Path_4149" data-name="Path 4149" d="M617.369,4055.465a50.88,50.88,0,1,0,50.88,50.88A50.938,50.938,0,0,0,617.369,4055.465Zm0,100.327a49.447,49.447,0,1,1,49.447-49.447A49.5,49.5,0,0,1,617.369,4155.792Z" transform="translate(-566.489 -4055.465)" fill="#fff" stroke="#fff" stroke-width="1"/>
    </g>
  </g>
</svg>
