<svg id="H_6S_1icon_Certificates" xmlns="http://www.w3.org/2000/svg" width="141.52" height="124.345" viewBox="0 0 141.52 124.345">
  <path id="Path_4379" data-name="Path 4379" d="M388.419,4012.046H259.53a6.319,6.319,0,0,0-6.315,6.309v93.712a6.319,6.319,0,0,0,6.315,6.309h20.832v14.984a2.927,2.927,0,0,0,5,2.071l5.628-5.621a.1.1,0,0,1,.122,0l5.719,5.72a2.931,2.931,0,0,0,5-2.07v-15.083h86.586a6.32,6.32,0,0,0,6.317-6.309v-93.712A6.32,6.32,0,0,0,388.419,4012.046Zm3.475,6.309v23.136L385.5,4035.1v-9.324a4.5,4.5,0,0,0-4.49-4.49h-9.325l-6.394-6.395h23.129A3.475,3.475,0,0,1,391.893,4018.355Zm-98.178,84.478a3.236,3.236,0,0,1-2.739,1.462,3.413,3.413,0,0,1-.4-.024,3.227,3.227,0,0,1-1.754-.772,3.327,3.327,0,0,1-.528-.588l-.009-.01a6.062,6.062,0,0,0-.554-.664c-.044-.046-.091-.088-.136-.133a6.077,6.077,0,0,0-.57-.5c-.026-.021-.053-.042-.08-.061a6.123,6.123,0,0,0-3.648-1.217c-.031,0-.061.006-.092.006v-.15l-1.444.35c-.049.013-.1.018-.148.031h-.005l-.009,0c-.042.01-.087.022-.141.039l-.023,0a3.5,3.5,0,0,1-.8.1,3.3,3.3,0,0,1-2.418-1.071,3.27,3.27,0,0,1-.852-2.526c.008-.153.016-.306.016-.46a6.144,6.144,0,0,0-3.667-5.615,3.29,3.29,0,0,1-1.022-5.32,6.079,6.079,0,0,0,1.747-3.708q.03-.3.03-.6a6.143,6.143,0,0,0-.641-2.716,3.234,3.234,0,0,1-.347-1.454,3.275,3.275,0,0,1,2.987-3.275,6.087,6.087,0,0,0,3.434-1.468,6.165,6.165,0,0,0,1.952-3.192,3.285,3.285,0,0,1,5.066-1.922,6.13,6.13,0,0,0,7.111-.109,3.287,3.287,0,0,1,5.121,1.778,6.047,6.047,0,0,0,2.041,3.128,6.158,6.158,0,0,0,3.481,1.37,3.3,3.3,0,0,1,3.081,3.278,3.222,3.222,0,0,1-.3,1.366,6.067,6.067,0,0,0-.521,1.892,6.43,6.43,0,0,0-.035.664,5.681,5.681,0,0,0,.168,1.391,6.148,6.148,0,0,0,1.728,3.046,3.293,3.293,0,0,1-.858,5.353,6.144,6.144,0,0,0-3.509,5.542,5.611,5.611,0,0,0,.038.686,3.152,3.152,0,0,1,.018.365,3.3,3.3,0,0,1-2.424,3.159h0a3.246,3.246,0,0,1-.674.107l-.028,0a3.333,3.333,0,0,1-.692-.042l-.018,0-.023,0c-.085-.014-.171-.032-.259-.055a6.079,6.079,0,0,0-1.044-.17l-.329-.058v.051c-.178-.005-.356-.021-.532-.01A6.121,6.121,0,0,0,293.715,4102.833Zm8.117.384c.038,0,.074-.015.111-.021a5.889,5.889,0,0,0,.684-.122c.041-.01.083-.016.124-.027a6.009,6.009,0,0,0,.77-.261c.062-.025.121-.055.181-.083a5.94,5.94,0,0,0,.568-.292c.067-.039.134-.077.2-.119a6.194,6.194,0,0,0,.672-.483,6.1,6.1,0,0,0,2.184-4.677,5.875,5.875,0,0,0-.038-.7,2.889,2.889,0,0,1-.018-.347,3.284,3.284,0,0,1,1.882-2.972,6.086,6.086,0,0,0,3.259-3.819,6.136,6.136,0,0,0,.2-2.44,6.064,6.064,0,0,0-1.852-3.717h0a3.3,3.3,0,0,1-.722-3.748,6.075,6.075,0,0,0,.529-1.9,6.161,6.161,0,0,0,.036-.659,6.129,6.129,0,0,0-5.731-6.114,3.344,3.344,0,0,1-1.459-.447,3.3,3.3,0,0,1-1.514-1.966c-.046-.166-.1-.329-.157-.489a6.162,6.162,0,0,0-5.768-4.022,6.085,6.085,0,0,0-3.62,1.193,3.352,3.352,0,0,1-2.9.494,3.16,3.16,0,0,1-.914-.432,6.127,6.127,0,0,0-9.444,3.591,3.3,3.3,0,0,1-2.885,2.5,6.111,6.111,0,0,0-4.922,8.823,3.3,3.3,0,0,1,.32,1.079,3.112,3.112,0,0,1,.023.372,3.265,3.265,0,0,1-.956,2.314,6.131,6.131,0,0,0,1.9,9.92,3.3,3.3,0,0,1,1.967,3.013c0,.1-.006.2-.009.27a6.092,6.092,0,0,0,2.045,5.08c.05.045.106.084.158.128.107.088.214.177.326.258.066.047.136.088.2.133.1.069.207.139.314.2.075.043.153.08.23.121.1.055.208.11.315.16.082.037.166.068.249.1.107.042.213.086.321.123.087.029.175.053.264.079.108.031.217.062.327.088.09.02.18.037.271.053.112.021.222.039.335.053.091.012.183.019.275.027.065,0,.129.016.195.019v2.749H266.941a1.65,1.65,0,0,1-1.648-1.648v-68.486l12.04-12.04h93.174l12.15,12.149v68.376a1.651,1.651,0,0,1-1.648,1.648H301.832Zm-36.539-71.071v-6.373a1.65,1.65,0,0,1,1.648-1.648h6.374Zm14.882-10.863,6.394-6.395h74.7l6.394,6.395Zm94.351,2.842h6.483a1.651,1.651,0,0,1,1.648,1.648v6.482Zm-115-9.236h23.02l-6.394,6.395h-9.216a4.5,4.5,0,0,0-4.49,4.49v9.215l-6.394,6.394v-23.026A3.474,3.474,0,0,1,259.53,4014.888Zm0,100.646a3.474,3.474,0,0,1-3.474-3.467V4045.4l6.394-6.394v65.644a4.5,4.5,0,0,0,4.49,4.49h13.422v6.394Zm39.46,17.926c0,.032,0,.058-.055.081a.075.075,0,0,1-.1-.021l-5.719-5.718a2.932,2.932,0,0,0-4.141,0l-5.631,5.624c-.022.021-.037.038-.087.016s-.055-.049-.055-.08v-30.174c.054,0,.109-.009.163-.007h.057a3.456,3.456,0,0,1,.462.052l.018,0a3.321,3.321,0,0,1,.926.324l.044.024a3.437,3.437,0,0,1,.344.218l.095.071a2.992,2.992,0,0,1,.267.234c.03.029.062.056.09.086a3.131,3.131,0,0,1,.3.359,6.047,6.047,0,0,0,5,2.584,6.116,6.116,0,0,0,5.106-2.731,3.321,3.321,0,0,1,.3-.379c.033-.036.07-.069.1-.1.077-.078.156-.153.24-.223.045-.037.091-.071.137-.105.08-.06.163-.115.247-.166.052-.032.1-.062.156-.091.087-.046.176-.087.266-.126.054-.022.107-.047.162-.067a3.037,3.037,0,0,1,.326-.1c.041-.01.081-.025.122-.034a3.466,3.466,0,0,1,.45-.061c.055,0,.109,0,.165,0q.117,0,.234,0v30.506Zm89.428-17.926H301.832v-6.394h79.177a4.5,4.5,0,0,0,4.49-4.49v-65.535l6.394,6.394v66.558A3.475,3.475,0,0,1,388.419,4115.534Z" transform="translate(-253.215 -4012.046)" fill="#471280"/>
  <path id="Path_4380" data-name="Path 4380" d="M302.452,4101.756a10.014,10.014,0,1,0,10.018,10.018A10.029,10.029,0,0,0,302.452,4101.756Zm0,17.187a7.172,7.172,0,1,1,7.177-7.169A7.18,7.18,0,0,1,302.452,4118.942Z" transform="translate(-264.57 -4038.019)" fill="#471280"/>
  <rect id="Rectangle_2460" data-name="Rectangle 2460" width="44.569" height="2.842" transform="translate(48.476 28.516)" fill="#471280"/>
  <rect id="Rectangle_2461" data-name="Rectangle 2461" width="66.178" height="2.842" transform="translate(37.672 41.483)" fill="#471280"/>
  <rect id="Rectangle_2462" data-name="Rectangle 2462" width="43.498" height="2.842" transform="translate(60.352 56.607)" fill="#471280"/>
  <rect id="Rectangle_2463" data-name="Rectangle 2463" width="31.854" height="2.842" transform="translate(71.996 67.718)" fill="#471280"/>
</svg>
