<svg xmlns="http://www.w3.org/2000/svg" width="140.651" height="117.752" viewBox="0 0 140.651 117.752">
  <path id="H_6S_2icon_Courses" d="M-153.237,4074.106c-.028-.04-2.743-3.994-2.743-7.763,0-3.414,2.233-6.917,2.681-7.585a1.4,1.4,0,0,0,.268-.521,1.419,1.419,0,0,0-.65-1.6l-24.141-14.207,3.727-2.192a3.9,3.9,0,0,0,1.948-3.4,3.9,3.9,0,0,0-1.947-3.4l-47.411-27.89a3.916,3.916,0,0,0-4,0l-47.415,27.892a3.9,3.9,0,0,0-1.95,3.4,3.9,3.9,0,0,0,1.947,3.4l16.09,9.466-33.106,19.77a.183.183,0,0,0-.016.013,1.354,1.354,0,0,0-.259.2c-.019.02-.035.042-.053.062a1.534,1.534,0,0,0-.106.124c-.133.19-3.255,4.692-3.255,9.344s3.122,9.15,3.255,9.339a1.421,1.421,0,0,0,.443.409l57.086,33.586c.011.007.024.009.036.015a1.317,1.317,0,0,0,.227.1c.036.013.071.03.107.04a1.4,1.4,0,0,0,.329.043l.02,0h.011a1.426,1.426,0,0,0,.324-.043c.036-.008.069-.021.1-.033a1.377,1.377,0,0,0,.227-.1c.021-.011.044-.015.065-.027l77.724-46.415a1.42,1.42,0,0,0,.66-.92A1.42,1.42,0,0,0-153.237,4074.106Zm-93.108-18.227,20.829,12.25a3.922,3.922,0,0,0,2.007.553,3.9,3.9,0,0,0,2-.549l20.836-12.253v14.376c0,4.108-9.588,10.2-22.835,10.2s-22.834-6.094-22.834-10.2Zm-25.688-19.039a1.084,1.084,0,0,1,.546-.949l47.424-27.9a1.084,1.084,0,0,1,1.11,0l47.42,27.894a1.082,1.082,0,0,1,.544.948,1.081,1.081,0,0,1-.544.948h0l-5.8,3.411-.015.006-18.025,10.608a1.343,1.343,0,0,0-.175.034c-.036.008-.072.011-.107.021a1.439,1.439,0,0,0-.324.137l-23.147,13.68a.745.745,0,0,1-.779,0l-23.14-13.677a1.437,1.437,0,0,0-.322-.137c-.039-.011-.078-.015-.118-.023a1.476,1.476,0,0,0-.165-.032l-5.677-3.346c-.011-.006-.023-.009-.034-.015l-18.129-10.667A1.081,1.081,0,0,1-272.033,4036.84Zm22.846,17.368v16.047c0,6.827,12.238,13.044,25.676,13.044s25.677-6.217,25.677-13.044v-16.047l17.21-10.126,23.453,13.8-12.21,7.427-62.752,37.31L-275.684,4077l-10.743-6.32,32.381-19.337Zm-39.025,32.479c-.587-.913-2.578-4.244-2.578-7.465a14.553,14.553,0,0,1,2.056-6.6l15.941,9.376,38.693,22.762-.011.02c-.1.181-.212.383-.323.595-.037.068-.072.14-.11.212q-.133.259-.269.543c-.036.075-.071.146-.107.225-.122.26-.242.531-.361.815-.022.052-.042.106-.064.16-.1.24-.193.488-.284.742-.034.094-.067.187-.1.282q-.132.385-.249.788c-.02.066-.041.131-.06.2q-.136.494-.242,1c-.018.086-.031.173-.048.26-.05.269-.092.54-.126.813-.012.1-.025.2-.035.306-.035.357-.059.716-.059,1.076a10.989,10.989,0,0,0,.066,1.137c.01.1.021.195.033.293.043.336.1.668.163,1,.007.037.012.074.02.11.077.363.17.717.27,1.065.026.09.053.177.08.265q.135.444.287.866c.013.036.023.075.036.11Zm56.561,32.7c-.013-.021-.026-.046-.038-.069-.075-.135-.154-.28-.235-.435-.028-.053-.057-.108-.085-.164-.087-.167-.174-.344-.263-.529-.017-.036-.035-.069-.052-.107-.1-.22-.207-.451-.308-.69-.024-.058-.048-.118-.072-.177-.077-.188-.153-.383-.226-.581l-.083-.229q-.123-.351-.231-.715c-.009-.03-.019-.061-.028-.092-.077-.27-.144-.545-.2-.822-.016-.076-.03-.153-.045-.23-.04-.212-.075-.425-.1-.64-.011-.083-.023-.167-.031-.251a8.451,8.451,0,0,1-.049-.857c0-.22.011-.438.028-.659.006-.072.016-.145.023-.216.016-.148.033-.3.055-.445.013-.083.028-.165.043-.248.023-.137.049-.273.078-.409.018-.084.037-.168.057-.251.032-.135.067-.27.1-.4.021-.079.043-.157.065-.235.041-.142.085-.282.131-.421.021-.065.042-.131.064-.2.067-.2.136-.392.21-.579l0-.012c.075-.2.153-.385.232-.57.024-.057.049-.111.073-.167.055-.125.111-.25.167-.371.029-.063.058-.125.088-.187.051-.107.1-.213.153-.314l.09-.179c.05-.1.1-.193.149-.285.027-.051.055-.1.082-.153.052-.1.1-.186.151-.273l.064-.114c.066-.115.129-.224.187-.321l.006-.009c.061-.1.117-.193.168-.274l.049-.078.065-.1,63.208-37.583,9.985-6.074a13.991,13.991,0,0,0-.894,4.671,17.608,17.608,0,0,0,2.455,8.09Z" transform="translate(293.632 -4004.999)" fill="#471280"/>
</svg>
